<?xml version="1.0" encoding="utf-8" standalone="no"?>
<!DOCTYPE svg PUBLIC "-//W3C//DTD SVG 1.1//EN"
  "http://www.w3.org/Graphics/SVG/1.1/DTD/svg11.dtd">
<!-- Created with matplotlib (https://matplotlib.org/) -->
<svg height="345.6pt" version="1.1" viewBox="0 0 460.8 345.6" width="460.8pt" xmlns="http://www.w3.org/2000/svg" xmlns:xlink="http://www.w3.org/1999/xlink">
 <metadata>
  <rdf:RDF xmlns:cc="http://creativecommons.org/ns#" xmlns:dc="http://purl.org/dc/elements/1.1/" xmlns:rdf="http://www.w3.org/1999/02/22-rdf-syntax-ns#">
   <cc:Work>
    <dc:type rdf:resource="http://purl.org/dc/dcmitype/StillImage"/>
    <dc:date>2023-01-16T14:11:09.498229</dc:date>
    <dc:format>image/svg+xml</dc:format>
    <dc:creator>
     <cc:Agent>
      <dc:title>Matplotlib v3.3.3, https://matplotlib.org/</dc:title>
     </cc:Agent>
    </dc:creator>
   </cc:Work>
  </rdf:RDF>
 </metadata>
 <defs>
  <style type="text/css">*{stroke-linecap:butt;stroke-linejoin:round;}</style>
 </defs>
 <g id="figure_1">
  <g id="patch_1">
   <path d="M 0 345.6 
L 460.8 345.6 
L 460.8 0 
L 0 0 
z
" style="fill:#ffffff;"/>
  </g>
  <g id="axes_1">
   <g id="patch_2">
    <path d="M 57.6 307.584 
L 414.72 307.584 
L 414.72 41.472 
L 57.6 41.472 
z
" style="fill:#ffffff;"/>
   </g>
   <g id="matplotlib.axis_1">
    <g id="xtick_1">
     <g id="line2d_1">
      <defs>
       <path d="M 0 0 
L 0 3.5 
" id="m67ca69c1de" style="stroke:#000000;stroke-width:0.8;"/>
      </defs>
      <g>
       <use style="stroke:#000000;stroke-width:0.8;" x="106.298182" xlink:href="#m67ca69c1de" y="307.584"/>
      </g>
     </g>
     <g id="text_1">
      <!-- -4 -->
      <g transform="translate(101.298182 321.459)scale(0.1 -0.1)">
       <defs>
        <path d="M 46.484375 33.203125 
L 1.953125 33.203125 
L 1.953125 39.453125 
L 46.484375 39.453125 
z
" id="SimHei-45"/>
        <path d="M 31.25 17.1875 
L 1.171875 17.1875 
L 1.171875 23.828125 
L 32.8125 69.53125 
L 38.671875 69.53125 
L 38.671875 23.828125 
L 48.046875 23.828125 
L 48.046875 17.1875 
L 38.671875 17.1875 
L 38.671875 2.34375 
L 31.25 2.34375 
z
M 31.25 23.828125 
L 31.25 54.6875 
L 9.375 23.828125 
z
" id="SimHei-52"/>
       </defs>
       <use xlink:href="#SimHei-45"/>
       <use x="50" xlink:href="#SimHei-52"/>
      </g>
     </g>
    </g>
    <g id="xtick_2">
     <g id="line2d_2">
      <g>
       <use style="stroke:#000000;stroke-width:0.8;" x="171.229091" xlink:href="#m67ca69c1de" y="307.584"/>
      </g>
     </g>
     <g id="text_2">
      <!-- -2 -->
      <g transform="translate(166.229091 321.459)scale(0.1 -0.1)">
       <defs>
        <path d="M 4.6875 3.90625 
Q 5.078125 9.765625 10.15625 14.453125 
Q 15.234375 19.140625 23.046875 29.09375 
Q 30.859375 39.0625 33.203125 44.53125 
Q 35.546875 50 34.953125 53.90625 
Q 34.375 57.8125 31.25 60.34375 
Q 28.125 62.890625 24.015625 62.5 
Q 19.921875 62.109375 16.203125 59.375 
Q 12.5 56.640625 10.546875 51.171875 
L 3.125 52.34375 
Q 6.25 61.328125 11.125 65.421875 
Q 16.015625 69.53125 22.65625 69.921875 
Q 26.5625 70.3125 29.6875 69.71875 
Q 32.8125 69.140625 36.125 66.984375 
Q 39.453125 64.84375 41.59375 60.546875 
Q 43.75 56.25 43.15625 50.1875 
Q 42.578125 44.140625 37.109375 35.734375 
Q 31.640625 27.34375 16.015625 9.375 
L 44.140625 9.375 
L 44.140625 2.34375 
L 4.6875 2.34375 
z
" id="SimHei-50"/>
       </defs>
       <use xlink:href="#SimHei-45"/>
       <use x="50" xlink:href="#SimHei-50"/>
      </g>
     </g>
    </g>
    <g id="xtick_3">
     <g id="line2d_3">
      <g>
       <use style="stroke:#000000;stroke-width:0.8;" x="236.16" xlink:href="#m67ca69c1de" y="307.584"/>
      </g>
     </g>
     <g id="text_3">
      <!-- 0 -->
      <g transform="translate(233.66 321.459)scale(0.1 -0.1)">
       <defs>
        <path d="M 3.125 29.296875 
Q 3.90625 50 6.4375 56.046875 
Q 8.984375 62.109375 13.671875 66.015625 
Q 18.359375 69.921875 25.1875 69.921875 
Q 32.03125 69.921875 37.109375 64.25 
Q 42.1875 58.59375 43.75 50 
Q 45.3125 41.40625 44.71875 30.265625 
Q 44.140625 19.140625 40.8125 12.109375 
Q 37.5 5.078125 30.859375 2.34375 
Q 24.21875 -0.390625 17.578125 2.921875 
Q 10.9375 6.25 8.203125 11.71875 
Q 5.46875 17.1875 4.296875 23.234375 
Q 3.125 29.296875 3.90625 50 
z
M 12.890625 52.734375 
Q 10.546875 31.25 12.5 22.84375 
Q 14.453125 14.453125 18.9375 10.9375 
Q 23.4375 7.421875 28.125 9.5625 
Q 32.8125 11.71875 34.953125 18.15625 
Q 37.109375 24.609375 37.109375 32.21875 
Q 37.109375 39.84375 36.515625 46.09375 
Q 35.9375 52.34375 33 57.421875 
Q 30.078125 62.5 25.1875 62.6875 
Q 20.3125 62.890625 16.59375 57.8125 
Q 12.890625 52.734375 10.546875 31.25 
z
" id="SimHei-48"/>
       </defs>
       <use xlink:href="#SimHei-48"/>
      </g>
     </g>
    </g>
    <g id="xtick_4">
     <g id="line2d_4">
      <g>
       <use style="stroke:#000000;stroke-width:0.8;" x="301.090909" xlink:href="#m67ca69c1de" y="307.584"/>
      </g>
     </g>
     <g id="text_4">
      <!-- 2 -->
      <g transform="translate(298.590909 321.459)scale(0.1 -0.1)">
       <use xlink:href="#SimHei-50"/>
      </g>
     </g>
    </g>
    <g id="xtick_5">
     <g id="line2d_5">
      <g>
       <use style="stroke:#000000;stroke-width:0.8;" x="366.021818" xlink:href="#m67ca69c1de" y="307.584"/>
      </g>
     </g>
     <g id="text_5">
      <!-- 4 -->
      <g transform="translate(363.521818 321.459)scale(0.1 -0.1)">
       <use xlink:href="#SimHei-52"/>
      </g>
     </g>
    </g>
    <g id="text_6">
     <!-- x -->
     <g transform="translate(233.66 333.584)scale(0.1 -0.1)">
      <defs>
       <path d="M 44.921875 1.953125 
L 35.546875 1.953125 
L 24.21875 18.75 
L 12.890625 1.953125 
L 3.515625 1.953125 
L 19.53125 24.21875 
L 4.6875 45.703125 
L 14.0625 45.703125 
L 24.21875 29.296875 
L 34.375 45.703125 
L 43.75 45.703125 
L 28.90625 24.21875 
z
" id="SimHei-120"/>
      </defs>
      <use xlink:href="#SimHei-120"/>
     </g>
    </g>
   </g>
   <g id="matplotlib.axis_2">
    <g id="ytick_1">
     <g id="line2d_6">
      <defs>
       <path d="M 0 0 
L -3.5 0 
" id="mad8bfe5e21" style="stroke:#000000;stroke-width:0.8;"/>
      </defs>
      <g>
       <use style="stroke:#000000;stroke-width:0.8;" x="57.6" xlink:href="#mad8bfe5e21" y="305.1648"/>
      </g>
     </g>
     <g id="text_7">
      <!-- 0.0 -->
      <g transform="translate(35.6 308.6023)scale(0.1 -0.1)">
       <defs>
        <path d="M 16.796875 1.953125 
L 7.8125 1.953125 
L 7.8125 10.546875 
L 16.796875 10.546875 
z
" id="SimHei-46"/>
       </defs>
       <use xlink:href="#SimHei-48"/>
       <use x="50" xlink:href="#SimHei-46"/>
       <use x="100" xlink:href="#SimHei-48"/>
      </g>
     </g>
    </g>
    <g id="ytick_2">
     <g id="line2d_7">
      <g>
       <use style="stroke:#000000;stroke-width:0.8;" x="57.6" xlink:href="#mad8bfe5e21" y="254.84544"/>
      </g>
     </g>
     <g id="text_8">
      <!-- 0.2 -->
      <g transform="translate(35.6 258.28294)scale(0.1 -0.1)">
       <use xlink:href="#SimHei-48"/>
       <use x="50" xlink:href="#SimHei-46"/>
       <use x="100" xlink:href="#SimHei-50"/>
      </g>
     </g>
    </g>
    <g id="ytick_3">
     <g id="line2d_8">
      <g>
       <use style="stroke:#000000;stroke-width:0.8;" x="57.6" xlink:href="#mad8bfe5e21" y="204.52608"/>
      </g>
     </g>
     <g id="text_9">
      <!-- 0.4 -->
      <g transform="translate(35.6 207.96358)scale(0.1 -0.1)">
       <use xlink:href="#SimHei-48"/>
       <use x="50" xlink:href="#SimHei-46"/>
       <use x="100" xlink:href="#SimHei-52"/>
      </g>
     </g>
    </g>
    <g id="ytick_4">
     <g id="line2d_9">
      <g>
       <use style="stroke:#000000;stroke-width:0.8;" x="57.6" xlink:href="#mad8bfe5e21" y="154.20672"/>
      </g>
     </g>
     <g id="text_10">
      <!-- 0.6 -->
      <g transform="translate(35.6 157.64422)scale(0.1 -0.1)">
       <defs>
        <path d="M 3.515625 19.53125 
Q 4.296875 30.859375 6.046875 34.765625 
Q 7.8125 38.671875 11.328125 44.53125 
L 27.34375 69.53125 
L 36.328125 69.53125 
L 19.921875 43.75 
Q 30.46875 46.484375 36.71875 42.96875 
Q 42.96875 39.453125 45.109375 34.953125 
Q 47.265625 30.46875 47.453125 25.1875 
Q 47.65625 19.921875 45.890625 14.84375 
Q 44.140625 9.765625 39.640625 5.65625 
Q 35.15625 1.5625 27.140625 1.171875 
Q 19.140625 0.78125 13.46875 4.09375 
Q 7.8125 7.421875 5.65625 13.46875 
Q 3.515625 19.53125 4.296875 30.859375 
z
M 12.5 16.015625 
Q 19.53125 8.59375 25.390625 8.203125 
Q 31.25 7.8125 35.15625 12.109375 
Q 39.0625 16.40625 39.0625 24.609375 
Q 39.0625 32.8125 34.171875 35.9375 
Q 29.296875 39.0625 23.234375 38.28125 
Q 17.1875 37.5 14.453125 32.421875 
Q 11.71875 27.34375 12.109375 21.671875 
Q 12.5 16.015625 19.53125 8.59375 
z
" id="SimHei-54"/>
       </defs>
       <use xlink:href="#SimHei-48"/>
       <use x="50" xlink:href="#SimHei-46"/>
       <use x="100" xlink:href="#SimHei-54"/>
      </g>
     </g>
    </g>
    <g id="ytick_5">
     <g id="line2d_10">
      <g>
       <use style="stroke:#000000;stroke-width:0.8;" x="57.6" xlink:href="#mad8bfe5e21" y="103.88736"/>
      </g>
     </g>
     <g id="text_11">
      <!-- 0.8 -->
      <g transform="translate(35.6 107.32486)scale(0.1 -0.1)">
       <defs>
        <path d="M 2.734375 16.796875 
Q 2.734375 26.171875 5.078125 30.65625 
Q 7.421875 35.15625 12.890625 37.890625 
Q 8.203125 40.625 6.640625 43.9375 
Q 5.078125 47.265625 4.875 51.5625 
Q 4.6875 55.859375 6.046875 58.984375 
Q 7.421875 62.109375 10.15625 64.84375 
Q 12.890625 67.578125 16.203125 68.546875 
Q 19.53125 69.53125 23.4375 69.53125 
Q 27.34375 69.53125 30.46875 68.75 
Q 33.59375 67.96875 37.109375 65.421875 
Q 40.625 62.890625 42.1875 58.203125 
Q 43.75 53.515625 41.984375 47.265625 
Q 40.234375 41.015625 32.8125 37.5 
Q 39.453125 35.546875 42.1875 31.4375 
Q 44.921875 27.34375 44.921875 21.484375 
Q 44.921875 15.625 43.15625 12.109375 
Q 41.40625 8.59375 39.25 6.25 
Q 37.109375 3.90625 33.390625 2.53125 
Q 29.6875 1.171875 24.015625 1.171875 
Q 18.359375 1.171875 14.25 2.53125 
Q 10.15625 3.90625 7.421875 6.640625 
Q 4.6875 9.375 3.703125 13.078125 
Q 2.734375 16.796875 2.734375 26.171875 
z
M 10.9375 26.5625 
Q 10.546875 17.1875 12.296875 13.671875 
Q 14.0625 10.15625 18.75 9.171875 
Q 23.4375 8.203125 28.515625 9.375 
Q 33.59375 10.546875 35.546875 14.84375 
Q 37.5 19.140625 36.90625 23.4375 
Q 36.328125 27.734375 32.03125 30.65625 
Q 27.734375 33.59375 22.65625 33.203125 
Q 17.578125 32.8125 14.25 29.6875 
Q 10.9375 26.5625 10.546875 17.1875 
z
M 12.109375 56.25 
Q 12.109375 48.4375 14.84375 44.921875 
Q 17.578125 41.40625 23.4375 41.40625 
Q 29.296875 41.40625 32.21875 44.921875 
Q 35.15625 48.4375 34.953125 53.3125 
Q 34.765625 58.203125 31.4375 60.546875 
Q 28.125 62.890625 22.453125 62.5 
Q 16.796875 62.109375 14.453125 59.171875 
Q 12.109375 56.25 12.109375 48.4375 
z
" id="SimHei-56"/>
       </defs>
       <use xlink:href="#SimHei-48"/>
       <use x="50" xlink:href="#SimHei-46"/>
       <use x="100" xlink:href="#SimHei-56"/>
      </g>
     </g>
    </g>
    <g id="ytick_6">
     <g id="line2d_11">
      <g>
       <use style="stroke:#000000;stroke-width:0.8;" x="57.6" xlink:href="#mad8bfe5e21" y="53.568"/>
      </g>
     </g>
     <g id="text_12">
      <!-- 1.0 -->
      <g transform="translate(35.6 57.0055)scale(0.1 -0.1)">
       <defs>
        <path d="M 21.875 56.25 
Q 16.796875 51.171875 8.984375 46.484375 
L 8.984375 53.90625 
Q 18.75 60.546875 25 69.53125 
L 29.6875 69.53125 
L 29.6875 2.34375 
L 21.875 2.34375 
z
" id="SimHei-49"/>
       </defs>
       <use xlink:href="#SimHei-49"/>
       <use x="50" xlink:href="#SimHei-46"/>
       <use x="100" xlink:href="#SimHei-48"/>
      </g>
     </g>
    </g>
    <g id="text_13">
     <!-- y -->
     <g transform="translate(30.35 177.028)rotate(-90)scale(0.1 -0.1)">
      <defs>
       <path d="M 45.3125 45.703125 
L 27.34375 -1.5625 
Q 25.78125 -7.03125 22.65625 -9.765625 
Q 19.53125 -12.5 14.84375 -12.5 
Q 12.890625 -12.5 11.125 -12.296875 
Q 9.375 -12.109375 7.8125 -11.328125 
L 7.8125 -3.515625 
Q 9.375 -4.296875 10.9375 -4.6875 
Q 12.5 -5.078125 13.671875 -5.078125 
Q 16.796875 -5.078125 17.96875 -4.09375 
Q 19.140625 -3.125 20.3125 0.390625 
L 3.125 45.703125 
L 11.71875 45.703125 
L 24.21875 11.328125 
L 24.609375 11.328125 
L 36.71875 45.703125 
z
" id="SimHei-121"/>
      </defs>
      <use xlink:href="#SimHei-121"/>
     </g>
    </g>
   </g>
   <g id="line2d_12">
    <path clip-path="url(#pd266648677)" d="M 73.832727 295.488 
L 77.112066 294.938716 
L 80.391405 294.422036 
L 83.670744 293.928294 
L 86.950083 293.447821 
L 90.229421 292.970953 
L 93.50876 292.48802 
L 96.788099 291.989357 
L 100.067438 291.465296 
L 103.346777 290.906171 
L 106.626116 290.302314 
L 109.905455 289.644059 
L 113.184793 288.921738 
L 116.464132 288.125684 
L 119.743471 287.246231 
L 123.02281 286.273712 
L 126.302149 285.198459 
L 129.581488 284.010805 
L 132.860826 282.701085 
L 136.140165 281.259629 
L 139.419504 279.676771 
L 142.698843 277.942521 
L 145.978182 276.046178 
L 149.257521 273.976941 
L 152.53686 271.724012 
L 155.816198 269.276591 
L 159.095537 266.62388 
L 162.374876 263.755079 
L 165.654215 260.65939 
L 168.933554 257.326012 
L 172.212893 253.743445 
L 175.492231 249.845881 
L 178.77157 245.475461 
L 182.050909 240.465406 
L 185.330248 234.64894 
L 188.609587 227.859285 
L 191.888926 219.929664 
L 195.168264 210.693299 
L 198.447603 199.983414 
L 201.726942 187.633232 
L 205.006281 173.484984 
L 208.28562 157.731167 
L 211.564959 141.01928 
L 214.844298 124.027231 
L 218.123636 107.432929 
L 221.402975 91.914281 
L 224.682314 78.149195 
L 227.961653 66.81558 
L 231.240992 58.591345 
L 234.520331 54.154396 
L 237.799669 54.154396 
L 241.079008 58.591345 
L 244.358347 66.81558 
L 247.637686 78.149195 
L 250.917025 91.914281 
L 254.196364 107.432929 
L 257.475702 124.027231 
L 260.755041 141.01928 
L 264.03438 157.731167 
L 267.313719 173.484984 
L 270.593058 187.633232 
L 273.872397 199.983414 
L 277.151736 210.693299 
L 280.431074 219.929664 
L 283.710413 227.859285 
L 286.989752 234.64894 
L 290.269091 240.465406 
L 293.54843 245.475461 
L 296.827769 249.845881 
L 300.107107 253.743445 
L 303.386446 257.326012 
L 306.665785 260.65939 
L 309.945124 263.755079 
L 313.224463 266.62388 
L 316.503802 269.276591 
L 319.78314 271.724012 
L 323.062479 273.976941 
L 326.341818 276.046178 
L 329.621157 277.942521 
L 332.900496 279.676771 
L 336.179835 281.259629 
L 339.459174 282.701085 
L 342.738512 284.010805 
L 346.017851 285.198459 
L 349.29719 286.273712 
L 352.576529 287.246231 
L 355.855868 288.125684 
L 359.135207 288.921738 
L 362.414545 289.644059 
L 365.693884 290.302314 
L 368.973223 290.906171 
L 372.252562 291.465296 
L 375.531901 291.989357 
L 378.81124 292.48802 
L 382.090579 292.970953 
L 385.369917 293.447821 
L 388.649256 293.928294 
L 391.928595 294.422036 
L 395.207934 294.938716 
L 398.487273 295.488 
" style="fill:none;stroke:#1f77b4;stroke-dasharray:5.55,2.4;stroke-dashoffset:0;stroke-width:1.5;"/>
    <defs>
     <path d="M 0 1 
C 0.265203 1 0.51958 0.894634 0.707107 0.707107 
C 0.894634 0.51958 1 0.265203 1 0 
C 1 -0.265203 0.894634 -0.51958 0.707107 -0.707107 
C 0.51958 -0.894634 0.265203 -1 0 -1 
C -0.265203 -1 -0.51958 -0.894634 -0.707107 -0.707107 
C -0.894634 -0.51958 -1 -0.265203 -1 0 
C -1 0.265203 -0.894634 0.51958 -0.707107 0.707107 
C -0.51958 0.894634 -0.265203 1 0 1 
z
" id="mcff93518ca" style="stroke:#1f77b4;"/>
    </defs>
    <g clip-path="url(#pd266648677)">
     <use style="fill:#1f77b4;stroke:#1f77b4;" x="73.832727" xlink:href="#mcff93518ca" y="295.488"/>
     <use style="fill:#1f77b4;stroke:#1f77b4;" x="77.112066" xlink:href="#mcff93518ca" y="294.938716"/>
     <use style="fill:#1f77b4;stroke:#1f77b4;" x="80.391405" xlink:href="#mcff93518ca" y="294.422036"/>
     <use style="fill:#1f77b4;stroke:#1f77b4;" x="83.670744" xlink:href="#mcff93518ca" y="293.928294"/>
     <use style="fill:#1f77b4;stroke:#1f77b4;" x="86.950083" xlink:href="#mcff93518ca" y="293.447821"/>
     <use style="fill:#1f77b4;stroke:#1f77b4;" x="90.229421" xlink:href="#mcff93518ca" y="292.970953"/>
     <use style="fill:#1f77b4;stroke:#1f77b4;" x="93.50876" xlink:href="#mcff93518ca" y="292.48802"/>
     <use style="fill:#1f77b4;stroke:#1f77b4;" x="96.788099" xlink:href="#mcff93518ca" y="291.989357"/>
     <use style="fill:#1f77b4;stroke:#1f77b4;" x="100.067438" xlink:href="#mcff93518ca" y="291.465296"/>
     <use style="fill:#1f77b4;stroke:#1f77b4;" x="103.346777" xlink:href="#mcff93518ca" y="290.906171"/>
     <use style="fill:#1f77b4;stroke:#1f77b4;" x="106.626116" xlink:href="#mcff93518ca" y="290.302314"/>
     <use style="fill:#1f77b4;stroke:#1f77b4;" x="109.905455" xlink:href="#mcff93518ca" y="289.644059"/>
     <use style="fill:#1f77b4;stroke:#1f77b4;" x="113.184793" xlink:href="#mcff93518ca" y="288.921738"/>
     <use style="fill:#1f77b4;stroke:#1f77b4;" x="116.464132" xlink:href="#mcff93518ca" y="288.125684"/>
     <use style="fill:#1f77b4;stroke:#1f77b4;" x="119.743471" xlink:href="#mcff93518ca" y="287.246231"/>
     <use style="fill:#1f77b4;stroke:#1f77b4;" x="123.02281" xlink:href="#mcff93518ca" y="286.273712"/>
     <use style="fill:#1f77b4;stroke:#1f77b4;" x="126.302149" xlink:href="#mcff93518ca" y="285.198459"/>
     <use style="fill:#1f77b4;stroke:#1f77b4;" x="129.581488" xlink:href="#mcff93518ca" y="284.010805"/>
     <use style="fill:#1f77b4;stroke:#1f77b4;" x="132.860826" xlink:href="#mcff93518ca" y="282.701085"/>
     <use style="fill:#1f77b4;stroke:#1f77b4;" x="136.140165" xlink:href="#mcff93518ca" y="281.259629"/>
     <use style="fill:#1f77b4;stroke:#1f77b4;" x="139.419504" xlink:href="#mcff93518ca" y="279.676771"/>
     <use style="fill:#1f77b4;stroke:#1f77b4;" x="142.698843" xlink:href="#mcff93518ca" y="277.942521"/>
     <use style="fill:#1f77b4;stroke:#1f77b4;" x="145.978182" xlink:href="#mcff93518ca" y="276.046178"/>
     <use style="fill:#1f77b4;stroke:#1f77b4;" x="149.257521" xlink:href="#mcff93518ca" y="273.976941"/>
     <use style="fill:#1f77b4;stroke:#1f77b4;" x="152.53686" xlink:href="#mcff93518ca" y="271.724012"/>
     <use style="fill:#1f77b4;stroke:#1f77b4;" x="155.816198" xlink:href="#mcff93518ca" y="269.276591"/>
     <use style="fill:#1f77b4;stroke:#1f77b4;" x="159.095537" xlink:href="#mcff93518ca" y="266.62388"/>
     <use style="fill:#1f77b4;stroke:#1f77b4;" x="162.374876" xlink:href="#mcff93518ca" y="263.755079"/>
     <use style="fill:#1f77b4;stroke:#1f77b4;" x="165.654215" xlink:href="#mcff93518ca" y="260.65939"/>
     <use style="fill:#1f77b4;stroke:#1f77b4;" x="168.933554" xlink:href="#mcff93518ca" y="257.326012"/>
     <use style="fill:#1f77b4;stroke:#1f77b4;" x="172.212893" xlink:href="#mcff93518ca" y="253.743445"/>
     <use style="fill:#1f77b4;stroke:#1f77b4;" x="175.492231" xlink:href="#mcff93518ca" y="249.845881"/>
     <use style="fill:#1f77b4;stroke:#1f77b4;" x="178.77157" xlink:href="#mcff93518ca" y="245.475461"/>
     <use style="fill:#1f77b4;stroke:#1f77b4;" x="182.050909" xlink:href="#mcff93518ca" y="240.465406"/>
     <use style="fill:#1f77b4;stroke:#1f77b4;" x="185.330248" xlink:href="#mcff93518ca" y="234.64894"/>
     <use style="fill:#1f77b4;stroke:#1f77b4;" x="188.609587" xlink:href="#mcff93518ca" y="227.859285"/>
     <use style="fill:#1f77b4;stroke:#1f77b4;" x="191.888926" xlink:href="#mcff93518ca" y="219.929664"/>
     <use style="fill:#1f77b4;stroke:#1f77b4;" x="195.168264" xlink:href="#mcff93518ca" y="210.693299"/>
     <use style="fill:#1f77b4;stroke:#1f77b4;" x="198.447603" xlink:href="#mcff93518ca" y="199.983414"/>
     <use style="fill:#1f77b4;stroke:#1f77b4;" x="201.726942" xlink:href="#mcff93518ca" y="187.633232"/>
     <use style="fill:#1f77b4;stroke:#1f77b4;" x="205.006281" xlink:href="#mcff93518ca" y="173.484984"/>
     <use style="fill:#1f77b4;stroke:#1f77b4;" x="208.28562" xlink:href="#mcff93518ca" y="157.731167"/>
     <use style="fill:#1f77b4;stroke:#1f77b4;" x="211.564959" xlink:href="#mcff93518ca" y="141.01928"/>
     <use style="fill:#1f77b4;stroke:#1f77b4;" x="214.844298" xlink:href="#mcff93518ca" y="124.027231"/>
     <use style="fill:#1f77b4;stroke:#1f77b4;" x="218.123636" xlink:href="#mcff93518ca" y="107.432929"/>
     <use style="fill:#1f77b4;stroke:#1f77b4;" x="221.402975" xlink:href="#mcff93518ca" y="91.914281"/>
     <use style="fill:#1f77b4;stroke:#1f77b4;" x="224.682314" xlink:href="#mcff93518ca" y="78.149195"/>
     <use style="fill:#1f77b4;stroke:#1f77b4;" x="227.961653" xlink:href="#mcff93518ca" y="66.81558"/>
     <use style="fill:#1f77b4;stroke:#1f77b4;" x="231.240992" xlink:href="#mcff93518ca" y="58.591345"/>
     <use style="fill:#1f77b4;stroke:#1f77b4;" x="234.520331" xlink:href="#mcff93518ca" y="54.154396"/>
     <use style="fill:#1f77b4;stroke:#1f77b4;" x="237.799669" xlink:href="#mcff93518ca" y="54.154396"/>
     <use style="fill:#1f77b4;stroke:#1f77b4;" x="241.079008" xlink:href="#mcff93518ca" y="58.591345"/>
     <use style="fill:#1f77b4;stroke:#1f77b4;" x="244.358347" xlink:href="#mcff93518ca" y="66.81558"/>
     <use style="fill:#1f77b4;stroke:#1f77b4;" x="247.637686" xlink:href="#mcff93518ca" y="78.149195"/>
     <use style="fill:#1f77b4;stroke:#1f77b4;" x="250.917025" xlink:href="#mcff93518ca" y="91.914281"/>
     <use style="fill:#1f77b4;stroke:#1f77b4;" x="254.196364" xlink:href="#mcff93518ca" y="107.432929"/>
     <use style="fill:#1f77b4;stroke:#1f77b4;" x="257.475702" xlink:href="#mcff93518ca" y="124.027231"/>
     <use style="fill:#1f77b4;stroke:#1f77b4;" x="260.755041" xlink:href="#mcff93518ca" y="141.01928"/>
     <use style="fill:#1f77b4;stroke:#1f77b4;" x="264.03438" xlink:href="#mcff93518ca" y="157.731167"/>
     <use style="fill:#1f77b4;stroke:#1f77b4;" x="267.313719" xlink:href="#mcff93518ca" y="173.484984"/>
     <use style="fill:#1f77b4;stroke:#1f77b4;" x="270.593058" xlink:href="#mcff93518ca" y="187.633232"/>
     <use style="fill:#1f77b4;stroke:#1f77b4;" x="273.872397" xlink:href="#mcff93518ca" y="199.983414"/>
     <use style="fill:#1f77b4;stroke:#1f77b4;" x="277.151736" xlink:href="#mcff93518ca" y="210.693299"/>
     <use style="fill:#1f77b4;stroke:#1f77b4;" x="280.431074" xlink:href="#mcff93518ca" y="219.929664"/>
     <use style="fill:#1f77b4;stroke:#1f77b4;" x="283.710413" xlink:href="#mcff93518ca" y="227.859285"/>
     <use style="fill:#1f77b4;stroke:#1f77b4;" x="286.989752" xlink:href="#mcff93518ca" y="234.64894"/>
     <use style="fill:#1f77b4;stroke:#1f77b4;" x="290.269091" xlink:href="#mcff93518ca" y="240.465406"/>
     <use style="fill:#1f77b4;stroke:#1f77b4;" x="293.54843" xlink:href="#mcff93518ca" y="245.475461"/>
     <use style="fill:#1f77b4;stroke:#1f77b4;" x="296.827769" xlink:href="#mcff93518ca" y="249.845881"/>
     <use style="fill:#1f77b4;stroke:#1f77b4;" x="300.107107" xlink:href="#mcff93518ca" y="253.743445"/>
     <use style="fill:#1f77b4;stroke:#1f77b4;" x="303.386446" xlink:href="#mcff93518ca" y="257.326012"/>
     <use style="fill:#1f77b4;stroke:#1f77b4;" x="306.665785" xlink:href="#mcff93518ca" y="260.65939"/>
     <use style="fill:#1f77b4;stroke:#1f77b4;" x="309.945124" xlink:href="#mcff93518ca" y="263.755079"/>
     <use style="fill:#1f77b4;stroke:#1f77b4;" x="313.224463" xlink:href="#mcff93518ca" y="266.62388"/>
     <use style="fill:#1f77b4;stroke:#1f77b4;" x="316.503802" xlink:href="#mcff93518ca" y="269.276591"/>
     <use style="fill:#1f77b4;stroke:#1f77b4;" x="319.78314" xlink:href="#mcff93518ca" y="271.724012"/>
     <use style="fill:#1f77b4;stroke:#1f77b4;" x="323.062479" xlink:href="#mcff93518ca" y="273.976941"/>
     <use style="fill:#1f77b4;stroke:#1f77b4;" x="326.341818" xlink:href="#mcff93518ca" y="276.046178"/>
     <use style="fill:#1f77b4;stroke:#1f77b4;" x="329.621157" xlink:href="#mcff93518ca" y="277.942521"/>
     <use style="fill:#1f77b4;stroke:#1f77b4;" x="332.900496" xlink:href="#mcff93518ca" y="279.676771"/>
     <use style="fill:#1f77b4;stroke:#1f77b4;" x="336.179835" xlink:href="#mcff93518ca" y="281.259629"/>
     <use style="fill:#1f77b4;stroke:#1f77b4;" x="339.459174" xlink:href="#mcff93518ca" y="282.701085"/>
     <use style="fill:#1f77b4;stroke:#1f77b4;" x="342.738512" xlink:href="#mcff93518ca" y="284.010805"/>
     <use style="fill:#1f77b4;stroke:#1f77b4;" x="346.017851" xlink:href="#mcff93518ca" y="285.198459"/>
     <use style="fill:#1f77b4;stroke:#1f77b4;" x="349.29719" xlink:href="#mcff93518ca" y="286.273712"/>
     <use style="fill:#1f77b4;stroke:#1f77b4;" x="352.576529" xlink:href="#mcff93518ca" y="287.246231"/>
     <use style="fill:#1f77b4;stroke:#1f77b4;" x="355.855868" xlink:href="#mcff93518ca" y="288.125684"/>
     <use style="fill:#1f77b4;stroke:#1f77b4;" x="359.135207" xlink:href="#mcff93518ca" y="288.921738"/>
     <use style="fill:#1f77b4;stroke:#1f77b4;" x="362.414545" xlink:href="#mcff93518ca" y="289.644059"/>
     <use style="fill:#1f77b4;stroke:#1f77b4;" x="365.693884" xlink:href="#mcff93518ca" y="290.302314"/>
     <use style="fill:#1f77b4;stroke:#1f77b4;" x="368.973223" xlink:href="#mcff93518ca" y="290.906171"/>
     <use style="fill:#1f77b4;stroke:#1f77b4;" x="372.252562" xlink:href="#mcff93518ca" y="291.465296"/>
     <use style="fill:#1f77b4;stroke:#1f77b4;" x="375.531901" xlink:href="#mcff93518ca" y="291.989357"/>
     <use style="fill:#1f77b4;stroke:#1f77b4;" x="378.81124" xlink:href="#mcff93518ca" y="292.48802"/>
     <use style="fill:#1f77b4;stroke:#1f77b4;" x="382.090579" xlink:href="#mcff93518ca" y="292.970953"/>
     <use style="fill:#1f77b4;stroke:#1f77b4;" x="385.369917" xlink:href="#mcff93518ca" y="293.447821"/>
     <use style="fill:#1f77b4;stroke:#1f77b4;" x="388.649256" xlink:href="#mcff93518ca" y="293.928294"/>
     <use style="fill:#1f77b4;stroke:#1f77b4;" x="391.928595" xlink:href="#mcff93518ca" y="294.422036"/>
     <use style="fill:#1f77b4;stroke:#1f77b4;" x="395.207934" xlink:href="#mcff93518ca" y="294.938716"/>
     <use style="fill:#1f77b4;stroke:#1f77b4;" x="398.487273" xlink:href="#mcff93518ca" y="295.488"/>
    </g>
   </g>
   <g id="line2d_13">
    <defs>
     <path d="M -2.5 2.5 
L 2.5 2.5 
L 2.5 -2.5 
L -2.5 -2.5 
z
" id="mbce6c4fb54" style="stroke:#ff0000;stroke-linejoin:miter;"/>
    </defs>
    <g clip-path="url(#pd266648677)">
     <use style="fill:#ff0000;stroke:#ff0000;stroke-linejoin:miter;" x="73.832727" xlink:href="#mbce6c4fb54" y="295.488"/>
     <use style="fill:#ff0000;stroke:#ff0000;stroke-linejoin:miter;" x="106.298182" xlink:href="#mbce6c4fb54" y="290.364988"/>
     <use style="fill:#ff0000;stroke:#ff0000;stroke-linejoin:miter;" x="138.763636" xlink:href="#mbce6c4fb54" y="280.00512"/>
     <use style="fill:#ff0000;stroke:#ff0000;stroke-linejoin:miter;" x="171.229091" xlink:href="#mbce6c4fb54" y="254.84544"/>
     <use style="fill:#ff0000;stroke:#ff0000;stroke-linejoin:miter;" x="203.694545" xlink:href="#mbce6c4fb54" y="179.3664"/>
     <use style="fill:#ff0000;stroke:#ff0000;stroke-linejoin:miter;" x="236.16" xlink:href="#mbce6c4fb54" y="53.568"/>
     <use style="fill:#ff0000;stroke:#ff0000;stroke-linejoin:miter;" x="268.625455" xlink:href="#mbce6c4fb54" y="179.3664"/>
     <use style="fill:#ff0000;stroke:#ff0000;stroke-linejoin:miter;" x="301.090909" xlink:href="#mbce6c4fb54" y="254.84544"/>
     <use style="fill:#ff0000;stroke:#ff0000;stroke-linejoin:miter;" x="333.556364" xlink:href="#mbce6c4fb54" y="280.00512"/>
     <use style="fill:#ff0000;stroke:#ff0000;stroke-linejoin:miter;" x="366.021818" xlink:href="#mbce6c4fb54" y="290.364988"/>
     <use style="fill:#ff0000;stroke:#ff0000;stroke-linejoin:miter;" x="398.487273" xlink:href="#mbce6c4fb54" y="295.488"/>
    </g>
   </g>
   <g id="patch_3">
    <path d="M 57.6 307.584 
L 57.6 41.472 
" style="fill:none;stroke:#000000;stroke-linecap:square;stroke-linejoin:miter;stroke-width:0.8;"/>
   </g>
   <g id="patch_4">
    <path d="M 414.72 307.584 
L 414.72 41.472 
" style="fill:none;stroke:#000000;stroke-linecap:square;stroke-linejoin:miter;stroke-width:0.8;"/>
   </g>
   <g id="patch_5">
    <path d="M 57.6 307.584 
L 414.72 307.584 
" style="fill:none;stroke:#000000;stroke-linecap:square;stroke-linejoin:miter;stroke-width:0.8;"/>
   </g>
   <g id="patch_6">
    <path d="M 57.6 41.472 
L 414.72 41.472 
" style="fill:none;stroke:#000000;stroke-linecap:square;stroke-linejoin:miter;stroke-width:0.8;"/>
   </g>
   <g id="legend_1">
    <g id="patch_7">
     <path d="M 335.72 77.987625 
L 407.72 77.987625 
Q 409.72 77.987625 409.72 75.987625 
L 409.72 48.472 
Q 409.72 46.472 407.72 46.472 
L 335.72 46.472 
Q 333.72 46.472 333.72 48.472 
L 333.72 75.987625 
Q 333.72 77.987625 335.72 77.987625 
z
" style="fill:#ffffff;opacity:0.8;stroke:#cccccc;stroke-linejoin:miter;"/>
    </g>
    <g id="line2d_14">
     <path d="M 337.72 55.057938 
L 357.72 55.057938 
" style="fill:none;stroke:#1f77b4;stroke-dasharray:5.55,2.4;stroke-dashoffset:0;stroke-width:1.5;"/>
    </g>
    <g id="line2d_15">
     <g>
      <use style="fill:#1f77b4;stroke:#1f77b4;" x="347.72" xlink:href="#mcff93518ca" y="55.057938"/>
     </g>
    </g>
    <g id="text_14">
     <!-- 样条插值 -->
     <g transform="translate(365.72 58.557938)scale(0.1 -0.1)">
      <defs>
       <path d="M 67.96875 62.890625 
Q 71.875 71.484375 75.78125 81.640625 
Q 82.03125 79.296875 83.984375 78.125 
Q 80.46875 73.828125 75.78125 62.890625 
L 77.34375 62.890625 
Q 88.28125 63.28125 92.96875 63.28125 
L 92.96875 56.25 
Q 88.671875 56.640625 80.859375 56.640625 
L 71.09375 56.640625 
L 71.09375 41.40625 
L 77.34375 41.40625 
Q 86.328125 41.796875 90.625 41.796875 
L 90.625 34.765625 
Q 85.546875 35.15625 78.515625 35.15625 
L 71.09375 35.15625 
L 71.09375 19.140625 
L 83.203125 19.140625 
Q 90.625 19.53125 95.3125 19.53125 
L 95.3125 12.5 
Q 91.015625 12.890625 83.203125 12.890625 
L 71.09375 12.890625 
L 71.09375 4.296875 
Q 71.09375 -3.90625 71.484375 -9.375 
L 63.671875 -9.375 
L 63.671875 12.890625 
L 54.296875 12.890625 
Q 46.875 12.890625 39.84375 12.5 
L 39.84375 19.921875 
Q 46.875 19.53125 54.6875 19.140625 
L 63.671875 19.140625 
L 63.671875 35.15625 
L 57.03125 35.15625 
Q 50.390625 35.15625 45.3125 34.765625 
L 45.3125 42.1875 
Q 50 41.796875 57.421875 41.40625 
L 63.671875 41.40625 
L 63.671875 56.640625 
L 54.296875 56.640625 
Q 47.65625 56.640625 42.96875 56.25 
L 42.96875 63.671875 
Q 47.65625 63.28125 54.296875 62.890625 
z
M 20.703125 67.96875 
Q 20.703125 74.609375 20.3125 80.078125 
L 28.515625 80.078125 
Q 28.125 73.828125 28.125 67.96875 
L 28.125 58.59375 
Q 33.203125 58.59375 38.671875 58.984375 
L 38.671875 51.953125 
Q 33.203125 52.34375 28.125 52.34375 
L 28.125 37.890625 
Q 31.25 40.625 32.8125 41.796875 
Q 37.109375 36.328125 42.578125 27.734375 
Q 40.234375 26.5625 35.9375 23.046875 
Q 31.640625 30.859375 28.125 36.71875 
L 28.125 7.421875 
Q 28.125 -0.78125 28.515625 -8.984375 
L 20.3125 -8.984375 
Q 20.703125 -0.390625 20.703125 7.421875 
L 20.703125 35.15625 
Q 14.453125 20.3125 8.203125 11.328125 
Q 6.640625 14.84375 3.515625 18.359375 
Q 14.84375 33.59375 19.140625 52.34375 
Q 12.890625 52.34375 5.46875 51.953125 
L 5.46875 58.984375 
Q 12.890625 58.59375 20.703125 58.59375 
z
M 55.859375 81.25 
Q 59.375 74.609375 61.71875 67.96875 
Q 57.03125 66.40625 55.078125 65.234375 
Q 52.34375 71.875 49.21875 78.125 
Q 53.515625 80.078125 55.859375 81.25 
z
" id="SimHei-26679"/>
       <path d="M 42.1875 79.296875 
Q 40.625 78.125 37.5 73.4375 
L 81.640625 73.4375 
Q 77.734375 67.1875 72.265625 60.546875 
Q 66.796875 53.90625 58.59375 47.65625 
Q 64.0625 44.53125 74.21875 41.984375 
Q 84.375 39.453125 96.875 39.453125 
Q 92.96875 35.546875 92.578125 31.25 
Q 78.125 32.8125 68.546875 35.9375 
Q 58.984375 39.0625 51.171875 44.140625 
Q 39.0625 37.109375 28.703125 33.984375 
Q 18.359375 30.859375 8.984375 28.90625 
Q 7.8125 33.203125 4.296875 35.9375 
Q 19.53125 37.5 29.875 41.015625 
Q 40.234375 44.53125 44.140625 48.046875 
Q 37.5 53.515625 30.078125 62.109375 
Q 25 55.46875 17.96875 48.046875 
Q 14.453125 51.5625 11.328125 52.34375 
Q 19.140625 58.984375 25.390625 67.96875 
Q 31.640625 76.953125 33.203125 82.8125 
Q 39.453125 80.078125 42.1875 79.296875 
z
M 46.09375 27.734375 
Q 46.09375 31.25 45.703125 37.5 
L 54.296875 37.5 
Q 53.90625 30.859375 53.90625 27.734375 
L 70.3125 27.734375 
Q 78.515625 27.734375 86.71875 28.125 
L 86.71875 20.703125 
Q 78.515625 21.09375 70.703125 21.09375 
L 53.90625 21.09375 
L 53.90625 -0.78125 
Q 54.296875 -8.984375 38.28125 -9.765625 
Q 37.109375 -5.859375 34.765625 -1.171875 
Q 46.484375 -2.34375 46.09375 3.125 
L 46.09375 21.09375 
L 28.90625 21.09375 
Q 21.09375 21.09375 12.890625 20.703125 
L 12.890625 28.125 
Q 21.09375 27.734375 28.90625 27.734375 
z
M 51.5625 51.5625 
Q 62.890625 58.984375 67.578125 66.796875 
L 35.15625 66.796875 
Q 42.1875 57.421875 51.5625 51.5625 
z
M 65.625 15.625 
Q 77.34375 8.984375 90.625 0 
Q 88.28125 -2.734375 85.9375 -6.25 
Q 80.46875 -2.34375 74.796875 1.5625 
Q 69.140625 5.46875 61.328125 9.375 
Q 63.671875 12.109375 65.625 15.625 
z
M 37.109375 10.9375 
Q 35.546875 9.375 28.125 3.90625 
Q 20.703125 -1.5625 13.28125 -6.25 
Q 10.9375 -3.125 7.8125 -0.78125 
Q 12.890625 1.5625 20.109375 6.828125 
Q 27.34375 12.109375 30.46875 16.40625 
z
" id="SimHei-26465"/>
       <path d="M 67.96875 52.34375 
L 67.96875 4.296875 
L 83.984375 4.296875 
L 83.984375 18.75 
Q 78.515625 18.75 73.828125 18.359375 
L 73.828125 25.390625 
Q 78.90625 25 83.984375 25 
L 83.984375 36.71875 
Q 77.734375 36.71875 73.4375 36.328125 
L 73.4375 42.96875 
Q 79.6875 42.578125 82.03125 42.578125 
L 91.40625 42.578125 
Q 91.015625 40.234375 91.015625 33.59375 
L 91.015625 -0.390625 
Q 91.015625 -3.515625 91.40625 -9.765625 
L 83.984375 -9.765625 
L 83.984375 -1.953125 
L 45.703125 -1.953125 
L 45.703125 -10.546875 
L 38.671875 -10.546875 
Q 39.0625 -5.46875 39.0625 -1.953125 
L 39.0625 28.515625 
Q 39.0625 36.71875 38.671875 40.234375 
Q 42.96875 41.015625 46.09375 42.1875 
Q 49.21875 43.359375 52.34375 45.703125 
Q 53.90625 41.40625 56.640625 37.890625 
Q 53.515625 37.890625 45.703125 35.9375 
L 45.703125 25 
Q 51.5625 25 56.640625 25.390625 
L 56.640625 18.359375 
Q 51.953125 18.75 45.703125 18.75 
L 45.703125 4.296875 
L 60.9375 4.296875 
L 60.9375 52.34375 
L 49.21875 52.34375 
Q 39.0625 51.953125 35.9375 51.953125 
L 35.9375 59.375 
Q 41.796875 58.984375 47.265625 58.984375 
L 60.9375 58.984375 
L 60.9375 69.140625 
Q 51.953125 68.359375 41.015625 67.1875 
Q 39.84375 71.484375 37.5 74.609375 
Q 50 75 64.453125 76.75 
Q 78.90625 78.515625 85.546875 81.25 
Q 86.71875 77.734375 90.625 72.65625 
Q 85.546875 72.65625 67.96875 69.53125 
L 67.96875 58.984375 
L 85.9375 58.984375 
Q 90.625 58.984375 94.921875 59.375 
L 94.921875 51.953125 
Q 91.796875 52.34375 86.71875 52.34375 
z
M 17.578125 70.3125 
Q 17.578125 76.171875 17.1875 80.859375 
L 25 80.859375 
Q 24.609375 75.78125 24.21875 70.3125 
L 24.21875 60.9375 
Q 29.296875 60.9375 33.203125 61.328125 
L 33.203125 53.90625 
Q 28.90625 54.296875 24.21875 54.296875 
L 24.21875 37.5 
Q 30.078125 39.84375 33.203125 41.796875 
Q 33.203125 37.890625 33.59375 35.15625 
Q 28.515625 32.8125 24.21875 30.46875 
L 24.21875 1.5625 
Q 24.21875 -5.078125 20.5 -6.828125 
Q 16.796875 -8.59375 10.546875 -9.765625 
Q 10.15625 -4.6875 7.421875 -0.390625 
Q 13.28125 -0.390625 15.421875 0.1875 
Q 17.578125 0.78125 17.578125 3.515625 
L 17.578125 27.734375 
Q 14.0625 26.5625 7.421875 22.65625 
Q 5.46875 27.734375 3.515625 30.46875 
Q 10.546875 32.421875 17.578125 35.15625 
L 17.578125 54.296875 
Q 8.203125 54.296875 5.46875 53.515625 
L 5.46875 61.328125 
Q 8.203125 60.9375 17.578125 60.9375 
z
" id="SimHei-25554"/>
       <path d="M 57.421875 69.53125 
L 57.421875 79.6875 
Q 62.109375 79.296875 67.96875 78.90625 
Q 66.015625 76.171875 65.625 69.53125 
L 80.078125 69.53125 
Q 86.71875 69.53125 91.796875 69.921875 
L 91.796875 62.890625 
Q 86.328125 63.28125 80.078125 63.28125 
L 65.234375 63.28125 
L 64.453125 54.6875 
L 84.375 54.6875 
Q 83.984375 50 83.984375 42.1875 
L 83.984375 2.34375 
Q 91.796875 2.34375 95.3125 2.734375 
L 95.3125 -4.296875 
Q 90.234375 -3.90625 81.25 -3.90625 
L 44.53125 -3.90625 
Q 35.546875 -3.90625 29.6875 -4.296875 
L 29.6875 2.734375 
Q 33.203125 2.34375 40.625 2.34375 
L 40.625 42.1875 
Q 40.625 49.609375 40.234375 54.6875 
L 56.25 54.6875 
L 57.03125 63.28125 
L 50 63.28125 
Q 40.234375 63.28125 34.765625 62.890625 
L 34.765625 69.921875 
Q 39.84375 69.53125 50 69.53125 
z
M 34.765625 76.5625 
Q 31.640625 73.046875 25.78125 58.59375 
L 25.78125 7.03125 
Q 25.78125 -1.171875 26.171875 -8.59375 
L 17.96875 -8.59375 
Q 18.359375 -1.953125 18.359375 5.859375 
L 18.359375 46.09375 
Q 13.671875 38.28125 9.765625 33.59375 
Q 6.640625 37.890625 3.90625 40.234375 
Q 7.8125 44.140625 14.640625 55.265625 
Q 21.484375 66.40625 25.390625 80.46875 
Q 30.859375 77.734375 34.765625 76.5625 
z
M 76.953125 41.40625 
L 76.953125 49.21875 
L 48.046875 49.21875 
L 48.046875 41.40625 
z
M 76.953125 2.34375 
L 76.953125 9.765625 
L 48.046875 9.765625 
L 48.046875 2.34375 
z
M 76.953125 15.625 
L 76.953125 22.65625 
L 48.046875 22.65625 
L 48.046875 15.625 
z
M 76.953125 28.515625 
L 76.953125 35.546875 
L 48.046875 35.546875 
L 48.046875 28.515625 
z
" id="SimHei-20540"/>
      </defs>
      <use xlink:href="#SimHei-26679"/>
      <use x="100" xlink:href="#SimHei-26465"/>
      <use x="200" xlink:href="#SimHei-25554"/>
      <use x="300" xlink:href="#SimHei-20540"/>
     </g>
    </g>
    <g id="line2d_16"/>
    <g id="line2d_17">
     <g>
      <use style="fill:#ff0000;stroke:#ff0000;stroke-linejoin:miter;" x="347.72" xlink:href="#mbce6c4fb54" y="69.237625"/>
     </g>
    </g>
    <g id="text_15">
     <!-- 插值节点 -->
     <g transform="translate(365.72 72.737625)scale(0.1 -0.1)">
      <defs>
       <path d="M 65.625 3.125 
Q 64.84375 7.8125 61.71875 12.5 
Q 69.53125 12.5 73.625 13.28125 
Q 77.734375 14.0625 78.125 17.96875 
L 78.90625 39.0625 
L 45.703125 39.0625 
L 45.703125 5.078125 
Q 45.703125 -1.953125 46.09375 -9.375 
L 37.109375 -9.375 
Q 37.890625 -2.34375 37.890625 5.078125 
L 37.890625 39.0625 
L 29.296875 39.0625 
Q 16.40625 39.0625 8.59375 38.671875 
L 8.59375 46.09375 
Q 16.796875 45.703125 25.390625 45.703125 
L 87.890625 45.703125 
Q 86.71875 29.296875 86.328125 19.140625 
Q 85.9375 8.984375 80.46875 6.4375 
Q 75 3.90625 65.625 3.125 
z
M 38.671875 61.71875 
Q 38.671875 54.6875 39.0625 49.609375 
L 30.46875 49.609375 
Q 30.859375 55.46875 30.859375 61.71875 
L 17.578125 61.71875 
Q 12.109375 61.71875 5.46875 60.9375 
L 5.46875 68.75 
Q 12.109375 68.359375 17.578125 68.359375 
L 30.859375 68.359375 
Q 30.859375 75.78125 30.46875 80.859375 
L 39.0625 80.859375 
Q 38.671875 75.78125 38.671875 68.359375 
L 59.375 68.359375 
Q 59.375 76.171875 58.984375 80.859375 
L 67.96875 80.859375 
Q 67.578125 76.171875 67.578125 68.359375 
L 80.078125 68.359375 
Q 87.5 68.359375 93.75 68.75 
L 93.75 61.328125 
Q 87.5 61.71875 80.078125 61.71875 
L 67.578125 61.71875 
Q 67.578125 55.46875 67.96875 49.609375 
L 58.984375 49.609375 
Q 59.375 55.859375 59.375 61.71875 
z
" id="SimHei-33410"/>
       <path d="M 51.953125 81.25 
Q 51.5625 76.953125 51.5625 68.359375 
L 76.5625 68.359375 
Q 82.421875 68.359375 89.453125 68.75 
L 89.453125 61.328125 
Q 82.8125 61.71875 76.5625 61.71875 
L 51.5625 61.71875 
L 51.5625 50.390625 
L 81.640625 50.390625 
Q 81.25 42.1875 81.25 33.59375 
Q 81.25 25.390625 81.640625 18.359375 
L 18.359375 18.359375 
Q 18.75 25.390625 18.75 33.984375 
Q 18.75 42.578125 18.359375 50.390625 
L 43.359375 50.390625 
L 43.359375 70.3125 
Q 43.359375 76.5625 42.96875 81.25 
L 51.953125 81.25 
z
M 73.4375 25 
L 73.4375 43.75 
L 26.953125 43.75 
L 26.953125 25 
z
M 23.4375 11.71875 
Q 16.015625 -3.90625 12.890625 -9.765625 
Q 9.765625 -7.421875 5.078125 -5.859375 
Q 10.15625 0.78125 14.84375 14.453125 
Q 18.75 12.5 23.4375 11.71875 
z
M 83.203125 13.28125 
Q 90.234375 2.34375 94.921875 -5.46875 
Q 92.578125 -6.640625 87.109375 -9.765625 
Q 83.984375 -2.34375 76.5625 8.984375 
Q 80.46875 10.9375 83.203125 13.28125 
z
M 62.109375 -8.984375 
Q 58.984375 -1.5625 53.125 8.984375 
Q 55.859375 10.546875 59.765625 12.890625 
Q 67.96875 -1.171875 69.53125 -5.078125 
Q 65.625 -7.03125 62.109375 -8.984375 
z
M 37.109375 -8.984375 
Q 36.71875 -4.6875 30.859375 8.59375 
Q 34.375 9.765625 37.890625 12.109375 
Q 43.75 -1.171875 45.3125 -5.46875 
Q 41.015625 -7.03125 37.109375 -8.984375 
z
" id="SimHei-28857"/>
      </defs>
      <use xlink:href="#SimHei-25554"/>
      <use x="100" xlink:href="#SimHei-20540"/>
      <use x="200" xlink:href="#SimHei-33410"/>
      <use x="300" xlink:href="#SimHei-28857"/>
     </g>
    </g>
   </g>
  </g>
 </g>
 <defs>
  <clipPath id="pd266648677">
   <rect height="266.112" width="357.12" x="57.6" y="41.472"/>
  </clipPath>
 </defs>
</svg>
