<?xml version="1.0" encoding="utf-8" standalone="no"?>
<!DOCTYPE svg PUBLIC "-//W3C//DTD SVG 1.1//EN"
  "http://www.w3.org/Graphics/SVG/1.1/DTD/svg11.dtd">
<!-- Created with matplotlib (https://matplotlib.org/) -->
<svg height="345.6pt" version="1.1" viewBox="0 0 460.8 345.6" width="460.8pt" xmlns="http://www.w3.org/2000/svg" xmlns:xlink="http://www.w3.org/1999/xlink">
 <metadata>
  <rdf:RDF xmlns:cc="http://creativecommons.org/ns#" xmlns:dc="http://purl.org/dc/elements/1.1/" xmlns:rdf="http://www.w3.org/1999/02/22-rdf-syntax-ns#">
   <cc:Work>
    <dc:type rdf:resource="http://purl.org/dc/dcmitype/StillImage"/>
    <dc:date>2022-12-17T12:16:04.046509</dc:date>
    <dc:format>image/svg+xml</dc:format>
    <dc:creator>
     <cc:Agent>
      <dc:title>Matplotlib v3.3.3, https://matplotlib.org/</dc:title>
     </cc:Agent>
    </dc:creator>
   </cc:Work>
  </rdf:RDF>
 </metadata>
 <defs>
  <style type="text/css">*{stroke-linecap:butt;stroke-linejoin:round;}</style>
 </defs>
 <g id="figure_1">
  <g id="patch_1">
   <path d="M 0 345.6 
L 460.8 345.6 
L 460.8 0 
L 0 0 
z
" style="fill:#ffffff;"/>
  </g>
  <g id="axes_1">
   <g id="patch_2">
    <path d="M 57.6 307.584 
L 414.72 307.584 
L 414.72 41.472 
L 57.6 41.472 
z
" style="fill:#ffffff;"/>
   </g>
   <g id="matplotlib.axis_1">
    <g id="xtick_1">
     <g id="line2d_1">
      <defs>
       <path d="M 0 0 
L 0 3.5 
" id="m1ff5478a37" style="stroke:#000000;stroke-width:0.8;"/>
      </defs>
      <g>
       <use style="stroke:#000000;stroke-width:0.8;" x="106.298182" xlink:href="#m1ff5478a37" y="307.584"/>
      </g>
     </g>
     <g id="text_1">
      <!-- -4 -->
      <g transform="translate(101.298182 321.459)scale(0.1 -0.1)">
       <defs>
        <path d="M 46.484375 33.203125 
L 1.953125 33.203125 
L 1.953125 39.453125 
L 46.484375 39.453125 
z
" id="SimHei-45"/>
        <path d="M 31.25 17.1875 
L 1.171875 17.1875 
L 1.171875 23.828125 
L 32.8125 69.53125 
L 38.671875 69.53125 
L 38.671875 23.828125 
L 48.046875 23.828125 
L 48.046875 17.1875 
L 38.671875 17.1875 
L 38.671875 2.34375 
L 31.25 2.34375 
z
M 31.25 23.828125 
L 31.25 54.6875 
L 9.375 23.828125 
z
" id="SimHei-52"/>
       </defs>
       <use xlink:href="#SimHei-45"/>
       <use x="50" xlink:href="#SimHei-52"/>
      </g>
     </g>
    </g>
    <g id="xtick_2">
     <g id="line2d_2">
      <g>
       <use style="stroke:#000000;stroke-width:0.8;" x="171.229091" xlink:href="#m1ff5478a37" y="307.584"/>
      </g>
     </g>
     <g id="text_2">
      <!-- -2 -->
      <g transform="translate(166.229091 321.459)scale(0.1 -0.1)">
       <defs>
        <path d="M 4.6875 3.90625 
Q 5.078125 9.765625 10.15625 14.453125 
Q 15.234375 19.140625 23.046875 29.09375 
Q 30.859375 39.0625 33.203125 44.53125 
Q 35.546875 50 34.953125 53.90625 
Q 34.375 57.8125 31.25 60.34375 
Q 28.125 62.890625 24.015625 62.5 
Q 19.921875 62.109375 16.203125 59.375 
Q 12.5 56.640625 10.546875 51.171875 
L 3.125 52.34375 
Q 6.25 61.328125 11.125 65.421875 
Q 16.015625 69.53125 22.65625 69.921875 
Q 26.5625 70.3125 29.6875 69.71875 
Q 32.8125 69.140625 36.125 66.984375 
Q 39.453125 64.84375 41.59375 60.546875 
Q 43.75 56.25 43.15625 50.1875 
Q 42.578125 44.140625 37.109375 35.734375 
Q 31.640625 27.34375 16.015625 9.375 
L 44.140625 9.375 
L 44.140625 2.34375 
L 4.6875 2.34375 
z
" id="SimHei-50"/>
       </defs>
       <use xlink:href="#SimHei-45"/>
       <use x="50" xlink:href="#SimHei-50"/>
      </g>
     </g>
    </g>
    <g id="xtick_3">
     <g id="line2d_3">
      <g>
       <use style="stroke:#000000;stroke-width:0.8;" x="236.16" xlink:href="#m1ff5478a37" y="307.584"/>
      </g>
     </g>
     <g id="text_3">
      <!-- 0 -->
      <g transform="translate(233.66 321.459)scale(0.1 -0.1)">
       <defs>
        <path d="M 3.125 29.296875 
Q 3.90625 50 6.4375 56.046875 
Q 8.984375 62.109375 13.671875 66.015625 
Q 18.359375 69.921875 25.1875 69.921875 
Q 32.03125 69.921875 37.109375 64.25 
Q 42.1875 58.59375 43.75 50 
Q 45.3125 41.40625 44.71875 30.265625 
Q 44.140625 19.140625 40.8125 12.109375 
Q 37.5 5.078125 30.859375 2.34375 
Q 24.21875 -0.390625 17.578125 2.921875 
Q 10.9375 6.25 8.203125 11.71875 
Q 5.46875 17.1875 4.296875 23.234375 
Q 3.125 29.296875 3.90625 50 
z
M 12.890625 52.734375 
Q 10.546875 31.25 12.5 22.84375 
Q 14.453125 14.453125 18.9375 10.9375 
Q 23.4375 7.421875 28.125 9.5625 
Q 32.8125 11.71875 34.953125 18.15625 
Q 37.109375 24.609375 37.109375 32.21875 
Q 37.109375 39.84375 36.515625 46.09375 
Q 35.9375 52.34375 33 57.421875 
Q 30.078125 62.5 25.1875 62.6875 
Q 20.3125 62.890625 16.59375 57.8125 
Q 12.890625 52.734375 10.546875 31.25 
z
" id="SimHei-48"/>
       </defs>
       <use xlink:href="#SimHei-48"/>
      </g>
     </g>
    </g>
    <g id="xtick_4">
     <g id="line2d_4">
      <g>
       <use style="stroke:#000000;stroke-width:0.8;" x="301.090909" xlink:href="#m1ff5478a37" y="307.584"/>
      </g>
     </g>
     <g id="text_4">
      <!-- 2 -->
      <g transform="translate(298.590909 321.459)scale(0.1 -0.1)">
       <use xlink:href="#SimHei-50"/>
      </g>
     </g>
    </g>
    <g id="xtick_5">
     <g id="line2d_5">
      <g>
       <use style="stroke:#000000;stroke-width:0.8;" x="366.021818" xlink:href="#m1ff5478a37" y="307.584"/>
      </g>
     </g>
     <g id="text_5">
      <!-- 4 -->
      <g transform="translate(363.521818 321.459)scale(0.1 -0.1)">
       <use xlink:href="#SimHei-52"/>
      </g>
     </g>
    </g>
    <g id="text_6">
     <!-- x -->
     <g transform="translate(233.66 333.584)scale(0.1 -0.1)">
      <defs>
       <path d="M 44.921875 1.953125 
L 35.546875 1.953125 
L 24.21875 18.75 
L 12.890625 1.953125 
L 3.515625 1.953125 
L 19.53125 24.21875 
L 4.6875 45.703125 
L 14.0625 45.703125 
L 24.21875 29.296875 
L 34.375 45.703125 
L 43.75 45.703125 
L 28.90625 24.21875 
z
" id="SimHei-120"/>
      </defs>
      <use xlink:href="#SimHei-120"/>
     </g>
    </g>
   </g>
   <g id="matplotlib.axis_2">
    <g id="ytick_1">
     <g id="line2d_6">
      <defs>
       <path d="M 0 0 
L -3.5 0 
" id="m621d478d98" style="stroke:#000000;stroke-width:0.8;"/>
      </defs>
      <g>
       <use style="stroke:#000000;stroke-width:0.8;" x="57.6" xlink:href="#m621d478d98" y="267.861457"/>
      </g>
     </g>
     <g id="text_7">
      <!-- 0.0 -->
      <g transform="translate(35.6 271.298957)scale(0.1 -0.1)">
       <defs>
        <path d="M 16.796875 1.953125 
L 7.8125 1.953125 
L 7.8125 10.546875 
L 16.796875 10.546875 
z
" id="SimHei-46"/>
       </defs>
       <use xlink:href="#SimHei-48"/>
       <use x="50" xlink:href="#SimHei-46"/>
       <use x="100" xlink:href="#SimHei-48"/>
      </g>
     </g>
    </g>
    <g id="ytick_2">
     <g id="line2d_7">
      <g>
       <use style="stroke:#000000;stroke-width:0.8;" x="57.6" xlink:href="#m621d478d98" y="213.161172"/>
      </g>
     </g>
     <g id="text_8">
      <!-- 0.5 -->
      <g transform="translate(35.6 216.598672)scale(0.1 -0.1)">
       <defs>
        <path d="M 8.59375 20.703125 
Q 11.328125 10.15625 17.96875 8.984375 
Q 24.609375 7.8125 28.703125 10.34375 
Q 32.8125 12.890625 34.5625 16.984375 
Q 36.328125 21.09375 36.125 26.171875 
Q 35.9375 31.25 33.390625 34.765625 
Q 30.859375 38.28125 26.953125 39.453125 
Q 23.046875 40.625 18.15625 39.453125 
Q 13.28125 38.28125 10.15625 33.984375 
L 3.515625 34.765625 
Q 4.296875 37.109375 10.9375 68.359375 
L 41.796875 68.359375 
L 41.796875 61.328125 
L 16.796875 61.328125 
Q 14.84375 50.78125 12.890625 44.53125 
Q 18.75 47.265625 23.828125 47.0625 
Q 28.90625 46.875 33.59375 44.71875 
Q 38.28125 42.578125 40.421875 38.859375 
Q 42.578125 35.15625 43.546875 31.4375 
Q 44.53125 27.734375 44.328125 23.4375 
Q 44.140625 19.140625 42.578125 14.640625 
Q 41.015625 10.15625 37.890625 7.21875 
Q 34.765625 4.296875 30.265625 2.53125 
Q 25.78125 0.78125 19.921875 1.171875 
Q 14.0625 1.5625 8.78125 5.46875 
Q 3.515625 9.375 1.5625 18.75 
z
" id="SimHei-53"/>
       </defs>
       <use xlink:href="#SimHei-48"/>
       <use x="50" xlink:href="#SimHei-46"/>
       <use x="100" xlink:href="#SimHei-53"/>
      </g>
     </g>
    </g>
    <g id="ytick_3">
     <g id="line2d_8">
      <g>
       <use style="stroke:#000000;stroke-width:0.8;" x="57.6" xlink:href="#m621d478d98" y="158.460887"/>
      </g>
     </g>
     <g id="text_9">
      <!-- 1.0 -->
      <g transform="translate(35.6 161.898387)scale(0.1 -0.1)">
       <defs>
        <path d="M 21.875 56.25 
Q 16.796875 51.171875 8.984375 46.484375 
L 8.984375 53.90625 
Q 18.75 60.546875 25 69.53125 
L 29.6875 69.53125 
L 29.6875 2.34375 
L 21.875 2.34375 
z
" id="SimHei-49"/>
       </defs>
       <use xlink:href="#SimHei-49"/>
       <use x="50" xlink:href="#SimHei-46"/>
       <use x="100" xlink:href="#SimHei-48"/>
      </g>
     </g>
    </g>
    <g id="ytick_4">
     <g id="line2d_9">
      <g>
       <use style="stroke:#000000;stroke-width:0.8;" x="57.6" xlink:href="#m621d478d98" y="103.760603"/>
      </g>
     </g>
     <g id="text_10">
      <!-- 1.5 -->
      <g transform="translate(35.6 107.198103)scale(0.1 -0.1)">
       <use xlink:href="#SimHei-49"/>
       <use x="50" xlink:href="#SimHei-46"/>
       <use x="100" xlink:href="#SimHei-53"/>
      </g>
     </g>
    </g>
    <g id="ytick_5">
     <g id="line2d_10">
      <g>
       <use style="stroke:#000000;stroke-width:0.8;" x="57.6" xlink:href="#m621d478d98" y="49.060318"/>
      </g>
     </g>
     <g id="text_11">
      <!-- 2.0 -->
      <g transform="translate(35.6 52.497818)scale(0.1 -0.1)">
       <use xlink:href="#SimHei-50"/>
       <use x="50" xlink:href="#SimHei-46"/>
       <use x="100" xlink:href="#SimHei-48"/>
      </g>
     </g>
    </g>
    <g id="text_12">
     <!-- y -->
     <g transform="translate(30.35 177.028)rotate(-90)scale(0.1 -0.1)">
      <defs>
       <path d="M 45.3125 45.703125 
L 27.34375 -1.5625 
Q 25.78125 -7.03125 22.65625 -9.765625 
Q 19.53125 -12.5 14.84375 -12.5 
Q 12.890625 -12.5 11.125 -12.296875 
Q 9.375 -12.109375 7.8125 -11.328125 
L 7.8125 -3.515625 
Q 9.375 -4.296875 10.9375 -4.6875 
Q 12.5 -5.078125 13.671875 -5.078125 
Q 16.796875 -5.078125 17.96875 -4.09375 
Q 19.140625 -3.125 20.3125 0.390625 
L 3.125 45.703125 
L 11.71875 45.703125 
L 24.21875 11.328125 
L 24.609375 11.328125 
L 36.71875 45.703125 
z
" id="SimHei-121"/>
      </defs>
      <use xlink:href="#SimHei-121"/>
     </g>
    </g>
   </g>
   <g id="line2d_11">
    <path clip-path="url(#p01d8e52f4f)" d="M 73.832727 263.653743 
L 77.112066 266.388499 
L 80.391405 268.65955 
L 83.670744 270.492124 
L 86.950083 271.910928 
L 90.229421 272.94014 
L 93.50876 273.603415 
L 96.788099 273.923879 
L 100.067438 273.924137 
L 103.346777 273.626264 
L 106.626116 273.051812 
L 109.905455 272.221806 
L 113.184793 271.156746 
L 116.464132 269.876606 
L 119.743471 268.400836 
L 123.02281 266.748357 
L 126.302149 264.937568 
L 129.581488 262.986339 
L 132.860826 260.912018 
L 136.140165 258.731424 
L 139.419504 256.460852 
L 142.698843 254.116071 
L 145.978182 251.712325 
L 149.257521 249.264332 
L 152.53686 246.786284 
L 155.816198 244.291847 
L 159.095537 241.794163 
L 162.374876 239.305847 
L 165.654215 236.838987 
L 168.933554 234.40515 
L 172.212893 232.015372 
L 175.492231 229.680167 
L 178.77157 227.409521 
L 182.050909 225.212897 
L 185.330248 223.09923 
L 188.609587 221.07693 
L 191.888926 219.153881 
L 195.168264 217.337444 
L 198.447603 215.634451 
L 201.726942 214.051209 
L 205.006281 212.593501 
L 208.28562 211.266583 
L 211.564959 210.075187 
L 214.844298 209.023516 
L 218.123636 208.11525 
L 221.402975 207.353544 
L 224.682314 206.741025 
L 227.961653 206.279796 
L 231.240992 205.971434 
L 234.520331 205.81699 
L 237.799669 205.81699 
L 241.079008 205.971434 
L 244.358347 206.279796 
L 247.637686 206.741025 
L 250.917025 207.353544 
L 254.196364 208.11525 
L 257.475702 209.023516 
L 260.755041 210.075187 
L 264.03438 211.266583 
L 267.313719 212.593501 
L 270.593058 214.051209 
L 273.872397 215.634451 
L 277.151736 217.337444 
L 280.431074 219.153881 
L 283.710413 221.07693 
L 286.989752 223.09923 
L 290.269091 225.212897 
L 293.54843 227.409521 
L 296.827769 229.680167 
L 300.107107 232.015372 
L 303.386446 234.40515 
L 306.665785 236.838987 
L 309.945124 239.305847 
L 313.224463 241.794163 
L 316.503802 244.291847 
L 319.78314 246.786284 
L 323.062479 249.264332 
L 326.341818 251.712325 
L 329.621157 254.116071 
L 332.900496 256.460852 
L 336.179835 258.731424 
L 339.459174 260.912018 
L 342.738512 262.986339 
L 346.017851 264.937568 
L 349.29719 266.748357 
L 352.576529 268.400836 
L 355.855868 269.876606 
L 359.135207 271.156746 
L 362.414545 272.221806 
L 365.693884 273.051812 
L 368.973223 273.626264 
L 372.252562 273.924137 
L 375.531901 273.923879 
L 378.81124 273.603415 
L 382.090579 272.94014 
L 385.369917 271.910928 
L 388.649256 270.492124 
L 391.928595 268.65955 
L 395.207934 266.388499 
L 398.487273 263.653743 
" style="fill:none;stroke:#1f77b4;stroke-dasharray:5.55,2.4;stroke-dashoffset:0;stroke-width:1.5;"/>
    <defs>
     <path d="M 0 0.75 
C 0.198902 0.75 0.389685 0.670975 0.53033 0.53033 
C 0.670975 0.389685 0.75 0.198902 0.75 0 
C 0.75 -0.198902 0.670975 -0.389685 0.53033 -0.53033 
C 0.389685 -0.670975 0.198902 -0.75 0 -0.75 
C -0.198902 -0.75 -0.389685 -0.670975 -0.53033 -0.53033 
C -0.670975 -0.389685 -0.75 -0.198902 -0.75 0 
C -0.75 0.198902 -0.670975 0.389685 -0.53033 0.53033 
C -0.389685 0.670975 -0.198902 0.75 0 0.75 
z
" id="m28da5d7f8c" style="stroke:#1f77b4;"/>
    </defs>
    <g clip-path="url(#p01d8e52f4f)">
     <use style="fill:#1f77b4;stroke:#1f77b4;" x="73.832727" xlink:href="#m28da5d7f8c" y="263.653743"/>
     <use style="fill:#1f77b4;stroke:#1f77b4;" x="77.112066" xlink:href="#m28da5d7f8c" y="266.388499"/>
     <use style="fill:#1f77b4;stroke:#1f77b4;" x="80.391405" xlink:href="#m28da5d7f8c" y="268.65955"/>
     <use style="fill:#1f77b4;stroke:#1f77b4;" x="83.670744" xlink:href="#m28da5d7f8c" y="270.492124"/>
     <use style="fill:#1f77b4;stroke:#1f77b4;" x="86.950083" xlink:href="#m28da5d7f8c" y="271.910928"/>
     <use style="fill:#1f77b4;stroke:#1f77b4;" x="90.229421" xlink:href="#m28da5d7f8c" y="272.94014"/>
     <use style="fill:#1f77b4;stroke:#1f77b4;" x="93.50876" xlink:href="#m28da5d7f8c" y="273.603415"/>
     <use style="fill:#1f77b4;stroke:#1f77b4;" x="96.788099" xlink:href="#m28da5d7f8c" y="273.923879"/>
     <use style="fill:#1f77b4;stroke:#1f77b4;" x="100.067438" xlink:href="#m28da5d7f8c" y="273.924137"/>
     <use style="fill:#1f77b4;stroke:#1f77b4;" x="103.346777" xlink:href="#m28da5d7f8c" y="273.626264"/>
     <use style="fill:#1f77b4;stroke:#1f77b4;" x="106.626116" xlink:href="#m28da5d7f8c" y="273.051812"/>
     <use style="fill:#1f77b4;stroke:#1f77b4;" x="109.905455" xlink:href="#m28da5d7f8c" y="272.221806"/>
     <use style="fill:#1f77b4;stroke:#1f77b4;" x="113.184793" xlink:href="#m28da5d7f8c" y="271.156746"/>
     <use style="fill:#1f77b4;stroke:#1f77b4;" x="116.464132" xlink:href="#m28da5d7f8c" y="269.876606"/>
     <use style="fill:#1f77b4;stroke:#1f77b4;" x="119.743471" xlink:href="#m28da5d7f8c" y="268.400836"/>
     <use style="fill:#1f77b4;stroke:#1f77b4;" x="123.02281" xlink:href="#m28da5d7f8c" y="266.748357"/>
     <use style="fill:#1f77b4;stroke:#1f77b4;" x="126.302149" xlink:href="#m28da5d7f8c" y="264.937568"/>
     <use style="fill:#1f77b4;stroke:#1f77b4;" x="129.581488" xlink:href="#m28da5d7f8c" y="262.986339"/>
     <use style="fill:#1f77b4;stroke:#1f77b4;" x="132.860826" xlink:href="#m28da5d7f8c" y="260.912018"/>
     <use style="fill:#1f77b4;stroke:#1f77b4;" x="136.140165" xlink:href="#m28da5d7f8c" y="258.731424"/>
     <use style="fill:#1f77b4;stroke:#1f77b4;" x="139.419504" xlink:href="#m28da5d7f8c" y="256.460852"/>
     <use style="fill:#1f77b4;stroke:#1f77b4;" x="142.698843" xlink:href="#m28da5d7f8c" y="254.116071"/>
     <use style="fill:#1f77b4;stroke:#1f77b4;" x="145.978182" xlink:href="#m28da5d7f8c" y="251.712325"/>
     <use style="fill:#1f77b4;stroke:#1f77b4;" x="149.257521" xlink:href="#m28da5d7f8c" y="249.264332"/>
     <use style="fill:#1f77b4;stroke:#1f77b4;" x="152.53686" xlink:href="#m28da5d7f8c" y="246.786284"/>
     <use style="fill:#1f77b4;stroke:#1f77b4;" x="155.816198" xlink:href="#m28da5d7f8c" y="244.291847"/>
     <use style="fill:#1f77b4;stroke:#1f77b4;" x="159.095537" xlink:href="#m28da5d7f8c" y="241.794163"/>
     <use style="fill:#1f77b4;stroke:#1f77b4;" x="162.374876" xlink:href="#m28da5d7f8c" y="239.305847"/>
     <use style="fill:#1f77b4;stroke:#1f77b4;" x="165.654215" xlink:href="#m28da5d7f8c" y="236.838987"/>
     <use style="fill:#1f77b4;stroke:#1f77b4;" x="168.933554" xlink:href="#m28da5d7f8c" y="234.40515"/>
     <use style="fill:#1f77b4;stroke:#1f77b4;" x="172.212893" xlink:href="#m28da5d7f8c" y="232.015372"/>
     <use style="fill:#1f77b4;stroke:#1f77b4;" x="175.492231" xlink:href="#m28da5d7f8c" y="229.680167"/>
     <use style="fill:#1f77b4;stroke:#1f77b4;" x="178.77157" xlink:href="#m28da5d7f8c" y="227.409521"/>
     <use style="fill:#1f77b4;stroke:#1f77b4;" x="182.050909" xlink:href="#m28da5d7f8c" y="225.212897"/>
     <use style="fill:#1f77b4;stroke:#1f77b4;" x="185.330248" xlink:href="#m28da5d7f8c" y="223.09923"/>
     <use style="fill:#1f77b4;stroke:#1f77b4;" x="188.609587" xlink:href="#m28da5d7f8c" y="221.07693"/>
     <use style="fill:#1f77b4;stroke:#1f77b4;" x="191.888926" xlink:href="#m28da5d7f8c" y="219.153881"/>
     <use style="fill:#1f77b4;stroke:#1f77b4;" x="195.168264" xlink:href="#m28da5d7f8c" y="217.337444"/>
     <use style="fill:#1f77b4;stroke:#1f77b4;" x="198.447603" xlink:href="#m28da5d7f8c" y="215.634451"/>
     <use style="fill:#1f77b4;stroke:#1f77b4;" x="201.726942" xlink:href="#m28da5d7f8c" y="214.051209"/>
     <use style="fill:#1f77b4;stroke:#1f77b4;" x="205.006281" xlink:href="#m28da5d7f8c" y="212.593501"/>
     <use style="fill:#1f77b4;stroke:#1f77b4;" x="208.28562" xlink:href="#m28da5d7f8c" y="211.266583"/>
     <use style="fill:#1f77b4;stroke:#1f77b4;" x="211.564959" xlink:href="#m28da5d7f8c" y="210.075187"/>
     <use style="fill:#1f77b4;stroke:#1f77b4;" x="214.844298" xlink:href="#m28da5d7f8c" y="209.023516"/>
     <use style="fill:#1f77b4;stroke:#1f77b4;" x="218.123636" xlink:href="#m28da5d7f8c" y="208.11525"/>
     <use style="fill:#1f77b4;stroke:#1f77b4;" x="221.402975" xlink:href="#m28da5d7f8c" y="207.353544"/>
     <use style="fill:#1f77b4;stroke:#1f77b4;" x="224.682314" xlink:href="#m28da5d7f8c" y="206.741025"/>
     <use style="fill:#1f77b4;stroke:#1f77b4;" x="227.961653" xlink:href="#m28da5d7f8c" y="206.279796"/>
     <use style="fill:#1f77b4;stroke:#1f77b4;" x="231.240992" xlink:href="#m28da5d7f8c" y="205.971434"/>
     <use style="fill:#1f77b4;stroke:#1f77b4;" x="234.520331" xlink:href="#m28da5d7f8c" y="205.81699"/>
     <use style="fill:#1f77b4;stroke:#1f77b4;" x="237.799669" xlink:href="#m28da5d7f8c" y="205.81699"/>
     <use style="fill:#1f77b4;stroke:#1f77b4;" x="241.079008" xlink:href="#m28da5d7f8c" y="205.971434"/>
     <use style="fill:#1f77b4;stroke:#1f77b4;" x="244.358347" xlink:href="#m28da5d7f8c" y="206.279796"/>
     <use style="fill:#1f77b4;stroke:#1f77b4;" x="247.637686" xlink:href="#m28da5d7f8c" y="206.741025"/>
     <use style="fill:#1f77b4;stroke:#1f77b4;" x="250.917025" xlink:href="#m28da5d7f8c" y="207.353544"/>
     <use style="fill:#1f77b4;stroke:#1f77b4;" x="254.196364" xlink:href="#m28da5d7f8c" y="208.11525"/>
     <use style="fill:#1f77b4;stroke:#1f77b4;" x="257.475702" xlink:href="#m28da5d7f8c" y="209.023516"/>
     <use style="fill:#1f77b4;stroke:#1f77b4;" x="260.755041" xlink:href="#m28da5d7f8c" y="210.075187"/>
     <use style="fill:#1f77b4;stroke:#1f77b4;" x="264.03438" xlink:href="#m28da5d7f8c" y="211.266583"/>
     <use style="fill:#1f77b4;stroke:#1f77b4;" x="267.313719" xlink:href="#m28da5d7f8c" y="212.593501"/>
     <use style="fill:#1f77b4;stroke:#1f77b4;" x="270.593058" xlink:href="#m28da5d7f8c" y="214.051209"/>
     <use style="fill:#1f77b4;stroke:#1f77b4;" x="273.872397" xlink:href="#m28da5d7f8c" y="215.634451"/>
     <use style="fill:#1f77b4;stroke:#1f77b4;" x="277.151736" xlink:href="#m28da5d7f8c" y="217.337444"/>
     <use style="fill:#1f77b4;stroke:#1f77b4;" x="280.431074" xlink:href="#m28da5d7f8c" y="219.153881"/>
     <use style="fill:#1f77b4;stroke:#1f77b4;" x="283.710413" xlink:href="#m28da5d7f8c" y="221.07693"/>
     <use style="fill:#1f77b4;stroke:#1f77b4;" x="286.989752" xlink:href="#m28da5d7f8c" y="223.09923"/>
     <use style="fill:#1f77b4;stroke:#1f77b4;" x="290.269091" xlink:href="#m28da5d7f8c" y="225.212897"/>
     <use style="fill:#1f77b4;stroke:#1f77b4;" x="293.54843" xlink:href="#m28da5d7f8c" y="227.409521"/>
     <use style="fill:#1f77b4;stroke:#1f77b4;" x="296.827769" xlink:href="#m28da5d7f8c" y="229.680167"/>
     <use style="fill:#1f77b4;stroke:#1f77b4;" x="300.107107" xlink:href="#m28da5d7f8c" y="232.015372"/>
     <use style="fill:#1f77b4;stroke:#1f77b4;" x="303.386446" xlink:href="#m28da5d7f8c" y="234.40515"/>
     <use style="fill:#1f77b4;stroke:#1f77b4;" x="306.665785" xlink:href="#m28da5d7f8c" y="236.838987"/>
     <use style="fill:#1f77b4;stroke:#1f77b4;" x="309.945124" xlink:href="#m28da5d7f8c" y="239.305847"/>
     <use style="fill:#1f77b4;stroke:#1f77b4;" x="313.224463" xlink:href="#m28da5d7f8c" y="241.794163"/>
     <use style="fill:#1f77b4;stroke:#1f77b4;" x="316.503802" xlink:href="#m28da5d7f8c" y="244.291847"/>
     <use style="fill:#1f77b4;stroke:#1f77b4;" x="319.78314" xlink:href="#m28da5d7f8c" y="246.786284"/>
     <use style="fill:#1f77b4;stroke:#1f77b4;" x="323.062479" xlink:href="#m28da5d7f8c" y="249.264332"/>
     <use style="fill:#1f77b4;stroke:#1f77b4;" x="326.341818" xlink:href="#m28da5d7f8c" y="251.712325"/>
     <use style="fill:#1f77b4;stroke:#1f77b4;" x="329.621157" xlink:href="#m28da5d7f8c" y="254.116071"/>
     <use style="fill:#1f77b4;stroke:#1f77b4;" x="332.900496" xlink:href="#m28da5d7f8c" y="256.460852"/>
     <use style="fill:#1f77b4;stroke:#1f77b4;" x="336.179835" xlink:href="#m28da5d7f8c" y="258.731424"/>
     <use style="fill:#1f77b4;stroke:#1f77b4;" x="339.459174" xlink:href="#m28da5d7f8c" y="260.912018"/>
     <use style="fill:#1f77b4;stroke:#1f77b4;" x="342.738512" xlink:href="#m28da5d7f8c" y="262.986339"/>
     <use style="fill:#1f77b4;stroke:#1f77b4;" x="346.017851" xlink:href="#m28da5d7f8c" y="264.937568"/>
     <use style="fill:#1f77b4;stroke:#1f77b4;" x="349.29719" xlink:href="#m28da5d7f8c" y="266.748357"/>
     <use style="fill:#1f77b4;stroke:#1f77b4;" x="352.576529" xlink:href="#m28da5d7f8c" y="268.400836"/>
     <use style="fill:#1f77b4;stroke:#1f77b4;" x="355.855868" xlink:href="#m28da5d7f8c" y="269.876606"/>
     <use style="fill:#1f77b4;stroke:#1f77b4;" x="359.135207" xlink:href="#m28da5d7f8c" y="271.156746"/>
     <use style="fill:#1f77b4;stroke:#1f77b4;" x="362.414545" xlink:href="#m28da5d7f8c" y="272.221806"/>
     <use style="fill:#1f77b4;stroke:#1f77b4;" x="365.693884" xlink:href="#m28da5d7f8c" y="273.051812"/>
     <use style="fill:#1f77b4;stroke:#1f77b4;" x="368.973223" xlink:href="#m28da5d7f8c" y="273.626264"/>
     <use style="fill:#1f77b4;stroke:#1f77b4;" x="372.252562" xlink:href="#m28da5d7f8c" y="273.924137"/>
     <use style="fill:#1f77b4;stroke:#1f77b4;" x="375.531901" xlink:href="#m28da5d7f8c" y="273.923879"/>
     <use style="fill:#1f77b4;stroke:#1f77b4;" x="378.81124" xlink:href="#m28da5d7f8c" y="273.603415"/>
     <use style="fill:#1f77b4;stroke:#1f77b4;" x="382.090579" xlink:href="#m28da5d7f8c" y="272.94014"/>
     <use style="fill:#1f77b4;stroke:#1f77b4;" x="385.369917" xlink:href="#m28da5d7f8c" y="271.910928"/>
     <use style="fill:#1f77b4;stroke:#1f77b4;" x="388.649256" xlink:href="#m28da5d7f8c" y="270.492124"/>
     <use style="fill:#1f77b4;stroke:#1f77b4;" x="391.928595" xlink:href="#m28da5d7f8c" y="268.65955"/>
     <use style="fill:#1f77b4;stroke:#1f77b4;" x="395.207934" xlink:href="#m28da5d7f8c" y="266.388499"/>
     <use style="fill:#1f77b4;stroke:#1f77b4;" x="398.487273" xlink:href="#m28da5d7f8c" y="263.653743"/>
    </g>
   </g>
   <g id="line2d_12">
    <path clip-path="url(#p01d8e52f4f)" d="M 73.832727 263.653743 
L 77.112066 132.333119 
L 80.391405 69.728559 
L 83.670744 53.568 
L 86.950083 66.850011 
L 90.229421 96.894734 
L 93.50876 134.525116 
L 96.788099 173.365081 
L 100.067438 209.24228 
L 103.346777 239.683973 
L 106.626116 263.495461 
L 109.905455 280.411356 
L 113.184793 290.810733 
L 116.464132 295.488 
L 119.743471 295.471998 
L 123.02281 291.886558 
L 126.302149 285.846349 
L 129.581488 278.382472 
L 132.860826 270.3928 
L 136.140165 262.612626 
L 139.419504 255.601646 
L 142.698843 249.743785 
L 145.978182 245.256807 
L 149.257521 242.209047 
L 152.53686 240.54097 
L 155.816198 240.089619 
L 159.095537 240.614321 
L 162.374876 241.822303 
L 165.654215 243.393141 
L 168.933554 245.001207 
L 172.212893 246.335473 
L 175.492231 247.116253 
L 178.77157 247.108597 
L 182.050909 246.132237 
L 185.330248 244.068073 
L 188.609587 240.861348 
L 191.888926 236.521692 
L 195.168264 231.120343 
L 198.447603 224.784884 
L 201.726942 217.691882 
L 205.006281 210.057858 
L 208.28562 202.129009 
L 211.564959 194.170151 
L 214.844298 186.453289 
L 218.123636 179.246259 
L 221.402975 172.801834 
L 224.682314 167.34765 
L 227.961653 163.077292 
L 231.240992 160.142808 
L 234.520331 158.648888 
L 237.799669 158.648888 
L 241.079008 160.142808 
L 244.358347 163.077292 
L 247.637686 167.34765 
L 250.917025 172.801834 
L 254.196364 179.246259 
L 257.475702 186.453289 
L 260.755041 194.170151 
L 264.03438 202.129009 
L 267.313719 210.057858 
L 270.593058 217.691882 
L 273.872397 224.784884 
L 277.151736 231.120343 
L 280.431074 236.521692 
L 283.710413 240.861348 
L 286.989752 244.068073 
L 290.269091 246.132237 
L 293.54843 247.108597 
L 296.827769 247.116253 
L 300.107107 246.335473 
L 303.386446 245.001207 
L 306.665785 243.393141 
L 309.945124 241.822303 
L 313.224463 240.614321 
L 316.503802 240.089619 
L 319.78314 240.54097 
L 323.062479 242.209047 
L 326.341818 245.256807 
L 329.621157 249.743785 
L 332.900496 255.601646 
L 336.179835 262.612626 
L 339.459174 270.3928 
L 342.738512 278.382472 
L 346.017851 285.846349 
L 349.29719 291.886558 
L 352.576529 295.471998 
L 355.855868 295.488 
L 359.135207 290.810733 
L 362.414545 280.411356 
L 365.693884 263.495461 
L 368.973223 239.683973 
L 372.252562 209.24228 
L 375.531901 173.365081 
L 378.81124 134.525116 
L 382.090579 96.894734 
L 385.369917 66.850011 
L 388.649256 53.568 
L 391.928595 69.728559 
L 395.207934 132.333119 
L 398.487273 263.653743 
" style="fill:none;stroke:#ff7f0e;stroke-dasharray:5.55,2.4;stroke-dashoffset:0;stroke-width:1.5;"/>
    <defs>
     <path d="M 0 0.75 
C 0.198902 0.75 0.389685 0.670975 0.53033 0.53033 
C 0.670975 0.389685 0.75 0.198902 0.75 0 
C 0.75 -0.198902 0.670975 -0.389685 0.53033 -0.53033 
C 0.389685 -0.670975 0.198902 -0.75 0 -0.75 
C -0.198902 -0.75 -0.389685 -0.670975 -0.53033 -0.53033 
C -0.670975 -0.389685 -0.75 -0.198902 -0.75 0 
C -0.75 0.198902 -0.670975 0.389685 -0.53033 0.53033 
C -0.389685 0.670975 -0.198902 0.75 0 0.75 
z
" id="mb1e2cbc015" style="stroke:#ff7f0e;"/>
    </defs>
    <g clip-path="url(#p01d8e52f4f)">
     <use style="fill:#ff7f0e;stroke:#ff7f0e;" x="73.832727" xlink:href="#mb1e2cbc015" y="263.653743"/>
     <use style="fill:#ff7f0e;stroke:#ff7f0e;" x="77.112066" xlink:href="#mb1e2cbc015" y="132.333119"/>
     <use style="fill:#ff7f0e;stroke:#ff7f0e;" x="80.391405" xlink:href="#mb1e2cbc015" y="69.728559"/>
     <use style="fill:#ff7f0e;stroke:#ff7f0e;" x="83.670744" xlink:href="#mb1e2cbc015" y="53.568"/>
     <use style="fill:#ff7f0e;stroke:#ff7f0e;" x="86.950083" xlink:href="#mb1e2cbc015" y="66.850011"/>
     <use style="fill:#ff7f0e;stroke:#ff7f0e;" x="90.229421" xlink:href="#mb1e2cbc015" y="96.894734"/>
     <use style="fill:#ff7f0e;stroke:#ff7f0e;" x="93.50876" xlink:href="#mb1e2cbc015" y="134.525116"/>
     <use style="fill:#ff7f0e;stroke:#ff7f0e;" x="96.788099" xlink:href="#mb1e2cbc015" y="173.365081"/>
     <use style="fill:#ff7f0e;stroke:#ff7f0e;" x="100.067438" xlink:href="#mb1e2cbc015" y="209.24228"/>
     <use style="fill:#ff7f0e;stroke:#ff7f0e;" x="103.346777" xlink:href="#mb1e2cbc015" y="239.683973"/>
     <use style="fill:#ff7f0e;stroke:#ff7f0e;" x="106.626116" xlink:href="#mb1e2cbc015" y="263.495461"/>
     <use style="fill:#ff7f0e;stroke:#ff7f0e;" x="109.905455" xlink:href="#mb1e2cbc015" y="280.411356"/>
     <use style="fill:#ff7f0e;stroke:#ff7f0e;" x="113.184793" xlink:href="#mb1e2cbc015" y="290.810733"/>
     <use style="fill:#ff7f0e;stroke:#ff7f0e;" x="116.464132" xlink:href="#mb1e2cbc015" y="295.488"/>
     <use style="fill:#ff7f0e;stroke:#ff7f0e;" x="119.743471" xlink:href="#mb1e2cbc015" y="295.471998"/>
     <use style="fill:#ff7f0e;stroke:#ff7f0e;" x="123.02281" xlink:href="#mb1e2cbc015" y="291.886558"/>
     <use style="fill:#ff7f0e;stroke:#ff7f0e;" x="126.302149" xlink:href="#mb1e2cbc015" y="285.846349"/>
     <use style="fill:#ff7f0e;stroke:#ff7f0e;" x="129.581488" xlink:href="#mb1e2cbc015" y="278.382472"/>
     <use style="fill:#ff7f0e;stroke:#ff7f0e;" x="132.860826" xlink:href="#mb1e2cbc015" y="270.3928"/>
     <use style="fill:#ff7f0e;stroke:#ff7f0e;" x="136.140165" xlink:href="#mb1e2cbc015" y="262.612626"/>
     <use style="fill:#ff7f0e;stroke:#ff7f0e;" x="139.419504" xlink:href="#mb1e2cbc015" y="255.601646"/>
     <use style="fill:#ff7f0e;stroke:#ff7f0e;" x="142.698843" xlink:href="#mb1e2cbc015" y="249.743785"/>
     <use style="fill:#ff7f0e;stroke:#ff7f0e;" x="145.978182" xlink:href="#mb1e2cbc015" y="245.256807"/>
     <use style="fill:#ff7f0e;stroke:#ff7f0e;" x="149.257521" xlink:href="#mb1e2cbc015" y="242.209047"/>
     <use style="fill:#ff7f0e;stroke:#ff7f0e;" x="152.53686" xlink:href="#mb1e2cbc015" y="240.54097"/>
     <use style="fill:#ff7f0e;stroke:#ff7f0e;" x="155.816198" xlink:href="#mb1e2cbc015" y="240.089619"/>
     <use style="fill:#ff7f0e;stroke:#ff7f0e;" x="159.095537" xlink:href="#mb1e2cbc015" y="240.614321"/>
     <use style="fill:#ff7f0e;stroke:#ff7f0e;" x="162.374876" xlink:href="#mb1e2cbc015" y="241.822303"/>
     <use style="fill:#ff7f0e;stroke:#ff7f0e;" x="165.654215" xlink:href="#mb1e2cbc015" y="243.393141"/>
     <use style="fill:#ff7f0e;stroke:#ff7f0e;" x="168.933554" xlink:href="#mb1e2cbc015" y="245.001207"/>
     <use style="fill:#ff7f0e;stroke:#ff7f0e;" x="172.212893" xlink:href="#mb1e2cbc015" y="246.335473"/>
     <use style="fill:#ff7f0e;stroke:#ff7f0e;" x="175.492231" xlink:href="#mb1e2cbc015" y="247.116253"/>
     <use style="fill:#ff7f0e;stroke:#ff7f0e;" x="178.77157" xlink:href="#mb1e2cbc015" y="247.108597"/>
     <use style="fill:#ff7f0e;stroke:#ff7f0e;" x="182.050909" xlink:href="#mb1e2cbc015" y="246.132237"/>
     <use style="fill:#ff7f0e;stroke:#ff7f0e;" x="185.330248" xlink:href="#mb1e2cbc015" y="244.068073"/>
     <use style="fill:#ff7f0e;stroke:#ff7f0e;" x="188.609587" xlink:href="#mb1e2cbc015" y="240.861348"/>
     <use style="fill:#ff7f0e;stroke:#ff7f0e;" x="191.888926" xlink:href="#mb1e2cbc015" y="236.521692"/>
     <use style="fill:#ff7f0e;stroke:#ff7f0e;" x="195.168264" xlink:href="#mb1e2cbc015" y="231.120343"/>
     <use style="fill:#ff7f0e;stroke:#ff7f0e;" x="198.447603" xlink:href="#mb1e2cbc015" y="224.784884"/>
     <use style="fill:#ff7f0e;stroke:#ff7f0e;" x="201.726942" xlink:href="#mb1e2cbc015" y="217.691882"/>
     <use style="fill:#ff7f0e;stroke:#ff7f0e;" x="205.006281" xlink:href="#mb1e2cbc015" y="210.057858"/>
     <use style="fill:#ff7f0e;stroke:#ff7f0e;" x="208.28562" xlink:href="#mb1e2cbc015" y="202.129009"/>
     <use style="fill:#ff7f0e;stroke:#ff7f0e;" x="211.564959" xlink:href="#mb1e2cbc015" y="194.170151"/>
     <use style="fill:#ff7f0e;stroke:#ff7f0e;" x="214.844298" xlink:href="#mb1e2cbc015" y="186.453289"/>
     <use style="fill:#ff7f0e;stroke:#ff7f0e;" x="218.123636" xlink:href="#mb1e2cbc015" y="179.246259"/>
     <use style="fill:#ff7f0e;stroke:#ff7f0e;" x="221.402975" xlink:href="#mb1e2cbc015" y="172.801834"/>
     <use style="fill:#ff7f0e;stroke:#ff7f0e;" x="224.682314" xlink:href="#mb1e2cbc015" y="167.34765"/>
     <use style="fill:#ff7f0e;stroke:#ff7f0e;" x="227.961653" xlink:href="#mb1e2cbc015" y="163.077292"/>
     <use style="fill:#ff7f0e;stroke:#ff7f0e;" x="231.240992" xlink:href="#mb1e2cbc015" y="160.142808"/>
     <use style="fill:#ff7f0e;stroke:#ff7f0e;" x="234.520331" xlink:href="#mb1e2cbc015" y="158.648888"/>
     <use style="fill:#ff7f0e;stroke:#ff7f0e;" x="237.799669" xlink:href="#mb1e2cbc015" y="158.648888"/>
     <use style="fill:#ff7f0e;stroke:#ff7f0e;" x="241.079008" xlink:href="#mb1e2cbc015" y="160.142808"/>
     <use style="fill:#ff7f0e;stroke:#ff7f0e;" x="244.358347" xlink:href="#mb1e2cbc015" y="163.077292"/>
     <use style="fill:#ff7f0e;stroke:#ff7f0e;" x="247.637686" xlink:href="#mb1e2cbc015" y="167.34765"/>
     <use style="fill:#ff7f0e;stroke:#ff7f0e;" x="250.917025" xlink:href="#mb1e2cbc015" y="172.801834"/>
     <use style="fill:#ff7f0e;stroke:#ff7f0e;" x="254.196364" xlink:href="#mb1e2cbc015" y="179.246259"/>
     <use style="fill:#ff7f0e;stroke:#ff7f0e;" x="257.475702" xlink:href="#mb1e2cbc015" y="186.453289"/>
     <use style="fill:#ff7f0e;stroke:#ff7f0e;" x="260.755041" xlink:href="#mb1e2cbc015" y="194.170151"/>
     <use style="fill:#ff7f0e;stroke:#ff7f0e;" x="264.03438" xlink:href="#mb1e2cbc015" y="202.129009"/>
     <use style="fill:#ff7f0e;stroke:#ff7f0e;" x="267.313719" xlink:href="#mb1e2cbc015" y="210.057858"/>
     <use style="fill:#ff7f0e;stroke:#ff7f0e;" x="270.593058" xlink:href="#mb1e2cbc015" y="217.691882"/>
     <use style="fill:#ff7f0e;stroke:#ff7f0e;" x="273.872397" xlink:href="#mb1e2cbc015" y="224.784884"/>
     <use style="fill:#ff7f0e;stroke:#ff7f0e;" x="277.151736" xlink:href="#mb1e2cbc015" y="231.120343"/>
     <use style="fill:#ff7f0e;stroke:#ff7f0e;" x="280.431074" xlink:href="#mb1e2cbc015" y="236.521692"/>
     <use style="fill:#ff7f0e;stroke:#ff7f0e;" x="283.710413" xlink:href="#mb1e2cbc015" y="240.861348"/>
     <use style="fill:#ff7f0e;stroke:#ff7f0e;" x="286.989752" xlink:href="#mb1e2cbc015" y="244.068073"/>
     <use style="fill:#ff7f0e;stroke:#ff7f0e;" x="290.269091" xlink:href="#mb1e2cbc015" y="246.132237"/>
     <use style="fill:#ff7f0e;stroke:#ff7f0e;" x="293.54843" xlink:href="#mb1e2cbc015" y="247.108597"/>
     <use style="fill:#ff7f0e;stroke:#ff7f0e;" x="296.827769" xlink:href="#mb1e2cbc015" y="247.116253"/>
     <use style="fill:#ff7f0e;stroke:#ff7f0e;" x="300.107107" xlink:href="#mb1e2cbc015" y="246.335473"/>
     <use style="fill:#ff7f0e;stroke:#ff7f0e;" x="303.386446" xlink:href="#mb1e2cbc015" y="245.001207"/>
     <use style="fill:#ff7f0e;stroke:#ff7f0e;" x="306.665785" xlink:href="#mb1e2cbc015" y="243.393141"/>
     <use style="fill:#ff7f0e;stroke:#ff7f0e;" x="309.945124" xlink:href="#mb1e2cbc015" y="241.822303"/>
     <use style="fill:#ff7f0e;stroke:#ff7f0e;" x="313.224463" xlink:href="#mb1e2cbc015" y="240.614321"/>
     <use style="fill:#ff7f0e;stroke:#ff7f0e;" x="316.503802" xlink:href="#mb1e2cbc015" y="240.089619"/>
     <use style="fill:#ff7f0e;stroke:#ff7f0e;" x="319.78314" xlink:href="#mb1e2cbc015" y="240.54097"/>
     <use style="fill:#ff7f0e;stroke:#ff7f0e;" x="323.062479" xlink:href="#mb1e2cbc015" y="242.209047"/>
     <use style="fill:#ff7f0e;stroke:#ff7f0e;" x="326.341818" xlink:href="#mb1e2cbc015" y="245.256807"/>
     <use style="fill:#ff7f0e;stroke:#ff7f0e;" x="329.621157" xlink:href="#mb1e2cbc015" y="249.743785"/>
     <use style="fill:#ff7f0e;stroke:#ff7f0e;" x="332.900496" xlink:href="#mb1e2cbc015" y="255.601646"/>
     <use style="fill:#ff7f0e;stroke:#ff7f0e;" x="336.179835" xlink:href="#mb1e2cbc015" y="262.612626"/>
     <use style="fill:#ff7f0e;stroke:#ff7f0e;" x="339.459174" xlink:href="#mb1e2cbc015" y="270.3928"/>
     <use style="fill:#ff7f0e;stroke:#ff7f0e;" x="342.738512" xlink:href="#mb1e2cbc015" y="278.382472"/>
     <use style="fill:#ff7f0e;stroke:#ff7f0e;" x="346.017851" xlink:href="#mb1e2cbc015" y="285.846349"/>
     <use style="fill:#ff7f0e;stroke:#ff7f0e;" x="349.29719" xlink:href="#mb1e2cbc015" y="291.886558"/>
     <use style="fill:#ff7f0e;stroke:#ff7f0e;" x="352.576529" xlink:href="#mb1e2cbc015" y="295.471998"/>
     <use style="fill:#ff7f0e;stroke:#ff7f0e;" x="355.855868" xlink:href="#mb1e2cbc015" y="295.488"/>
     <use style="fill:#ff7f0e;stroke:#ff7f0e;" x="359.135207" xlink:href="#mb1e2cbc015" y="290.810733"/>
     <use style="fill:#ff7f0e;stroke:#ff7f0e;" x="362.414545" xlink:href="#mb1e2cbc015" y="280.411356"/>
     <use style="fill:#ff7f0e;stroke:#ff7f0e;" x="365.693884" xlink:href="#mb1e2cbc015" y="263.495461"/>
     <use style="fill:#ff7f0e;stroke:#ff7f0e;" x="368.973223" xlink:href="#mb1e2cbc015" y="239.683973"/>
     <use style="fill:#ff7f0e;stroke:#ff7f0e;" x="372.252562" xlink:href="#mb1e2cbc015" y="209.24228"/>
     <use style="fill:#ff7f0e;stroke:#ff7f0e;" x="375.531901" xlink:href="#mb1e2cbc015" y="173.365081"/>
     <use style="fill:#ff7f0e;stroke:#ff7f0e;" x="378.81124" xlink:href="#mb1e2cbc015" y="134.525116"/>
     <use style="fill:#ff7f0e;stroke:#ff7f0e;" x="382.090579" xlink:href="#mb1e2cbc015" y="96.894734"/>
     <use style="fill:#ff7f0e;stroke:#ff7f0e;" x="385.369917" xlink:href="#mb1e2cbc015" y="66.850011"/>
     <use style="fill:#ff7f0e;stroke:#ff7f0e;" x="388.649256" xlink:href="#mb1e2cbc015" y="53.568"/>
     <use style="fill:#ff7f0e;stroke:#ff7f0e;" x="391.928595" xlink:href="#mb1e2cbc015" y="69.728559"/>
     <use style="fill:#ff7f0e;stroke:#ff7f0e;" x="395.207934" xlink:href="#mb1e2cbc015" y="132.333119"/>
     <use style="fill:#ff7f0e;stroke:#ff7f0e;" x="398.487273" xlink:href="#mb1e2cbc015" y="263.653743"/>
    </g>
   </g>
   <g id="line2d_13">
    <path clip-path="url(#p01d8e52f4f)" d="M 73.832727 263.653743 
L 77.112066 263.485452 
L 80.391405 263.307011 
L 83.670744 263.1176 
L 86.950083 262.916317 
L 90.229421 262.702165 
L 93.50876 262.474045 
L 96.788099 262.23074 
L 100.067438 261.970897 
L 103.346777 261.693019 
L 106.626116 261.395432 
L 109.905455 261.076276 
L 113.184793 260.733467 
L 116.464132 260.364673 
L 119.743471 259.967276 
L 123.02281 259.538331 
L 126.302149 259.074518 
L 129.581488 258.572086 
L 132.860826 258.026785 
L 136.140165 257.433793 
L 139.419504 256.787624 
L 142.698843 256.082021 
L 145.978182 255.309834 
L 149.257521 254.462874 
L 152.53686 253.531746 
L 155.816198 252.505644 
L 159.095537 251.37213 
L 162.374876 250.116861 
L 165.654215 248.723289 
L 168.933554 247.172324 
L 172.212893 245.441957 
L 175.492231 243.506871 
L 178.77157 241.338057 
L 182.050909 238.902483 
L 185.330248 236.162912 
L 188.609587 233.077996 
L 191.888926 229.602876 
L 195.168264 225.690648 
L 198.447603 221.295185 
L 201.726942 216.376055 
L 205.006281 210.906449 
L 208.28562 204.885128 
L 211.564959 198.35316 
L 214.844298 191.415216 
L 218.123636 184.262909 
L 221.402975 177.193862 
L 224.682314 170.615404 
L 227.961653 165.019045 
L 231.240992 160.916017 
L 234.520331 158.739232 
L 237.799669 158.739232 
L 241.079008 160.916017 
L 244.358347 165.019045 
L 247.637686 170.615404 
L 250.917025 177.193862 
L 254.196364 184.262909 
L 257.475702 191.415216 
L 260.755041 198.35316 
L 264.03438 204.885128 
L 267.313719 210.906449 
L 270.593058 216.376055 
L 273.872397 221.295185 
L 277.151736 225.690648 
L 280.431074 229.602876 
L 283.710413 233.077996 
L 286.989752 236.162912 
L 290.269091 238.902483 
L 293.54843 241.338057 
L 296.827769 243.506871 
L 300.107107 245.441957 
L 303.386446 247.172324 
L 306.665785 248.723289 
L 309.945124 250.116861 
L 313.224463 251.37213 
L 316.503802 252.505644 
L 319.78314 253.531746 
L 323.062479 254.462874 
L 326.341818 255.309834 
L 329.621157 256.082021 
L 332.900496 256.787624 
L 336.179835 257.433793 
L 339.459174 258.026785 
L 342.738512 258.572086 
L 346.017851 259.074518 
L 349.29719 259.538331 
L 352.576529 259.967276 
L 355.855868 260.364673 
L 359.135207 260.733467 
L 362.414545 261.076276 
L 365.693884 261.395432 
L 368.973223 261.693019 
L 372.252562 261.970897 
L 375.531901 262.23074 
L 378.81124 262.474045 
L 382.090579 262.702165 
L 385.369917 262.916317 
L 388.649256 263.1176 
L 391.928595 263.307011 
L 395.207934 263.485452 
L 398.487273 263.653743 
" style="fill:none;stroke:#ff0000;stroke-linecap:square;stroke-width:2;"/>
   </g>
   <g id="patch_3">
    <path d="M 57.6 307.584 
L 57.6 41.472 
" style="fill:none;stroke:#000000;stroke-linecap:square;stroke-linejoin:miter;stroke-width:0.8;"/>
   </g>
   <g id="patch_4">
    <path d="M 414.72 307.584 
L 414.72 41.472 
" style="fill:none;stroke:#000000;stroke-linecap:square;stroke-linejoin:miter;stroke-width:0.8;"/>
   </g>
   <g id="patch_5">
    <path d="M 57.6 307.584 
L 414.72 307.584 
" style="fill:none;stroke:#000000;stroke-linecap:square;stroke-linejoin:miter;stroke-width:0.8;"/>
   </g>
   <g id="patch_6">
    <path d="M 57.6 41.472 
L 414.72 41.472 
" style="fill:none;stroke:#000000;stroke-linecap:square;stroke-linejoin:miter;stroke-width:0.8;"/>
   </g>
   <g id="legend_1">
    <g id="patch_7">
     <path d="M 200.16 302.584 
L 272.16 302.584 
Q 274.16 302.584 274.16 300.584 
L 274.16 259.279312 
Q 274.16 257.279312 272.16 257.279312 
L 200.16 257.279312 
Q 198.16 257.279312 198.16 259.279312 
L 198.16 300.584 
Q 198.16 302.584 200.16 302.584 
z
" style="fill:#ffffff;opacity:0.8;stroke:#cccccc;stroke-linejoin:miter;"/>
    </g>
    <g id="line2d_14">
     <path d="M 202.16 265.709 
L 222.16 265.709 
" style="fill:none;stroke:#1f77b4;stroke-dasharray:5.55,2.4;stroke-dashoffset:0;stroke-width:1.5;"/>
    </g>
    <g id="line2d_15">
     <g>
      <use style="fill:#1f77b4;stroke:#1f77b4;" x="212.16" xlink:href="#m28da5d7f8c" y="265.709"/>
     </g>
    </g>
    <g id="text_13">
     <!-- 5次插值 -->
     <g transform="translate(230.16 269.209)scale(0.1 -0.1)">
      <defs>
       <path d="M 64.84375 47.265625 
Q 62.5 39.84375 63.28125 34.171875 
Q 64.0625 28.515625 66.796875 22.65625 
Q 69.53125 16.796875 75 11.71875 
Q 80.46875 6.640625 85.546875 3.3125 
Q 90.625 0 96.09375 -2.34375 
Q 91.796875 -5.46875 89.84375 -9.765625 
Q 82.03125 -5.078125 76.359375 -0.390625 
Q 70.703125 4.296875 66.796875 9.5625 
Q 62.890625 14.84375 59.765625 22.265625 
Q 55.078125 9.765625 46.09375 1.953125 
Q 37.109375 -5.859375 28.90625 -10.15625 
Q 26.171875 -6.25 23.046875 -3.515625 
Q 31.640625 0 38.859375 5.65625 
Q 46.09375 11.328125 49.40625 17.1875 
Q 52.734375 23.046875 53.90625 28.515625 
Q 55.078125 33.984375 55.265625 37.5 
Q 55.46875 41.015625 55.078125 48.828125 
Q 59.765625 47.65625 64.84375 47.265625 
z
M 57.8125 77.734375 
Q 56.640625 76.5625 54.296875 71.484375 
Q 51.953125 66.40625 50.78125 63.671875 
L 90.234375 63.671875 
Q 88.28125 58.203125 86.71875 52.53125 
Q 85.15625 46.875 82.421875 39.0625 
Q 78.125 40.234375 74.609375 40.625 
Q 78.515625 52.34375 79.6875 57.03125 
L 48.4375 57.03125 
Q 46.484375 53.125 43.9375 48.4375 
Q 41.40625 43.75 37.890625 38.28125 
Q 35.546875 40.625 30.859375 42.1875 
Q 35.9375 47.65625 41.015625 58.78125 
Q 46.09375 69.921875 48.828125 81.25 
Q 53.90625 78.515625 57.8125 77.734375 
z
M 31.640625 31.25 
Q 28.515625 26.171875 23.046875 16.984375 
Q 17.578125 7.8125 11.328125 -3.125 
Q 7.8125 -0.390625 3.90625 2.734375 
Q 11.328125 11.328125 16.203125 19.71875 
Q 21.09375 28.125 24.609375 36.328125 
Q 27.34375 33.984375 31.640625 31.25 
z
M 14.0625 74.21875 
Q 26.953125 58.203125 30.46875 52.734375 
Q 27.34375 50.78125 23.4375 47.65625 
Q 19.53125 55.078125 7.8125 69.140625 
Q 10.9375 71.484375 14.0625 74.21875 
z
" id="SimHei-27425"/>
       <path d="M 67.96875 52.34375 
L 67.96875 4.296875 
L 83.984375 4.296875 
L 83.984375 18.75 
Q 78.515625 18.75 73.828125 18.359375 
L 73.828125 25.390625 
Q 78.90625 25 83.984375 25 
L 83.984375 36.71875 
Q 77.734375 36.71875 73.4375 36.328125 
L 73.4375 42.96875 
Q 79.6875 42.578125 82.03125 42.578125 
L 91.40625 42.578125 
Q 91.015625 40.234375 91.015625 33.59375 
L 91.015625 -0.390625 
Q 91.015625 -3.515625 91.40625 -9.765625 
L 83.984375 -9.765625 
L 83.984375 -1.953125 
L 45.703125 -1.953125 
L 45.703125 -10.546875 
L 38.671875 -10.546875 
Q 39.0625 -5.46875 39.0625 -1.953125 
L 39.0625 28.515625 
Q 39.0625 36.71875 38.671875 40.234375 
Q 42.96875 41.015625 46.09375 42.1875 
Q 49.21875 43.359375 52.34375 45.703125 
Q 53.90625 41.40625 56.640625 37.890625 
Q 53.515625 37.890625 45.703125 35.9375 
L 45.703125 25 
Q 51.5625 25 56.640625 25.390625 
L 56.640625 18.359375 
Q 51.953125 18.75 45.703125 18.75 
L 45.703125 4.296875 
L 60.9375 4.296875 
L 60.9375 52.34375 
L 49.21875 52.34375 
Q 39.0625 51.953125 35.9375 51.953125 
L 35.9375 59.375 
Q 41.796875 58.984375 47.265625 58.984375 
L 60.9375 58.984375 
L 60.9375 69.140625 
Q 51.953125 68.359375 41.015625 67.1875 
Q 39.84375 71.484375 37.5 74.609375 
Q 50 75 64.453125 76.75 
Q 78.90625 78.515625 85.546875 81.25 
Q 86.71875 77.734375 90.625 72.65625 
Q 85.546875 72.65625 67.96875 69.53125 
L 67.96875 58.984375 
L 85.9375 58.984375 
Q 90.625 58.984375 94.921875 59.375 
L 94.921875 51.953125 
Q 91.796875 52.34375 86.71875 52.34375 
z
M 17.578125 70.3125 
Q 17.578125 76.171875 17.1875 80.859375 
L 25 80.859375 
Q 24.609375 75.78125 24.21875 70.3125 
L 24.21875 60.9375 
Q 29.296875 60.9375 33.203125 61.328125 
L 33.203125 53.90625 
Q 28.90625 54.296875 24.21875 54.296875 
L 24.21875 37.5 
Q 30.078125 39.84375 33.203125 41.796875 
Q 33.203125 37.890625 33.59375 35.15625 
Q 28.515625 32.8125 24.21875 30.46875 
L 24.21875 1.5625 
Q 24.21875 -5.078125 20.5 -6.828125 
Q 16.796875 -8.59375 10.546875 -9.765625 
Q 10.15625 -4.6875 7.421875 -0.390625 
Q 13.28125 -0.390625 15.421875 0.1875 
Q 17.578125 0.78125 17.578125 3.515625 
L 17.578125 27.734375 
Q 14.0625 26.5625 7.421875 22.65625 
Q 5.46875 27.734375 3.515625 30.46875 
Q 10.546875 32.421875 17.578125 35.15625 
L 17.578125 54.296875 
Q 8.203125 54.296875 5.46875 53.515625 
L 5.46875 61.328125 
Q 8.203125 60.9375 17.578125 60.9375 
z
" id="SimHei-25554"/>
       <path d="M 57.421875 69.53125 
L 57.421875 79.6875 
Q 62.109375 79.296875 67.96875 78.90625 
Q 66.015625 76.171875 65.625 69.53125 
L 80.078125 69.53125 
Q 86.71875 69.53125 91.796875 69.921875 
L 91.796875 62.890625 
Q 86.328125 63.28125 80.078125 63.28125 
L 65.234375 63.28125 
L 64.453125 54.6875 
L 84.375 54.6875 
Q 83.984375 50 83.984375 42.1875 
L 83.984375 2.34375 
Q 91.796875 2.34375 95.3125 2.734375 
L 95.3125 -4.296875 
Q 90.234375 -3.90625 81.25 -3.90625 
L 44.53125 -3.90625 
Q 35.546875 -3.90625 29.6875 -4.296875 
L 29.6875 2.734375 
Q 33.203125 2.34375 40.625 2.34375 
L 40.625 42.1875 
Q 40.625 49.609375 40.234375 54.6875 
L 56.25 54.6875 
L 57.03125 63.28125 
L 50 63.28125 
Q 40.234375 63.28125 34.765625 62.890625 
L 34.765625 69.921875 
Q 39.84375 69.53125 50 69.53125 
z
M 34.765625 76.5625 
Q 31.640625 73.046875 25.78125 58.59375 
L 25.78125 7.03125 
Q 25.78125 -1.171875 26.171875 -8.59375 
L 17.96875 -8.59375 
Q 18.359375 -1.953125 18.359375 5.859375 
L 18.359375 46.09375 
Q 13.671875 38.28125 9.765625 33.59375 
Q 6.640625 37.890625 3.90625 40.234375 
Q 7.8125 44.140625 14.640625 55.265625 
Q 21.484375 66.40625 25.390625 80.46875 
Q 30.859375 77.734375 34.765625 76.5625 
z
M 76.953125 41.40625 
L 76.953125 49.21875 
L 48.046875 49.21875 
L 48.046875 41.40625 
z
M 76.953125 2.34375 
L 76.953125 9.765625 
L 48.046875 9.765625 
L 48.046875 2.34375 
z
M 76.953125 15.625 
L 76.953125 22.65625 
L 48.046875 22.65625 
L 48.046875 15.625 
z
M 76.953125 28.515625 
L 76.953125 35.546875 
L 48.046875 35.546875 
L 48.046875 28.515625 
z
" id="SimHei-20540"/>
      </defs>
      <use xlink:href="#SimHei-53"/>
      <use x="50" xlink:href="#SimHei-27425"/>
      <use x="150" xlink:href="#SimHei-25554"/>
      <use x="250" xlink:href="#SimHei-20540"/>
     </g>
    </g>
    <g id="line2d_16">
     <path d="M 202.16 279.888687 
L 222.16 279.888687 
" style="fill:none;stroke:#ff7f0e;stroke-dasharray:5.55,2.4;stroke-dashoffset:0;stroke-width:1.5;"/>
    </g>
    <g id="line2d_17">
     <g>
      <use style="fill:#ff7f0e;stroke:#ff7f0e;" x="212.16" xlink:href="#mb1e2cbc015" y="279.888687"/>
     </g>
    </g>
    <g id="text_14">
     <!-- 10次插值 -->
     <g transform="translate(230.16 283.388687)scale(0.1 -0.1)">
      <use xlink:href="#SimHei-49"/>
      <use x="50" xlink:href="#SimHei-48"/>
      <use x="100" xlink:href="#SimHei-27425"/>
      <use x="200" xlink:href="#SimHei-25554"/>
      <use x="300" xlink:href="#SimHei-20540"/>
     </g>
    </g>
    <g id="line2d_18">
     <path d="M 202.16 293.834 
L 222.16 293.834 
" style="fill:none;stroke:#ff0000;stroke-linecap:square;stroke-width:2;"/>
    </g>
    <g id="line2d_19"/>
    <g id="text_15">
     <!-- 真值 -->
     <g transform="translate(230.16 297.334)scale(0.1 -0.1)">
      <defs>
       <path d="M 55.46875 79.6875 
Q 53.90625 76.953125 53.125 72.265625 
L 75.78125 72.265625 
Q 80.859375 72.265625 89.453125 72.65625 
L 89.453125 66.40625 
Q 81.25 66.796875 75.78125 66.796875 
L 52.34375 66.796875 
L 51.5625 60.15625 
L 78.90625 60.15625 
Q 78.515625 55.46875 78.515625 49.21875 
L 78.515625 16.796875 
L 84.375 16.796875 
Q 90.625 16.796875 94.921875 17.1875 
L 94.921875 9.765625 
Q 87.109375 10.15625 76.5625 10.15625 
L 22.65625 10.15625 
Q 12.109375 10.15625 5.46875 9.765625 
L 5.46875 17.1875 
Q 11.328125 16.796875 17.1875 16.796875 
L 22.265625 16.796875 
L 22.265625 48.046875 
Q 22.265625 53.90625 21.875 60.15625 
L 44.140625 60.15625 
L 44.53125 66.796875 
L 21.875 66.796875 
Q 16.40625 66.796875 9.765625 66.40625 
L 9.765625 72.65625 
Q 18.359375 72.265625 21.484375 72.265625 
L 45.703125 72.265625 
Q 46.09375 76.171875 46.09375 80.078125 
Q 51.5625 79.6875 55.46875 79.6875 
z
M 63.671875 8.203125 
Q 70.3125 6.640625 76.953125 3.90625 
Q 83.59375 1.171875 91.015625 -2.34375 
Q 86.71875 -6.640625 85.15625 -8.984375 
Q 78.515625 -4.6875 71.09375 -1.5625 
Q 63.671875 1.5625 59.375 2.734375 
Q 61.328125 5.46875 63.671875 8.203125 
z
M 70.703125 49.21875 
L 70.703125 54.296875 
L 30.078125 54.296875 
L 30.078125 49.21875 
z
M 70.703125 16.796875 
L 70.703125 21.875 
L 30.078125 21.875 
L 30.078125 16.796875 
z
M 43.359375 3.125 
Q 37.109375 -0.390625 29.296875 -3.515625 
Q 21.484375 -6.640625 14.84375 -8.984375 
Q 12.109375 -6.25 9.375 -3.90625 
Q 19.140625 -0.78125 25.390625 2.140625 
Q 31.640625 5.078125 36.71875 8.203125 
Q 39.84375 5.46875 43.359375 3.125 
z
M 70.703125 27.734375 
L 70.703125 32.421875 
L 30.078125 32.421875 
L 30.078125 27.734375 
z
M 70.703125 38.671875 
L 70.703125 43.359375 
L 30.078125 43.359375 
L 30.078125 38.671875 
z
" id="SimHei-30495"/>
      </defs>
      <use xlink:href="#SimHei-30495"/>
      <use x="100" xlink:href="#SimHei-20540"/>
     </g>
    </g>
   </g>
  </g>
 </g>
 <defs>
  <clipPath id="p01d8e52f4f">
   <rect height="266.112" width="357.12" x="57.6" y="41.472"/>
  </clipPath>
 </defs>
</svg>
