<?xml version="1.0" encoding="utf-8" standalone="no"?>
<!DOCTYPE svg PUBLIC "-//W3C//DTD SVG 1.1//EN"
  "http://www.w3.org/Graphics/SVG/1.1/DTD/svg11.dtd">
<!-- Created with matplotlib (https://matplotlib.org/) -->
<svg height="345.6pt" version="1.1" viewBox="0 0 460.8 345.6" width="460.8pt" xmlns="http://www.w3.org/2000/svg" xmlns:xlink="http://www.w3.org/1999/xlink">
 <metadata>
  <rdf:RDF xmlns:cc="http://creativecommons.org/ns#" xmlns:dc="http://purl.org/dc/elements/1.1/" xmlns:rdf="http://www.w3.org/1999/02/22-rdf-syntax-ns#">
   <cc:Work>
    <dc:type rdf:resource="http://purl.org/dc/dcmitype/StillImage"/>
    <dc:date>2022-12-18T17:16:02.024976</dc:date>
    <dc:format>image/svg+xml</dc:format>
    <dc:creator>
     <cc:Agent>
      <dc:title>Matplotlib v3.3.3, https://matplotlib.org/</dc:title>
     </cc:Agent>
    </dc:creator>
   </cc:Work>
  </rdf:RDF>
 </metadata>
 <defs>
  <style type="text/css">*{stroke-linecap:butt;stroke-linejoin:round;}</style>
 </defs>
 <g id="figure_1">
  <g id="patch_1">
   <path d="M 0 345.6 
L 460.8 345.6 
L 460.8 0 
L 0 0 
z
" style="fill:#ffffff;"/>
  </g>
  <g id="axes_1">
   <g id="patch_2">
    <path d="M 57.6 307.584 
L 414.72 307.584 
L 414.72 41.472 
L 57.6 41.472 
z
" style="fill:#ffffff;"/>
   </g>
   <g id="matplotlib.axis_1">
    <g id="xtick_1">
     <g id="line2d_1">
      <defs>
       <path d="M 0 0 
L 0 3.5 
" id="m3351ba1006" style="stroke:#000000;stroke-width:0.8;"/>
      </defs>
      <g>
       <use style="stroke:#000000;stroke-width:0.8;" x="73.832727" xlink:href="#m3351ba1006" y="307.584"/>
      </g>
     </g>
     <g id="text_1">
      <!-- 0.0 -->
      <g transform="translate(66.332727 321.459)scale(0.1 -0.1)">
       <defs>
        <path d="M 3.125 29.296875 
Q 3.90625 50 6.4375 56.046875 
Q 8.984375 62.109375 13.671875 66.015625 
Q 18.359375 69.921875 25.1875 69.921875 
Q 32.03125 69.921875 37.109375 64.25 
Q 42.1875 58.59375 43.75 50 
Q 45.3125 41.40625 44.71875 30.265625 
Q 44.140625 19.140625 40.8125 12.109375 
Q 37.5 5.078125 30.859375 2.34375 
Q 24.21875 -0.390625 17.578125 2.921875 
Q 10.9375 6.25 8.203125 11.71875 
Q 5.46875 17.1875 4.296875 23.234375 
Q 3.125 29.296875 3.90625 50 
z
M 12.890625 52.734375 
Q 10.546875 31.25 12.5 22.84375 
Q 14.453125 14.453125 18.9375 10.9375 
Q 23.4375 7.421875 28.125 9.5625 
Q 32.8125 11.71875 34.953125 18.15625 
Q 37.109375 24.609375 37.109375 32.21875 
Q 37.109375 39.84375 36.515625 46.09375 
Q 35.9375 52.34375 33 57.421875 
Q 30.078125 62.5 25.1875 62.6875 
Q 20.3125 62.890625 16.59375 57.8125 
Q 12.890625 52.734375 10.546875 31.25 
z
" id="SimHei-48"/>
        <path d="M 16.796875 1.953125 
L 7.8125 1.953125 
L 7.8125 10.546875 
L 16.796875 10.546875 
z
" id="SimHei-46"/>
       </defs>
       <use xlink:href="#SimHei-48"/>
       <use x="50" xlink:href="#SimHei-46"/>
       <use x="100" xlink:href="#SimHei-48"/>
      </g>
     </g>
    </g>
    <g id="xtick_2">
     <g id="line2d_2">
      <g>
       <use style="stroke:#000000;stroke-width:0.8;" x="138.763636" xlink:href="#m3351ba1006" y="307.584"/>
      </g>
     </g>
     <g id="text_2">
      <!-- 0.2 -->
      <g transform="translate(131.263636 321.459)scale(0.1 -0.1)">
       <defs>
        <path d="M 4.6875 3.90625 
Q 5.078125 9.765625 10.15625 14.453125 
Q 15.234375 19.140625 23.046875 29.09375 
Q 30.859375 39.0625 33.203125 44.53125 
Q 35.546875 50 34.953125 53.90625 
Q 34.375 57.8125 31.25 60.34375 
Q 28.125 62.890625 24.015625 62.5 
Q 19.921875 62.109375 16.203125 59.375 
Q 12.5 56.640625 10.546875 51.171875 
L 3.125 52.34375 
Q 6.25 61.328125 11.125 65.421875 
Q 16.015625 69.53125 22.65625 69.921875 
Q 26.5625 70.3125 29.6875 69.71875 
Q 32.8125 69.140625 36.125 66.984375 
Q 39.453125 64.84375 41.59375 60.546875 
Q 43.75 56.25 43.15625 50.1875 
Q 42.578125 44.140625 37.109375 35.734375 
Q 31.640625 27.34375 16.015625 9.375 
L 44.140625 9.375 
L 44.140625 2.34375 
L 4.6875 2.34375 
z
" id="SimHei-50"/>
       </defs>
       <use xlink:href="#SimHei-48"/>
       <use x="50" xlink:href="#SimHei-46"/>
       <use x="100" xlink:href="#SimHei-50"/>
      </g>
     </g>
    </g>
    <g id="xtick_3">
     <g id="line2d_3">
      <g>
       <use style="stroke:#000000;stroke-width:0.8;" x="203.694545" xlink:href="#m3351ba1006" y="307.584"/>
      </g>
     </g>
     <g id="text_3">
      <!-- 0.4 -->
      <g transform="translate(196.194545 321.459)scale(0.1 -0.1)">
       <defs>
        <path d="M 31.25 17.1875 
L 1.171875 17.1875 
L 1.171875 23.828125 
L 32.8125 69.53125 
L 38.671875 69.53125 
L 38.671875 23.828125 
L 48.046875 23.828125 
L 48.046875 17.1875 
L 38.671875 17.1875 
L 38.671875 2.34375 
L 31.25 2.34375 
z
M 31.25 23.828125 
L 31.25 54.6875 
L 9.375 23.828125 
z
" id="SimHei-52"/>
       </defs>
       <use xlink:href="#SimHei-48"/>
       <use x="50" xlink:href="#SimHei-46"/>
       <use x="100" xlink:href="#SimHei-52"/>
      </g>
     </g>
    </g>
    <g id="xtick_4">
     <g id="line2d_4">
      <g>
       <use style="stroke:#000000;stroke-width:0.8;" x="268.625455" xlink:href="#m3351ba1006" y="307.584"/>
      </g>
     </g>
     <g id="text_4">
      <!-- 0.6 -->
      <g transform="translate(261.125455 321.459)scale(0.1 -0.1)">
       <defs>
        <path d="M 3.515625 19.53125 
Q 4.296875 30.859375 6.046875 34.765625 
Q 7.8125 38.671875 11.328125 44.53125 
L 27.34375 69.53125 
L 36.328125 69.53125 
L 19.921875 43.75 
Q 30.46875 46.484375 36.71875 42.96875 
Q 42.96875 39.453125 45.109375 34.953125 
Q 47.265625 30.46875 47.453125 25.1875 
Q 47.65625 19.921875 45.890625 14.84375 
Q 44.140625 9.765625 39.640625 5.65625 
Q 35.15625 1.5625 27.140625 1.171875 
Q 19.140625 0.78125 13.46875 4.09375 
Q 7.8125 7.421875 5.65625 13.46875 
Q 3.515625 19.53125 4.296875 30.859375 
z
M 12.5 16.015625 
Q 19.53125 8.59375 25.390625 8.203125 
Q 31.25 7.8125 35.15625 12.109375 
Q 39.0625 16.40625 39.0625 24.609375 
Q 39.0625 32.8125 34.171875 35.9375 
Q 29.296875 39.0625 23.234375 38.28125 
Q 17.1875 37.5 14.453125 32.421875 
Q 11.71875 27.34375 12.109375 21.671875 
Q 12.5 16.015625 19.53125 8.59375 
z
" id="SimHei-54"/>
       </defs>
       <use xlink:href="#SimHei-48"/>
       <use x="50" xlink:href="#SimHei-46"/>
       <use x="100" xlink:href="#SimHei-54"/>
      </g>
     </g>
    </g>
    <g id="xtick_5">
     <g id="line2d_5">
      <g>
       <use style="stroke:#000000;stroke-width:0.8;" x="333.556364" xlink:href="#m3351ba1006" y="307.584"/>
      </g>
     </g>
     <g id="text_5">
      <!-- 0.8 -->
      <g transform="translate(326.056364 321.459)scale(0.1 -0.1)">
       <defs>
        <path d="M 2.734375 16.796875 
Q 2.734375 26.171875 5.078125 30.65625 
Q 7.421875 35.15625 12.890625 37.890625 
Q 8.203125 40.625 6.640625 43.9375 
Q 5.078125 47.265625 4.875 51.5625 
Q 4.6875 55.859375 6.046875 58.984375 
Q 7.421875 62.109375 10.15625 64.84375 
Q 12.890625 67.578125 16.203125 68.546875 
Q 19.53125 69.53125 23.4375 69.53125 
Q 27.34375 69.53125 30.46875 68.75 
Q 33.59375 67.96875 37.109375 65.421875 
Q 40.625 62.890625 42.1875 58.203125 
Q 43.75 53.515625 41.984375 47.265625 
Q 40.234375 41.015625 32.8125 37.5 
Q 39.453125 35.546875 42.1875 31.4375 
Q 44.921875 27.34375 44.921875 21.484375 
Q 44.921875 15.625 43.15625 12.109375 
Q 41.40625 8.59375 39.25 6.25 
Q 37.109375 3.90625 33.390625 2.53125 
Q 29.6875 1.171875 24.015625 1.171875 
Q 18.359375 1.171875 14.25 2.53125 
Q 10.15625 3.90625 7.421875 6.640625 
Q 4.6875 9.375 3.703125 13.078125 
Q 2.734375 16.796875 2.734375 26.171875 
z
M 10.9375 26.5625 
Q 10.546875 17.1875 12.296875 13.671875 
Q 14.0625 10.15625 18.75 9.171875 
Q 23.4375 8.203125 28.515625 9.375 
Q 33.59375 10.546875 35.546875 14.84375 
Q 37.5 19.140625 36.90625 23.4375 
Q 36.328125 27.734375 32.03125 30.65625 
Q 27.734375 33.59375 22.65625 33.203125 
Q 17.578125 32.8125 14.25 29.6875 
Q 10.9375 26.5625 10.546875 17.1875 
z
M 12.109375 56.25 
Q 12.109375 48.4375 14.84375 44.921875 
Q 17.578125 41.40625 23.4375 41.40625 
Q 29.296875 41.40625 32.21875 44.921875 
Q 35.15625 48.4375 34.953125 53.3125 
Q 34.765625 58.203125 31.4375 60.546875 
Q 28.125 62.890625 22.453125 62.5 
Q 16.796875 62.109375 14.453125 59.171875 
Q 12.109375 56.25 12.109375 48.4375 
z
" id="SimHei-56"/>
       </defs>
       <use xlink:href="#SimHei-48"/>
       <use x="50" xlink:href="#SimHei-46"/>
       <use x="100" xlink:href="#SimHei-56"/>
      </g>
     </g>
    </g>
    <g id="xtick_6">
     <g id="line2d_6">
      <g>
       <use style="stroke:#000000;stroke-width:0.8;" x="398.487273" xlink:href="#m3351ba1006" y="307.584"/>
      </g>
     </g>
     <g id="text_6">
      <!-- 1.0 -->
      <g transform="translate(390.987273 321.459)scale(0.1 -0.1)">
       <defs>
        <path d="M 21.875 56.25 
Q 16.796875 51.171875 8.984375 46.484375 
L 8.984375 53.90625 
Q 18.75 60.546875 25 69.53125 
L 29.6875 69.53125 
L 29.6875 2.34375 
L 21.875 2.34375 
z
" id="SimHei-49"/>
       </defs>
       <use xlink:href="#SimHei-49"/>
       <use x="50" xlink:href="#SimHei-46"/>
       <use x="100" xlink:href="#SimHei-48"/>
      </g>
     </g>
    </g>
    <g id="text_7">
     <!-- x -->
     <g transform="translate(233.66 333.584)scale(0.1 -0.1)">
      <defs>
       <path d="M 44.921875 1.953125 
L 35.546875 1.953125 
L 24.21875 18.75 
L 12.890625 1.953125 
L 3.515625 1.953125 
L 19.53125 24.21875 
L 4.6875 45.703125 
L 14.0625 45.703125 
L 24.21875 29.296875 
L 34.375 45.703125 
L 43.75 45.703125 
L 28.90625 24.21875 
z
" id="SimHei-120"/>
      </defs>
      <use xlink:href="#SimHei-120"/>
     </g>
    </g>
   </g>
   <g id="matplotlib.axis_2">
    <g id="ytick_1">
     <g id="line2d_7">
      <defs>
       <path d="M 0 0 
L -3.5 0 
" id="mb65dad074d" style="stroke:#000000;stroke-width:0.8;"/>
      </defs>
      <g>
       <use style="stroke:#000000;stroke-width:0.8;" x="57.6" xlink:href="#mb65dad074d" y="295.488"/>
      </g>
     </g>
     <g id="text_8">
      <!-- 1.0 -->
      <g transform="translate(35.6 298.9255)scale(0.1 -0.1)">
       <use xlink:href="#SimHei-49"/>
       <use x="50" xlink:href="#SimHei-46"/>
       <use x="100" xlink:href="#SimHei-48"/>
      </g>
     </g>
    </g>
    <g id="ytick_2">
     <g id="line2d_8">
      <g>
       <use style="stroke:#000000;stroke-width:0.8;" x="57.6" xlink:href="#mb65dad074d" y="264.661166"/>
      </g>
     </g>
     <g id="text_9">
      <!-- 1.1 -->
      <g transform="translate(35.6 268.098666)scale(0.1 -0.1)">
       <use xlink:href="#SimHei-49"/>
       <use x="50" xlink:href="#SimHei-46"/>
       <use x="100" xlink:href="#SimHei-49"/>
      </g>
     </g>
    </g>
    <g id="ytick_3">
     <g id="line2d_9">
      <g>
       <use style="stroke:#000000;stroke-width:0.8;" x="57.6" xlink:href="#mb65dad074d" y="233.834332"/>
      </g>
     </g>
     <g id="text_10">
      <!-- 1.2 -->
      <g transform="translate(35.6 237.271832)scale(0.1 -0.1)">
       <use xlink:href="#SimHei-49"/>
       <use x="50" xlink:href="#SimHei-46"/>
       <use x="100" xlink:href="#SimHei-50"/>
      </g>
     </g>
    </g>
    <g id="ytick_4">
     <g id="line2d_10">
      <g>
       <use style="stroke:#000000;stroke-width:0.8;" x="57.6" xlink:href="#mb65dad074d" y="203.007499"/>
      </g>
     </g>
     <g id="text_11">
      <!-- 1.3 -->
      <g transform="translate(35.6 206.444999)scale(0.1 -0.1)">
       <defs>
        <path d="M 3.90625 19.140625 
L 10.9375 20.3125 
Q 12.5 15.234375 16.015625 11.90625 
Q 19.53125 8.59375 24.796875 8.78125 
Q 30.078125 8.984375 33.203125 13.078125 
Q 36.328125 17.1875 35.9375 22.453125 
Q 35.546875 27.734375 31.828125 30.65625 
Q 28.125 33.59375 19.921875 34.765625 
L 19.921875 39.84375 
Q 28.125 40.625 31.828125 44.140625 
Q 35.546875 47.65625 35.15625 53.3125 
Q 34.765625 58.984375 30.078125 61.515625 
Q 25.390625 64.0625 20.109375 62.109375 
Q 14.84375 60.15625 11.71875 51.171875 
L 4.6875 52.34375 
Q 7.03125 59.375 11.125 64.0625 
Q 15.234375 68.75 22.265625 69.53125 
Q 29.296875 70.3125 34.5625 67.765625 
Q 39.84375 65.234375 41.984375 59.953125 
Q 44.140625 54.6875 42.578125 48.4375 
Q 41.015625 42.1875 33.59375 37.5 
Q 39.0625 35.15625 41.984375 30.46875 
Q 44.921875 25.78125 43.9375 18.15625 
Q 42.96875 10.546875 37.109375 5.859375 
Q 31.25 1.171875 23.828125 1.359375 
Q 16.40625 1.5625 10.9375 6.046875 
Q 5.46875 10.546875 3.90625 19.140625 
z
" id="SimHei-51"/>
       </defs>
       <use xlink:href="#SimHei-49"/>
       <use x="50" xlink:href="#SimHei-46"/>
       <use x="100" xlink:href="#SimHei-51"/>
      </g>
     </g>
    </g>
    <g id="ytick_5">
     <g id="line2d_11">
      <g>
       <use style="stroke:#000000;stroke-width:0.8;" x="57.6" xlink:href="#mb65dad074d" y="172.180665"/>
      </g>
     </g>
     <g id="text_12">
      <!-- 1.4 -->
      <g transform="translate(35.6 175.618165)scale(0.1 -0.1)">
       <use xlink:href="#SimHei-49"/>
       <use x="50" xlink:href="#SimHei-46"/>
       <use x="100" xlink:href="#SimHei-52"/>
      </g>
     </g>
    </g>
    <g id="ytick_6">
     <g id="line2d_12">
      <g>
       <use style="stroke:#000000;stroke-width:0.8;" x="57.6" xlink:href="#mb65dad074d" y="141.353831"/>
      </g>
     </g>
     <g id="text_13">
      <!-- 1.5 -->
      <g transform="translate(35.6 144.791331)scale(0.1 -0.1)">
       <defs>
        <path d="M 8.59375 20.703125 
Q 11.328125 10.15625 17.96875 8.984375 
Q 24.609375 7.8125 28.703125 10.34375 
Q 32.8125 12.890625 34.5625 16.984375 
Q 36.328125 21.09375 36.125 26.171875 
Q 35.9375 31.25 33.390625 34.765625 
Q 30.859375 38.28125 26.953125 39.453125 
Q 23.046875 40.625 18.15625 39.453125 
Q 13.28125 38.28125 10.15625 33.984375 
L 3.515625 34.765625 
Q 4.296875 37.109375 10.9375 68.359375 
L 41.796875 68.359375 
L 41.796875 61.328125 
L 16.796875 61.328125 
Q 14.84375 50.78125 12.890625 44.53125 
Q 18.75 47.265625 23.828125 47.0625 
Q 28.90625 46.875 33.59375 44.71875 
Q 38.28125 42.578125 40.421875 38.859375 
Q 42.578125 35.15625 43.546875 31.4375 
Q 44.53125 27.734375 44.328125 23.4375 
Q 44.140625 19.140625 42.578125 14.640625 
Q 41.015625 10.15625 37.890625 7.21875 
Q 34.765625 4.296875 30.265625 2.53125 
Q 25.78125 0.78125 19.921875 1.171875 
Q 14.0625 1.5625 8.78125 5.46875 
Q 3.515625 9.375 1.5625 18.75 
z
" id="SimHei-53"/>
       </defs>
       <use xlink:href="#SimHei-49"/>
       <use x="50" xlink:href="#SimHei-46"/>
       <use x="100" xlink:href="#SimHei-53"/>
      </g>
     </g>
    </g>
    <g id="ytick_7">
     <g id="line2d_13">
      <g>
       <use style="stroke:#000000;stroke-width:0.8;" x="57.6" xlink:href="#mb65dad074d" y="110.526997"/>
      </g>
     </g>
     <g id="text_14">
      <!-- 1.6 -->
      <g transform="translate(35.6 113.964497)scale(0.1 -0.1)">
       <use xlink:href="#SimHei-49"/>
       <use x="50" xlink:href="#SimHei-46"/>
       <use x="100" xlink:href="#SimHei-54"/>
      </g>
     </g>
    </g>
    <g id="ytick_8">
     <g id="line2d_14">
      <g>
       <use style="stroke:#000000;stroke-width:0.8;" x="57.6" xlink:href="#mb65dad074d" y="79.700164"/>
      </g>
     </g>
     <g id="text_15">
      <!-- 1.7 -->
      <g transform="translate(35.6 83.137664)scale(0.1 -0.1)">
       <defs>
        <path d="M 13.28125 2.34375 
Q 20.3125 32.03125 37.890625 61.328125 
L 4.296875 61.328125 
L 4.296875 68.359375 
L 46.09375 68.359375 
L 46.09375 61.71875 
Q 27.734375 32.03125 21.875 2.34375 
L 13.28125 2.34375 
z
" id="SimHei-55"/>
       </defs>
       <use xlink:href="#SimHei-49"/>
       <use x="50" xlink:href="#SimHei-46"/>
       <use x="100" xlink:href="#SimHei-55"/>
      </g>
     </g>
    </g>
    <g id="ytick_9">
     <g id="line2d_15">
      <g>
       <use style="stroke:#000000;stroke-width:0.8;" x="57.6" xlink:href="#mb65dad074d" y="48.87333"/>
      </g>
     </g>
     <g id="text_16">
      <!-- 1.8 -->
      <g transform="translate(35.6 52.31083)scale(0.1 -0.1)">
       <use xlink:href="#SimHei-49"/>
       <use x="50" xlink:href="#SimHei-46"/>
       <use x="100" xlink:href="#SimHei-56"/>
      </g>
     </g>
    </g>
    <g id="text_17">
     <!-- y -->
     <g transform="translate(30.35 177.028)rotate(-90)scale(0.1 -0.1)">
      <defs>
       <path d="M 45.3125 45.703125 
L 27.34375 -1.5625 
Q 25.78125 -7.03125 22.65625 -9.765625 
Q 19.53125 -12.5 14.84375 -12.5 
Q 12.890625 -12.5 11.125 -12.296875 
Q 9.375 -12.109375 7.8125 -11.328125 
L 7.8125 -3.515625 
Q 9.375 -4.296875 10.9375 -4.6875 
Q 12.5 -5.078125 13.671875 -5.078125 
Q 16.796875 -5.078125 17.96875 -4.09375 
Q 19.140625 -3.125 20.3125 0.390625 
L 3.125 45.703125 
L 11.71875 45.703125 
L 24.21875 11.328125 
L 24.609375 11.328125 
L 36.71875 45.703125 
z
" id="SimHei-121"/>
      </defs>
      <use xlink:href="#SimHei-121"/>
     </g>
    </g>
   </g>
   <g id="line2d_16">
    <defs>
     <path d="M 0 2.5 
C 0.663008 2.5 1.29895 2.236584 1.767767 1.767767 
C 2.236584 1.29895 2.5 0.663008 2.5 0 
C 2.5 -0.663008 2.236584 -1.29895 1.767767 -1.767767 
C 1.29895 -2.236584 0.663008 -2.5 0 -2.5 
C -0.663008 -2.5 -1.29895 -2.236584 -1.767767 -1.767767 
C -2.236584 -1.29895 -2.5 -0.663008 -2.5 0 
C -2.5 0.663008 -2.236584 1.29895 -1.767767 1.767767 
C -1.29895 2.236584 -0.663008 2.5 0 2.5 
z
" id="m903e43d1f2" style="stroke:#1f77b4;"/>
    </defs>
    <g clip-path="url(#p822ba9db62)">
     <use style="fill:#1f77b4;stroke:#1f77b4;" x="73.832727" xlink:href="#m903e43d1f2" y="295.488"/>
     <use style="fill:#1f77b4;stroke:#1f77b4;" x="106.298182" xlink:href="#m903e43d1f2" y="264.661166"/>
     <use style="fill:#1f77b4;stroke:#1f77b4;" x="138.763636" xlink:href="#m903e43d1f2" y="236.356528"/>
     <use style="fill:#1f77b4;stroke:#1f77b4;" x="171.229091" xlink:href="#m903e43d1f2" y="209.9627"/>
     <use style="fill:#1f77b4;stroke:#1f77b4;" x="203.694545" xlink:href="#m903e43d1f2" y="185.062397"/>
     <use style="fill:#1f77b4;stroke:#1f77b4;" x="236.16" xlink:href="#m903e43d1f2" y="161.350298"/>
     <use style="fill:#1f77b4;stroke:#1f77b4;" x="268.625455" xlink:href="#m903e43d1f2" y="138.589819"/>
     <use style="fill:#1f77b4;stroke:#1f77b4;" x="301.090909" xlink:href="#m903e43d1f2" y="116.588096"/>
     <use style="fill:#1f77b4;stroke:#1f77b4;" x="333.556364" xlink:href="#m903e43d1f2" y="95.180342"/>
     <use style="fill:#1f77b4;stroke:#1f77b4;" x="366.021818" xlink:href="#m903e43d1f2" y="74.219354"/>
     <use style="fill:#1f77b4;stroke:#1f77b4;" x="398.487273" xlink:href="#m903e43d1f2" y="53.568"/>
    </g>
   </g>
   <g id="line2d_17">
    <defs>
     <path d="M 0 3.535534 
L 2.12132 0 
L 0 -3.535534 
L -2.12132 0 
z
" id="mb81bed3872" style="stroke:#ff7f0e;stroke-linejoin:miter;"/>
    </defs>
    <g clip-path="url(#p822ba9db62)">
     <use style="fill:#ff7f0e;stroke:#ff7f0e;stroke-linejoin:miter;" x="73.832727" xlink:href="#mb81bed3872" y="295.488"/>
     <use style="fill:#ff7f0e;stroke:#ff7f0e;stroke-linejoin:miter;" x="106.298182" xlink:href="#mb81bed3872" y="265.922264"/>
     <use style="fill:#ff7f0e;stroke:#ff7f0e;stroke-linejoin:miter;" x="138.763636" xlink:href="#mb81bed3872" y="238.736857"/>
     <use style="fill:#ff7f0e;stroke:#ff7f0e;stroke-linejoin:miter;" x="171.229091" xlink:href="#mb81bed3872" y="213.426549"/>
     <use style="fill:#ff7f0e;stroke:#ff7f0e;stroke-linejoin:miter;" x="203.694545" xlink:href="#mb81bed3872" y="189.640937"/>
     <use style="fill:#ff7f0e;stroke:#ff7f0e;stroke-linejoin:miter;" x="236.16" xlink:href="#mb81bed3872" y="167.12447"/>
     <use style="fill:#ff7f0e;stroke:#ff7f0e;stroke-linejoin:miter;" x="268.625455" xlink:href="#mb81bed3872" y="145.683274"/>
     <use style="fill:#ff7f0e;stroke:#ff7f0e;stroke-linejoin:miter;" x="301.090909" xlink:href="#mb81bed3872" y="125.1654"/>
     <use style="fill:#ff7f0e;stroke:#ff7f0e;stroke-linejoin:miter;" x="333.556364" xlink:href="#mb81bed3872" y="105.448343"/>
     <use style="fill:#ff7f0e;stroke:#ff7f0e;stroke-linejoin:miter;" x="366.021818" xlink:href="#mb81bed3872" y="86.430782"/>
     <use style="fill:#ff7f0e;stroke:#ff7f0e;stroke-linejoin:miter;" x="398.487273" xlink:href="#mb81bed3872" y="68.026843"/>
    </g>
   </g>
   <g id="line2d_18">
    <defs>
     <path d="M 0 2.5 
C 0.663008 2.5 1.29895 2.236584 1.767767 1.767767 
C 2.236584 1.29895 2.5 0.663008 2.5 0 
C 2.5 -0.663008 2.236584 -1.29895 1.767767 -1.767767 
C 1.29895 -2.236584 0.663008 -2.5 0 -2.5 
C -0.663008 -2.5 -1.29895 -2.236584 -1.767767 -1.767767 
C -2.236584 -1.29895 -2.5 -0.663008 -2.5 0 
C -2.5 0.663008 -2.236584 1.29895 -1.767767 1.767767 
C -1.29895 2.236584 -0.663008 2.5 0 2.5 
z
" id="m7e41b97b0b" style="stroke:#2ca02c;"/>
    </defs>
    <g clip-path="url(#p822ba9db62)">
     <use style="fill:#2ca02c;stroke:#2ca02c;" x="73.832727" xlink:href="#m7e41b97b0b" y="295.488"/>
     <use style="fill:#2ca02c;stroke:#2ca02c;" x="90.065455" xlink:href="#m7e41b97b0b" y="280.074583"/>
     <use style="fill:#2ca02c;stroke:#2ca02c;" x="106.298182" xlink:href="#m7e41b97b0b" y="265.35844"/>
     <use style="fill:#2ca02c;stroke:#2ca02c;" x="122.530909" xlink:href="#m7e41b97b0b" y="251.246759"/>
     <use style="fill:#2ca02c;stroke:#2ca02c;" x="138.763636" xlink:href="#m7e41b97b0b" y="237.664973"/>
     <use style="fill:#2ca02c;stroke:#2ca02c;" x="154.996364" xlink:href="#m7e41b97b0b" y="224.55197"/>
     <use style="fill:#2ca02c;stroke:#2ca02c;" x="171.229091" xlink:href="#m7e41b97b0b" y="211.856802"/>
     <use style="fill:#2ca02c;stroke:#2ca02c;" x="187.461818" xlink:href="#m7e41b97b0b" y="199.536345"/>
     <use style="fill:#2ca02c;stroke:#2ca02c;" x="203.694545" xlink:href="#m7e41b97b0b" y="187.553607"/>
     <use style="fill:#2ca02c;stroke:#2ca02c;" x="219.927273" xlink:href="#m7e41b97b0b" y="175.876459"/>
     <use style="fill:#2ca02c;stroke:#2ca02c;" x="236.16" xlink:href="#m7e41b97b0b" y="164.476675"/>
     <use style="fill:#2ca02c;stroke:#2ca02c;" x="252.392727" xlink:href="#m7e41b97b0b" y="153.329192"/>
     <use style="fill:#2ca02c;stroke:#2ca02c;" x="268.625455" xlink:href="#m7e41b97b0b" y="142.411521"/>
     <use style="fill:#2ca02c;stroke:#2ca02c;" x="284.858182" xlink:href="#m7e41b97b0b" y="131.703283"/>
     <use style="fill:#2ca02c;stroke:#2ca02c;" x="301.090909" xlink:href="#m7e41b97b0b" y="121.185831"/>
     <use style="fill:#2ca02c;stroke:#2ca02c;" x="317.323636" xlink:href="#m7e41b97b0b" y="110.841936"/>
     <use style="fill:#2ca02c;stroke:#2ca02c;" x="333.556364" xlink:href="#m7e41b97b0b" y="100.655527"/>
     <use style="fill:#2ca02c;stroke:#2ca02c;" x="349.789091" xlink:href="#m7e41b97b0b" y="90.611472"/>
     <use style="fill:#2ca02c;stroke:#2ca02c;" x="366.021818" xlink:href="#m7e41b97b0b" y="80.695391"/>
     <use style="fill:#2ca02c;stroke:#2ca02c;" x="382.254545" xlink:href="#m7e41b97b0b" y="70.893484"/>
     <use style="fill:#2ca02c;stroke:#2ca02c;" x="398.487273" xlink:href="#m7e41b97b0b" y="61.192393"/>
    </g>
   </g>
   <g id="line2d_19">
    <defs>
     <path d="M 0 3.535534 
L 2.12132 0 
L 0 -3.535534 
L -2.12132 0 
z
" id="m4f6187ccdf" style="stroke:#d62728;stroke-linejoin:miter;"/>
    </defs>
    <g clip-path="url(#p822ba9db62)">
     <use style="fill:#d62728;stroke:#d62728;stroke-linejoin:miter;" x="73.832727" xlink:href="#m4f6187ccdf" y="295.488"/>
     <use style="fill:#d62728;stroke:#d62728;stroke-linejoin:miter;" x="90.065455" xlink:href="#m4f6187ccdf" y="280.42322"/>
     <use style="fill:#d62728;stroke:#d62728;stroke-linejoin:miter;" x="106.298182" xlink:href="#m4f6187ccdf" y="266.029534"/>
     <use style="fill:#d62728;stroke:#d62728;stroke-linejoin:miter;" x="122.530909" xlink:href="#m4f6187ccdf" y="252.224205"/>
     <use style="fill:#d62728;stroke:#d62728;stroke-linejoin:miter;" x="138.763636" xlink:href="#m4f6187ccdf" y="238.940186"/>
     <use style="fill:#d62728;stroke:#d62728;stroke-linejoin:miter;" x="154.996364" xlink:href="#m4f6187ccdf" y="226.122233"/>
     <use style="fill:#d62728;stroke:#d62728;stroke-linejoin:miter;" x="171.229091" xlink:href="#m4f6187ccdf" y="213.724184"/>
     <use style="fill:#d62728;stroke:#d62728;stroke-linejoin:miter;" x="187.461818" xlink:href="#m4f6187ccdf" y="201.706987"/>
     <use style="fill:#d62728;stroke:#d62728;stroke-linejoin:miter;" x="203.694545" xlink:href="#m4f6187ccdf" y="190.037249"/>
     <use style="fill:#d62728;stroke:#d62728;stroke-linejoin:miter;" x="219.927273" xlink:href="#m4f6187ccdf" y="178.686145"/>
     <use style="fill:#d62728;stroke:#d62728;stroke-linejoin:miter;" x="236.16" xlink:href="#m4f6187ccdf" y="167.628582"/>
     <use style="fill:#d62728;stroke:#d62728;stroke-linejoin:miter;" x="252.392727" xlink:href="#m4f6187ccdf" y="156.842546"/>
     <use style="fill:#d62728;stroke:#d62728;stroke-linejoin:miter;" x="268.625455" xlink:href="#m4f6187ccdf" y="146.308595"/>
     <use style="fill:#d62728;stroke:#d62728;stroke-linejoin:miter;" x="284.858182" xlink:href="#m4f6187ccdf" y="136.009446"/>
     <use style="fill:#d62728;stroke:#d62728;stroke-linejoin:miter;" x="301.090909" xlink:href="#m4f6187ccdf" y="125.92965"/>
     <use style="fill:#d62728;stroke:#d62728;stroke-linejoin:miter;" x="317.323636" xlink:href="#m4f6187ccdf" y="116.055318"/>
     <use style="fill:#d62728;stroke:#d62728;stroke-linejoin:miter;" x="333.556364" xlink:href="#m4f6187ccdf" y="106.373905"/>
     <use style="fill:#d62728;stroke:#d62728;stroke-linejoin:miter;" x="349.789091" xlink:href="#m4f6187ccdf" y="96.874025"/>
     <use style="fill:#d62728;stroke:#d62728;stroke-linejoin:miter;" x="366.021818" xlink:href="#m4f6187ccdf" y="87.545297"/>
     <use style="fill:#d62728;stroke:#d62728;stroke-linejoin:miter;" x="382.254545" xlink:href="#m4f6187ccdf" y="78.378216"/>
     <use style="fill:#d62728;stroke:#d62728;stroke-linejoin:miter;" x="398.487273" xlink:href="#m4f6187ccdf" y="69.364043"/>
    </g>
   </g>
   <g id="line2d_20">
    <path clip-path="url(#p822ba9db62)" d="M 73.832727 295.488 
L 77.112066 292.389748 
L 80.391405 289.322023 
L 83.670744 286.283939 
L 86.950083 283.274655 
L 90.229421 280.293366 
L 93.50876 277.339305 
L 96.788099 274.411739 
L 100.067438 271.509969 
L 103.346777 268.633323 
L 106.626116 265.781161 
L 109.905455 262.952867 
L 113.184793 260.147853 
L 116.464132 257.365553 
L 119.743471 254.605423 
L 123.02281 251.866943 
L 126.302149 249.14961 
L 129.581488 246.452942 
L 132.860826 243.776475 
L 136.140165 241.119761 
L 139.419504 238.482369 
L 142.698843 235.863884 
L 145.978182 233.263905 
L 149.257521 230.682045 
L 152.53686 228.11793 
L 155.816198 225.5712 
L 159.095537 223.041505 
L 162.374876 220.528509 
L 165.654215 218.031884 
L 168.933554 215.551316 
L 172.212893 213.086497 
L 175.492231 210.637132 
L 178.77157 208.202934 
L 182.050909 205.783625 
L 185.330248 203.378934 
L 188.609587 200.9886 
L 191.888926 198.612369 
L 195.168264 196.249993 
L 198.447603 193.901234 
L 201.726942 191.565858 
L 205.006281 189.24364 
L 208.28562 186.934359 
L 211.564959 184.637802 
L 214.844298 182.35376 
L 218.123636 180.082032 
L 221.402975 177.82242 
L 224.682314 175.574732 
L 227.961653 173.338781 
L 231.240992 171.114386 
L 234.520331 168.901369 
L 237.799669 166.699558 
L 241.079008 164.508783 
L 244.358347 162.328882 
L 247.637686 160.159692 
L 250.917025 158.001058 
L 254.196364 155.852827 
L 257.475702 153.714851 
L 260.755041 151.586983 
L 264.03438 149.469082 
L 267.313719 147.36101 
L 270.593058 145.262629 
L 273.872397 143.173809 
L 277.151736 141.094419 
L 280.431074 139.024333 
L 283.710413 136.963427 
L 286.989752 134.91158 
L 290.269091 132.868674 
L 293.54843 130.834592 
L 296.827769 128.809222 
L 300.107107 126.792453 
L 303.386446 124.784175 
L 306.665785 122.784282 
L 309.945124 120.792671 
L 313.224463 118.809239 
L 316.503802 116.833886 
L 319.78314 114.866515 
L 323.062479 112.907029 
L 326.341818 110.955334 
L 329.621157 109.011338 
L 332.900496 107.074951 
L 336.179835 105.146084 
L 339.459174 103.22465 
L 342.738512 101.310564 
L 346.017851 99.403742 
L 349.29719 97.504102 
L 352.576529 95.611564 
L 355.855868 93.726048 
L 359.135207 91.847477 
L 362.414545 89.975775 
L 365.693884 88.110867 
L 368.973223 86.252679 
L 372.252562 84.401139 
L 375.531901 82.556177 
L 378.81124 80.717723 
L 382.090579 78.885708 
L 385.369917 77.060065 
L 388.649256 75.240729 
L 391.928595 73.427634 
L 395.207934 71.620717 
L 398.487273 69.819914 
" style="fill:none;stroke:#9467bd;stroke-linecap:square;stroke-width:2;"/>
   </g>
   <g id="patch_3">
    <path d="M 57.6 307.584 
L 57.6 41.472 
" style="fill:none;stroke:#000000;stroke-linecap:square;stroke-linejoin:miter;stroke-width:0.8;"/>
   </g>
   <g id="patch_4">
    <path d="M 414.72 307.584 
L 414.72 41.472 
" style="fill:none;stroke:#000000;stroke-linecap:square;stroke-linejoin:miter;stroke-width:0.8;"/>
   </g>
   <g id="patch_5">
    <path d="M 57.6 307.584 
L 414.72 307.584 
" style="fill:none;stroke:#000000;stroke-linecap:square;stroke-linejoin:miter;stroke-width:0.8;"/>
   </g>
   <g id="patch_6">
    <path d="M 57.6 41.472 
L 414.72 41.472 
" style="fill:none;stroke:#000000;stroke-linecap:square;stroke-linejoin:miter;stroke-width:0.8;"/>
   </g>
   <g id="text_18">
    <!-- Euler方法和改进Euler方法求ODE的数值解 -->
    <g transform="translate(125.16 35.472)scale(0.12 -0.12)">
     <defs>
      <path d="M 45.3125 1.953125 
L 5.46875 1.953125 
L 5.46875 68.75 
L 43.359375 68.75 
L 43.359375 61.328125 
L 14.453125 61.328125 
L 14.453125 40.625 
L 41.015625 40.625 
L 41.015625 33.203125 
L 14.453125 33.203125 
L 14.453125 9.375 
L 45.3125 9.375 
z
" id="SimHei-69"/>
      <path d="M 43.75 1.953125 
L 35.9375 1.953125 
L 35.9375 10.15625 
Q 32.8125 5.859375 29.09375 3.515625 
Q 25.390625 1.171875 19.53125 1.171875 
Q 12.5 1.171875 8.984375 5.078125 
Q 5.46875 8.984375 5.46875 14.84375 
L 5.46875 45.703125 
L 13.28125 45.703125 
L 13.28125 17.578125 
Q 13.28125 12.890625 15.625 10.15625 
Q 17.96875 7.421875 21.875 7.421875 
Q 26.953125 7.421875 31.4375 12.6875 
Q 35.9375 17.96875 35.9375 25.78125 
L 35.9375 45.703125 
L 43.75 45.703125 
z
" id="SimHei-117"/>
      <path d="M 28.515625 1.953125 
L 20.703125 1.953125 
L 20.703125 68.75 
L 28.515625 68.75 
z
" id="SimHei-108"/>
      <path d="M 44.53125 16.796875 
Q 43.75 9.765625 38.28125 5.46875 
Q 32.8125 1.171875 25.390625 1.171875 
Q 16.015625 1.171875 9.953125 7.21875 
Q 3.90625 13.28125 3.90625 23.828125 
Q 3.90625 34.375 9.953125 40.421875 
Q 16.015625 46.484375 25.390625 46.484375 
Q 33.59375 46.484375 38.859375 41.203125 
Q 44.140625 35.9375 44.140625 23.828125 
L 12.5 23.828125 
Q 12.5 15.234375 16.203125 11.71875 
Q 19.921875 8.203125 25.390625 8.203125 
Q 29.6875 8.203125 32.421875 10.34375 
Q 35.15625 12.5 35.9375 16.796875 
z
M 35.15625 30.078125 
Q 34.375 35.546875 31.640625 37.6875 
Q 28.90625 39.84375 24.609375 39.84375 
Q 20.703125 39.84375 17.578125 37.6875 
Q 14.453125 35.546875 12.890625 30.078125 
z
" id="SimHei-101"/>
      <path d="M 39.0625 37.890625 
Q 31.640625 39.0625 26.5625 35.734375 
Q 21.484375 32.421875 17.96875 24.21875 
L 17.96875 1.953125 
L 10.15625 1.953125 
L 10.15625 45.703125 
L 17.96875 45.703125 
L 17.96875 34.375 
Q 21.484375 40.625 26.75 43.546875 
Q 32.03125 46.484375 39.0625 46.484375 
z
" id="SimHei-114"/>
      <path d="M 6.640625 62.109375 
Q 12.890625 61.71875 20.3125 61.71875 
L 78.515625 61.71875 
Q 87.890625 61.71875 93.75 62.109375 
L 93.75 54.296875 
Q 88.671875 54.6875 79.6875 54.6875 
L 39.453125 54.6875 
Q 39.453125 50.390625 39.0625 39.0625 
L 82.8125 39.0625 
Q 82.03125 33.984375 81.25 24.21875 
L 78.90625 2.734375 
Q 78.125 -4.296875 72.265625 -6.4375 
Q 66.40625 -8.59375 55.078125 -9.765625 
Q 54.6875 -4.6875 51.953125 -0.78125 
Q 60.9375 -1.171875 65.625 0 
Q 70.3125 1.171875 71.484375 6.640625 
L 73.828125 32.03125 
L 38.671875 32.03125 
Q 37.109375 21.09375 33.78125 13.671875 
Q 30.46875 6.25 24.609375 0 
Q 18.75 -6.25 12.890625 -10.9375 
Q 11.328125 -8.59375 5.859375 -5.46875 
Q 10.9375 -2.734375 16.59375 3.125 
Q 22.265625 8.984375 25.96875 16.40625 
Q 29.6875 23.828125 30.65625 32.8125 
Q 31.640625 41.796875 31.640625 54.6875 
L 20.703125 54.6875 
Q 12.109375 54.6875 6.640625 54.296875 
z
M 48.046875 63.671875 
Q 44.53125 71.484375 40.234375 78.125 
Q 43.75 80.078125 47.265625 82.421875 
Q 51.5625 75.78125 55.859375 67.96875 
Q 51.953125 66.40625 48.046875 63.671875 
z
" id="SimHei-26041"/>
      <path d="M 94.921875 -4.6875 
Q 91.40625 -6.640625 87.890625 -9.765625 
Q 85.15625 -4.6875 83.203125 -1.953125 
Q 70.703125 -2.734375 56.046875 -4.09375 
Q 41.40625 -5.46875 36.328125 -7.03125 
Q 35.15625 -2.34375 33.203125 1.171875 
Q 38.28125 2.734375 44.140625 11.328125 
Q 50 19.921875 54.6875 32.8125 
L 43.75 32.8125 
Q 36.71875 32.8125 30.46875 32.421875 
L 30.46875 39.453125 
Q 36.71875 39.0625 44.140625 39.0625 
L 58.203125 39.0625 
L 58.203125 56.25 
L 49.21875 56.25 
Q 41.796875 56.25 36.328125 55.859375 
L 36.328125 62.890625 
Q 42.578125 62.5 48.828125 62.5 
L 58.203125 62.5 
Q 58.203125 73.4375 57.8125 80.46875 
L 66.40625 80.46875 
Q 66.015625 74.609375 66.015625 62.5 
L 77.734375 62.5 
Q 83.59375 62.5 89.84375 62.890625 
L 89.84375 55.859375 
Q 83.59375 56.25 78.515625 56.25 
L 66.015625 56.25 
L 66.015625 39.0625 
L 80.078125 39.0625 
Q 87.109375 39.0625 94.140625 39.453125 
L 94.140625 32.421875 
Q 87.109375 32.8125 80.078125 32.8125 
L 60.15625 32.8125 
L 64.0625 30.46875 
Q 61.71875 27.734375 56.640625 18.75 
Q 51.5625 9.765625 45.3125 1.5625 
Q 62.5 2.34375 79.296875 3.515625 
Q 74.609375 10.546875 69.53125 16.015625 
Q 72.65625 18.359375 75.390625 21.09375 
Q 82.421875 12.5 94.921875 -4.6875 
z
M 4.6875 -3.90625 
Q 10.15625 1.5625 15.8125 9.765625 
Q 21.484375 17.96875 26.953125 26.953125 
Q 28.90625 23.4375 32.421875 21.484375 
Q 28.90625 16.796875 23.4375 7.609375 
Q 17.96875 -1.5625 13.28125 -9.765625 
Q 10.15625 -6.640625 4.6875 -3.90625 
z
M 10.546875 53.515625 
Q 18.75 48.4375 28.125 41.40625 
Q 24.609375 39.0625 21.875 35.15625 
Q 14.453125 41.796875 5.46875 47.65625 
Q 8.203125 50 10.546875 53.515625 
z
M 16.40625 76.5625 
Q 24.21875 71.484375 32.8125 64.453125 
Q 29.6875 62.109375 26.953125 58.203125 
Q 19.53125 65.234375 11.328125 70.703125 
Q 14.0625 73.4375 16.40625 76.5625 
z
" id="SimHei-27861"/>
      <path d="M 91.796875 65.625 
Q 91.40625 57.8125 91.40625 51.171875 
L 91.40625 10.9375 
Q 91.40625 3.90625 91.796875 -0.390625 
L 83.984375 -0.390625 
L 83.984375 8.984375 
L 65.234375 8.984375 
L 65.234375 -1.171875 
L 57.8125 -1.171875 
Q 58.203125 7.8125 58.203125 9.765625 
L 58.203125 51.171875 
Q 58.203125 57.8125 57.8125 65.625 
L 91.796875 65.625 
z
M 51.171875 69.53125 
Q 47.65625 69.53125 35.15625 67.578125 
L 35.15625 50 
L 41.015625 50 
Q 46.875 50 53.515625 50.390625 
L 53.515625 43.359375 
Q 46.875 43.75 41.40625 43.75 
L 35.15625 43.75 
L 35.15625 3.515625 
Q 35.15625 -3.125 35.546875 -8.59375 
L 27.734375 -8.59375 
Q 28.125 -2.34375 28.125 3.515625 
L 28.125 28.90625 
Q 22.265625 17.96875 10.546875 3.90625 
Q 8.59375 6.640625 4.296875 9.375 
Q 12.890625 17.578125 19.328125 28.3125 
Q 25.78125 39.0625 26.5625 43.75 
L 19.53125 43.75 
Q 10.9375 43.75 7.03125 43.359375 
L 7.03125 50.390625 
Q 11.328125 50 19.53125 50 
L 28.125 50 
L 28.125 66.40625 
Q 23.046875 65.625 12.109375 64.453125 
Q 11.328125 68.359375 9.765625 71.484375 
Q 17.1875 71.875 28.515625 73.4375 
Q 39.84375 75 47.65625 78.125 
Q 48.4375 73.828125 51.171875 69.53125 
z
M 83.984375 15.234375 
L 83.984375 58.984375 
L 65.234375 58.984375 
L 65.234375 15.234375 
z
M 48.046875 15.625 
Q 42.96875 25.390625 36.328125 32.8125 
Q 38.671875 34.375 42.1875 37.5 
Q 49.609375 29.296875 54.6875 20.703125 
Q 50.78125 18.359375 48.046875 15.625 
z
" id="SimHei-21644"/>
      <path d="M 71.875 14.0625 
Q 75.78125 8.984375 83.390625 3.90625 
Q 91.015625 -1.171875 96.484375 -3.125 
Q 93.75 -5.078125 90.234375 -10.546875 
Q 85.15625 -7.421875 79.484375 -3.125 
Q 73.828125 1.171875 66.796875 8.203125 
Q 60.15625 1.953125 52.921875 -2.34375 
Q 45.703125 -6.640625 36.71875 -10.546875 
Q 35.15625 -7.03125 31.25 -3.515625 
Q 39.453125 -1.171875 48.234375 3.515625 
Q 57.03125 8.203125 62.890625 14.84375 
Q 59.765625 19.53125 56.25 26.171875 
Q 52.734375 32.8125 49.609375 39.0625 
L 47.65625 36.328125 
Q 43.75 39.0625 41.40625 40.625 
Q 45.3125 45.3125 50.578125 55.65625 
Q 55.859375 66.015625 59.375 80.078125 
Q 64.0625 77.734375 67.96875 77.34375 
Q 65.625 73.4375 63.671875 68.546875 
Q 61.71875 63.671875 59.765625 58.984375 
L 79.296875 58.984375 
Q 87.5 58.984375 92.96875 59.375 
L 92.96875 52.34375 
Q 89.0625 52.734375 82.8125 52.734375 
Q 80.46875 28.90625 71.875 14.0625 
z
M 40.625 70.3125 
Q 40.234375 61.328125 40.234375 52.34375 
Q 40.234375 43.359375 40.625 35.546875 
L 17.578125 35.546875 
L 17.578125 5.078125 
Q 32.03125 12.890625 39.0625 18.359375 
Q 39.84375 13.671875 41.40625 10.9375 
Q 33.984375 6.640625 26.953125 2.34375 
Q 19.921875 -1.953125 12.5 -7.03125 
Q 10.15625 -3.515625 7.03125 -0.390625 
Q 10.546875 2.734375 10.15625 7.8125 
L 10.15625 29.296875 
Q 10.15625 34.765625 9.765625 41.796875 
L 33.203125 41.796875 
L 33.203125 64.0625 
L 20.3125 64.0625 
Q 13.671875 64.0625 6.640625 63.671875 
L 6.640625 70.703125 
Q 13.671875 70.3125 20.3125 70.3125 
z
M 50 40.234375 
Q 53.515625 41.40625 55.859375 42.96875 
Q 58.59375 36.328125 61.71875 30.265625 
Q 64.84375 24.21875 67.578125 20.3125 
Q 73.828125 32.03125 75.390625 52.734375 
L 57.421875 52.734375 
Q 53.90625 46.484375 50 40.234375 
z
" id="SimHei-25913"/>
      <path d="M 68.75 64.0625 
Q 68.75 71.875 68.359375 81.25 
L 76.5625 81.25 
Q 76.171875 76.5625 76.171875 64.0625 
Q 84.375 64.0625 92.1875 64.453125 
L 92.1875 57.03125 
Q 84.375 57.421875 76.171875 57.421875 
L 76.171875 40.234375 
Q 85.546875 40.234375 94.140625 40.625 
L 94.140625 33.203125 
Q 85.546875 33.59375 76.171875 33.59375 
L 76.171875 17.578125 
Q 76.171875 10.9375 76.5625 3.90625 
L 68.359375 3.90625 
Q 68.359375 10.9375 68.75 17.578125 
L 68.75 33.59375 
L 53.90625 33.59375 
Q 52.34375 23.046875 49.40625 16.40625 
Q 46.484375 9.765625 40.625 3.125 
Q 36.71875 6.25 33.203125 8.203125 
Q 40.625 14.84375 42.96875 20.5 
Q 45.3125 26.171875 46.484375 33.59375 
Q 37.5 33.59375 30.859375 33.203125 
L 30.859375 40.625 
Q 37.890625 40.234375 47.265625 40.234375 
Q 48.046875 49.21875 48.046875 57.421875 
Q 40.234375 57.421875 32.8125 56.640625 
L 32.8125 64.453125 
Q 40.234375 64.0625 48.4375 64.0625 
Q 48.4375 73.046875 48.046875 81.25 
Q 51.953125 80.859375 56.25 80.46875 
Q 55.859375 75.390625 55.46875 64.0625 
z
M 25 48.828125 
Q 24.21875 40.234375 24.21875 34.375 
L 24.21875 9.765625 
Q 35.546875 1.953125 48.4375 0.578125 
Q 61.328125 -0.78125 73.625 -0.390625 
Q 85.9375 0 95.703125 1.5625 
Q 93.75 -3.125 93.359375 -8.203125 
Q 74.609375 -8.203125 62.6875 -7.8125 
Q 50.78125 -7.421875 40.8125 -4.875 
Q 30.859375 -2.34375 25.78125 0.578125 
Q 20.703125 3.515625 16.984375 0.578125 
Q 13.28125 -2.34375 8.984375 -7.03125 
Q 6.640625 -3.515625 3.125 -0.78125 
Q 12.5 6.25 16.796875 8.984375 
L 16.796875 42.1875 
Q 12.5 42.1875 5.859375 41.40625 
L 5.859375 49.21875 
Q 13.671875 48.828125 17.578125 48.828125 
z
M 68.75 40.234375 
L 68.75 57.421875 
L 55.46875 57.421875 
Q 55.078125 49.21875 54.296875 40.234375 
z
M 18.75 78.90625 
Q 25 66.40625 26.5625 61.328125 
Q 22.265625 60.546875 18.75 58.203125 
Q 17.578125 65.234375 10.9375 75.78125 
L 18.75 78.90625 
z
" id="SimHei-36827"/>
      <path d="M 7.421875 62.890625 
Q 13.671875 62.5 20.703125 62.5 
L 44.921875 62.5 
Q 44.921875 73.828125 44.53125 80.078125 
L 53.125 80.078125 
Q 52.734375 73.828125 52.734375 62.5 
L 80.46875 62.5 
Q 85.9375 62.5 92.578125 62.890625 
L 92.578125 55.859375 
Q 85.546875 56.25 80.46875 56.25 
L 52.734375 56.25 
Q 53.125 50 56.4375 42.96875 
Q 59.765625 35.9375 63.28125 31.25 
Q 71.875 38.28125 79.296875 49.21875 
Q 82.03125 46.09375 87.109375 42.96875 
Q 82.421875 40.625 66.40625 25.78125 
Q 71.484375 19.140625 78.703125 13.28125 
Q 85.9375 7.421875 94.53125 5.078125 
Q 89.0625 1.953125 86.71875 -2.34375 
Q 78.125 2.34375 69.328125 10.734375 
Q 60.546875 19.140625 52.734375 37.109375 
L 52.734375 2.34375 
Q 53.125 -3.515625 49.015625 -5.46875 
Q 44.921875 -7.421875 37.109375 -8.203125 
Q 36.328125 -4.296875 33.59375 0.390625 
Q 40.234375 0 42.765625 0.578125 
Q 45.3125 1.171875 44.921875 4.6875 
L 44.921875 26.171875 
Q 29.296875 14.0625 22.453125 8.59375 
Q 15.625 3.125 11.328125 -0.78125 
Q 7.8125 3.125 4.6875 6.25 
Q 10.15625 8.984375 18.75 14.640625 
Q 27.34375 20.3125 44.921875 35.15625 
L 44.921875 56.25 
L 20.703125 56.25 
Q 13.671875 56.25 7.421875 55.859375 
z
M 19.140625 49.609375 
Q 27.734375 42.578125 35.15625 36.328125 
L 28.515625 30.46875 
Q 22.65625 37.109375 12.890625 44.140625 
L 19.140625 49.609375 
z
M 70.3125 79.6875 
Q 76.5625 75.390625 82.8125 69.140625 
Q 80.078125 67.1875 76.953125 64.0625 
Q 72.65625 68.75 64.453125 75.390625 
Q 66.796875 77.34375 70.3125 79.6875 
z
" id="SimHei-27714"/>
      <path d="M 46.09375 35.546875 
Q 46.09375 17.1875 40.421875 9.171875 
Q 34.765625 1.171875 24.609375 1.171875 
Q 14.453125 1.171875 8.59375 9.171875 
Q 2.734375 17.1875 2.734375 35.546875 
Q 2.734375 53.90625 8.59375 61.71875 
Q 14.453125 69.53125 24.609375 69.53125 
Q 34.765625 69.53125 40.421875 61.71875 
Q 46.09375 53.90625 46.09375 35.546875 
z
M 36.71875 35.546875 
Q 36.71875 51.953125 33.203125 57.03125 
Q 29.6875 62.109375 24.609375 62.109375 
Q 19.53125 62.109375 15.8125 57.03125 
Q 12.109375 51.953125 12.109375 35.546875 
Q 12.109375 19.140625 15.8125 13.859375 
Q 19.53125 8.59375 24.609375 8.59375 
Q 29.6875 8.59375 33.203125 13.859375 
Q 36.71875 19.140625 36.71875 35.546875 
z
" id="SimHei-79"/>
      <path d="M 45.703125 35.15625 
Q 45.703125 17.1875 38.078125 9.5625 
Q 30.46875 1.953125 17.578125 1.953125 
L 4.296875 1.953125 
L 4.296875 68.75 
L 17.578125 68.75 
Q 32.03125 68.75 38.859375 60.9375 
Q 45.703125 53.125 45.703125 35.15625 
z
M 36.328125 35.15625 
Q 36.328125 49.609375 31.640625 55.46875 
Q 26.953125 61.328125 17.578125 61.328125 
L 13.28125 61.328125 
L 13.28125 9.375 
L 17.578125 9.375 
Q 26.953125 9.375 31.640625 15.03125 
Q 36.328125 20.703125 36.328125 35.15625 
z
" id="SimHei-68"/>
      <path d="M 32.8125 77.734375 
Q 30.859375 74.21875 27.34375 61.71875 
L 44.921875 61.71875 
Q 44.53125 55.078125 44.53125 44.921875 
L 44.53125 10.546875 
Q 44.53125 4.6875 44.921875 -6.25 
L 37.109375 -6.25 
L 37.109375 1.5625 
L 17.1875 1.5625 
L 17.1875 -7.03125 
L 9.375 -7.03125 
Q 9.765625 5.46875 9.765625 8.59375 
L 9.765625 44.53125 
Q 9.765625 55.078125 9.375 61.71875 
L 20.703125 61.71875 
Q 22.65625 70.703125 23.828125 80.46875 
Q 29.296875 78.515625 32.8125 77.734375 
z
M 91.015625 48.046875 
Q 90.625 24.21875 89.0625 2.734375 
Q 88.28125 -4.296875 81.640625 -6.640625 
Q 75 -8.984375 66.796875 -9.765625 
Q 66.40625 -5.46875 63.28125 -0.78125 
Q 71.09375 -1.171875 75.578125 -0.390625 
Q 80.078125 0.390625 81.25 3.125 
Q 82.421875 5.859375 83 19.140625 
Q 83.59375 32.421875 83.984375 56.25 
L 61.328125 56.25 
Q 58.203125 48.828125 52.34375 38.671875 
Q 49.609375 41.40625 45.703125 42.96875 
Q 49.21875 47.65625 52.34375 54.296875 
Q 55.46875 60.9375 57.8125 68.75 
Q 60.15625 76.5625 60.546875 80.859375 
Q 66.015625 78.515625 69.921875 77.34375 
Q 67.96875 74.21875 66.59375 70.5 
Q 65.234375 66.796875 63.671875 63.28125 
L 91.40625 63.28125 
Q 91.015625 55.078125 91.015625 48.046875 
z
M 37.109375 8.203125 
L 37.109375 28.90625 
L 17.1875 28.90625 
L 17.1875 8.203125 
z
M 37.109375 35.546875 
L 37.109375 55.078125 
L 17.1875 55.078125 
L 17.1875 35.546875 
z
M 67.96875 32.03125 
Q 70.3125 27.34375 73.4375 19.921875 
Q 70.703125 18.75 66.015625 16.015625 
Q 63.28125 23.4375 60.9375 28.703125 
Q 58.59375 33.984375 56.25 37.5 
Q 58.984375 39.0625 63.28125 41.40625 
z
" id="SimHei-30340"/>
      <path d="M 70.703125 76.953125 
Q 69.921875 75 68.75 71.671875 
Q 67.578125 68.359375 65.234375 59.765625 
L 83.203125 59.765625 
Q 87.109375 59.765625 92.578125 60.15625 
L 92.578125 53.125 
Q 88.28125 53.515625 85.9375 53.515625 
Q 85.9375 47.265625 83.78125 33.78125 
Q 81.640625 20.3125 76.171875 10.546875 
Q 80.078125 5.859375 84.953125 2.140625 
Q 89.84375 -1.5625 94.140625 -3.125 
Q 89.453125 -6.640625 87.890625 -9.765625 
Q 83.203125 -7.03125 79.296875 -3.515625 
Q 75.390625 0 71.484375 5.078125 
Q 67.1875 0.390625 62.296875 -2.921875 
Q 57.421875 -6.25 50 -10.15625 
Q 48.046875 -6.640625 44.53125 -4.6875 
Q 50.390625 -2.34375 57.03125 1.953125 
Q 63.671875 6.25 67.1875 10.546875 
Q 64.453125 16.015625 61.90625 22.265625 
Q 59.375 28.515625 57.421875 38.671875 
Q 56.25 35.546875 53.515625 30.46875 
Q 50.78125 32.03125 46.875 33.59375 
Q 53.125 44.53125 57.03125 57.421875 
Q 60.9375 70.3125 62.109375 79.6875 
Q 66.796875 77.734375 70.703125 76.953125 
z
M 32.8125 35.15625 
Q 31.25 33.59375 29.296875 30.078125 
L 50.78125 30.078125 
Q 48.4375 20.3125 42.578125 10.546875 
Q 48.828125 8.203125 52.34375 6.25 
Q 50.390625 3.515625 48.828125 0.390625 
Q 45.3125 2.734375 38.28125 5.078125 
Q 30.46875 -3.515625 11.328125 -10.15625 
Q 9.375 -5.859375 6.25 -4.296875 
Q 24.609375 0 31.25 7.421875 
Q 20.3125 10.15625 13.28125 12.109375 
Q 15.625 15.625 19.53125 23.828125 
Q 15.625 23.828125 6.640625 23.4375 
L 6.640625 30.46875 
Q 14.0625 30.078125 21.875 30.078125 
Q 23.4375 33.59375 24.21875 37.890625 
Q 28.515625 36.328125 32.8125 35.15625 
z
M 27.734375 61.71875 
Q 27.734375 71.09375 27.34375 79.6875 
L 35.15625 79.6875 
Q 34.765625 71.484375 34.765625 61.71875 
Q 48.046875 61.71875 53.515625 62.109375 
L 53.515625 55.078125 
Q 48.046875 55.46875 34.765625 55.46875 
Q 34.765625 44.140625 35.15625 37.890625 
L 27.34375 37.890625 
Q 27.734375 43.359375 27.734375 51.5625 
Q 25.78125 48.4375 20.3125 43.546875 
Q 14.84375 38.671875 10.15625 35.9375 
Q 8.203125 39.453125 4.296875 41.015625 
Q 7.8125 42.1875 13.671875 46.484375 
Q 19.53125 50.78125 22.65625 55.46875 
Q 14.84375 55.46875 7.8125 55.078125 
L 7.8125 62.109375 
Q 14.453125 61.71875 27.734375 61.71875 
z
M 62.109375 49.609375 
Q 65.625 26.5625 71.875 17.578125 
Q 75.78125 26.5625 77.140625 35.734375 
Q 78.515625 44.921875 78.90625 53.515625 
L 63.671875 53.515625 
L 62.109375 49.609375 
z
M 22.65625 15.625 
Q 27.34375 14.453125 35.546875 12.5 
Q 38.671875 16.40625 41.40625 23.828125 
L 26.953125 23.828125 
Q 25 19.921875 22.65625 15.625 
z
M 51.953125 75.390625 
Q 50 72.265625 48.828125 69.53125 
Q 47.65625 66.796875 45.703125 62.890625 
Q 42.578125 64.453125 39.453125 65.234375 
Q 42.578125 70.3125 45.3125 78.125 
Q 49.21875 76.171875 51.953125 75.390625 
z
M 40.234375 52.734375 
Q 45.3125 47.65625 50 42.578125 
Q 47.65625 40.625 44.921875 37.890625 
Q 39.453125 44.53125 35.9375 48.4375 
Q 38.28125 50.390625 40.234375 52.734375 
z
M 14.453125 78.125 
Q 19.921875 72.65625 23.4375 67.1875 
L 17.578125 63.671875 
Q 14.84375 69.140625 9.375 73.828125 
Q 12.890625 76.171875 14.453125 78.125 
z
" id="SimHei-25968"/>
      <path d="M 57.421875 69.53125 
L 57.421875 79.6875 
Q 62.109375 79.296875 67.96875 78.90625 
Q 66.015625 76.171875 65.625 69.53125 
L 80.078125 69.53125 
Q 86.71875 69.53125 91.796875 69.921875 
L 91.796875 62.890625 
Q 86.328125 63.28125 80.078125 63.28125 
L 65.234375 63.28125 
L 64.453125 54.6875 
L 84.375 54.6875 
Q 83.984375 50 83.984375 42.1875 
L 83.984375 2.34375 
Q 91.796875 2.34375 95.3125 2.734375 
L 95.3125 -4.296875 
Q 90.234375 -3.90625 81.25 -3.90625 
L 44.53125 -3.90625 
Q 35.546875 -3.90625 29.6875 -4.296875 
L 29.6875 2.734375 
Q 33.203125 2.34375 40.625 2.34375 
L 40.625 42.1875 
Q 40.625 49.609375 40.234375 54.6875 
L 56.25 54.6875 
L 57.03125 63.28125 
L 50 63.28125 
Q 40.234375 63.28125 34.765625 62.890625 
L 34.765625 69.921875 
Q 39.84375 69.53125 50 69.53125 
z
M 34.765625 76.5625 
Q 31.640625 73.046875 25.78125 58.59375 
L 25.78125 7.03125 
Q 25.78125 -1.171875 26.171875 -8.59375 
L 17.96875 -8.59375 
Q 18.359375 -1.953125 18.359375 5.859375 
L 18.359375 46.09375 
Q 13.671875 38.28125 9.765625 33.59375 
Q 6.640625 37.890625 3.90625 40.234375 
Q 7.8125 44.140625 14.640625 55.265625 
Q 21.484375 66.40625 25.390625 80.46875 
Q 30.859375 77.734375 34.765625 76.5625 
z
M 76.953125 41.40625 
L 76.953125 49.21875 
L 48.046875 49.21875 
L 48.046875 41.40625 
z
M 76.953125 2.34375 
L 76.953125 9.765625 
L 48.046875 9.765625 
L 48.046875 2.34375 
z
M 76.953125 15.625 
L 76.953125 22.65625 
L 48.046875 22.65625 
L 48.046875 15.625 
z
M 76.953125 28.515625 
L 76.953125 35.546875 
L 48.046875 35.546875 
L 48.046875 28.515625 
z
" id="SimHei-20540"/>
      <path d="M 30.078125 78.515625 
Q 26.953125 76.953125 25.390625 71.484375 
L 45.703125 71.484375 
Q 43.75 68.75 40.625 64.0625 
Q 37.5 59.375 36.328125 57.03125 
L 50.390625 57.03125 
Q 49.609375 49.21875 49.609375 41.40625 
L 49.609375 1.171875 
Q 49.609375 -3.515625 47.0625 -4.875 
Q 44.53125 -6.25 39.0625 -7.03125 
Q 38.28125 -2.734375 36.71875 1.171875 
Q 39.84375 1.171875 41.40625 1.359375 
Q 42.96875 1.5625 42.96875 5.078125 
L 42.96875 17.96875 
L 34.765625 17.96875 
L 34.765625 -0.390625 
L 28.125 -0.390625 
L 28.125 17.96875 
L 19.921875 17.96875 
Q 19.53125 12.109375 17.96875 5.859375 
Q 16.40625 -0.390625 12.890625 -7.8125 
Q 9.375 -5.859375 5.46875 -3.90625 
Q 9.375 1.5625 11.328125 9.5625 
Q 13.28125 17.578125 13.671875 30.078125 
Q 14.0625 42.578125 13.671875 55.078125 
Q 10.546875 51.5625 8.59375 49.609375 
Q 6.25 52.734375 3.125 55.078125 
Q 8.984375 59.765625 13.859375 66.59375 
Q 18.75 73.4375 21.875 82.8125 
Q 25 80.859375 30.078125 78.515625 
z
M 67.578125 37.890625 
Q 65.625 36.328125 64.84375 33.203125 
L 71.484375 33.203125 
Q 71.484375 41.40625 71.09375 44.140625 
L 78.90625 44.140625 
Q 78.125 40.625 78.125 33.203125 
L 83.59375 33.203125 
Q 89.453125 33.203125 92.96875 33.59375 
L 92.96875 26.5625 
Q 87.890625 27.34375 82.8125 27.34375 
L 78.125 27.34375 
L 78.125 16.015625 
L 80.859375 16.015625 
Q 88.28125 16.015625 96.09375 16.40625 
L 96.09375 9.765625 
Q 88.671875 10.15625 80.859375 10.15625 
L 78.125 10.15625 
L 78.125 3.515625 
Q 78.125 -1.953125 78.515625 -10.15625 
L 71.09375 -10.15625 
Q 71.484375 -1.953125 71.484375 3.515625 
L 71.484375 10.15625 
L 62.890625 10.15625 
Q 58.59375 10.15625 51.953125 9.765625 
L 51.953125 16.40625 
Q 57.8125 16.015625 62.890625 16.015625 
L 71.484375 16.015625 
L 71.484375 27.34375 
L 61.71875 27.34375 
Q 60.546875 24.21875 58.203125 19.53125 
Q 55.46875 21.09375 51.953125 23.828125 
Q 54.6875 26.953125 56.640625 32.03125 
Q 58.59375 37.109375 59.765625 41.796875 
L 67.578125 37.890625 
z
M 76.5625 46.484375 
Q 75.78125 50.78125 73.828125 54.6875 
Q 78.125 54.6875 80.65625 55.078125 
Q 83.203125 55.46875 83.59375 57.421875 
Q 83.984375 59.375 84.765625 71.09375 
L 70.703125 71.09375 
Q 68.359375 60.15625 66.015625 55.265625 
Q 63.671875 50.390625 58.59375 44.53125 
Q 56.25 47.65625 52.34375 50.390625 
Q 56.640625 53.515625 59.375 58.390625 
Q 62.109375 63.28125 63.28125 71.09375 
Q 58.59375 71.09375 51.953125 70.703125 
L 51.953125 77.34375 
Q 58.203125 76.953125 63.28125 76.953125 
L 92.578125 76.953125 
Q 91.40625 57.8125 90.421875 53.90625 
Q 89.453125 50 85.546875 48.4375 
Q 81.640625 46.875 76.5625 46.484375 
z
M 28.515625 57.03125 
Q 31.640625 60.9375 33.984375 65.625 
L 21.484375 65.625 
Q 17.96875 60.9375 15.234375 57.03125 
z
M 42.96875 24.21875 
L 42.96875 34.765625 
L 34.765625 34.765625 
L 34.765625 24.21875 
z
M 42.96875 40.625 
L 42.96875 51.171875 
L 34.765625 51.171875 
L 34.765625 40.625 
z
M 28.125 24.21875 
L 28.125 34.765625 
L 20.703125 34.765625 
L 20.3125 24.21875 
z
M 28.125 40.625 
L 28.125 51.171875 
L 20.703125 51.171875 
L 20.703125 40.625 
z
" id="SimHei-35299"/>
     </defs>
     <use xlink:href="#SimHei-69"/>
     <use x="50" xlink:href="#SimHei-117"/>
     <use x="100" xlink:href="#SimHei-108"/>
     <use x="150" xlink:href="#SimHei-101"/>
     <use x="200" xlink:href="#SimHei-114"/>
     <use x="250" xlink:href="#SimHei-26041"/>
     <use x="350" xlink:href="#SimHei-27861"/>
     <use x="450" xlink:href="#SimHei-21644"/>
     <use x="550" xlink:href="#SimHei-25913"/>
     <use x="650" xlink:href="#SimHei-36827"/>
     <use x="750" xlink:href="#SimHei-69"/>
     <use x="800" xlink:href="#SimHei-117"/>
     <use x="850" xlink:href="#SimHei-108"/>
     <use x="900" xlink:href="#SimHei-101"/>
     <use x="950" xlink:href="#SimHei-114"/>
     <use x="1000" xlink:href="#SimHei-26041"/>
     <use x="1100" xlink:href="#SimHei-27861"/>
     <use x="1200" xlink:href="#SimHei-27714"/>
     <use x="1300" xlink:href="#SimHei-79"/>
     <use x="1350" xlink:href="#SimHei-68"/>
     <use x="1400" xlink:href="#SimHei-69"/>
     <use x="1450" xlink:href="#SimHei-30340"/>
     <use x="1550" xlink:href="#SimHei-25968"/>
     <use x="1650" xlink:href="#SimHei-20540"/>
     <use x="1750" xlink:href="#SimHei-35299"/>
    </g>
   </g>
   <g id="legend_1">
    <g id="patch_7">
     <path d="M 64.6 121.112625 
L 191.6 121.112625 
Q 193.6 121.112625 193.6 119.112625 
L 193.6 48.472 
Q 193.6 46.472 191.6 46.472 
L 64.6 46.472 
Q 62.6 46.472 62.6 48.472 
L 62.6 119.112625 
Q 62.6 121.112625 64.6 121.112625 
z
" style="fill:#ffffff;opacity:0.8;stroke:#cccccc;stroke-linejoin:miter;"/>
    </g>
    <g id="line2d_21"/>
    <g id="line2d_22">
     <g>
      <use style="fill:#1f77b4;stroke:#1f77b4;" x="76.6" xlink:href="#m903e43d1f2" y="55.057938"/>
     </g>
    </g>
    <g id="text_19">
     <!-- Euler方法h=0.1 -->
     <g transform="translate(94.6 58.557938)scale(0.1 -0.1)">
      <defs>
       <path d="M 43.75 1.953125 
L 35.9375 1.953125 
L 35.9375 30.078125 
Q 35.9375 34.765625 33.59375 37.5 
Q 31.25 40.234375 27.34375 40.234375 
Q 22.265625 40.234375 17.765625 34.953125 
Q 13.28125 29.6875 13.28125 21.875 
L 13.28125 1.953125 
L 5.46875 1.953125 
L 5.46875 68.75 
L 13.28125 68.75 
L 13.28125 37.5 
Q 16.40625 41.796875 20.109375 44.140625 
Q 23.828125 46.484375 29.6875 46.484375 
Q 36.71875 46.484375 40.234375 42.578125 
Q 43.75 38.671875 43.75 32.8125 
z
" id="SimHei-104"/>
       <path d="M 46.484375 45.3125 
L 1.953125 45.3125 
L 1.953125 51.5625 
L 46.484375 51.5625 
z
M 46.484375 21.484375 
L 1.953125 21.484375 
L 1.953125 27.734375 
L 46.484375 27.734375 
z
" id="SimHei-61"/>
      </defs>
      <use xlink:href="#SimHei-69"/>
      <use x="50" xlink:href="#SimHei-117"/>
      <use x="100" xlink:href="#SimHei-108"/>
      <use x="150" xlink:href="#SimHei-101"/>
      <use x="200" xlink:href="#SimHei-114"/>
      <use x="250" xlink:href="#SimHei-26041"/>
      <use x="350" xlink:href="#SimHei-27861"/>
      <use x="450" xlink:href="#SimHei-104"/>
      <use x="500" xlink:href="#SimHei-61"/>
      <use x="550" xlink:href="#SimHei-48"/>
      <use x="600" xlink:href="#SimHei-46"/>
      <use x="650" xlink:href="#SimHei-49"/>
     </g>
    </g>
    <g id="line2d_23"/>
    <g id="line2d_24">
     <g>
      <use style="fill:#ff7f0e;stroke:#ff7f0e;stroke-linejoin:miter;" x="76.6" xlink:href="#mb81bed3872" y="69.393875"/>
     </g>
    </g>
    <g id="text_20">
     <!-- 改进Euler方法h=0.1 -->
     <g transform="translate(94.6 72.893875)scale(0.1 -0.1)">
      <use xlink:href="#SimHei-25913"/>
      <use x="100" xlink:href="#SimHei-36827"/>
      <use x="200" xlink:href="#SimHei-69"/>
      <use x="250" xlink:href="#SimHei-117"/>
      <use x="300" xlink:href="#SimHei-108"/>
      <use x="350" xlink:href="#SimHei-101"/>
      <use x="400" xlink:href="#SimHei-114"/>
      <use x="450" xlink:href="#SimHei-26041"/>
      <use x="550" xlink:href="#SimHei-27861"/>
      <use x="650" xlink:href="#SimHei-104"/>
      <use x="700" xlink:href="#SimHei-61"/>
      <use x="750" xlink:href="#SimHei-48"/>
      <use x="800" xlink:href="#SimHei-46"/>
      <use x="850" xlink:href="#SimHei-49"/>
     </g>
    </g>
    <g id="line2d_25"/>
    <g id="line2d_26">
     <g>
      <use style="fill:#2ca02c;stroke:#2ca02c;" x="76.6" xlink:href="#m7e41b97b0b" y="83.729813"/>
     </g>
    </g>
    <g id="text_21">
     <!-- Euler方法h=0.05 -->
     <g transform="translate(94.6 87.229813)scale(0.1 -0.1)">
      <use xlink:href="#SimHei-69"/>
      <use x="50" xlink:href="#SimHei-117"/>
      <use x="100" xlink:href="#SimHei-108"/>
      <use x="150" xlink:href="#SimHei-101"/>
      <use x="200" xlink:href="#SimHei-114"/>
      <use x="250" xlink:href="#SimHei-26041"/>
      <use x="350" xlink:href="#SimHei-27861"/>
      <use x="450" xlink:href="#SimHei-104"/>
      <use x="500" xlink:href="#SimHei-61"/>
      <use x="550" xlink:href="#SimHei-48"/>
      <use x="600" xlink:href="#SimHei-46"/>
      <use x="650" xlink:href="#SimHei-48"/>
      <use x="700" xlink:href="#SimHei-53"/>
     </g>
    </g>
    <g id="line2d_27"/>
    <g id="line2d_28">
     <g>
      <use style="fill:#d62728;stroke:#d62728;stroke-linejoin:miter;" x="76.6" xlink:href="#m4f6187ccdf" y="98.06575"/>
     </g>
    </g>
    <g id="text_22">
     <!-- 改进Euler方法h=0.05 -->
     <g transform="translate(94.6 101.56575)scale(0.1 -0.1)">
      <use xlink:href="#SimHei-25913"/>
      <use x="100" xlink:href="#SimHei-36827"/>
      <use x="200" xlink:href="#SimHei-69"/>
      <use x="250" xlink:href="#SimHei-117"/>
      <use x="300" xlink:href="#SimHei-108"/>
      <use x="350" xlink:href="#SimHei-101"/>
      <use x="400" xlink:href="#SimHei-114"/>
      <use x="450" xlink:href="#SimHei-26041"/>
      <use x="550" xlink:href="#SimHei-27861"/>
      <use x="650" xlink:href="#SimHei-104"/>
      <use x="700" xlink:href="#SimHei-61"/>
      <use x="750" xlink:href="#SimHei-48"/>
      <use x="800" xlink:href="#SimHei-46"/>
      <use x="850" xlink:href="#SimHei-48"/>
      <use x="900" xlink:href="#SimHei-53"/>
     </g>
    </g>
    <g id="line2d_29">
     <path d="M 66.6 112.362625 
L 86.6 112.362625 
" style="fill:none;stroke:#9467bd;stroke-linecap:square;stroke-width:2;"/>
    </g>
    <g id="line2d_30"/>
    <g id="text_23">
     <!-- 解析解 -->
     <g transform="translate(94.6 115.862625)scale(0.1 -0.1)">
      <defs>
       <path d="M 92.1875 71.09375 
Q 87.109375 70.703125 79.484375 69.53125 
Q 71.875 68.359375 58.203125 66.796875 
L 58.203125 48.046875 
L 84.375 48.046875 
Q 89.453125 48.046875 96.09375 48.4375 
L 96.09375 41.40625 
Q 89.0625 41.796875 82.03125 41.796875 
L 82.03125 5.46875 
Q 82.03125 -1.5625 82.421875 -7.421875 
L 74.21875 -7.421875 
Q 74.609375 -1.171875 74.609375 5.859375 
L 74.609375 41.796875 
L 58.203125 41.796875 
Q 58.203125 33.984375 57.03125 25.578125 
Q 55.859375 17.1875 53.703125 9.953125 
Q 51.5625 2.734375 44.53125 -7.8125 
Q 41.796875 -4.6875 35.546875 -2.34375 
Q 44.140625 5.078125 47.65625 17.375 
Q 51.171875 29.6875 50.96875 46.875 
Q 50.78125 64.0625 50.390625 72.65625 
Q 62.109375 73.4375 71.28125 75 
Q 80.46875 76.5625 85.9375 78.90625 
Q 88.671875 74.21875 92.1875 71.09375 
z
M 29.6875 8.203125 
Q 29.6875 3.125 30.078125 -8.203125 
L 21.875 -8.203125 
Q 22.265625 0.390625 22.265625 8.203125 
L 22.265625 35.15625 
Q 18.359375 25.390625 9.375 12.5 
Q 6.640625 16.796875 3.125 19.140625 
Q 10.15625 26.953125 15.03125 37.296875 
Q 19.921875 47.65625 21.484375 53.515625 
Q 14.453125 53.515625 7.03125 53.125 
L 7.03125 60.15625 
Q 14.453125 59.765625 22.265625 59.765625 
L 22.265625 69.53125 
Q 22.265625 74.609375 21.875 80.078125 
L 30.46875 80.078125 
Q 29.6875 75.390625 29.6875 69.53125 
L 29.6875 59.765625 
Q 35.9375 59.765625 43.359375 60.15625 
L 43.359375 53.125 
Q 35.9375 53.515625 29.6875 53.515625 
L 29.6875 8.203125 
z
M 37.109375 42.96875 
Q 43.75 32.03125 45.703125 28.125 
Q 42.1875 26.5625 38.28125 24.21875 
Q 35.9375 29.6875 30.46875 39.453125 
Q 33.984375 41.015625 37.109375 42.96875 
z
" id="SimHei-26512"/>
      </defs>
      <use xlink:href="#SimHei-35299"/>
      <use x="100" xlink:href="#SimHei-26512"/>
      <use x="200" xlink:href="#SimHei-35299"/>
     </g>
    </g>
   </g>
  </g>
 </g>
 <defs>
  <clipPath id="p822ba9db62">
   <rect height="266.112" width="357.12" x="57.6" y="41.472"/>
  </clipPath>
 </defs>
</svg>
