<?xml version="1.0" encoding="utf-8" standalone="no"?>
<!DOCTYPE svg PUBLIC "-//W3C//DTD SVG 1.1//EN"
  "http://www.w3.org/Graphics/SVG/1.1/DTD/svg11.dtd">
<!-- Created with matplotlib (https://matplotlib.org/) -->
<svg height="345.6pt" version="1.1" viewBox="0 0 460.8 345.6" width="460.8pt" xmlns="http://www.w3.org/2000/svg" xmlns:xlink="http://www.w3.org/1999/xlink">
 <metadata>
  <rdf:RDF xmlns:cc="http://creativecommons.org/ns#" xmlns:dc="http://purl.org/dc/elements/1.1/" xmlns:rdf="http://www.w3.org/1999/02/22-rdf-syntax-ns#">
   <cc:Work>
    <dc:type rdf:resource="http://purl.org/dc/dcmitype/StillImage"/>
    <dc:date>2022-12-18T17:16:37.372705</dc:date>
    <dc:format>image/svg+xml</dc:format>
    <dc:creator>
     <cc:Agent>
      <dc:title>Matplotlib v3.3.3, https://matplotlib.org/</dc:title>
     </cc:Agent>
    </dc:creator>
   </cc:Work>
  </rdf:RDF>
 </metadata>
 <defs>
  <style type="text/css">*{stroke-linecap:butt;stroke-linejoin:round;}</style>
 </defs>
 <g id="figure_1">
  <g id="patch_1">
   <path d="M 0 345.6 
L 460.8 345.6 
L 460.8 0 
L 0 0 
z
" style="fill:#ffffff;"/>
  </g>
  <g id="axes_1">
   <g id="patch_2">
    <path d="M 57.6 307.584 
L 414.72 307.584 
L 414.72 41.472 
L 57.6 41.472 
z
" style="fill:#ffffff;"/>
   </g>
   <g id="matplotlib.axis_1">
    <g id="xtick_1">
     <g id="line2d_1">
      <defs>
       <path d="M 0 0 
L 0 3.5 
" id="m000c2d2de9" style="stroke:#000000;stroke-width:0.8;"/>
      </defs>
      <g>
       <use style="stroke:#000000;stroke-width:0.8;" x="73.832727" xlink:href="#m000c2d2de9" y="307.584"/>
      </g>
     </g>
     <g id="text_1">
      <!-- 0.0 -->
      <g transform="translate(66.332727 321.459)scale(0.1 -0.1)">
       <defs>
        <path d="M 3.125 29.296875 
Q 3.90625 50 6.4375 56.046875 
Q 8.984375 62.109375 13.671875 66.015625 
Q 18.359375 69.921875 25.1875 69.921875 
Q 32.03125 69.921875 37.109375 64.25 
Q 42.1875 58.59375 43.75 50 
Q 45.3125 41.40625 44.71875 30.265625 
Q 44.140625 19.140625 40.8125 12.109375 
Q 37.5 5.078125 30.859375 2.34375 
Q 24.21875 -0.390625 17.578125 2.921875 
Q 10.9375 6.25 8.203125 11.71875 
Q 5.46875 17.1875 4.296875 23.234375 
Q 3.125 29.296875 3.90625 50 
z
M 12.890625 52.734375 
Q 10.546875 31.25 12.5 22.84375 
Q 14.453125 14.453125 18.9375 10.9375 
Q 23.4375 7.421875 28.125 9.5625 
Q 32.8125 11.71875 34.953125 18.15625 
Q 37.109375 24.609375 37.109375 32.21875 
Q 37.109375 39.84375 36.515625 46.09375 
Q 35.9375 52.34375 33 57.421875 
Q 30.078125 62.5 25.1875 62.6875 
Q 20.3125 62.890625 16.59375 57.8125 
Q 12.890625 52.734375 10.546875 31.25 
z
" id="SimHei-48"/>
        <path d="M 16.796875 1.953125 
L 7.8125 1.953125 
L 7.8125 10.546875 
L 16.796875 10.546875 
z
" id="SimHei-46"/>
       </defs>
       <use xlink:href="#SimHei-48"/>
       <use x="50" xlink:href="#SimHei-46"/>
       <use x="100" xlink:href="#SimHei-48"/>
      </g>
     </g>
    </g>
    <g id="xtick_2">
     <g id="line2d_2">
      <g>
       <use style="stroke:#000000;stroke-width:0.8;" x="138.763636" xlink:href="#m000c2d2de9" y="307.584"/>
      </g>
     </g>
     <g id="text_2">
      <!-- 0.2 -->
      <g transform="translate(131.263636 321.459)scale(0.1 -0.1)">
       <defs>
        <path d="M 4.6875 3.90625 
Q 5.078125 9.765625 10.15625 14.453125 
Q 15.234375 19.140625 23.046875 29.09375 
Q 30.859375 39.0625 33.203125 44.53125 
Q 35.546875 50 34.953125 53.90625 
Q 34.375 57.8125 31.25 60.34375 
Q 28.125 62.890625 24.015625 62.5 
Q 19.921875 62.109375 16.203125 59.375 
Q 12.5 56.640625 10.546875 51.171875 
L 3.125 52.34375 
Q 6.25 61.328125 11.125 65.421875 
Q 16.015625 69.53125 22.65625 69.921875 
Q 26.5625 70.3125 29.6875 69.71875 
Q 32.8125 69.140625 36.125 66.984375 
Q 39.453125 64.84375 41.59375 60.546875 
Q 43.75 56.25 43.15625 50.1875 
Q 42.578125 44.140625 37.109375 35.734375 
Q 31.640625 27.34375 16.015625 9.375 
L 44.140625 9.375 
L 44.140625 2.34375 
L 4.6875 2.34375 
z
" id="SimHei-50"/>
       </defs>
       <use xlink:href="#SimHei-48"/>
       <use x="50" xlink:href="#SimHei-46"/>
       <use x="100" xlink:href="#SimHei-50"/>
      </g>
     </g>
    </g>
    <g id="xtick_3">
     <g id="line2d_3">
      <g>
       <use style="stroke:#000000;stroke-width:0.8;" x="203.694545" xlink:href="#m000c2d2de9" y="307.584"/>
      </g>
     </g>
     <g id="text_3">
      <!-- 0.4 -->
      <g transform="translate(196.194545 321.459)scale(0.1 -0.1)">
       <defs>
        <path d="M 31.25 17.1875 
L 1.171875 17.1875 
L 1.171875 23.828125 
L 32.8125 69.53125 
L 38.671875 69.53125 
L 38.671875 23.828125 
L 48.046875 23.828125 
L 48.046875 17.1875 
L 38.671875 17.1875 
L 38.671875 2.34375 
L 31.25 2.34375 
z
M 31.25 23.828125 
L 31.25 54.6875 
L 9.375 23.828125 
z
" id="SimHei-52"/>
       </defs>
       <use xlink:href="#SimHei-48"/>
       <use x="50" xlink:href="#SimHei-46"/>
       <use x="100" xlink:href="#SimHei-52"/>
      </g>
     </g>
    </g>
    <g id="xtick_4">
     <g id="line2d_4">
      <g>
       <use style="stroke:#000000;stroke-width:0.8;" x="268.625455" xlink:href="#m000c2d2de9" y="307.584"/>
      </g>
     </g>
     <g id="text_4">
      <!-- 0.6 -->
      <g transform="translate(261.125455 321.459)scale(0.1 -0.1)">
       <defs>
        <path d="M 3.515625 19.53125 
Q 4.296875 30.859375 6.046875 34.765625 
Q 7.8125 38.671875 11.328125 44.53125 
L 27.34375 69.53125 
L 36.328125 69.53125 
L 19.921875 43.75 
Q 30.46875 46.484375 36.71875 42.96875 
Q 42.96875 39.453125 45.109375 34.953125 
Q 47.265625 30.46875 47.453125 25.1875 
Q 47.65625 19.921875 45.890625 14.84375 
Q 44.140625 9.765625 39.640625 5.65625 
Q 35.15625 1.5625 27.140625 1.171875 
Q 19.140625 0.78125 13.46875 4.09375 
Q 7.8125 7.421875 5.65625 13.46875 
Q 3.515625 19.53125 4.296875 30.859375 
z
M 12.5 16.015625 
Q 19.53125 8.59375 25.390625 8.203125 
Q 31.25 7.8125 35.15625 12.109375 
Q 39.0625 16.40625 39.0625 24.609375 
Q 39.0625 32.8125 34.171875 35.9375 
Q 29.296875 39.0625 23.234375 38.28125 
Q 17.1875 37.5 14.453125 32.421875 
Q 11.71875 27.34375 12.109375 21.671875 
Q 12.5 16.015625 19.53125 8.59375 
z
" id="SimHei-54"/>
       </defs>
       <use xlink:href="#SimHei-48"/>
       <use x="50" xlink:href="#SimHei-46"/>
       <use x="100" xlink:href="#SimHei-54"/>
      </g>
     </g>
    </g>
    <g id="xtick_5">
     <g id="line2d_5">
      <g>
       <use style="stroke:#000000;stroke-width:0.8;" x="333.556364" xlink:href="#m000c2d2de9" y="307.584"/>
      </g>
     </g>
     <g id="text_5">
      <!-- 0.8 -->
      <g transform="translate(326.056364 321.459)scale(0.1 -0.1)">
       <defs>
        <path d="M 2.734375 16.796875 
Q 2.734375 26.171875 5.078125 30.65625 
Q 7.421875 35.15625 12.890625 37.890625 
Q 8.203125 40.625 6.640625 43.9375 
Q 5.078125 47.265625 4.875 51.5625 
Q 4.6875 55.859375 6.046875 58.984375 
Q 7.421875 62.109375 10.15625 64.84375 
Q 12.890625 67.578125 16.203125 68.546875 
Q 19.53125 69.53125 23.4375 69.53125 
Q 27.34375 69.53125 30.46875 68.75 
Q 33.59375 67.96875 37.109375 65.421875 
Q 40.625 62.890625 42.1875 58.203125 
Q 43.75 53.515625 41.984375 47.265625 
Q 40.234375 41.015625 32.8125 37.5 
Q 39.453125 35.546875 42.1875 31.4375 
Q 44.921875 27.34375 44.921875 21.484375 
Q 44.921875 15.625 43.15625 12.109375 
Q 41.40625 8.59375 39.25 6.25 
Q 37.109375 3.90625 33.390625 2.53125 
Q 29.6875 1.171875 24.015625 1.171875 
Q 18.359375 1.171875 14.25 2.53125 
Q 10.15625 3.90625 7.421875 6.640625 
Q 4.6875 9.375 3.703125 13.078125 
Q 2.734375 16.796875 2.734375 26.171875 
z
M 10.9375 26.5625 
Q 10.546875 17.1875 12.296875 13.671875 
Q 14.0625 10.15625 18.75 9.171875 
Q 23.4375 8.203125 28.515625 9.375 
Q 33.59375 10.546875 35.546875 14.84375 
Q 37.5 19.140625 36.90625 23.4375 
Q 36.328125 27.734375 32.03125 30.65625 
Q 27.734375 33.59375 22.65625 33.203125 
Q 17.578125 32.8125 14.25 29.6875 
Q 10.9375 26.5625 10.546875 17.1875 
z
M 12.109375 56.25 
Q 12.109375 48.4375 14.84375 44.921875 
Q 17.578125 41.40625 23.4375 41.40625 
Q 29.296875 41.40625 32.21875 44.921875 
Q 35.15625 48.4375 34.953125 53.3125 
Q 34.765625 58.203125 31.4375 60.546875 
Q 28.125 62.890625 22.453125 62.5 
Q 16.796875 62.109375 14.453125 59.171875 
Q 12.109375 56.25 12.109375 48.4375 
z
" id="SimHei-56"/>
       </defs>
       <use xlink:href="#SimHei-48"/>
       <use x="50" xlink:href="#SimHei-46"/>
       <use x="100" xlink:href="#SimHei-56"/>
      </g>
     </g>
    </g>
    <g id="xtick_6">
     <g id="line2d_6">
      <g>
       <use style="stroke:#000000;stroke-width:0.8;" x="398.487273" xlink:href="#m000c2d2de9" y="307.584"/>
      </g>
     </g>
     <g id="text_6">
      <!-- 1.0 -->
      <g transform="translate(390.987273 321.459)scale(0.1 -0.1)">
       <defs>
        <path d="M 21.875 56.25 
Q 16.796875 51.171875 8.984375 46.484375 
L 8.984375 53.90625 
Q 18.75 60.546875 25 69.53125 
L 29.6875 69.53125 
L 29.6875 2.34375 
L 21.875 2.34375 
z
" id="SimHei-49"/>
       </defs>
       <use xlink:href="#SimHei-49"/>
       <use x="50" xlink:href="#SimHei-46"/>
       <use x="100" xlink:href="#SimHei-48"/>
      </g>
     </g>
    </g>
    <g id="text_7">
     <!-- x -->
     <g transform="translate(233.66 333.584)scale(0.1 -0.1)">
      <defs>
       <path d="M 44.921875 1.953125 
L 35.546875 1.953125 
L 24.21875 18.75 
L 12.890625 1.953125 
L 3.515625 1.953125 
L 19.53125 24.21875 
L 4.6875 45.703125 
L 14.0625 45.703125 
L 24.21875 29.296875 
L 34.375 45.703125 
L 43.75 45.703125 
L 28.90625 24.21875 
z
" id="SimHei-120"/>
      </defs>
      <use xlink:href="#SimHei-120"/>
     </g>
    </g>
   </g>
   <g id="matplotlib.axis_2">
    <g id="ytick_1">
     <g id="line2d_7">
      <defs>
       <path d="M 0 0 
L -3.5 0 
" id="m9ab82a83dc" style="stroke:#000000;stroke-width:0.8;"/>
      </defs>
      <g>
       <use style="stroke:#000000;stroke-width:0.8;" x="57.6" xlink:href="#m9ab82a83dc" y="295.488"/>
      </g>
     </g>
     <g id="text_8">
      <!-- 0.000 -->
      <g transform="translate(25.6 298.9255)scale(0.1 -0.1)">
       <use xlink:href="#SimHei-48"/>
       <use x="50" xlink:href="#SimHei-46"/>
       <use x="100" xlink:href="#SimHei-48"/>
       <use x="150" xlink:href="#SimHei-48"/>
       <use x="200" xlink:href="#SimHei-48"/>
      </g>
     </g>
    </g>
    <g id="ytick_2">
     <g id="line2d_8">
      <g>
       <use style="stroke:#000000;stroke-width:0.8;" x="57.6" xlink:href="#m9ab82a83dc" y="252.268011"/>
      </g>
     </g>
     <g id="text_9">
      <!-- 0.005 -->
      <g transform="translate(25.6 255.705511)scale(0.1 -0.1)">
       <defs>
        <path d="M 8.59375 20.703125 
Q 11.328125 10.15625 17.96875 8.984375 
Q 24.609375 7.8125 28.703125 10.34375 
Q 32.8125 12.890625 34.5625 16.984375 
Q 36.328125 21.09375 36.125 26.171875 
Q 35.9375 31.25 33.390625 34.765625 
Q 30.859375 38.28125 26.953125 39.453125 
Q 23.046875 40.625 18.15625 39.453125 
Q 13.28125 38.28125 10.15625 33.984375 
L 3.515625 34.765625 
Q 4.296875 37.109375 10.9375 68.359375 
L 41.796875 68.359375 
L 41.796875 61.328125 
L 16.796875 61.328125 
Q 14.84375 50.78125 12.890625 44.53125 
Q 18.75 47.265625 23.828125 47.0625 
Q 28.90625 46.875 33.59375 44.71875 
Q 38.28125 42.578125 40.421875 38.859375 
Q 42.578125 35.15625 43.546875 31.4375 
Q 44.53125 27.734375 44.328125 23.4375 
Q 44.140625 19.140625 42.578125 14.640625 
Q 41.015625 10.15625 37.890625 7.21875 
Q 34.765625 4.296875 30.265625 2.53125 
Q 25.78125 0.78125 19.921875 1.171875 
Q 14.0625 1.5625 8.78125 5.46875 
Q 3.515625 9.375 1.5625 18.75 
z
" id="SimHei-53"/>
       </defs>
       <use xlink:href="#SimHei-48"/>
       <use x="50" xlink:href="#SimHei-46"/>
       <use x="100" xlink:href="#SimHei-48"/>
       <use x="150" xlink:href="#SimHei-48"/>
       <use x="200" xlink:href="#SimHei-53"/>
      </g>
     </g>
    </g>
    <g id="ytick_3">
     <g id="line2d_9">
      <g>
       <use style="stroke:#000000;stroke-width:0.8;" x="57.6" xlink:href="#m9ab82a83dc" y="209.048022"/>
      </g>
     </g>
     <g id="text_10">
      <!-- 0.010 -->
      <g transform="translate(25.6 212.485522)scale(0.1 -0.1)">
       <use xlink:href="#SimHei-48"/>
       <use x="50" xlink:href="#SimHei-46"/>
       <use x="100" xlink:href="#SimHei-48"/>
       <use x="150" xlink:href="#SimHei-49"/>
       <use x="200" xlink:href="#SimHei-48"/>
      </g>
     </g>
    </g>
    <g id="ytick_4">
     <g id="line2d_10">
      <g>
       <use style="stroke:#000000;stroke-width:0.8;" x="57.6" xlink:href="#m9ab82a83dc" y="165.828034"/>
      </g>
     </g>
     <g id="text_11">
      <!-- 0.015 -->
      <g transform="translate(25.6 169.265534)scale(0.1 -0.1)">
       <use xlink:href="#SimHei-48"/>
       <use x="50" xlink:href="#SimHei-46"/>
       <use x="100" xlink:href="#SimHei-48"/>
       <use x="150" xlink:href="#SimHei-49"/>
       <use x="200" xlink:href="#SimHei-53"/>
      </g>
     </g>
    </g>
    <g id="ytick_5">
     <g id="line2d_11">
      <g>
       <use style="stroke:#000000;stroke-width:0.8;" x="57.6" xlink:href="#m9ab82a83dc" y="122.608045"/>
      </g>
     </g>
     <g id="text_12">
      <!-- 0.020 -->
      <g transform="translate(25.6 126.045545)scale(0.1 -0.1)">
       <use xlink:href="#SimHei-48"/>
       <use x="50" xlink:href="#SimHei-46"/>
       <use x="100" xlink:href="#SimHei-48"/>
       <use x="150" xlink:href="#SimHei-50"/>
       <use x="200" xlink:href="#SimHei-48"/>
      </g>
     </g>
    </g>
    <g id="ytick_6">
     <g id="line2d_12">
      <g>
       <use style="stroke:#000000;stroke-width:0.8;" x="57.6" xlink:href="#m9ab82a83dc" y="79.388056"/>
      </g>
     </g>
     <g id="text_13">
      <!-- 0.025 -->
      <g transform="translate(25.6 82.825556)scale(0.1 -0.1)">
       <use xlink:href="#SimHei-48"/>
       <use x="50" xlink:href="#SimHei-46"/>
       <use x="100" xlink:href="#SimHei-48"/>
       <use x="150" xlink:href="#SimHei-50"/>
       <use x="200" xlink:href="#SimHei-53"/>
      </g>
     </g>
    </g>
    <g id="text_14">
     <!-- y -->
     <g transform="translate(20.35 177.028)rotate(-90)scale(0.1 -0.1)">
      <defs>
       <path d="M 45.3125 45.703125 
L 27.34375 -1.5625 
Q 25.78125 -7.03125 22.65625 -9.765625 
Q 19.53125 -12.5 14.84375 -12.5 
Q 12.890625 -12.5 11.125 -12.296875 
Q 9.375 -12.109375 7.8125 -11.328125 
L 7.8125 -3.515625 
Q 9.375 -4.296875 10.9375 -4.6875 
Q 12.5 -5.078125 13.671875 -5.078125 
Q 16.796875 -5.078125 17.96875 -4.09375 
Q 19.140625 -3.125 20.3125 0.390625 
L 3.125 45.703125 
L 11.71875 45.703125 
L 24.21875 11.328125 
L 24.609375 11.328125 
L 36.71875 45.703125 
z
" id="SimHei-121"/>
      </defs>
      <use xlink:href="#SimHei-121"/>
     </g>
    </g>
   </g>
   <g id="line2d_13">
    <path clip-path="url(#pe2988508a0)" d="M 73.832727 295.488 
L 90.065455 285.191686 
L 106.298182 275.667484 
L 122.530909 266.617619 
L 138.763636 257.819834 
L 154.996364 249.100555 
L 171.229091 240.31818 
L 187.461818 231.352229 
L 203.694545 222.096043 
L 219.927273 212.451693 
L 236.16 202.326297 
L 252.392727 191.629261 
L 268.625455 180.270133 
L 284.858182 168.156865 
L 301.090909 155.194346 
L 317.323636 141.283119 
L 333.556364 126.31821 
L 349.789091 110.188021 
L 366.021818 92.773263 
L 382.254545 73.945886 
L 398.487273 53.568 
" style="fill:none;stroke:#1f77b4;stroke-dasharray:7.4,3.2;stroke-dashoffset:0;stroke-width:2;"/>
    <defs>
     <path d="M 0 2 
C 0.530406 2 1.03916 1.789267 1.414214 1.414214 
C 1.789267 1.03916 2 0.530406 2 0 
C 2 -0.530406 1.789267 -1.03916 1.414214 -1.414214 
C 1.03916 -1.789267 0.530406 -2 0 -2 
C -0.530406 -2 -1.03916 -1.789267 -1.414214 -1.414214 
C -1.789267 -1.03916 -2 -0.530406 -2 0 
C -2 0.530406 -1.789267 1.03916 -1.414214 1.414214 
C -1.03916 1.789267 -0.530406 2 0 2 
z
" id="m3454b647e8" style="stroke:#1f77b4;"/>
    </defs>
    <g clip-path="url(#pe2988508a0)">
     <use style="fill:#1f77b4;stroke:#1f77b4;" x="73.832727" xlink:href="#m3454b647e8" y="295.488"/>
     <use style="fill:#1f77b4;stroke:#1f77b4;" x="90.065455" xlink:href="#m3454b647e8" y="285.191686"/>
     <use style="fill:#1f77b4;stroke:#1f77b4;" x="106.298182" xlink:href="#m3454b647e8" y="275.667484"/>
     <use style="fill:#1f77b4;stroke:#1f77b4;" x="122.530909" xlink:href="#m3454b647e8" y="266.617619"/>
     <use style="fill:#1f77b4;stroke:#1f77b4;" x="138.763636" xlink:href="#m3454b647e8" y="257.819834"/>
     <use style="fill:#1f77b4;stroke:#1f77b4;" x="154.996364" xlink:href="#m3454b647e8" y="249.100555"/>
     <use style="fill:#1f77b4;stroke:#1f77b4;" x="171.229091" xlink:href="#m3454b647e8" y="240.31818"/>
     <use style="fill:#1f77b4;stroke:#1f77b4;" x="187.461818" xlink:href="#m3454b647e8" y="231.352229"/>
     <use style="fill:#1f77b4;stroke:#1f77b4;" x="203.694545" xlink:href="#m3454b647e8" y="222.096043"/>
     <use style="fill:#1f77b4;stroke:#1f77b4;" x="219.927273" xlink:href="#m3454b647e8" y="212.451693"/>
     <use style="fill:#1f77b4;stroke:#1f77b4;" x="236.16" xlink:href="#m3454b647e8" y="202.326297"/>
     <use style="fill:#1f77b4;stroke:#1f77b4;" x="252.392727" xlink:href="#m3454b647e8" y="191.629261"/>
     <use style="fill:#1f77b4;stroke:#1f77b4;" x="268.625455" xlink:href="#m3454b647e8" y="180.270133"/>
     <use style="fill:#1f77b4;stroke:#1f77b4;" x="284.858182" xlink:href="#m3454b647e8" y="168.156865"/>
     <use style="fill:#1f77b4;stroke:#1f77b4;" x="301.090909" xlink:href="#m3454b647e8" y="155.194346"/>
     <use style="fill:#1f77b4;stroke:#1f77b4;" x="317.323636" xlink:href="#m3454b647e8" y="141.283119"/>
     <use style="fill:#1f77b4;stroke:#1f77b4;" x="333.556364" xlink:href="#m3454b647e8" y="126.31821"/>
     <use style="fill:#1f77b4;stroke:#1f77b4;" x="349.789091" xlink:href="#m3454b647e8" y="110.188021"/>
     <use style="fill:#1f77b4;stroke:#1f77b4;" x="366.021818" xlink:href="#m3454b647e8" y="92.773263"/>
     <use style="fill:#1f77b4;stroke:#1f77b4;" x="382.254545" xlink:href="#m3454b647e8" y="73.945886"/>
     <use style="fill:#1f77b4;stroke:#1f77b4;" x="398.487273" xlink:href="#m3454b647e8" y="53.568"/>
    </g>
   </g>
   <g id="line2d_14">
    <path clip-path="url(#pe2988508a0)" d="M 73.832727 295.488 
L 90.065455 294.967636 
L 106.298182 294.485286 
L 122.530909 294.025697 
L 138.763636 293.577432 
L 154.996364 293.131501 
L 171.229091 292.680511 
L 187.461818 292.218107 
L 203.694545 291.738598 
L 219.927273 291.236697 
L 236.16 290.707322 
L 252.392727 290.145456 
L 268.625455 289.546029 
L 284.858182 288.903821 
L 301.090909 288.21338 
L 317.323636 287.468949 
L 333.556364 286.664392 
L 349.789091 285.793127 
L 366.021818 284.848058 
L 382.254545 283.821504 
L 398.487273 282.705126 
" style="fill:none;stroke:#ff7f0e;stroke-dasharray:7.4,3.2;stroke-dashoffset:0;stroke-width:2;"/>
    <defs>
     <path d="M -2 2 
L 2 2 
L 2 -2 
L -2 -2 
z
" id="m0d2479af8f" style="stroke:#ff7f0e;stroke-linejoin:miter;"/>
    </defs>
    <g clip-path="url(#pe2988508a0)">
     <use style="fill:#ff7f0e;stroke:#ff7f0e;stroke-linejoin:miter;" x="73.832727" xlink:href="#m0d2479af8f" y="295.488"/>
     <use style="fill:#ff7f0e;stroke:#ff7f0e;stroke-linejoin:miter;" x="90.065455" xlink:href="#m0d2479af8f" y="294.967636"/>
     <use style="fill:#ff7f0e;stroke:#ff7f0e;stroke-linejoin:miter;" x="106.298182" xlink:href="#m0d2479af8f" y="294.485286"/>
     <use style="fill:#ff7f0e;stroke:#ff7f0e;stroke-linejoin:miter;" x="122.530909" xlink:href="#m0d2479af8f" y="294.025697"/>
     <use style="fill:#ff7f0e;stroke:#ff7f0e;stroke-linejoin:miter;" x="138.763636" xlink:href="#m0d2479af8f" y="293.577432"/>
     <use style="fill:#ff7f0e;stroke:#ff7f0e;stroke-linejoin:miter;" x="154.996364" xlink:href="#m0d2479af8f" y="293.131501"/>
     <use style="fill:#ff7f0e;stroke:#ff7f0e;stroke-linejoin:miter;" x="171.229091" xlink:href="#m0d2479af8f" y="292.680511"/>
     <use style="fill:#ff7f0e;stroke:#ff7f0e;stroke-linejoin:miter;" x="187.461818" xlink:href="#m0d2479af8f" y="292.218107"/>
     <use style="fill:#ff7f0e;stroke:#ff7f0e;stroke-linejoin:miter;" x="203.694545" xlink:href="#m0d2479af8f" y="291.738598"/>
     <use style="fill:#ff7f0e;stroke:#ff7f0e;stroke-linejoin:miter;" x="219.927273" xlink:href="#m0d2479af8f" y="291.236697"/>
     <use style="fill:#ff7f0e;stroke:#ff7f0e;stroke-linejoin:miter;" x="236.16" xlink:href="#m0d2479af8f" y="290.707322"/>
     <use style="fill:#ff7f0e;stroke:#ff7f0e;stroke-linejoin:miter;" x="252.392727" xlink:href="#m0d2479af8f" y="290.145456"/>
     <use style="fill:#ff7f0e;stroke:#ff7f0e;stroke-linejoin:miter;" x="268.625455" xlink:href="#m0d2479af8f" y="289.546029"/>
     <use style="fill:#ff7f0e;stroke:#ff7f0e;stroke-linejoin:miter;" x="284.858182" xlink:href="#m0d2479af8f" y="288.903821"/>
     <use style="fill:#ff7f0e;stroke:#ff7f0e;stroke-linejoin:miter;" x="301.090909" xlink:href="#m0d2479af8f" y="288.21338"/>
     <use style="fill:#ff7f0e;stroke:#ff7f0e;stroke-linejoin:miter;" x="317.323636" xlink:href="#m0d2479af8f" y="287.468949"/>
     <use style="fill:#ff7f0e;stroke:#ff7f0e;stroke-linejoin:miter;" x="333.556364" xlink:href="#m0d2479af8f" y="286.664392"/>
     <use style="fill:#ff7f0e;stroke:#ff7f0e;stroke-linejoin:miter;" x="349.789091" xlink:href="#m0d2479af8f" y="285.793127"/>
     <use style="fill:#ff7f0e;stroke:#ff7f0e;stroke-linejoin:miter;" x="366.021818" xlink:href="#m0d2479af8f" y="284.848058"/>
     <use style="fill:#ff7f0e;stroke:#ff7f0e;stroke-linejoin:miter;" x="382.254545" xlink:href="#m0d2479af8f" y="283.821504"/>
     <use style="fill:#ff7f0e;stroke:#ff7f0e;stroke-linejoin:miter;" x="398.487273" xlink:href="#m0d2479af8f" y="282.705126"/>
    </g>
   </g>
   <g id="patch_3">
    <path d="M 57.6 307.584 
L 57.6 41.472 
" style="fill:none;stroke:#000000;stroke-linecap:square;stroke-linejoin:miter;stroke-width:0.8;"/>
   </g>
   <g id="patch_4">
    <path d="M 414.72 307.584 
L 414.72 41.472 
" style="fill:none;stroke:#000000;stroke-linecap:square;stroke-linejoin:miter;stroke-width:0.8;"/>
   </g>
   <g id="patch_5">
    <path d="M 57.6 307.584 
L 414.72 307.584 
" style="fill:none;stroke:#000000;stroke-linecap:square;stroke-linejoin:miter;stroke-width:0.8;"/>
   </g>
   <g id="patch_6">
    <path d="M 57.6 41.472 
L 414.72 41.472 
" style="fill:none;stroke:#000000;stroke-linecap:square;stroke-linejoin:miter;stroke-width:0.8;"/>
   </g>
   <g id="text_15">
    <!-- Euler方法和改进Euler方法取h={h}时的绝对误差 -->
    <g transform="translate(107.16 35.472)scale(0.12 -0.12)">
     <defs>
      <path d="M 45.3125 1.953125 
L 5.46875 1.953125 
L 5.46875 68.75 
L 43.359375 68.75 
L 43.359375 61.328125 
L 14.453125 61.328125 
L 14.453125 40.625 
L 41.015625 40.625 
L 41.015625 33.203125 
L 14.453125 33.203125 
L 14.453125 9.375 
L 45.3125 9.375 
z
" id="SimHei-69"/>
      <path d="M 43.75 1.953125 
L 35.9375 1.953125 
L 35.9375 10.15625 
Q 32.8125 5.859375 29.09375 3.515625 
Q 25.390625 1.171875 19.53125 1.171875 
Q 12.5 1.171875 8.984375 5.078125 
Q 5.46875 8.984375 5.46875 14.84375 
L 5.46875 45.703125 
L 13.28125 45.703125 
L 13.28125 17.578125 
Q 13.28125 12.890625 15.625 10.15625 
Q 17.96875 7.421875 21.875 7.421875 
Q 26.953125 7.421875 31.4375 12.6875 
Q 35.9375 17.96875 35.9375 25.78125 
L 35.9375 45.703125 
L 43.75 45.703125 
z
" id="SimHei-117"/>
      <path d="M 28.515625 1.953125 
L 20.703125 1.953125 
L 20.703125 68.75 
L 28.515625 68.75 
z
" id="SimHei-108"/>
      <path d="M 44.53125 16.796875 
Q 43.75 9.765625 38.28125 5.46875 
Q 32.8125 1.171875 25.390625 1.171875 
Q 16.015625 1.171875 9.953125 7.21875 
Q 3.90625 13.28125 3.90625 23.828125 
Q 3.90625 34.375 9.953125 40.421875 
Q 16.015625 46.484375 25.390625 46.484375 
Q 33.59375 46.484375 38.859375 41.203125 
Q 44.140625 35.9375 44.140625 23.828125 
L 12.5 23.828125 
Q 12.5 15.234375 16.203125 11.71875 
Q 19.921875 8.203125 25.390625 8.203125 
Q 29.6875 8.203125 32.421875 10.34375 
Q 35.15625 12.5 35.9375 16.796875 
z
M 35.15625 30.078125 
Q 34.375 35.546875 31.640625 37.6875 
Q 28.90625 39.84375 24.609375 39.84375 
Q 20.703125 39.84375 17.578125 37.6875 
Q 14.453125 35.546875 12.890625 30.078125 
z
" id="SimHei-101"/>
      <path d="M 39.0625 37.890625 
Q 31.640625 39.0625 26.5625 35.734375 
Q 21.484375 32.421875 17.96875 24.21875 
L 17.96875 1.953125 
L 10.15625 1.953125 
L 10.15625 45.703125 
L 17.96875 45.703125 
L 17.96875 34.375 
Q 21.484375 40.625 26.75 43.546875 
Q 32.03125 46.484375 39.0625 46.484375 
z
" id="SimHei-114"/>
      <path d="M 6.640625 62.109375 
Q 12.890625 61.71875 20.3125 61.71875 
L 78.515625 61.71875 
Q 87.890625 61.71875 93.75 62.109375 
L 93.75 54.296875 
Q 88.671875 54.6875 79.6875 54.6875 
L 39.453125 54.6875 
Q 39.453125 50.390625 39.0625 39.0625 
L 82.8125 39.0625 
Q 82.03125 33.984375 81.25 24.21875 
L 78.90625 2.734375 
Q 78.125 -4.296875 72.265625 -6.4375 
Q 66.40625 -8.59375 55.078125 -9.765625 
Q 54.6875 -4.6875 51.953125 -0.78125 
Q 60.9375 -1.171875 65.625 0 
Q 70.3125 1.171875 71.484375 6.640625 
L 73.828125 32.03125 
L 38.671875 32.03125 
Q 37.109375 21.09375 33.78125 13.671875 
Q 30.46875 6.25 24.609375 0 
Q 18.75 -6.25 12.890625 -10.9375 
Q 11.328125 -8.59375 5.859375 -5.46875 
Q 10.9375 -2.734375 16.59375 3.125 
Q 22.265625 8.984375 25.96875 16.40625 
Q 29.6875 23.828125 30.65625 32.8125 
Q 31.640625 41.796875 31.640625 54.6875 
L 20.703125 54.6875 
Q 12.109375 54.6875 6.640625 54.296875 
z
M 48.046875 63.671875 
Q 44.53125 71.484375 40.234375 78.125 
Q 43.75 80.078125 47.265625 82.421875 
Q 51.5625 75.78125 55.859375 67.96875 
Q 51.953125 66.40625 48.046875 63.671875 
z
" id="SimHei-26041"/>
      <path d="M 94.921875 -4.6875 
Q 91.40625 -6.640625 87.890625 -9.765625 
Q 85.15625 -4.6875 83.203125 -1.953125 
Q 70.703125 -2.734375 56.046875 -4.09375 
Q 41.40625 -5.46875 36.328125 -7.03125 
Q 35.15625 -2.34375 33.203125 1.171875 
Q 38.28125 2.734375 44.140625 11.328125 
Q 50 19.921875 54.6875 32.8125 
L 43.75 32.8125 
Q 36.71875 32.8125 30.46875 32.421875 
L 30.46875 39.453125 
Q 36.71875 39.0625 44.140625 39.0625 
L 58.203125 39.0625 
L 58.203125 56.25 
L 49.21875 56.25 
Q 41.796875 56.25 36.328125 55.859375 
L 36.328125 62.890625 
Q 42.578125 62.5 48.828125 62.5 
L 58.203125 62.5 
Q 58.203125 73.4375 57.8125 80.46875 
L 66.40625 80.46875 
Q 66.015625 74.609375 66.015625 62.5 
L 77.734375 62.5 
Q 83.59375 62.5 89.84375 62.890625 
L 89.84375 55.859375 
Q 83.59375 56.25 78.515625 56.25 
L 66.015625 56.25 
L 66.015625 39.0625 
L 80.078125 39.0625 
Q 87.109375 39.0625 94.140625 39.453125 
L 94.140625 32.421875 
Q 87.109375 32.8125 80.078125 32.8125 
L 60.15625 32.8125 
L 64.0625 30.46875 
Q 61.71875 27.734375 56.640625 18.75 
Q 51.5625 9.765625 45.3125 1.5625 
Q 62.5 2.34375 79.296875 3.515625 
Q 74.609375 10.546875 69.53125 16.015625 
Q 72.65625 18.359375 75.390625 21.09375 
Q 82.421875 12.5 94.921875 -4.6875 
z
M 4.6875 -3.90625 
Q 10.15625 1.5625 15.8125 9.765625 
Q 21.484375 17.96875 26.953125 26.953125 
Q 28.90625 23.4375 32.421875 21.484375 
Q 28.90625 16.796875 23.4375 7.609375 
Q 17.96875 -1.5625 13.28125 -9.765625 
Q 10.15625 -6.640625 4.6875 -3.90625 
z
M 10.546875 53.515625 
Q 18.75 48.4375 28.125 41.40625 
Q 24.609375 39.0625 21.875 35.15625 
Q 14.453125 41.796875 5.46875 47.65625 
Q 8.203125 50 10.546875 53.515625 
z
M 16.40625 76.5625 
Q 24.21875 71.484375 32.8125 64.453125 
Q 29.6875 62.109375 26.953125 58.203125 
Q 19.53125 65.234375 11.328125 70.703125 
Q 14.0625 73.4375 16.40625 76.5625 
z
" id="SimHei-27861"/>
      <path d="M 91.796875 65.625 
Q 91.40625 57.8125 91.40625 51.171875 
L 91.40625 10.9375 
Q 91.40625 3.90625 91.796875 -0.390625 
L 83.984375 -0.390625 
L 83.984375 8.984375 
L 65.234375 8.984375 
L 65.234375 -1.171875 
L 57.8125 -1.171875 
Q 58.203125 7.8125 58.203125 9.765625 
L 58.203125 51.171875 
Q 58.203125 57.8125 57.8125 65.625 
L 91.796875 65.625 
z
M 51.171875 69.53125 
Q 47.65625 69.53125 35.15625 67.578125 
L 35.15625 50 
L 41.015625 50 
Q 46.875 50 53.515625 50.390625 
L 53.515625 43.359375 
Q 46.875 43.75 41.40625 43.75 
L 35.15625 43.75 
L 35.15625 3.515625 
Q 35.15625 -3.125 35.546875 -8.59375 
L 27.734375 -8.59375 
Q 28.125 -2.34375 28.125 3.515625 
L 28.125 28.90625 
Q 22.265625 17.96875 10.546875 3.90625 
Q 8.59375 6.640625 4.296875 9.375 
Q 12.890625 17.578125 19.328125 28.3125 
Q 25.78125 39.0625 26.5625 43.75 
L 19.53125 43.75 
Q 10.9375 43.75 7.03125 43.359375 
L 7.03125 50.390625 
Q 11.328125 50 19.53125 50 
L 28.125 50 
L 28.125 66.40625 
Q 23.046875 65.625 12.109375 64.453125 
Q 11.328125 68.359375 9.765625 71.484375 
Q 17.1875 71.875 28.515625 73.4375 
Q 39.84375 75 47.65625 78.125 
Q 48.4375 73.828125 51.171875 69.53125 
z
M 83.984375 15.234375 
L 83.984375 58.984375 
L 65.234375 58.984375 
L 65.234375 15.234375 
z
M 48.046875 15.625 
Q 42.96875 25.390625 36.328125 32.8125 
Q 38.671875 34.375 42.1875 37.5 
Q 49.609375 29.296875 54.6875 20.703125 
Q 50.78125 18.359375 48.046875 15.625 
z
" id="SimHei-21644"/>
      <path d="M 71.875 14.0625 
Q 75.78125 8.984375 83.390625 3.90625 
Q 91.015625 -1.171875 96.484375 -3.125 
Q 93.75 -5.078125 90.234375 -10.546875 
Q 85.15625 -7.421875 79.484375 -3.125 
Q 73.828125 1.171875 66.796875 8.203125 
Q 60.15625 1.953125 52.921875 -2.34375 
Q 45.703125 -6.640625 36.71875 -10.546875 
Q 35.15625 -7.03125 31.25 -3.515625 
Q 39.453125 -1.171875 48.234375 3.515625 
Q 57.03125 8.203125 62.890625 14.84375 
Q 59.765625 19.53125 56.25 26.171875 
Q 52.734375 32.8125 49.609375 39.0625 
L 47.65625 36.328125 
Q 43.75 39.0625 41.40625 40.625 
Q 45.3125 45.3125 50.578125 55.65625 
Q 55.859375 66.015625 59.375 80.078125 
Q 64.0625 77.734375 67.96875 77.34375 
Q 65.625 73.4375 63.671875 68.546875 
Q 61.71875 63.671875 59.765625 58.984375 
L 79.296875 58.984375 
Q 87.5 58.984375 92.96875 59.375 
L 92.96875 52.34375 
Q 89.0625 52.734375 82.8125 52.734375 
Q 80.46875 28.90625 71.875 14.0625 
z
M 40.625 70.3125 
Q 40.234375 61.328125 40.234375 52.34375 
Q 40.234375 43.359375 40.625 35.546875 
L 17.578125 35.546875 
L 17.578125 5.078125 
Q 32.03125 12.890625 39.0625 18.359375 
Q 39.84375 13.671875 41.40625 10.9375 
Q 33.984375 6.640625 26.953125 2.34375 
Q 19.921875 -1.953125 12.5 -7.03125 
Q 10.15625 -3.515625 7.03125 -0.390625 
Q 10.546875 2.734375 10.15625 7.8125 
L 10.15625 29.296875 
Q 10.15625 34.765625 9.765625 41.796875 
L 33.203125 41.796875 
L 33.203125 64.0625 
L 20.3125 64.0625 
Q 13.671875 64.0625 6.640625 63.671875 
L 6.640625 70.703125 
Q 13.671875 70.3125 20.3125 70.3125 
z
M 50 40.234375 
Q 53.515625 41.40625 55.859375 42.96875 
Q 58.59375 36.328125 61.71875 30.265625 
Q 64.84375 24.21875 67.578125 20.3125 
Q 73.828125 32.03125 75.390625 52.734375 
L 57.421875 52.734375 
Q 53.90625 46.484375 50 40.234375 
z
" id="SimHei-25913"/>
      <path d="M 68.75 64.0625 
Q 68.75 71.875 68.359375 81.25 
L 76.5625 81.25 
Q 76.171875 76.5625 76.171875 64.0625 
Q 84.375 64.0625 92.1875 64.453125 
L 92.1875 57.03125 
Q 84.375 57.421875 76.171875 57.421875 
L 76.171875 40.234375 
Q 85.546875 40.234375 94.140625 40.625 
L 94.140625 33.203125 
Q 85.546875 33.59375 76.171875 33.59375 
L 76.171875 17.578125 
Q 76.171875 10.9375 76.5625 3.90625 
L 68.359375 3.90625 
Q 68.359375 10.9375 68.75 17.578125 
L 68.75 33.59375 
L 53.90625 33.59375 
Q 52.34375 23.046875 49.40625 16.40625 
Q 46.484375 9.765625 40.625 3.125 
Q 36.71875 6.25 33.203125 8.203125 
Q 40.625 14.84375 42.96875 20.5 
Q 45.3125 26.171875 46.484375 33.59375 
Q 37.5 33.59375 30.859375 33.203125 
L 30.859375 40.625 
Q 37.890625 40.234375 47.265625 40.234375 
Q 48.046875 49.21875 48.046875 57.421875 
Q 40.234375 57.421875 32.8125 56.640625 
L 32.8125 64.453125 
Q 40.234375 64.0625 48.4375 64.0625 
Q 48.4375 73.046875 48.046875 81.25 
Q 51.953125 80.859375 56.25 80.46875 
Q 55.859375 75.390625 55.46875 64.0625 
z
M 25 48.828125 
Q 24.21875 40.234375 24.21875 34.375 
L 24.21875 9.765625 
Q 35.546875 1.953125 48.4375 0.578125 
Q 61.328125 -0.78125 73.625 -0.390625 
Q 85.9375 0 95.703125 1.5625 
Q 93.75 -3.125 93.359375 -8.203125 
Q 74.609375 -8.203125 62.6875 -7.8125 
Q 50.78125 -7.421875 40.8125 -4.875 
Q 30.859375 -2.34375 25.78125 0.578125 
Q 20.703125 3.515625 16.984375 0.578125 
Q 13.28125 -2.34375 8.984375 -7.03125 
Q 6.640625 -3.515625 3.125 -0.78125 
Q 12.5 6.25 16.796875 8.984375 
L 16.796875 42.1875 
Q 12.5 42.1875 5.859375 41.40625 
L 5.859375 49.21875 
Q 13.671875 48.828125 17.578125 48.828125 
z
M 68.75 40.234375 
L 68.75 57.421875 
L 55.46875 57.421875 
Q 55.078125 49.21875 54.296875 40.234375 
z
M 18.75 78.90625 
Q 25 66.40625 26.5625 61.328125 
Q 22.265625 60.546875 18.75 58.203125 
Q 17.578125 65.234375 10.9375 75.78125 
L 18.75 78.90625 
z
" id="SimHei-36827"/>
      <path d="M 41.40625 76.171875 
Q 48.046875 76.171875 52.734375 76.5625 
L 52.734375 69.921875 
Q 49.609375 70.3125 46.484375 70.3125 
L 46.484375 17.578125 
Q 50.78125 18.75 56.25 20.3125 
L 56.25 13.671875 
Q 51.171875 12.5 46.484375 11.328125 
Q 46.484375 -3.90625 46.875 -10.9375 
L 39.0625 -10.9375 
Q 39.453125 -5.078125 39.453125 9.765625 
Q 30.078125 7.8125 22.265625 5.078125 
Q 14.453125 2.34375 8.984375 -0.390625 
L 5.859375 8.59375 
L 14.453125 10.15625 
L 14.453125 70.3125 
Q 11.328125 70.3125 6.640625 69.921875 
L 6.640625 76.5625 
Q 11.71875 76.171875 20.3125 76.171875 
z
M 49.609375 -1.953125 
Q 54.6875 1.171875 58.78125 5.65625 
Q 62.890625 10.15625 67.96875 17.96875 
Q 62.109375 28.90625 60.34375 40.234375 
Q 58.59375 51.5625 57.8125 66.40625 
L 54.6875 66.40625 
L 54.6875 73.046875 
Q 62.5 72.65625 68.75 72.65625 
L 90.625 72.65625 
Q 89.0625 53.515625 86.125 41.015625 
Q 83.203125 28.515625 76.953125 17.96875 
Q 80.078125 12.5 85.34375 7.8125 
Q 90.625 3.125 96.875 -0.390625 
Q 92.96875 -3.125 90.234375 -7.03125 
Q 82.03125 -1.5625 72.65625 11.328125 
Q 65.625 0 56.640625 -7.8125 
Q 54.296875 -4.6875 49.609375 -1.953125 
z
M 64.84375 66.40625 
Q 66.015625 50.78125 66.984375 42.96875 
Q 67.96875 35.15625 72.265625 25 
Q 78.515625 37.890625 80.265625 49.015625 
Q 82.03125 60.15625 82.421875 66.40625 
L 64.84375 66.40625 
z
M 39.453125 53.90625 
L 39.453125 70.3125 
L 21.484375 70.3125 
L 21.484375 53.90625 
z
M 21.484375 11.71875 
Q 30.859375 13.671875 39.453125 15.625 
L 39.453125 28.125 
L 21.484375 28.125 
L 21.484375 11.71875 
z
M 39.453125 34.375 
L 39.453125 48.046875 
L 21.484375 48.046875 
L 21.484375 34.375 
z
" id="SimHei-21462"/>
      <path d="M 43.75 1.953125 
L 35.9375 1.953125 
L 35.9375 30.078125 
Q 35.9375 34.765625 33.59375 37.5 
Q 31.25 40.234375 27.34375 40.234375 
Q 22.265625 40.234375 17.765625 34.953125 
Q 13.28125 29.6875 13.28125 21.875 
L 13.28125 1.953125 
L 5.46875 1.953125 
L 5.46875 68.75 
L 13.28125 68.75 
L 13.28125 37.5 
Q 16.40625 41.796875 20.109375 44.140625 
Q 23.828125 46.484375 29.6875 46.484375 
Q 36.71875 46.484375 40.234375 42.578125 
Q 43.75 38.671875 43.75 32.8125 
z
" id="SimHei-104"/>
      <path d="M 46.484375 45.3125 
L 1.953125 45.3125 
L 1.953125 51.5625 
L 46.484375 51.5625 
z
M 46.484375 21.484375 
L 1.953125 21.484375 
L 1.953125 27.734375 
L 46.484375 27.734375 
z
" id="SimHei-61"/>
      <path d="M 42.96875 -8.203125 
L 36.71875 -8.203125 
Q 32.03125 -8.203125 29.6875 -5.65625 
Q 27.34375 -3.125 27.34375 2.34375 
L 27.34375 27.34375 
Q 27.34375 29.6875 26.171875 31.046875 
Q 25 32.421875 22.265625 32.421875 
L 22.265625 37.890625 
Q 25 37.890625 26.171875 39.0625 
Q 27.34375 40.234375 27.34375 42.96875 
L 27.34375 68.359375 
Q 27.34375 73.4375 29.6875 76.171875 
Q 32.03125 78.90625 36.71875 78.90625 
L 42.96875 78.90625 
L 42.96875 74.21875 
L 39.84375 74.21875 
Q 37.5 74.21875 36.328125 73.046875 
Q 35.15625 71.875 35.15625 69.53125 
L 35.15625 45.703125 
Q 35.15625 41.796875 34.375 39.0625 
Q 33.59375 36.328125 31.640625 35.15625 
Q 33.59375 33.59375 34.375 31.046875 
Q 35.15625 28.515625 35.15625 24.609375 
L 35.15625 1.171875 
Q 35.15625 -1.171875 36.328125 -2.34375 
Q 37.5 -3.515625 39.84375 -3.515625 
L 42.96875 -3.515625 
z
" id="SimHei-123"/>
      <path d="M 26.5625 32.421875 
Q 24.21875 32.421875 22.84375 31.046875 
Q 21.484375 29.6875 21.484375 27.34375 
L 21.484375 2.34375 
Q 21.484375 -3.125 19.140625 -5.65625 
Q 16.796875 -8.203125 12.109375 -8.203125 
L 5.859375 -8.203125 
L 5.859375 -3.515625 
L 8.984375 -3.515625 
Q 11.328125 -3.515625 12.5 -2.34375 
Q 13.671875 -1.171875 13.671875 1.171875 
L 13.671875 24.609375 
Q 13.671875 28.515625 14.640625 31.046875 
Q 15.625 33.59375 17.1875 35.15625 
Q 15.625 36.328125 14.640625 39.0625 
Q 13.671875 41.796875 13.671875 45.703125 
L 13.671875 69.53125 
Q 13.671875 71.875 12.5 73.046875 
Q 11.328125 74.21875 8.984375 74.21875 
L 5.859375 74.21875 
L 5.859375 78.90625 
L 12.109375 78.90625 
Q 16.796875 78.90625 19.140625 76.171875 
Q 21.484375 73.4375 21.484375 68.359375 
L 21.484375 42.96875 
Q 21.484375 40.234375 22.84375 39.0625 
Q 24.21875 37.890625 26.5625 37.890625 
z
" id="SimHei-125"/>
      <path d="M 39.453125 71.484375 
Q 39.0625 57.421875 39.0625 37.5 
Q 39.0625 17.578125 39.453125 6.25 
L 31.25 6.25 
L 31.25 13.671875 
L 15.625 13.671875 
L 15.625 0.78125 
L 7.421875 0.78125 
Q 7.8125 18.75 7.8125 36.71875 
Q 7.8125 55.078125 7.421875 71.484375 
L 39.453125 71.484375 
z
M 76.171875 59.765625 
Q 76.171875 71.484375 75.78125 81.640625 
L 84.375 81.640625 
Q 83.984375 71.484375 83.984375 59.765625 
Q 89.84375 59.765625 96.484375 60.15625 
L 96.484375 52.734375 
Q 89.84375 53.125 83.984375 53.125 
L 83.984375 0.78125 
Q 83.984375 -5.078125 79.296875 -6.640625 
Q 74.609375 -8.203125 67.1875 -8.984375 
Q 67.1875 -4.296875 62.890625 0 
Q 70.3125 -0.78125 73.234375 -0.390625 
Q 76.171875 0 76.171875 4.6875 
L 76.171875 53.125 
Q 56.640625 53.125 43.359375 52.734375 
L 43.359375 60.15625 
Q 55.859375 59.765625 76.171875 59.765625 
z
M 31.25 20.3125 
L 31.25 39.84375 
L 15.625 39.84375 
L 15.625 20.3125 
z
M 31.25 46.484375 
L 31.25 64.84375 
L 15.625 64.84375 
L 15.625 46.484375 
z
M 55.46875 42.578125 
Q 60.546875 34.375 65.234375 25 
Q 61.328125 23.828125 57.03125 21.484375 
Q 53.90625 30.859375 48.046875 39.0625 
Q 51.5625 40.625 55.46875 42.578125 
z
" id="SimHei-26102"/>
      <path d="M 32.8125 77.734375 
Q 30.859375 74.21875 27.34375 61.71875 
L 44.921875 61.71875 
Q 44.53125 55.078125 44.53125 44.921875 
L 44.53125 10.546875 
Q 44.53125 4.6875 44.921875 -6.25 
L 37.109375 -6.25 
L 37.109375 1.5625 
L 17.1875 1.5625 
L 17.1875 -7.03125 
L 9.375 -7.03125 
Q 9.765625 5.46875 9.765625 8.59375 
L 9.765625 44.53125 
Q 9.765625 55.078125 9.375 61.71875 
L 20.703125 61.71875 
Q 22.65625 70.703125 23.828125 80.46875 
Q 29.296875 78.515625 32.8125 77.734375 
z
M 91.015625 48.046875 
Q 90.625 24.21875 89.0625 2.734375 
Q 88.28125 -4.296875 81.640625 -6.640625 
Q 75 -8.984375 66.796875 -9.765625 
Q 66.40625 -5.46875 63.28125 -0.78125 
Q 71.09375 -1.171875 75.578125 -0.390625 
Q 80.078125 0.390625 81.25 3.125 
Q 82.421875 5.859375 83 19.140625 
Q 83.59375 32.421875 83.984375 56.25 
L 61.328125 56.25 
Q 58.203125 48.828125 52.34375 38.671875 
Q 49.609375 41.40625 45.703125 42.96875 
Q 49.21875 47.65625 52.34375 54.296875 
Q 55.46875 60.9375 57.8125 68.75 
Q 60.15625 76.5625 60.546875 80.859375 
Q 66.015625 78.515625 69.921875 77.34375 
Q 67.96875 74.21875 66.59375 70.5 
Q 65.234375 66.796875 63.671875 63.28125 
L 91.40625 63.28125 
Q 91.015625 55.078125 91.015625 48.046875 
z
M 37.109375 8.203125 
L 37.109375 28.90625 
L 17.1875 28.90625 
L 17.1875 8.203125 
z
M 37.109375 35.546875 
L 37.109375 55.078125 
L 17.1875 55.078125 
L 17.1875 35.546875 
z
M 67.96875 32.03125 
Q 70.3125 27.34375 73.4375 19.921875 
Q 70.703125 18.75 66.015625 16.015625 
Q 63.28125 23.4375 60.9375 28.703125 
Q 58.59375 33.984375 56.25 37.5 
Q 58.984375 39.0625 63.28125 41.40625 
z
" id="SimHei-30340"/>
      <path d="M 63.28125 77.34375 
Q 60.9375 74.609375 57.8125 69.921875 
L 83.984375 69.921875 
Q 76.5625 56.25 73.4375 49.609375 
L 89.84375 49.609375 
Q 89.453125 43.359375 89.453125 37.109375 
L 89.453125 26.953125 
Q 89.453125 21.875 89.84375 16.40625 
L 82.421875 16.40625 
L 82.421875 21.09375 
L 51.171875 21.09375 
L 51.171875 3.90625 
Q 51.171875 -2.734375 58.984375 -2.734375 
L 80.078125 -2.734375 
Q 83.984375 -2.734375 85.34375 -0.1875 
Q 86.71875 2.34375 87.5 7.421875 
Q 91.40625 5.46875 96.484375 4.296875 
Q 93.75 -4.6875 90.421875 -6.828125 
Q 87.109375 -8.984375 82.8125 -8.984375 
L 56.25 -8.984375 
Q 44.140625 -8.984375 44.140625 0.78125 
L 44.140625 36.71875 
Q 44.140625 42.96875 43.75 49.609375 
L 65.234375 49.609375 
Q 70.3125 58.984375 72.265625 63.671875 
L 54.6875 63.671875 
Q 48.4375 54.6875 45.3125 50.390625 
Q 42.578125 52.734375 39.0625 54.6875 
Q 43.75 60.9375 47.84375 67.375 
Q 51.953125 73.828125 55.078125 81.640625 
Q 59.375 79.296875 63.28125 77.34375 
z
M 27.34375 50.390625 
Q 29.6875 54.6875 31.25 58.203125 
Q 34.375 55.859375 39.84375 53.125 
Q 35.9375 50.390625 31.4375 43.75 
Q 26.953125 37.109375 16.40625 24.609375 
Q 31.640625 26.171875 36.71875 26.953125 
Q 36.71875 23.828125 37.5 19.921875 
Q 30.859375 19.53125 24.015625 18.75 
Q 17.1875 17.96875 9.765625 16.015625 
Q 7.8125 21.09375 6.25 24.21875 
Q 10.15625 26.5625 15.234375 32.03125 
Q 20.3125 37.5 24.21875 44.140625 
Q 17.96875 44.140625 14.0625 43.546875 
Q 10.15625 42.96875 7.421875 41.796875 
Q 6.25 45.703125 4.6875 49.609375 
Q 8.203125 51.953125 13.078125 61.125 
Q 17.96875 70.3125 21.09375 80.078125 
Q 23.828125 77.734375 29.6875 75.390625 
Q 26.5625 71.875 22.65625 64.84375 
Q 18.75 57.8125 13.28125 49.609375 
Q 16.40625 49.609375 27.34375 50.390625 
z
M 37.890625 9.765625 
Q 37.5 5.46875 37.890625 3.125 
Q 32.8125 1.953125 23.234375 -0.1875 
Q 13.671875 -2.34375 6.25 -5.078125 
Q 5.46875 -0.390625 4.296875 4.296875 
Q 14.84375 5.46875 21.671875 6.640625 
Q 28.515625 7.8125 37.890625 9.765625 
z
M 82.421875 26.953125 
L 82.421875 43.359375 
L 69.921875 43.359375 
L 69.921875 26.953125 
z
M 63.28125 26.953125 
L 63.28125 43.359375 
L 51.171875 43.359375 
L 51.171875 26.953125 
z
" id="SimHei-32477"/>
      <path d="M 8.203125 66.40625 
Q 14.0625 66.015625 21.875 66.015625 
L 44.140625 66.015625 
Q 40.234375 41.015625 34.375 27.34375 
Q 44.140625 13.671875 48.828125 6.25 
Q 46.09375 4.296875 42.578125 1.171875 
Q 34.375 15.234375 30.46875 20.3125 
Q 25.78125 12.109375 21.09375 6.640625 
Q 16.40625 1.171875 9.375 -5.46875 
Q 6.640625 -1.953125 3.125 -0.390625 
Q 9.765625 4.296875 15.234375 10.546875 
Q 20.703125 16.796875 25.78125 26.5625 
Q 16.40625 37.890625 8.59375 45.3125 
Q 10.9375 47.265625 14.0625 50.390625 
Q 25.390625 37.890625 29.296875 33.59375 
Q 34.375 47.65625 35.9375 59.765625 
L 21.875 59.765625 
Q 14.0625 59.765625 8.203125 59.375 
z
M 45.703125 57.8125 
Q 55.078125 57.421875 58.59375 57.421875 
L 75.390625 57.421875 
L 75.390625 69.140625 
Q 75.390625 74.21875 74.609375 80.078125 
L 83.59375 80.078125 
Q 83.203125 75.390625 83.203125 68.359375 
L 83.203125 57.421875 
Q 87.109375 57.421875 96.09375 57.8125 
L 96.09375 50.78125 
Q 87.109375 51.171875 83.203125 51.171875 
L 83.203125 1.953125 
Q 83.59375 -5.46875 78.3125 -7.421875 
Q 73.046875 -9.375 66.40625 -10.15625 
Q 65.234375 -5.46875 62.890625 -1.5625 
Q 71.484375 -1.5625 73.625 -0.578125 
Q 75.78125 0.390625 75.390625 5.078125 
L 75.390625 51.171875 
L 58.984375 51.171875 
Q 55.46875 51.171875 45.703125 50.390625 
z
M 53.90625 42.578125 
Q 60.546875 30.859375 65.234375 20.703125 
Q 60.15625 18.75 57.8125 16.796875 
Q 54.296875 27.34375 47.65625 38.671875 
Q 50.390625 39.84375 53.90625 42.578125 
z
" id="SimHei-23545"/>
      <path d="M 72.265625 42.96875 
Q 83.203125 42.96875 90.625 43.359375 
L 90.625 36.71875 
Q 82.8125 37.109375 72.265625 37.109375 
L 64.84375 37.109375 
Q 64.84375 33.203125 64.0625 25.78125 
L 78.515625 25.78125 
Q 87.109375 25.78125 95.3125 26.171875 
L 95.3125 19.140625 
Q 87.109375 19.53125 78.515625 19.53125 
L 66.40625 19.53125 
Q 71.484375 9.375 78.90625 4.484375 
Q 86.328125 -0.390625 95.703125 -1.953125 
Q 92.1875 -5.46875 90.234375 -9.765625 
Q 76.171875 -4.296875 69.53125 2.734375 
Q 62.890625 9.765625 60.9375 15.625 
Q 56.25 5.078125 48.828125 -0.96875 
Q 41.40625 -7.03125 31.640625 -10.546875 
Q 30.859375 -7.03125 26.953125 -3.125 
Q 38.671875 -1.171875 45.890625 6.828125 
Q 53.125 14.84375 54.296875 19.53125 
L 46.484375 19.53125 
Q 37.5 19.53125 31.640625 19.140625 
L 31.640625 26.171875 
Q 38.671875 25.78125 45.3125 25.78125 
L 56.25 25.78125 
Q 57.03125 31.640625 57.03125 37.109375 
L 51.953125 37.109375 
Q 41.796875 37.109375 34.765625 36.71875 
L 34.765625 43.359375 
Q 42.1875 42.96875 49.21875 42.96875 
z
M 84.765625 76.171875 
Q 84.375 71.09375 84.375 63.671875 
Q 84.375 56.25 84.765625 51.953125 
L 38.28125 51.953125 
Q 38.671875 55.859375 38.671875 63.28125 
Q 38.671875 70.703125 38.28125 76.171875 
L 84.765625 76.171875 
z
M 24.21875 51.953125 
Q 23.828125 46.875 23.828125 39.0625 
L 23.828125 10.546875 
L 29.6875 17.1875 
Q 31.640625 13.671875 34.765625 10.9375 
Q 26.171875 4.6875 19.53125 -5.078125 
Q 17.1875 -1.5625 12.890625 0.78125 
Q 16.015625 3.90625 16.40625 7.8125 
L 16.40625 45.3125 
Q 10.9375 45.3125 5.078125 44.921875 
L 5.078125 52.34375 
Q 8.59375 51.953125 11.71875 51.953125 
z
M 77.734375 57.8125 
L 77.734375 69.921875 
L 45.3125 69.921875 
L 45.3125 57.8125 
z
M 15.234375 80.078125 
Q 17.96875 78.125 29.6875 66.796875 
Q 26.953125 64.453125 24.21875 61.328125 
Q 17.96875 68.75 10.546875 74.609375 
Q 13.671875 77.734375 15.234375 80.078125 
z
" id="SimHei-35823"/>
      <path d="M 73.828125 77.734375 
Q 70.3125 73.828125 66.40625 66.796875 
L 75.78125 66.796875 
Q 85.15625 66.796875 91.015625 67.1875 
L 91.015625 60.15625 
Q 84.765625 60.546875 75.78125 60.546875 
L 51.171875 60.546875 
Q 50.390625 56.25 49.21875 51.171875 
L 70.703125 51.171875 
Q 79.296875 51.171875 86.328125 51.5625 
L 86.328125 44.53125 
Q 79.296875 44.921875 70.3125 44.921875 
L 47.65625 44.921875 
Q 46.484375 41.40625 44.53125 36.328125 
L 80.078125 36.328125 
Q 88.671875 36.328125 94.140625 36.71875 
L 94.140625 29.6875 
Q 89.0625 30.078125 80.46875 30.078125 
L 41.40625 30.078125 
Q 37.890625 24.21875 35.15625 20.3125 
Q 41.40625 19.921875 48.4375 19.921875 
L 70.703125 19.921875 
Q 77.734375 19.921875 83.59375 20.3125 
L 83.59375 13.28125 
Q 77.734375 13.671875 71.484375 13.671875 
L 61.328125 13.671875 
L 61.328125 -0.78125 
L 78.125 -0.78125 
Q 81.25 -0.78125 92.1875 -0.390625 
L 92.1875 -7.8125 
Q 82.421875 -7.421875 78.515625 -7.421875 
L 32.8125 -7.421875 
Q 26.5625 -7.421875 21.875 -7.8125 
L 21.875 -0.390625 
Q 27.734375 -0.78125 33.203125 -0.78125 
L 53.515625 -0.78125 
L 53.515625 13.671875 
L 48.4375 13.671875 
Q 41.015625 13.671875 33.984375 13.28125 
L 33.984375 18.75 
Q 30.078125 13.671875 23.234375 7.421875 
Q 16.40625 1.171875 9.765625 -3.90625 
Q 6.640625 -0.390625 3.125 2.34375 
Q 11.71875 7.421875 19.71875 14.453125 
Q 27.734375 21.484375 32.8125 30.078125 
L 20.703125 30.078125 
Q 11.71875 30.078125 5.859375 29.6875 
L 5.859375 36.71875 
Q 11.71875 36.328125 21.09375 36.328125 
L 36.328125 36.328125 
Q 38.28125 40.234375 39.84375 44.921875 
L 26.953125 44.921875 
Q 21.484375 44.921875 15.625 44.53125 
L 15.625 51.5625 
Q 23.4375 51.171875 26.5625 51.171875 
L 41.40625 51.171875 
Q 42.578125 55.859375 43.359375 60.546875 
L 23.4375 60.546875 
Q 17.1875 60.546875 10.15625 60.15625 
L 10.15625 67.1875 
Q 16.015625 66.796875 22.265625 66.796875 
L 35.546875 66.796875 
Q 32.421875 73.046875 28.90625 77.34375 
Q 31.640625 78.90625 35.15625 81.640625 
Q 38.28125 77.734375 42.578125 71.09375 
Q 39.453125 69.53125 36.328125 66.796875 
L 58.59375 66.796875 
Q 62.5 73.4375 64.84375 82.03125 
Q 68.75 79.6875 73.828125 77.734375 
z
" id="SimHei-24046"/>
     </defs>
     <use xlink:href="#SimHei-69"/>
     <use x="50" xlink:href="#SimHei-117"/>
     <use x="100" xlink:href="#SimHei-108"/>
     <use x="150" xlink:href="#SimHei-101"/>
     <use x="200" xlink:href="#SimHei-114"/>
     <use x="250" xlink:href="#SimHei-26041"/>
     <use x="350" xlink:href="#SimHei-27861"/>
     <use x="450" xlink:href="#SimHei-21644"/>
     <use x="550" xlink:href="#SimHei-25913"/>
     <use x="650" xlink:href="#SimHei-36827"/>
     <use x="750" xlink:href="#SimHei-69"/>
     <use x="800" xlink:href="#SimHei-117"/>
     <use x="850" xlink:href="#SimHei-108"/>
     <use x="900" xlink:href="#SimHei-101"/>
     <use x="950" xlink:href="#SimHei-114"/>
     <use x="1000" xlink:href="#SimHei-26041"/>
     <use x="1100" xlink:href="#SimHei-27861"/>
     <use x="1200" xlink:href="#SimHei-21462"/>
     <use x="1300" xlink:href="#SimHei-104"/>
     <use x="1350" xlink:href="#SimHei-61"/>
     <use x="1400" xlink:href="#SimHei-123"/>
     <use x="1450" xlink:href="#SimHei-104"/>
     <use x="1500" xlink:href="#SimHei-125"/>
     <use x="1550" xlink:href="#SimHei-26102"/>
     <use x="1650" xlink:href="#SimHei-30340"/>
     <use x="1750" xlink:href="#SimHei-32477"/>
     <use x="1850" xlink:href="#SimHei-23545"/>
     <use x="1950" xlink:href="#SimHei-35823"/>
     <use x="2050" xlink:href="#SimHei-24046"/>
    </g>
   </g>
   <g id="legend_1">
    <g id="patch_7">
     <path d="M 64.6 78.143875 
L 261.6 78.143875 
Q 263.6 78.143875 263.6 76.143875 
L 263.6 48.472 
Q 263.6 46.472 261.6 46.472 
L 64.6 46.472 
Q 62.6 46.472 62.6 48.472 
L 62.6 76.143875 
Q 62.6 78.143875 64.6 78.143875 
z
" style="fill:#ffffff;opacity:0.8;stroke:#cccccc;stroke-linejoin:miter;"/>
    </g>
    <g id="line2d_15">
     <path d="M 66.6 55.057938 
L 86.6 55.057938 
" style="fill:none;stroke:#1f77b4;stroke-dasharray:7.4,3.2;stroke-dashoffset:0;stroke-width:2;"/>
    </g>
    <g id="line2d_16">
     <g>
      <use style="fill:#1f77b4;stroke:#1f77b4;" x="76.6" xlink:href="#m3454b647e8" y="55.057938"/>
     </g>
    </g>
    <g id="text_16">
     <!-- Euler方法取h=0.05时的绝对误差 -->
     <g transform="translate(94.6 58.557938)scale(0.1 -0.1)">
      <use xlink:href="#SimHei-69"/>
      <use x="50" xlink:href="#SimHei-117"/>
      <use x="100" xlink:href="#SimHei-108"/>
      <use x="150" xlink:href="#SimHei-101"/>
      <use x="200" xlink:href="#SimHei-114"/>
      <use x="250" xlink:href="#SimHei-26041"/>
      <use x="350" xlink:href="#SimHei-27861"/>
      <use x="450" xlink:href="#SimHei-21462"/>
      <use x="550" xlink:href="#SimHei-104"/>
      <use x="600" xlink:href="#SimHei-61"/>
      <use x="650" xlink:href="#SimHei-48"/>
      <use x="700" xlink:href="#SimHei-46"/>
      <use x="750" xlink:href="#SimHei-48"/>
      <use x="800" xlink:href="#SimHei-53"/>
      <use x="850" xlink:href="#SimHei-26102"/>
      <use x="950" xlink:href="#SimHei-30340"/>
      <use x="1050" xlink:href="#SimHei-32477"/>
      <use x="1150" xlink:href="#SimHei-23545"/>
      <use x="1250" xlink:href="#SimHei-35823"/>
      <use x="1350" xlink:href="#SimHei-24046"/>
     </g>
    </g>
    <g id="line2d_17">
     <path d="M 66.6 69.393875 
L 86.6 69.393875 
" style="fill:none;stroke:#ff7f0e;stroke-dasharray:7.4,3.2;stroke-dashoffset:0;stroke-width:2;"/>
    </g>
    <g id="line2d_18">
     <g>
      <use style="fill:#ff7f0e;stroke:#ff7f0e;stroke-linejoin:miter;" x="76.6" xlink:href="#m0d2479af8f" y="69.393875"/>
     </g>
    </g>
    <g id="text_17">
     <!-- 改进Euler方法取h=0.05时的绝对误差 -->
     <g transform="translate(94.6 72.893875)scale(0.1 -0.1)">
      <use xlink:href="#SimHei-25913"/>
      <use x="100" xlink:href="#SimHei-36827"/>
      <use x="200" xlink:href="#SimHei-69"/>
      <use x="250" xlink:href="#SimHei-117"/>
      <use x="300" xlink:href="#SimHei-108"/>
      <use x="350" xlink:href="#SimHei-101"/>
      <use x="400" xlink:href="#SimHei-114"/>
      <use x="450" xlink:href="#SimHei-26041"/>
      <use x="550" xlink:href="#SimHei-27861"/>
      <use x="650" xlink:href="#SimHei-21462"/>
      <use x="750" xlink:href="#SimHei-104"/>
      <use x="800" xlink:href="#SimHei-61"/>
      <use x="850" xlink:href="#SimHei-48"/>
      <use x="900" xlink:href="#SimHei-46"/>
      <use x="950" xlink:href="#SimHei-48"/>
      <use x="1000" xlink:href="#SimHei-53"/>
      <use x="1050" xlink:href="#SimHei-26102"/>
      <use x="1150" xlink:href="#SimHei-30340"/>
      <use x="1250" xlink:href="#SimHei-32477"/>
      <use x="1350" xlink:href="#SimHei-23545"/>
      <use x="1450" xlink:href="#SimHei-35823"/>
      <use x="1550" xlink:href="#SimHei-24046"/>
     </g>
    </g>
   </g>
  </g>
 </g>
 <defs>
  <clipPath id="pe2988508a0">
   <rect height="266.112" width="357.12" x="57.6" y="41.472"/>
  </clipPath>
 </defs>
</svg>
