<?xml version="1.0" encoding="utf-8" standalone="no"?>
<!DOCTYPE svg PUBLIC "-//W3C//DTD SVG 1.1//EN"
  "http://www.w3.org/Graphics/SVG/1.1/DTD/svg11.dtd">
<!-- Created with matplotlib (https://matplotlib.org/) -->
<svg height="345.6pt" version="1.1" viewBox="0 0 460.8 345.6" width="460.8pt" xmlns="http://www.w3.org/2000/svg" xmlns:xlink="http://www.w3.org/1999/xlink">
 <metadata>
  <rdf:RDF xmlns:cc="http://creativecommons.org/ns#" xmlns:dc="http://purl.org/dc/elements/1.1/" xmlns:rdf="http://www.w3.org/1999/02/22-rdf-syntax-ns#">
   <cc:Work>
    <dc:type rdf:resource="http://purl.org/dc/dcmitype/StillImage"/>
    <dc:date>2023-01-15T21:34:36.408835</dc:date>
    <dc:format>image/svg+xml</dc:format>
    <dc:creator>
     <cc:Agent>
      <dc:title>Matplotlib v3.3.3, https://matplotlib.org/</dc:title>
     </cc:Agent>
    </dc:creator>
   </cc:Work>
  </rdf:RDF>
 </metadata>
 <defs>
  <style type="text/css">*{stroke-linecap:butt;stroke-linejoin:round;}</style>
 </defs>
 <g id="figure_1">
  <g id="patch_1">
   <path d="M 0 345.6 
L 460.8 345.6 
L 460.8 0 
L 0 0 
z
" style="fill:#ffffff;"/>
  </g>
  <g id="axes_1">
   <g id="patch_2">
    <path d="M 57.6 307.584 
L 414.72 307.584 
L 414.72 41.472 
L 57.6 41.472 
z
" style="fill:#ffffff;"/>
   </g>
   <g id="matplotlib.axis_1">
    <g id="xtick_1">
     <g id="line2d_1">
      <defs>
       <path d="M 0 0 
L 0 3.5 
" id="me8806b9f6d" style="stroke:#000000;stroke-width:0.8;"/>
      </defs>
      <g>
       <use style="stroke:#000000;stroke-width:0.8;" x="73.832727" xlink:href="#me8806b9f6d" y="307.584"/>
      </g>
     </g>
     <g id="text_1">
      <!-- 0 -->
      <g transform="translate(71.332727 321.459)scale(0.1 -0.1)">
       <defs>
        <path d="M 3.125 29.296875 
Q 3.90625 50 6.4375 56.046875 
Q 8.984375 62.109375 13.671875 66.015625 
Q 18.359375 69.921875 25.1875 69.921875 
Q 32.03125 69.921875 37.109375 64.25 
Q 42.1875 58.59375 43.75 50 
Q 45.3125 41.40625 44.71875 30.265625 
Q 44.140625 19.140625 40.8125 12.109375 
Q 37.5 5.078125 30.859375 2.34375 
Q 24.21875 -0.390625 17.578125 2.921875 
Q 10.9375 6.25 8.203125 11.71875 
Q 5.46875 17.1875 4.296875 23.234375 
Q 3.125 29.296875 3.90625 50 
z
M 12.890625 52.734375 
Q 10.546875 31.25 12.5 22.84375 
Q 14.453125 14.453125 18.9375 10.9375 
Q 23.4375 7.421875 28.125 9.5625 
Q 32.8125 11.71875 34.953125 18.15625 
Q 37.109375 24.609375 37.109375 32.21875 
Q 37.109375 39.84375 36.515625 46.09375 
Q 35.9375 52.34375 33 57.421875 
Q 30.078125 62.5 25.1875 62.6875 
Q 20.3125 62.890625 16.59375 57.8125 
Q 12.890625 52.734375 10.546875 31.25 
z
" id="SimHei-48"/>
       </defs>
       <use xlink:href="#SimHei-48"/>
      </g>
     </g>
    </g>
    <g id="xtick_2">
     <g id="line2d_2">
      <g>
       <use style="stroke:#000000;stroke-width:0.8;" x="133.073152" xlink:href="#me8806b9f6d" y="307.584"/>
      </g>
     </g>
     <g id="text_2">
      <!-- 50 -->
      <g transform="translate(128.073152 321.459)scale(0.1 -0.1)">
       <defs>
        <path d="M 8.59375 20.703125 
Q 11.328125 10.15625 17.96875 8.984375 
Q 24.609375 7.8125 28.703125 10.34375 
Q 32.8125 12.890625 34.5625 16.984375 
Q 36.328125 21.09375 36.125 26.171875 
Q 35.9375 31.25 33.390625 34.765625 
Q 30.859375 38.28125 26.953125 39.453125 
Q 23.046875 40.625 18.15625 39.453125 
Q 13.28125 38.28125 10.15625 33.984375 
L 3.515625 34.765625 
Q 4.296875 37.109375 10.9375 68.359375 
L 41.796875 68.359375 
L 41.796875 61.328125 
L 16.796875 61.328125 
Q 14.84375 50.78125 12.890625 44.53125 
Q 18.75 47.265625 23.828125 47.0625 
Q 28.90625 46.875 33.59375 44.71875 
Q 38.28125 42.578125 40.421875 38.859375 
Q 42.578125 35.15625 43.546875 31.4375 
Q 44.53125 27.734375 44.328125 23.4375 
Q 44.140625 19.140625 42.578125 14.640625 
Q 41.015625 10.15625 37.890625 7.21875 
Q 34.765625 4.296875 30.265625 2.53125 
Q 25.78125 0.78125 19.921875 1.171875 
Q 14.0625 1.5625 8.78125 5.46875 
Q 3.515625 9.375 1.5625 18.75 
z
" id="SimHei-53"/>
       </defs>
       <use xlink:href="#SimHei-53"/>
       <use x="50" xlink:href="#SimHei-48"/>
      </g>
     </g>
    </g>
    <g id="xtick_3">
     <g id="line2d_3">
      <g>
       <use style="stroke:#000000;stroke-width:0.8;" x="192.313577" xlink:href="#me8806b9f6d" y="307.584"/>
      </g>
     </g>
     <g id="text_3">
      <!-- 100 -->
      <g transform="translate(184.813577 321.459)scale(0.1 -0.1)">
       <defs>
        <path d="M 21.875 56.25 
Q 16.796875 51.171875 8.984375 46.484375 
L 8.984375 53.90625 
Q 18.75 60.546875 25 69.53125 
L 29.6875 69.53125 
L 29.6875 2.34375 
L 21.875 2.34375 
z
" id="SimHei-49"/>
       </defs>
       <use xlink:href="#SimHei-49"/>
       <use x="50" xlink:href="#SimHei-48"/>
       <use x="100" xlink:href="#SimHei-48"/>
      </g>
     </g>
    </g>
    <g id="xtick_4">
     <g id="line2d_4">
      <g>
       <use style="stroke:#000000;stroke-width:0.8;" x="251.554002" xlink:href="#me8806b9f6d" y="307.584"/>
      </g>
     </g>
     <g id="text_4">
      <!-- 150 -->
      <g transform="translate(244.054002 321.459)scale(0.1 -0.1)">
       <use xlink:href="#SimHei-49"/>
       <use x="50" xlink:href="#SimHei-53"/>
       <use x="100" xlink:href="#SimHei-48"/>
      </g>
     </g>
    </g>
    <g id="xtick_5">
     <g id="line2d_5">
      <g>
       <use style="stroke:#000000;stroke-width:0.8;" x="310.794427" xlink:href="#me8806b9f6d" y="307.584"/>
      </g>
     </g>
     <g id="text_5">
      <!-- 200 -->
      <g transform="translate(303.294427 321.459)scale(0.1 -0.1)">
       <defs>
        <path d="M 4.6875 3.90625 
Q 5.078125 9.765625 10.15625 14.453125 
Q 15.234375 19.140625 23.046875 29.09375 
Q 30.859375 39.0625 33.203125 44.53125 
Q 35.546875 50 34.953125 53.90625 
Q 34.375 57.8125 31.25 60.34375 
Q 28.125 62.890625 24.015625 62.5 
Q 19.921875 62.109375 16.203125 59.375 
Q 12.5 56.640625 10.546875 51.171875 
L 3.125 52.34375 
Q 6.25 61.328125 11.125 65.421875 
Q 16.015625 69.53125 22.65625 69.921875 
Q 26.5625 70.3125 29.6875 69.71875 
Q 32.8125 69.140625 36.125 66.984375 
Q 39.453125 64.84375 41.59375 60.546875 
Q 43.75 56.25 43.15625 50.1875 
Q 42.578125 44.140625 37.109375 35.734375 
Q 31.640625 27.34375 16.015625 9.375 
L 44.140625 9.375 
L 44.140625 2.34375 
L 4.6875 2.34375 
z
" id="SimHei-50"/>
       </defs>
       <use xlink:href="#SimHei-50"/>
       <use x="50" xlink:href="#SimHei-48"/>
       <use x="100" xlink:href="#SimHei-48"/>
      </g>
     </g>
    </g>
    <g id="xtick_6">
     <g id="line2d_6">
      <g>
       <use style="stroke:#000000;stroke-width:0.8;" x="370.034852" xlink:href="#me8806b9f6d" y="307.584"/>
      </g>
     </g>
     <g id="text_6">
      <!-- 250 -->
      <g transform="translate(362.534852 321.459)scale(0.1 -0.1)">
       <use xlink:href="#SimHei-50"/>
       <use x="50" xlink:href="#SimHei-53"/>
       <use x="100" xlink:href="#SimHei-48"/>
      </g>
     </g>
    </g>
    <g id="text_7">
     <!-- 时间（秒） -->
     <g transform="translate(211.16 334.755875)scale(0.1 -0.1)">
      <defs>
       <path d="M 39.453125 71.484375 
Q 39.0625 57.421875 39.0625 37.5 
Q 39.0625 17.578125 39.453125 6.25 
L 31.25 6.25 
L 31.25 13.671875 
L 15.625 13.671875 
L 15.625 0.78125 
L 7.421875 0.78125 
Q 7.8125 18.75 7.8125 36.71875 
Q 7.8125 55.078125 7.421875 71.484375 
L 39.453125 71.484375 
z
M 76.171875 59.765625 
Q 76.171875 71.484375 75.78125 81.640625 
L 84.375 81.640625 
Q 83.984375 71.484375 83.984375 59.765625 
Q 89.84375 59.765625 96.484375 60.15625 
L 96.484375 52.734375 
Q 89.84375 53.125 83.984375 53.125 
L 83.984375 0.78125 
Q 83.984375 -5.078125 79.296875 -6.640625 
Q 74.609375 -8.203125 67.1875 -8.984375 
Q 67.1875 -4.296875 62.890625 0 
Q 70.3125 -0.78125 73.234375 -0.390625 
Q 76.171875 0 76.171875 4.6875 
L 76.171875 53.125 
Q 56.640625 53.125 43.359375 52.734375 
L 43.359375 60.15625 
Q 55.859375 59.765625 76.171875 59.765625 
z
M 31.25 20.3125 
L 31.25 39.84375 
L 15.625 39.84375 
L 15.625 20.3125 
z
M 31.25 46.484375 
L 31.25 64.84375 
L 15.625 64.84375 
L 15.625 46.484375 
z
M 55.46875 42.578125 
Q 60.546875 34.375 65.234375 25 
Q 61.328125 23.828125 57.03125 21.484375 
Q 53.90625 30.859375 48.046875 39.0625 
Q 51.5625 40.625 55.46875 42.578125 
z
" id="SimHei-26102"/>
       <path d="M 69.53125 55.46875 
Q 69.140625 48.046875 69.140625 42.578125 
L 69.140625 21.875 
Q 69.140625 16.796875 69.53125 9.765625 
L 30.078125 9.765625 
Q 30.46875 16.796875 30.46875 22.265625 
L 30.46875 42.578125 
Q 30.46875 48.046875 30.078125 55.46875 
L 69.53125 55.46875 
z
M 90.625 76.171875 
Q 90.234375 68.75 90.234375 61.328125 
L 90.234375 3.90625 
Q 90.625 -5.078125 85.34375 -7.03125 
Q 80.078125 -8.984375 73.828125 -9.765625 
Q 73.4375 -5.078125 70.703125 -0.390625 
Q 78.125 -0.78125 80.265625 0.390625 
Q 82.421875 1.5625 82.421875 5.46875 
L 82.421875 69.53125 
L 58.984375 69.53125 
Q 49.609375 69.53125 41.40625 69.140625 
L 41.40625 76.5625 
Q 49.609375 76.171875 58.984375 76.171875 
z
M 8.59375 -8.203125 
Q 9.375 -0.390625 9.375 8.203125 
L 9.375 49.21875 
Q 9.375 57.421875 8.59375 62.890625 
L 17.578125 62.890625 
Q 17.1875 57.03125 17.1875 51.5625 
L 17.1875 7.8125 
Q 17.1875 0 17.578125 -8.203125 
z
M 61.71875 16.015625 
L 61.71875 30.46875 
L 37.890625 30.46875 
L 37.890625 16.015625 
z
M 61.71875 36.71875 
L 61.71875 49.21875 
L 37.890625 49.21875 
L 37.890625 36.71875 
z
M 23.828125 82.8125 
Q 27.34375 78.125 34.765625 67.96875 
Q 30.46875 66.015625 26.5625 63.671875 
Q 22.65625 71.484375 16.796875 78.515625 
Q 21.09375 81.640625 23.828125 82.8125 
z
" id="SimHei-38388"/>
       <path d="M 84.765625 79.6875 
L 89.0625 74.609375 
Q 66.796875 58.203125 67.578125 36.71875 
Q 67.96875 16.015625 88.671875 0.78125 
L 84.375 -4.296875 
Q 60.546875 12.890625 61.328125 39.0625 
Q 61.328125 60.546875 84.765625 79.6875 
z
" id="SimHei-65288"/>
       <path d="M 42.578125 71.09375 
Q 38.671875 70.703125 35.9375 70.109375 
Q 33.203125 69.53125 30.078125 68.75 
L 30.078125 51.953125 
Q 35.15625 51.953125 42.1875 52.34375 
L 42.1875 44.921875 
Q 35.15625 45.3125 30.078125 45.3125 
L 30.078125 2.734375 
Q 30.078125 -2.34375 30.46875 -10.15625 
L 21.875 -10.15625 
Q 22.65625 -2.34375 22.65625 2.734375 
L 22.65625 26.953125 
Q 20.3125 21.484375 16.984375 15.625 
Q 13.671875 9.765625 9.765625 5.859375 
Q 7.03125 9.765625 3.515625 13.28125 
Q 9.375 17.96875 14.0625 26.171875 
Q 18.75 34.375 21.484375 45.3125 
L 19.921875 45.3125 
Q 13.28125 45.3125 5.078125 44.921875 
L 5.078125 52.34375 
Q 13.28125 51.953125 19.921875 51.953125 
L 23.046875 51.953125 
L 23.046875 67.1875 
Q 16.015625 65.234375 10.546875 64.0625 
Q 8.984375 67.1875 6.640625 70.3125 
Q 14.84375 71.484375 22.0625 73.234375 
Q 29.296875 75 37.5 78.90625 
Q 39.453125 75 42.578125 71.09375 
z
M 92.96875 32.8125 
Q 89.0625 29.296875 86.125 23.4375 
Q 83.203125 17.578125 77.921875 11.328125 
Q 72.65625 5.078125 64.453125 -0.1875 
Q 56.25 -5.46875 41.015625 -9.765625 
Q 39.84375 -5.078125 36.71875 -0.78125 
Q 46.484375 0 54.09375 2.921875 
Q 61.71875 5.859375 67.1875 10.9375 
Q 72.65625 16.015625 76.5625 22.65625 
Q 80.46875 29.296875 82.8125 37.109375 
Q 85.546875 35.9375 92.96875 32.8125 
z
M 71.484375 82.421875 
Q 71.09375 76.171875 71.09375 68.75 
L 71.09375 36.328125 
Q 71.09375 30.078125 71.484375 22.265625 
L 63.671875 22.265625 
Q 64.0625 30.46875 64.0625 36.328125 
L 64.0625 68.75 
Q 64.0625 75.390625 63.671875 82.421875 
L 71.484375 82.421875 
z
M 59.375 61.328125 
Q 57.421875 56.640625 55.46875 46.484375 
Q 53.515625 36.328125 51.953125 30.859375 
Q 46.875 32.03125 43.359375 33.203125 
Q 45.3125 36.71875 47.265625 45.3125 
Q 49.21875 53.90625 50.390625 63.28125 
Q 54.6875 62.109375 59.375 61.328125 
z
M 82.421875 65.234375 
Q 85.15625 61.328125 89.0625 56.25 
Q 92.96875 51.171875 96.875 45.3125 
Q 93.359375 43.359375 89.453125 41.015625 
Q 87.109375 45.3125 83.78125 50.1875 
Q 80.46875 55.078125 76.171875 59.765625 
Q 79.296875 62.109375 82.421875 65.234375 
z
M 38.671875 37.5 
Q 40.234375 34.765625 42.1875 31.4375 
Q 44.140625 28.125 46.484375 23.4375 
Q 43.359375 21.875 39.453125 19.53125 
Q 37.890625 23.4375 35.9375 27.140625 
Q 33.984375 30.859375 32.03125 33.59375 
Q 35.15625 35.15625 38.671875 37.5 
z
" id="SimHei-31186"/>
       <path d="M 15.625 79.6875 
Q 39.0625 60.546875 39.0625 39.0625 
Q 39.84375 12.890625 16.015625 -4.296875 
L 11.71875 0.78125 
Q 32.421875 16.015625 32.8125 36.71875 
Q 33.59375 58.203125 11.328125 74.609375 
L 15.625 79.6875 
z
" id="SimHei-65289"/>
      </defs>
      <use xlink:href="#SimHei-26102"/>
      <use x="100" xlink:href="#SimHei-38388"/>
      <use x="200" xlink:href="#SimHei-65288"/>
      <use x="300" xlink:href="#SimHei-31186"/>
      <use x="400" xlink:href="#SimHei-65289"/>
     </g>
    </g>
   </g>
   <g id="matplotlib.axis_2">
    <g id="ytick_1">
     <g id="line2d_7">
      <defs>
       <path d="M 0 0 
L -3.5 0 
" id="m33e25481e0" style="stroke:#000000;stroke-width:0.8;"/>
      </defs>
      <g>
       <use style="stroke:#000000;stroke-width:0.8;" x="57.6" xlink:href="#m33e25481e0" y="295.488"/>
      </g>
     </g>
     <g id="text_8">
      <!-- 0.0 -->
      <g transform="translate(35.6 298.9255)scale(0.1 -0.1)">
       <defs>
        <path d="M 16.796875 1.953125 
L 7.8125 1.953125 
L 7.8125 10.546875 
L 16.796875 10.546875 
z
" id="SimHei-46"/>
       </defs>
       <use xlink:href="#SimHei-48"/>
       <use x="50" xlink:href="#SimHei-46"/>
       <use x="100" xlink:href="#SimHei-48"/>
      </g>
     </g>
    </g>
    <g id="ytick_2">
     <g id="line2d_8">
      <g>
       <use style="stroke:#000000;stroke-width:0.8;" x="57.6" xlink:href="#m33e25481e0" y="255.168"/>
      </g>
     </g>
     <g id="text_9">
      <!-- 0.2 -->
      <g transform="translate(35.6 258.6055)scale(0.1 -0.1)">
       <use xlink:href="#SimHei-48"/>
       <use x="50" xlink:href="#SimHei-46"/>
       <use x="100" xlink:href="#SimHei-50"/>
      </g>
     </g>
    </g>
    <g id="ytick_3">
     <g id="line2d_9">
      <g>
       <use style="stroke:#000000;stroke-width:0.8;" x="57.6" xlink:href="#m33e25481e0" y="214.848"/>
      </g>
     </g>
     <g id="text_10">
      <!-- 0.4 -->
      <g transform="translate(35.6 218.2855)scale(0.1 -0.1)">
       <defs>
        <path d="M 31.25 17.1875 
L 1.171875 17.1875 
L 1.171875 23.828125 
L 32.8125 69.53125 
L 38.671875 69.53125 
L 38.671875 23.828125 
L 48.046875 23.828125 
L 48.046875 17.1875 
L 38.671875 17.1875 
L 38.671875 2.34375 
L 31.25 2.34375 
z
M 31.25 23.828125 
L 31.25 54.6875 
L 9.375 23.828125 
z
" id="SimHei-52"/>
       </defs>
       <use xlink:href="#SimHei-48"/>
       <use x="50" xlink:href="#SimHei-46"/>
       <use x="100" xlink:href="#SimHei-52"/>
      </g>
     </g>
    </g>
    <g id="ytick_4">
     <g id="line2d_10">
      <g>
       <use style="stroke:#000000;stroke-width:0.8;" x="57.6" xlink:href="#m33e25481e0" y="174.528"/>
      </g>
     </g>
     <g id="text_11">
      <!-- 0.6 -->
      <g transform="translate(35.6 177.9655)scale(0.1 -0.1)">
       <defs>
        <path d="M 3.515625 19.53125 
Q 4.296875 30.859375 6.046875 34.765625 
Q 7.8125 38.671875 11.328125 44.53125 
L 27.34375 69.53125 
L 36.328125 69.53125 
L 19.921875 43.75 
Q 30.46875 46.484375 36.71875 42.96875 
Q 42.96875 39.453125 45.109375 34.953125 
Q 47.265625 30.46875 47.453125 25.1875 
Q 47.65625 19.921875 45.890625 14.84375 
Q 44.140625 9.765625 39.640625 5.65625 
Q 35.15625 1.5625 27.140625 1.171875 
Q 19.140625 0.78125 13.46875 4.09375 
Q 7.8125 7.421875 5.65625 13.46875 
Q 3.515625 19.53125 4.296875 30.859375 
z
M 12.5 16.015625 
Q 19.53125 8.59375 25.390625 8.203125 
Q 31.25 7.8125 35.15625 12.109375 
Q 39.0625 16.40625 39.0625 24.609375 
Q 39.0625 32.8125 34.171875 35.9375 
Q 29.296875 39.0625 23.234375 38.28125 
Q 17.1875 37.5 14.453125 32.421875 
Q 11.71875 27.34375 12.109375 21.671875 
Q 12.5 16.015625 19.53125 8.59375 
z
" id="SimHei-54"/>
       </defs>
       <use xlink:href="#SimHei-48"/>
       <use x="50" xlink:href="#SimHei-46"/>
       <use x="100" xlink:href="#SimHei-54"/>
      </g>
     </g>
    </g>
    <g id="ytick_5">
     <g id="line2d_11">
      <g>
       <use style="stroke:#000000;stroke-width:0.8;" x="57.6" xlink:href="#m33e25481e0" y="134.208"/>
      </g>
     </g>
     <g id="text_12">
      <!-- 0.8 -->
      <g transform="translate(35.6 137.6455)scale(0.1 -0.1)">
       <defs>
        <path d="M 2.734375 16.796875 
Q 2.734375 26.171875 5.078125 30.65625 
Q 7.421875 35.15625 12.890625 37.890625 
Q 8.203125 40.625 6.640625 43.9375 
Q 5.078125 47.265625 4.875 51.5625 
Q 4.6875 55.859375 6.046875 58.984375 
Q 7.421875 62.109375 10.15625 64.84375 
Q 12.890625 67.578125 16.203125 68.546875 
Q 19.53125 69.53125 23.4375 69.53125 
Q 27.34375 69.53125 30.46875 68.75 
Q 33.59375 67.96875 37.109375 65.421875 
Q 40.625 62.890625 42.1875 58.203125 
Q 43.75 53.515625 41.984375 47.265625 
Q 40.234375 41.015625 32.8125 37.5 
Q 39.453125 35.546875 42.1875 31.4375 
Q 44.921875 27.34375 44.921875 21.484375 
Q 44.921875 15.625 43.15625 12.109375 
Q 41.40625 8.59375 39.25 6.25 
Q 37.109375 3.90625 33.390625 2.53125 
Q 29.6875 1.171875 24.015625 1.171875 
Q 18.359375 1.171875 14.25 2.53125 
Q 10.15625 3.90625 7.421875 6.640625 
Q 4.6875 9.375 3.703125 13.078125 
Q 2.734375 16.796875 2.734375 26.171875 
z
M 10.9375 26.5625 
Q 10.546875 17.1875 12.296875 13.671875 
Q 14.0625 10.15625 18.75 9.171875 
Q 23.4375 8.203125 28.515625 9.375 
Q 33.59375 10.546875 35.546875 14.84375 
Q 37.5 19.140625 36.90625 23.4375 
Q 36.328125 27.734375 32.03125 30.65625 
Q 27.734375 33.59375 22.65625 33.203125 
Q 17.578125 32.8125 14.25 29.6875 
Q 10.9375 26.5625 10.546875 17.1875 
z
M 12.109375 56.25 
Q 12.109375 48.4375 14.84375 44.921875 
Q 17.578125 41.40625 23.4375 41.40625 
Q 29.296875 41.40625 32.21875 44.921875 
Q 35.15625 48.4375 34.953125 53.3125 
Q 34.765625 58.203125 31.4375 60.546875 
Q 28.125 62.890625 22.453125 62.5 
Q 16.796875 62.109375 14.453125 59.171875 
Q 12.109375 56.25 12.109375 48.4375 
z
" id="SimHei-56"/>
       </defs>
       <use xlink:href="#SimHei-48"/>
       <use x="50" xlink:href="#SimHei-46"/>
       <use x="100" xlink:href="#SimHei-56"/>
      </g>
     </g>
    </g>
    <g id="ytick_6">
     <g id="line2d_12">
      <g>
       <use style="stroke:#000000;stroke-width:0.8;" x="57.6" xlink:href="#m33e25481e0" y="93.888"/>
      </g>
     </g>
     <g id="text_13">
      <!-- 1.0 -->
      <g transform="translate(35.6 97.3255)scale(0.1 -0.1)">
       <use xlink:href="#SimHei-49"/>
       <use x="50" xlink:href="#SimHei-46"/>
       <use x="100" xlink:href="#SimHei-48"/>
      </g>
     </g>
    </g>
    <g id="ytick_7">
     <g id="line2d_13">
      <g>
       <use style="stroke:#000000;stroke-width:0.8;" x="57.6" xlink:href="#m33e25481e0" y="53.568"/>
      </g>
     </g>
     <g id="text_14">
      <!-- 1.2 -->
      <g transform="translate(35.6 57.0055)scale(0.1 -0.1)">
       <use xlink:href="#SimHei-49"/>
       <use x="50" xlink:href="#SimHei-46"/>
       <use x="100" xlink:href="#SimHei-50"/>
      </g>
     </g>
    </g>
    <g id="text_15">
     <!-- 水位高度（米） -->
     <g transform="translate(30.35 209.528)rotate(-90)scale(0.1 -0.1)">
      <defs>
       <path d="M 53.90625 80.859375 
Q 53.90625 75 53.703125 70.3125 
Q 53.515625 65.625 54.484375 58.78125 
Q 55.46875 51.953125 61.71875 42.578125 
Q 77.734375 55.859375 80.859375 63.28125 
Q 85.15625 59.375 88.671875 55.859375 
Q 83.59375 52.34375 78.703125 48.046875 
Q 73.828125 43.75 65.234375 36.328125 
Q 68.359375 29.6875 76.5625 21.484375 
Q 84.765625 13.28125 96.484375 9.765625 
Q 89.84375 6.640625 88.671875 1.953125 
Q 73.828125 10.9375 65.8125 21.875 
Q 57.8125 32.8125 53.515625 43.75 
L 53.515625 0.390625 
Q 53.90625 -5.078125 49.40625 -7.421875 
Q 44.921875 -9.765625 37.5 -10.546875 
Q 37.109375 -6.25 33.984375 -1.171875 
Q 40.234375 -2.34375 42.96875 -1.5625 
Q 45.703125 -0.78125 45.703125 3.515625 
L 45.703125 65.234375 
Q 45.703125 75 44.921875 80.859375 
L 53.90625 80.859375 
z
M 39.84375 55.859375 
Q 37.890625 45.3125 34.953125 36.90625 
Q 32.03125 28.515625 27.140625 20.3125 
Q 22.265625 12.109375 11.71875 1.5625 
Q 8.984375 5.078125 3.515625 7.03125 
Q 14.453125 14.84375 20.890625 25 
Q 27.34375 35.15625 30.46875 48.828125 
L 19.921875 48.828125 
Q 14.0625 48.828125 6.640625 48.046875 
L 6.640625 56.25 
Q 13.671875 55.859375 19.53125 55.859375 
z
" id="SimHei-27700"/>
       <path d="M 33.203125 76.953125 
Q 30.46875 74.21875 25.390625 58.59375 
L 25.390625 8.984375 
Q 25.390625 -3.515625 25.78125 -10.15625 
L 17.1875 -10.15625 
Q 17.96875 -3.125 17.96875 8.59375 
L 17.96875 46.09375 
Q 12.109375 35.546875 8.59375 30.46875 
Q 5.859375 35.546875 3.125 37.890625 
Q 8.203125 43.359375 14.25 55.859375 
Q 20.3125 68.359375 23.4375 81.25 
Q 28.515625 78.125 33.203125 76.953125 
z
M 83.984375 47.265625 
Q 82.421875 44.921875 79.6875 35.15625 
Q 76.953125 25.390625 71.875 4.6875 
L 85.15625 4.6875 
Q 92.578125 4.6875 95.3125 5.078125 
L 95.3125 -2.734375 
Q 91.796875 -2.34375 85.15625 -2.34375 
L 45.3125 -2.34375 
Q 35.546875 -2.34375 32.03125 -2.734375 
L 32.03125 5.078125 
Q 35.546875 4.6875 44.53125 4.6875 
L 63.671875 4.6875 
Q 68.75 21.875 73.4375 49.609375 
Q 79.6875 48.046875 83.984375 47.265625 
z
M 82.03125 62.890625 
Q 89.0625 62.890625 92.578125 63.28125 
L 92.578125 55.859375 
Q 89.0625 56.25 81.640625 56.25 
L 46.875 56.25 
Q 41.40625 56.25 35.546875 55.859375 
L 35.546875 63.28125 
Q 41.796875 62.890625 46.875 62.890625 
z
M 47.65625 47.65625 
Q 54.6875 27.734375 58.59375 11.328125 
Q 53.90625 9.765625 50.78125 8.59375 
Q 48.828125 17.578125 46.28125 26.171875 
Q 43.75 34.765625 39.84375 44.921875 
Q 43.75 45.703125 47.65625 47.65625 
z
M 60.546875 81.25 
Q 65.234375 73.046875 68.75 67.1875 
Q 65.625 66.40625 60.546875 63.671875 
Q 57.8125 70.703125 53.125 77.34375 
Q 57.03125 78.90625 60.546875 81.25 
z
" id="SimHei-20301"/>
       <path d="M 91.015625 -0.390625 
Q 91.40625 -6.25 86.71875 -7.8125 
Q 82.03125 -9.375 77.734375 -9.765625 
Q 76.171875 -5.078125 73.828125 -1.5625 
Q 77.734375 -1.5625 80.859375 -1.359375 
Q 83.984375 -1.171875 83.59375 3.90625 
L 83.59375 28.515625 
L 17.1875 28.515625 
L 17.1875 -8.984375 
L 9.375 -8.984375 
Q 9.765625 -3.515625 9.765625 13.28125 
Q 9.765625 30.46875 9.375 34.375 
L 91.40625 34.375 
Q 91.015625 28.90625 91.015625 22.265625 
z
M 76.953125 59.375 
Q 76.5625 54.296875 76.5625 49.609375 
Q 76.5625 45.3125 76.953125 40.625 
L 21.875 40.625 
Q 22.265625 44.140625 22.265625 49.609375 
Q 22.265625 55.078125 21.875 59.375 
L 76.953125 59.375 
z
M 70.3125 21.875 
Q 69.921875 17.578125 69.921875 12.5 
Q 69.921875 7.8125 70.3125 3.125 
L 30.46875 3.125 
Q 31.25 7.8125 31.25 12.5 
Q 31.25 17.578125 30.46875 21.875 
L 70.3125 21.875 
z
M 6.640625 71.875 
Q 11.71875 71.484375 17.578125 71.484375 
L 45.703125 71.484375 
Q 44.53125 76.171875 42.96875 79.6875 
Q 47.65625 80.078125 52.34375 81.25 
Q 53.125 77.34375 55.078125 71.484375 
L 82.03125 71.484375 
Q 87.5 71.484375 93.359375 71.875 
L 93.359375 64.84375 
Q 87.5 65.234375 78.90625 65.234375 
L 17.96875 65.234375 
Q 11.71875 65.234375 6.640625 64.84375 
z
M 69.53125 46.484375 
L 69.53125 53.515625 
L 29.6875 53.515625 
L 29.6875 46.484375 
z
M 62.890625 8.59375 
L 62.890625 16.40625 
L 37.5 16.40625 
L 37.5 8.59375 
z
" id="SimHei-39640"/>
       <path d="M 27.34375 26.171875 
Q 38.28125 25.78125 44.921875 25.78125 
L 81.25 25.78125 
Q 77.734375 19.53125 72.65625 13.28125 
Q 67.578125 7.03125 62.890625 3.125 
Q 67.96875 0.78125 77.34375 -0.78125 
Q 86.71875 -2.34375 95.3125 -2.34375 
Q 92.96875 -4.6875 91.015625 -10.15625 
Q 79.6875 -8.59375 71.09375 -6.4375 
Q 62.5 -4.296875 56.640625 -1.5625 
Q 48.4375 -5.078125 40.421875 -7.21875 
Q 32.421875 -9.375 23.828125 -10.546875 
Q 22.65625 -7.421875 19.140625 -3.90625 
Q 26.171875 -3.90625 35.15625 -1.953125 
Q 44.140625 0 50.78125 3.125 
Q 44.140625 8.59375 37.5 19.921875 
L 27.34375 19.53125 
z
M 46.484375 79.296875 
Q 50.78125 80.46875 54.296875 82.03125 
Q 56.640625 77.734375 58.984375 70.703125 
L 73.4375 70.703125 
Q 77.734375 70.703125 89.0625 71.09375 
L 89.0625 64.0625 
Q 78.125 64.453125 72.65625 64.453125 
L 21.484375 64.453125 
Q 21.484375 46.875 21.09375 36.125 
Q 20.703125 25.390625 18.9375 14.84375 
Q 17.1875 4.296875 11.328125 -8.203125 
Q 7.8125 -5.859375 3.90625 -4.6875 
Q 10.15625 6.25 11.90625 16.796875 
Q 13.671875 27.34375 13.859375 43.75 
Q 14.0625 60.15625 13.671875 70.703125 
L 50 70.703125 
Q 48.4375 75.78125 46.484375 79.296875 
z
M 38.671875 51.5625 
Q 38.671875 57.8125 38.28125 61.328125 
L 46.484375 61.328125 
Q 46.09375 58.203125 46.09375 51.5625 
L 67.1875 51.5625 
Q 67.1875 57.8125 66.796875 61.71875 
L 75 61.71875 
Q 74.609375 57.03125 74.609375 51.5625 
Q 83.203125 51.5625 89.453125 51.953125 
L 89.453125 45.3125 
Q 83.59375 45.703125 74.609375 45.703125 
Q 74.609375 35.15625 75 30.46875 
L 38.28125 30.46875 
Q 38.671875 36.71875 38.671875 45.703125 
Q 33.984375 45.703125 25 45.3125 
L 25 51.953125 
Q 33.984375 51.5625 38.671875 51.5625 
z
M 67.1875 36.71875 
L 67.1875 45.703125 
L 46.09375 45.703125 
L 46.09375 36.71875 
z
M 44.921875 19.921875 
Q 50 12.109375 57.03125 6.640625 
Q 62.890625 10.9375 69.140625 19.921875 
L 45.3125 19.921875 
z
" id="SimHei-24230"/>
       <path d="M 46.484375 44.53125 
L 46.484375 69.53125 
Q 46.484375 76.5625 45.3125 82.03125 
L 54.6875 82.03125 
Q 54.296875 74.609375 54.296875 69.53125 
L 54.296875 44.53125 
L 79.296875 44.53125 
Q 86.71875 44.53125 94.921875 44.921875 
L 94.921875 37.109375 
Q 86.71875 37.890625 79.296875 37.890625 
L 60.9375 37.890625 
Q 67.1875 27.34375 75.1875 20.890625 
Q 83.203125 14.453125 96.09375 10.546875 
Q 91.015625 3.90625 91.40625 0.78125 
Q 78.125 7.03125 70.109375 14.453125 
Q 62.109375 21.875 54.296875 36.328125 
L 54.296875 2.34375 
Q 54.296875 -1.953125 54.6875 -10.15625 
L 46.09375 -10.15625 
Q 46.484375 -1.953125 46.484375 2.34375 
L 46.484375 36.71875 
L 45.3125 36.71875 
Q 41.015625 23.828125 33.78125 14.84375 
Q 26.5625 5.859375 11.328125 -1.953125 
Q 10.15625 1.171875 5.46875 6.640625 
Q 16.40625 9.765625 24.609375 17.578125 
Q 32.8125 25.390625 37.890625 37.890625 
L 18.75 37.890625 
Q 13.28125 37.890625 4.6875 37.109375 
L 4.6875 44.921875 
Q 13.28125 44.53125 18.75 44.53125 
z
M 64.0625 56.25 
Q 71.484375 65.625 76.5625 77.34375 
Q 81.25 74.609375 85.9375 72.265625 
Q 83.203125 69.921875 79.484375 64.25 
Q 75.78125 58.59375 71.484375 51.953125 
Q 67.96875 54.296875 64.0625 56.25 
z
M 27.734375 51.953125 
Q 23.046875 62.109375 16.015625 71.484375 
Q 19.921875 73.828125 23.4375 76.171875 
Q 30.46875 66.796875 35.9375 56.640625 
Q 31.25 54.6875 27.734375 51.953125 
z
" id="SimHei-31859"/>
      </defs>
      <use xlink:href="#SimHei-27700"/>
      <use x="100" xlink:href="#SimHei-20301"/>
      <use x="200" xlink:href="#SimHei-39640"/>
      <use x="300" xlink:href="#SimHei-24230"/>
      <use x="400" xlink:href="#SimHei-65288"/>
      <use x="500" xlink:href="#SimHei-31859"/>
      <use x="600" xlink:href="#SimHei-65289"/>
     </g>
    </g>
   </g>
   <g id="line2d_14">
    <path clip-path="url(#pf1c24983d3)" d="M 73.832727 53.568 
L 126.622134 73.728 
L 192.473651 93.888 
L 259.761787 114.048 
L 317.974595 134.208 
L 358.277161 154.368 
L 378.450332 174.528 
L 388.744675 194.688 
L 393.975351 214.848 
L 396.276486 235.008 
L 397.517835 255.168 
L 398.068354 275.328 
L 398.487273 295.488 
" style="fill:none;stroke:#1f77b4;stroke-dasharray:7.4,3.2;stroke-dashoffset:0;stroke-width:2;"/>
    <defs>
     <path d="M 0 2.5 
C 0.663008 2.5 1.29895 2.236584 1.767767 1.767767 
C 2.236584 1.29895 2.5 0.663008 2.5 0 
C 2.5 -0.663008 2.236584 -1.29895 1.767767 -1.767767 
C 1.29895 -2.236584 0.663008 -2.5 0 -2.5 
C -0.663008 -2.5 -1.29895 -2.236584 -1.767767 -1.767767 
C -2.236584 -1.29895 -2.5 -0.663008 -2.5 0 
C -2.5 0.663008 -2.236584 1.29895 -1.767767 1.767767 
C -1.29895 2.236584 -0.663008 2.5 0 2.5 
z
" id="ma22d8dad18" style="stroke:#1f77b4;"/>
    </defs>
    <g clip-path="url(#pf1c24983d3)">
     <use style="fill:#1f77b4;stroke:#1f77b4;" x="73.832727" xlink:href="#ma22d8dad18" y="53.568"/>
     <use style="fill:#1f77b4;stroke:#1f77b4;" x="126.622134" xlink:href="#ma22d8dad18" y="73.728"/>
     <use style="fill:#1f77b4;stroke:#1f77b4;" x="192.473651" xlink:href="#ma22d8dad18" y="93.888"/>
     <use style="fill:#1f77b4;stroke:#1f77b4;" x="259.761787" xlink:href="#ma22d8dad18" y="114.048"/>
     <use style="fill:#1f77b4;stroke:#1f77b4;" x="317.974595" xlink:href="#ma22d8dad18" y="134.208"/>
     <use style="fill:#1f77b4;stroke:#1f77b4;" x="358.277161" xlink:href="#ma22d8dad18" y="154.368"/>
     <use style="fill:#1f77b4;stroke:#1f77b4;" x="378.450332" xlink:href="#ma22d8dad18" y="174.528"/>
     <use style="fill:#1f77b4;stroke:#1f77b4;" x="388.744675" xlink:href="#ma22d8dad18" y="194.688"/>
     <use style="fill:#1f77b4;stroke:#1f77b4;" x="393.975351" xlink:href="#ma22d8dad18" y="214.848"/>
     <use style="fill:#1f77b4;stroke:#1f77b4;" x="396.276486" xlink:href="#ma22d8dad18" y="235.008"/>
     <use style="fill:#1f77b4;stroke:#1f77b4;" x="397.517835" xlink:href="#ma22d8dad18" y="255.168"/>
     <use style="fill:#1f77b4;stroke:#1f77b4;" x="398.068354" xlink:href="#ma22d8dad18" y="275.328"/>
     <use style="fill:#1f77b4;stroke:#1f77b4;" x="398.487273" xlink:href="#ma22d8dad18" y="295.488"/>
    </g>
   </g>
   <g id="patch_3">
    <path d="M 57.6 307.584 
L 57.6 41.472 
" style="fill:none;stroke:#000000;stroke-linecap:square;stroke-linejoin:miter;stroke-width:0.8;"/>
   </g>
   <g id="patch_4">
    <path d="M 414.72 307.584 
L 414.72 41.472 
" style="fill:none;stroke:#000000;stroke-linecap:square;stroke-linejoin:miter;stroke-width:0.8;"/>
   </g>
   <g id="patch_5">
    <path d="M 57.6 307.584 
L 414.72 307.584 
" style="fill:none;stroke:#000000;stroke-linecap:square;stroke-linejoin:miter;stroke-width:0.8;"/>
   </g>
   <g id="patch_6">
    <path d="M 57.6 41.472 
L 414.72 41.472 
" style="fill:none;stroke:#000000;stroke-linecap:square;stroke-linejoin:miter;stroke-width:0.8;"/>
   </g>
   <g id="text_16">
    <!-- 情形2：倒葫芦形状容器水位高度的动态变化曲线 -->
    <g transform="translate(107.16 35.472)scale(0.12 -0.12)">
     <defs>
      <path d="M 43.359375 23.046875 
Q 43.359375 32.03125 42.96875 39.453125 
L 87.5 39.453125 
Q 87.109375 32.8125 87.109375 26.953125 
L 87.109375 -2.34375 
Q 87.109375 -6.640625 83.984375 -7.8125 
Q 80.859375 -8.984375 76.171875 -9.765625 
Q 75.78125 -6.25 73.4375 -2.34375 
Q 78.90625 -2.34375 79.6875 -1.171875 
Q 80.46875 0 80.46875 7.421875 
L 50.390625 7.421875 
L 50.390625 -9.765625 
L 42.96875 -9.765625 
Q 43.359375 -0.78125 43.359375 5.859375 
z
M 37.109375 50.78125 
Q 46.484375 50.390625 54.296875 50.390625 
L 62.109375 50.390625 
L 62.109375 56.640625 
L 54.6875 56.640625 
Q 48.046875 56.640625 41.015625 56.25 
L 41.015625 62.890625 
Q 48.046875 62.5 54.6875 62.5 
L 62.109375 62.5 
L 62.109375 67.96875 
L 53.90625 67.96875 
Q 47.65625 67.96875 38.671875 67.578125 
L 38.671875 74.21875 
Q 48.046875 73.828125 53.90625 73.828125 
L 62.109375 73.828125 
Q 62.109375 77.734375 61.71875 81.640625 
L 69.921875 81.640625 
Q 69.53125 77.734375 69.53125 73.828125 
L 80.078125 73.828125 
Q 86.71875 73.828125 92.578125 74.21875 
L 92.578125 67.578125 
Q 86.71875 67.96875 80.078125 67.96875 
L 69.53125 67.96875 
L 69.53125 62.5 
L 76.953125 62.5 
Q 83.203125 62.5 89.84375 62.890625 
L 89.84375 56.25 
Q 82.8125 56.640625 76.953125 56.640625 
L 69.53125 56.640625 
L 69.53125 50.390625 
L 80.859375 50.390625 
Q 90.234375 50.390625 96.09375 50.78125 
L 96.09375 44.140625 
Q 90.234375 44.53125 80.46875 44.53125 
L 54.6875 44.53125 
Q 44.53125 44.53125 37.109375 44.140625 
z
M 26.171875 81.640625 
Q 25.78125 75 25.78125 68.75 
L 25.78125 6.640625 
Q 25.78125 -1.5625 26.171875 -9.375 
L 17.96875 -9.375 
Q 18.75 -1.5625 18.75 6.640625 
L 18.75 67.578125 
Q 18.75 75.390625 17.96875 81.640625 
L 26.171875 81.640625 
z
M 80.078125 13.28125 
L 80.078125 20.703125 
L 50.390625 20.703125 
L 50.390625 13.28125 
z
M 80.078125 26.5625 
L 80.078125 33.59375 
L 50.390625 33.59375 
L 50.390625 26.5625 
z
M 16.40625 60.9375 
Q 15.625 57.421875 11.328125 35.546875 
Q 7.8125 36.71875 3.90625 37.109375 
Q 6.640625 42.96875 8.984375 62.109375 
Q 12.5 61.328125 16.40625 60.9375 
z
M 30.859375 48.828125 
Q 30.078125 53.515625 27.734375 62.109375 
Q 30.46875 62.5 34.375 63.671875 
Q 36.71875 55.46875 38.28125 51.171875 
Q 33.984375 50 30.859375 48.828125 
z
" id="SimHei-24773"/>
      <path d="M 42.96875 75.78125 
Q 52.34375 75.78125 57.421875 76.171875 
L 57.421875 69.140625 
Q 53.125 69.53125 46.09375 69.53125 
L 46.09375 42.1875 
Q 54.296875 42.1875 58.203125 42.578125 
L 58.203125 35.15625 
Q 54.6875 35.546875 46.09375 35.546875 
L 46.09375 7.8125 
Q 46.09375 -0.78125 46.484375 -5.46875 
L 38.671875 -5.46875 
Q 39.0625 0 39.0625 7.421875 
L 39.0625 35.546875 
L 25.78125 35.546875 
Q 25 16.796875 20.703125 6.828125 
Q 16.40625 -3.125 12.890625 -7.8125 
Q 8.59375 -4.6875 4.6875 -3.90625 
Q 10.9375 2.34375 14.640625 11.90625 
Q 18.359375 21.484375 18.75 35.546875 
Q 12.109375 35.546875 6.640625 35.15625 
L 6.640625 42.578125 
Q 12.109375 42.1875 19.140625 42.1875 
L 19.140625 69.53125 
Q 12.5 69.53125 9.375 69.140625 
L 9.375 76.171875 
Q 12.5 75.78125 21.484375 75.78125 
z
M 95.3125 19.921875 
Q 91.40625 16.40625 80.46875 7.21875 
Q 69.53125 -1.953125 59.375 -8.203125 
Q 57.03125 -4.6875 53.125 -1.5625 
Q 63.28125 2.734375 73.828125 11.71875 
Q 84.375 20.703125 87.890625 25.78125 
Q 90.625 22.65625 95.3125 19.921875 
z
M 39.0625 42.1875 
L 39.0625 69.53125 
L 26.171875 69.53125 
L 26.171875 42.1875 
z
M 91.796875 46.484375 
Q 88.28125 44.140625 81.046875 35.9375 
Q 73.828125 27.734375 60.9375 18.359375 
Q 58.59375 21.484375 54.296875 24.21875 
Q 65.234375 30.46875 72.265625 37.6875 
Q 79.296875 44.921875 83.984375 51.953125 
Q 89.0625 47.65625 91.796875 46.484375 
z
M 88.671875 75 
Q 84.765625 71.484375 79.09375 63.859375 
Q 73.4375 56.25 63.671875 46.484375 
Q 60.15625 49.21875 56.640625 51.171875 
Q 65.234375 58.59375 69.921875 64.453125 
Q 74.609375 70.3125 80.078125 79.6875 
Q 82.03125 78.515625 88.671875 75 
z
" id="SimHei-24418"/>
      <path d="M 18.75 37.890625 
L 31.640625 37.890625 
L 31.640625 25 
L 18.75 25 
z
M 18.75 12.890625 
L 31.640625 12.890625 
L 31.640625 0 
L 18.75 0 
z
" id="SimHei-65306"/>
      <path d="M 53.125 75.390625 
Q 59.765625 75.390625 64.0625 75.78125 
L 64.0625 67.578125 
Q 59.765625 67.96875 50.78125 67.96875 
Q 44.140625 52.34375 40.625 47.65625 
Q 50.78125 48.4375 56.25 49.21875 
Q 53.90625 53.515625 51.953125 56.640625 
Q 55.859375 58.203125 58.203125 59.765625 
Q 65.234375 46.484375 66.796875 41.796875 
Q 63.28125 39.84375 60.15625 38.28125 
Q 59.375 40.625 58.59375 42.578125 
Q 55.859375 42.578125 51.171875 41.796875 
L 51.171875 29.296875 
Q 59.765625 29.296875 63.28125 29.6875 
L 63.28125 21.875 
Q 58.59375 22.265625 51.171875 22.265625 
L 51.171875 8.203125 
Q 58.203125 9.375 65.625 11.328125 
Q 65.234375 7.03125 65.625 3.90625 
Q 53.125 1.5625 44.53125 -0.390625 
Q 35.9375 -2.34375 32.03125 -3.90625 
Q 31.25 -0.390625 28.90625 5.078125 
Q 32.421875 5.078125 44.140625 6.640625 
L 44.140625 22.265625 
Q 35.9375 22.265625 32.03125 21.875 
L 32.03125 29.6875 
Q 35.546875 29.296875 44.140625 29.296875 
L 44.140625 41.40625 
Q 37.109375 40.625 32.8125 39.0625 
Q 31.640625 43.75 30.078125 47.65625 
Q 33.984375 48.828125 37.296875 54.09375 
Q 40.625 59.375 43.359375 67.96875 
Q 37.109375 67.96875 32.421875 67.578125 
L 32.421875 75.78125 
Q 36.328125 75.390625 44.53125 75.390625 
z
M 32.03125 78.125 
Q 28.90625 75 23.4375 60.15625 
L 23.4375 4.6875 
Q 23.4375 -2.734375 23.828125 -9.765625 
L 16.015625 -9.765625 
Q 16.40625 -3.515625 16.40625 4.296875 
L 16.40625 47.65625 
Q 14.453125 42.578125 9.375 34.765625 
Q 7.03125 37.5 3.125 40.625 
Q 7.03125 45.703125 12.5 56.046875 
Q 17.96875 66.40625 21.484375 82.03125 
Q 26.5625 80.078125 32.03125 78.125 
z
M 92.96875 80.46875 
Q 92.578125 74.609375 92.578125 68.359375 
L 92.578125 0.78125 
Q 91.796875 -4.296875 87.5 -5.859375 
Q 83.203125 -7.421875 76.171875 -8.984375 
Q 75.390625 -4.6875 72.65625 1.171875 
Q 78.125 0.78125 81.828125 1.359375 
Q 85.546875 1.953125 85.546875 6.640625 
L 85.546875 68.359375 
Q 85.546875 74.21875 85.15625 80.46875 
z
M 78.125 67.96875 
Q 77.734375 64.453125 77.734375 55.46875 
L 77.734375 26.171875 
Q 77.734375 18.359375 78.125 14.84375 
L 69.921875 14.84375 
Q 70.3125 18.359375 70.3125 26.171875 
L 70.3125 55.46875 
Q 70.3125 64.0625 69.921875 67.96875 
L 78.125 67.96875 
z
" id="SimHei-20498"/>
      <path d="M 89.453125 53.125 
Q 89.0625 47.65625 89.0625 41.015625 
L 89.0625 1.953125 
Q 89.0625 -5.078125 86.125 -6.828125 
Q 83.203125 -8.59375 73.4375 -10.15625 
Q 72.265625 -5.859375 70.3125 -2.34375 
Q 76.171875 -2.34375 79.09375 -1.953125 
Q 82.03125 -1.5625 82.03125 2.734375 
L 82.03125 12.890625 
L 59.375 12.890625 
Q 57.421875 6.640625 55.265625 2.140625 
Q 53.125 -2.34375 46.484375 -9.765625 
Q 43.359375 -7.03125 39.453125 -5.078125 
Q 47.65625 1.953125 50.390625 9.171875 
Q 53.125 16.40625 53.515625 24.609375 
Q 53.90625 32.8125 53.90625 40.234375 
Q 53.90625 48.046875 53.515625 53.125 
L 89.453125 53.125 
z
M 31.640625 57.8125 
Q 30.859375 52.34375 30.859375 45.703125 
Q 42.1875 45.703125 48.4375 46.09375 
L 48.4375 39.453125 
Q 42.1875 39.84375 30.859375 39.84375 
L 30.859375 29.6875 
L 43.75 29.6875 
Q 43.359375 24.609375 43.359375 15.234375 
Q 43.359375 6.25 43.75 0.78125 
L 35.9375 0.78125 
L 35.9375 3.90625 
L 16.796875 3.90625 
L 16.796875 -5.078125 
L 8.984375 -5.078125 
Q 9.375 0.78125 9.375 12.890625 
Q 9.375 25 8.984375 29.6875 
L 23.828125 29.6875 
L 23.828125 39.84375 
Q 10.546875 39.84375 3.90625 39.453125 
L 3.90625 46.09375 
Q 10.546875 45.703125 23.828125 45.703125 
Q 23.828125 52.34375 23.4375 57.8125 
L 31.640625 57.8125 
z
M 40.234375 65.625 
Q 40.234375 62.5 40.625 58.59375 
L 32.421875 58.59375 
Q 32.8125 63.28125 32.8125 65.625 
L 16.796875 65.625 
Q 10.9375 65.625 3.90625 65.234375 
L 3.90625 72.265625 
Q 10.9375 71.875 16.796875 71.875 
L 32.8125 71.875 
Q 32.8125 75.78125 32.421875 80.46875 
L 41.015625 80.46875 
Q 40.234375 75.78125 40.234375 71.875 
L 59.375 71.875 
Q 59.375 76.171875 58.984375 80.46875 
L 67.578125 80.46875 
Q 66.796875 76.171875 66.796875 71.875 
L 83.984375 71.875 
Q 89.84375 71.875 96.484375 72.265625 
L 96.484375 65.234375 
Q 89.84375 65.625 83.984375 65.625 
L 66.796875 65.625 
Q 66.796875 62.109375 67.1875 58.59375 
L 58.984375 58.59375 
Q 59.375 62.109375 59.375 65.625 
z
M 35.9375 9.765625 
L 35.9375 23.828125 
L 16.796875 23.828125 
L 16.796875 9.765625 
z
M 82.03125 35.9375 
L 82.03125 47.265625 
L 60.546875 47.265625 
L 60.546875 35.9375 
z
M 82.03125 18.75 
L 82.03125 30.078125 
L 60.9375 30.078125 
Q 60.9375 25 60.546875 18.75 
z
" id="SimHei-33899"/>
      <path d="M 3.515625 -5.078125 
Q 12.890625 2.34375 15.8125 10.15625 
Q 18.75 17.96875 18.9375 29.09375 
Q 19.140625 40.234375 18.75 47.265625 
L 47.65625 47.265625 
Q 46.875 51.5625 43.359375 57.03125 
Q 48.046875 57.8125 51.953125 58.984375 
Q 54.296875 52.734375 56.25 47.265625 
L 84.765625 47.265625 
Q 84.375 41.40625 84.375 30.46875 
Q 84.375 19.921875 84.765625 15.234375 
L 76.953125 15.234375 
L 76.953125 19.921875 
L 26.953125 19.921875 
Q 26.171875 13.28125 23.234375 6.046875 
Q 20.3125 -1.171875 11.328125 -9.765625 
Q 7.8125 -6.640625 3.515625 -5.078125 
z
M 18.359375 62.890625 
Q 11.71875 62.890625 5.859375 62.5 
L 5.859375 69.53125 
Q 11.71875 69.140625 18.359375 69.140625 
L 30.859375 69.140625 
Q 30.859375 76.5625 30.46875 80.859375 
L 39.0625 80.859375 
Q 38.671875 76.953125 38.671875 69.140625 
L 60.546875 69.140625 
Q 60.546875 77.734375 60.15625 80.859375 
L 68.75 80.859375 
Q 68.359375 77.34375 68.359375 69.140625 
L 81.25 69.140625 
Q 88.671875 69.140625 94.921875 69.53125 
L 94.921875 62.5 
Q 88.671875 62.890625 81.25 62.890625 
L 68.359375 62.890625 
Q 68.359375 57.8125 68.75 53.90625 
L 60.546875 53.90625 
L 60.546875 62.890625 
L 38.671875 62.890625 
L 38.671875 53.90625 
L 30.46875 53.90625 
Q 30.859375 58.984375 30.859375 62.890625 
z
M 76.953125 26.171875 
L 76.953125 41.015625 
L 27.34375 41.015625 
L 27.34375 26.171875 
z
" id="SimHei-33446"/>
      <path d="M 34.765625 -4.296875 
Q 41.796875 0.390625 46.484375 7.421875 
Q 51.171875 14.453125 53.90625 21.09375 
Q 56.640625 27.734375 57.8125 33.984375 
Q 58.984375 40.234375 59.375 44.921875 
L 50.390625 44.921875 
Q 44.53125 44.921875 39.0625 44.53125 
L 39.0625 51.953125 
Q 44.53125 51.5625 50 51.5625 
L 59.765625 51.5625 
Q 59.765625 62.109375 59.5625 68.359375 
Q 59.375 74.609375 58.984375 79.296875 
L 69.140625 79.296875 
Q 67.96875 74.21875 67.765625 68.9375 
Q 67.578125 63.671875 67.578125 51.5625 
L 83.59375 51.5625 
Q 87.890625 51.5625 93.359375 51.953125 
L 93.359375 44.53125 
Q 87.890625 44.921875 83.59375 44.921875 
L 68.359375 44.921875 
Q 73.046875 22.65625 78.3125 15.03125 
Q 83.59375 7.421875 87.890625 4.09375 
Q 92.1875 0.78125 95.703125 -1.171875 
Q 90.234375 -3.515625 87.890625 -8.203125 
Q 81.640625 -3.125 77.921875 1.75 
Q 74.21875 6.640625 71.671875 11.328125 
Q 69.140625 16.015625 67.375 20.890625 
Q 65.625 25.78125 64.453125 31.25 
Q 62.5 21.875 59.5625 15.234375 
Q 56.640625 8.59375 53.515625 3.703125 
Q 50.390625 -1.171875 42.96875 -9.765625 
Q 39.453125 -6.25 34.765625 -4.296875 
z
M 34.765625 81.25 
Q 34.375 75.390625 34.375 66.40625 
L 34.375 12.109375 
Q 34.375 0.78125 34.765625 -9.765625 
L 26.171875 -9.765625 
Q 26.5625 1.171875 26.5625 12.109375 
L 26.5625 30.46875 
Q 23.828125 27.34375 18.75 21.09375 
Q 13.671875 14.84375 10.9375 11.71875 
Q 7.8125 15.625 4.296875 17.96875 
Q 8.984375 21.484375 14.25 26.75 
Q 19.53125 32.03125 26.5625 40.625 
L 26.5625 66.40625 
Q 26.5625 75.390625 26.171875 81.25 
L 34.765625 81.25 
z
M 9.765625 67.578125 
Q 12.5 64.453125 15.625 60.546875 
Q 18.75 56.640625 21.484375 52.734375 
Q 18.359375 50.390625 16.40625 48.046875 
Q 13.28125 52.34375 3.90625 63.28125 
Q 6.25 65.234375 9.765625 67.578125 
z
M 85.546875 57.03125 
Q 82.03125 62.109375 73.4375 69.921875 
Q 76.5625 72.265625 78.515625 74.21875 
Q 82.03125 71.484375 84.765625 68.546875 
Q 87.5 65.625 91.015625 62.109375 
Q 87.890625 59.375 85.546875 57.03125 
z
" id="SimHei-29366"/>
      <path d="M 52.34375 42.578125 
Q 62.890625 33.59375 73.234375 28.90625 
Q 83.59375 24.21875 95.3125 22.265625 
Q 91.796875 19.53125 90.625 14.84375 
Q 83.203125 16.796875 75.78125 19.921875 
Q 75.78125 -3.125 76.171875 -8.984375 
L 68.75 -8.984375 
L 68.75 -3.515625 
L 32.03125 -3.515625 
L 32.03125 -10.15625 
L 24.609375 -10.15625 
Q 25 -5.078125 25 19.921875 
Q 17.578125 16.40625 8.59375 12.890625 
Q 7.03125 16.015625 3.515625 19.53125 
Q 20.703125 23.4375 33.390625 33.390625 
Q 46.09375 43.359375 48.828125 51.171875 
Q 52.734375 48.828125 56.25 47.265625 
z
M 89.84375 67.96875 
Q 89.453125 64.453125 89.453125 60.546875 
Q 89.453125 56.640625 89.84375 53.125 
L 82.03125 53.125 
L 82.03125 62.5 
L 18.75 62.5 
L 18.75 52.734375 
L 10.9375 52.734375 
Q 11.328125 57.03125 11.328125 60.546875 
Q 11.328125 64.453125 10.9375 67.96875 
z
M 68.75 2.34375 
L 68.75 16.015625 
L 32.03125 16.015625 
L 32.03125 2.34375 
z
M 72.265625 21.875 
Q 60.546875 26.5625 48.4375 37.890625 
Q 39.453125 28.90625 27.34375 21.875 
z
M 62.5 58.203125 
Q 80.859375 48.046875 86.71875 44.53125 
Q 83.984375 41.40625 82.03125 38.28125 
Q 68.75 47.265625 58.203125 52.734375 
Q 61.328125 55.859375 62.5 58.203125 
z
M 12.109375 43.359375 
Q 29.296875 50.390625 36.328125 57.8125 
Q 37.5 55.859375 41.40625 51.953125 
Q 26.953125 42.1875 17.1875 37.890625 
Q 15.234375 41.015625 12.109375 43.359375 
z
M 41.40625 78.515625 
Q 44.53125 80.078125 48.828125 82.8125 
Q 53.125 77.34375 55.859375 71.875 
Q 50.390625 69.921875 48.046875 68.359375 
Q 47.65625 69.921875 41.40625 78.515625 
z
" id="SimHei-23481"/>
      <path d="M 4.296875 30.078125 
Q 12.109375 30.078125 18.9375 31.25 
Q 25.78125 32.421875 31.046875 34.375 
Q 36.328125 36.328125 41.015625 41.015625 
L 23.828125 41.015625 
Q 19.53125 41.015625 8.59375 40.625 
L 8.59375 47.265625 
Q 19.53125 46.875 23.828125 46.875 
L 42.96875 46.875 
Q 44.140625 50.390625 43.75 55.46875 
Q 48.828125 54.6875 54.296875 53.90625 
Q 51.953125 51.5625 51.5625 46.875 
L 69.140625 46.875 
Q 66.40625 49.609375 63.671875 51.5625 
L 69.140625 55.46875 
Q 72.265625 53.125 75 50 
Q 72.65625 48.828125 70.3125 46.875 
L 76.171875 46.875 
Q 84.765625 46.875 91.796875 47.265625 
L 91.796875 40.625 
Q 85.15625 41.015625 76.171875 41.015625 
L 56.640625 41.015625 
Q 64.0625 34.765625 75.578125 33 
Q 87.109375 31.25 95.3125 32.03125 
Q 92.1875 28.125 91.40625 23.4375 
Q 81.640625 24.21875 74.796875 25.578125 
Q 67.96875 26.953125 62.296875 29.6875 
Q 56.640625 32.421875 49.21875 40.234375 
Q 42.1875 31.25 30.859375 27.53125 
Q 19.53125 23.828125 8.203125 22.265625 
Q 7.03125 26.953125 4.296875 30.078125 
z
M 78.515625 -8.984375 
L 78.515625 -1.5625 
L 59.765625 -1.5625 
L 59.765625 -8.59375 
L 53.125 -8.59375 
Q 53.515625 0 53.515625 7.421875 
Q 53.515625 15.234375 53.125 22.265625 
L 85.546875 22.265625 
Q 85.15625 17.578125 85.15625 6.25 
Q 85.15625 -4.6875 85.546875 -8.984375 
z
M 37.5 -8.59375 
L 37.5 -1.5625 
L 20.703125 -1.5625 
L 20.703125 -8.984375 
L 13.671875 -8.984375 
Q 14.0625 -2.34375 14.0625 7.421875 
Q 14.0625 17.1875 13.671875 22.265625 
L 44.140625 22.265625 
Q 43.75 16.015625 43.75 6.640625 
Q 43.75 -2.34375 44.140625 -8.59375 
z
M 85.546875 78.515625 
Q 85.15625 73.4375 85.15625 67.96875 
Q 85.15625 62.5 85.546875 56.640625 
L 52.734375 56.640625 
Q 53.125 62.5 53.125 67.96875 
Q 53.125 73.828125 52.734375 78.515625 
L 85.546875 78.515625 
z
M 44.140625 78.515625 
Q 43.75 73.4375 43.75 67.578125 
Q 43.75 62.109375 44.140625 56.640625 
L 13.671875 56.640625 
Q 14.0625 62.109375 14.0625 67.578125 
Q 14.0625 73.4375 13.671875 78.515625 
L 44.140625 78.515625 
z
M 78.515625 3.90625 
L 78.515625 16.40625 
L 59.765625 16.40625 
L 59.765625 3.90625 
z
M 37.5 3.90625 
L 37.5 16.40625 
L 20.703125 16.40625 
L 20.703125 3.90625 
z
M 78.515625 62.109375 
L 78.515625 73.046875 
L 59.765625 73.046875 
L 59.765625 62.109375 
z
M 37.5 62.109375 
L 37.5 73.046875 
L 20.703125 73.046875 
L 20.703125 62.109375 
z
" id="SimHei-22120"/>
      <path d="M 32.8125 77.734375 
Q 30.859375 74.21875 27.34375 61.71875 
L 44.921875 61.71875 
Q 44.53125 55.078125 44.53125 44.921875 
L 44.53125 10.546875 
Q 44.53125 4.6875 44.921875 -6.25 
L 37.109375 -6.25 
L 37.109375 1.5625 
L 17.1875 1.5625 
L 17.1875 -7.03125 
L 9.375 -7.03125 
Q 9.765625 5.46875 9.765625 8.59375 
L 9.765625 44.53125 
Q 9.765625 55.078125 9.375 61.71875 
L 20.703125 61.71875 
Q 22.65625 70.703125 23.828125 80.46875 
Q 29.296875 78.515625 32.8125 77.734375 
z
M 91.015625 48.046875 
Q 90.625 24.21875 89.0625 2.734375 
Q 88.28125 -4.296875 81.640625 -6.640625 
Q 75 -8.984375 66.796875 -9.765625 
Q 66.40625 -5.46875 63.28125 -0.78125 
Q 71.09375 -1.171875 75.578125 -0.390625 
Q 80.078125 0.390625 81.25 3.125 
Q 82.421875 5.859375 83 19.140625 
Q 83.59375 32.421875 83.984375 56.25 
L 61.328125 56.25 
Q 58.203125 48.828125 52.34375 38.671875 
Q 49.609375 41.40625 45.703125 42.96875 
Q 49.21875 47.65625 52.34375 54.296875 
Q 55.46875 60.9375 57.8125 68.75 
Q 60.15625 76.5625 60.546875 80.859375 
Q 66.015625 78.515625 69.921875 77.34375 
Q 67.96875 74.21875 66.59375 70.5 
Q 65.234375 66.796875 63.671875 63.28125 
L 91.40625 63.28125 
Q 91.015625 55.078125 91.015625 48.046875 
z
M 37.109375 8.203125 
L 37.109375 28.90625 
L 17.1875 28.90625 
L 17.1875 8.203125 
z
M 37.109375 35.546875 
L 37.109375 55.078125 
L 17.1875 55.078125 
L 17.1875 35.546875 
z
M 67.96875 32.03125 
Q 70.3125 27.34375 73.4375 19.921875 
Q 70.703125 18.75 66.015625 16.015625 
Q 63.28125 23.4375 60.9375 28.703125 
Q 58.59375 33.984375 56.25 37.5 
Q 58.984375 39.0625 63.28125 41.40625 
z
" id="SimHei-30340"/>
      <path d="M 64.453125 80.46875 
Q 69.140625 79.296875 73.4375 79.296875 
Q 72.65625 75.390625 72.453125 70.5 
Q 72.265625 65.625 72.265625 58.59375 
L 94.140625 58.59375 
Q 93.75 53.515625 93.359375 47.265625 
L 91.40625 2.734375 
Q 90.234375 -5.078125 84.953125 -6.828125 
Q 79.6875 -8.59375 73.046875 -9.375 
Q 71.875 -4.6875 69.140625 -0.78125 
Q 77.734375 -1.171875 80.859375 0.1875 
Q 83.984375 1.5625 83.984375 5.46875 
L 86.328125 51.953125 
L 72.265625 51.953125 
Q 71.484375 34.765625 69.71875 25.78125 
Q 67.96875 16.796875 64.25 9.171875 
Q 60.546875 1.5625 49.21875 -10.546875 
Q 45.3125 -6.640625 42.1875 -5.46875 
Q 49.609375 0.390625 54.296875 6.828125 
Q 58.984375 13.28125 60.9375 20.109375 
Q 62.890625 26.953125 63.671875 34.375 
Q 64.453125 41.796875 64.84375 51.953125 
L 58.203125 51.953125 
Q 53.90625 51.953125 48.046875 51.5625 
L 48.046875 58.984375 
Q 53.90625 58.59375 58.984375 58.59375 
L 64.84375 58.59375 
L 64.84375 69.53125 
Q 64.84375 75 64.453125 80.46875 
z
M 4.296875 47.265625 
Q 10.15625 46.875 18.359375 46.875 
L 33.203125 46.875 
Q 40.234375 46.875 49.21875 47.265625 
L 49.21875 40.234375 
Q 40.234375 40.625 33.59375 40.625 
L 29.296875 40.625 
Q 26.953125 34.375 24.015625 27.34375 
Q 21.09375 20.3125 17.1875 13.28125 
Q 32.421875 14.84375 40.234375 16.40625 
Q 38.28125 21.09375 33.984375 28.125 
Q 38.28125 30.46875 40.234375 32.03125 
Q 44.140625 25 46.875 20.109375 
Q 49.609375 15.234375 52.734375 8.203125 
Q 49.609375 6.25 45.703125 4.296875 
Q 44.140625 7.8125 42.96875 10.15625 
Q 30.46875 8.203125 22.84375 7.03125 
Q 15.234375 5.859375 9.765625 3.90625 
Q 8.203125 7.8125 5.859375 11.328125 
Q 10.9375 14.453125 15.03125 23.828125 
Q 19.140625 33.203125 21.09375 40.625 
L 18.359375 40.625 
Q 10.15625 40.625 4.296875 40.234375 
z
M 31.25 69.140625 
Q 37.890625 69.140625 46.09375 69.53125 
L 46.09375 62.109375 
Q 37.890625 62.5 31.25 62.5 
L 21.875 62.5 
Q 15.625 62.5 9.765625 62.109375 
L 9.765625 69.53125 
Q 15.234375 69.140625 21.484375 69.140625 
z
" id="SimHei-21160"/>
      <path d="M 40.234375 67.578125 
Q 42.1875 75 42.578125 82.03125 
Q 48.046875 80.078125 52.34375 79.6875 
Q 50.390625 76.171875 48.4375 67.578125 
L 78.515625 67.578125 
Q 83.984375 67.578125 91.015625 68.359375 
L 91.015625 60.15625 
Q 83.59375 60.546875 78.125 60.546875 
L 62.109375 60.546875 
Q 66.015625 51.5625 71.484375 46.671875 
Q 76.953125 41.796875 82.03125 39.453125 
Q 87.109375 37.109375 95.3125 35.546875 
Q 90.625 32.421875 88.671875 27.734375 
Q 76.5625 32.8125 70.703125 37.6875 
Q 64.84375 42.578125 60.9375 48.046875 
Q 57.03125 53.515625 54.6875 60.546875 
L 46.484375 60.546875 
Q 41.796875 50 34.171875 41.984375 
Q 26.5625 33.984375 11.328125 25.390625 
Q 10.15625 28.90625 4.6875 32.421875 
Q 14.0625 35.546875 23.625 42.96875 
Q 33.203125 50.390625 37.890625 60.546875 
L 20.3125 60.546875 
Q 14.0625 60.546875 7.03125 60.15625 
L 7.03125 68.359375 
Q 13.671875 67.578125 20.3125 67.578125 
z
M 39.453125 21.09375 
Q 39.0625 13.671875 39.0625 8.984375 
Q 39.0625 4.6875 39.25 2.34375 
Q 39.453125 0 43.75 0 
L 59.765625 0 
Q 62.890625 -0.390625 65.234375 0.96875 
Q 67.578125 2.34375 68.75 9.765625 
Q 72.65625 7.03125 77.734375 5.859375 
Q 74.609375 -2.34375 72.265625 -4.875 
Q 69.921875 -7.421875 62.5 -7.03125 
L 39.0625 -7.03125 
Q 32.03125 -6.25 31.4375 -2.53125 
Q 30.859375 1.171875 30.859375 6.640625 
Q 30.859375 12.5 30.46875 21.09375 
L 39.453125 21.09375 
z
M 22.265625 18.359375 
Q 18.359375 7.03125 12.890625 -5.078125 
Q 9.765625 -2.734375 5.078125 -1.953125 
Q 12.109375 9.765625 13.671875 21.484375 
Q 18.359375 19.53125 22.265625 18.359375 
z
M 80.859375 23.828125 
Q 87.5 14.84375 94.53125 5.46875 
Q 90.625 2.734375 87.5 0 
Q 81.640625 10.9375 74.21875 19.53125 
Q 78.125 21.09375 80.859375 23.828125 
z
M 42.1875 47.65625 
Q 49.609375 41.796875 54.6875 36.328125 
Q 51.171875 33.984375 48.4375 30.859375 
Q 44.140625 36.71875 36.71875 42.1875 
L 42.1875 47.65625 
z
M 52.734375 27.34375 
Q 56.640625 21.09375 59.765625 14.453125 
Q 56.640625 12.5 52.734375 10.546875 
Q 50 18.359375 46.09375 23.828125 
Q 49.609375 25 52.734375 27.34375 
z
" id="SimHei-24577"/>
      <path d="M 81.25 30.859375 
Q 77.34375 25 70.890625 17.765625 
Q 64.453125 10.546875 57.421875 5.859375 
Q 61.328125 3.515625 71.875 1.359375 
Q 82.421875 -0.78125 93.75 -1.171875 
Q 89.0625 -6.25 88.28125 -9.765625 
Q 75.78125 -8.203125 65.8125 -4.875 
Q 55.859375 -1.5625 50.390625 1.953125 
Q 43.75 -1.953125 33.59375 -5.078125 
Q 23.4375 -8.203125 10.9375 -10.546875 
Q 9.375 -6.640625 6.25 -2.734375 
Q 14.84375 -2.34375 26.359375 0.1875 
Q 37.890625 2.734375 44.140625 5.859375 
Q 35.546875 12.109375 26.171875 24.609375 
Q 21.09375 24.609375 15.625 24.21875 
L 15.625 31.25 
Q 22.65625 30.859375 32.421875 30.859375 
z
M 50.390625 82.421875 
Q 53.125 76.5625 55.46875 69.921875 
L 73.046875 69.921875 
Q 84.375 69.921875 93.359375 70.3125 
L 93.359375 62.890625 
Q 83.984375 63.28125 73.828125 63.28125 
L 64.453125 63.28125 
L 64.453125 46.09375 
Q 64.453125 39.84375 64.84375 33.59375 
L 56.25 33.59375 
Q 56.640625 39.84375 56.640625 46.09375 
L 56.640625 63.28125 
L 42.96875 63.28125 
L 42.96875 46.09375 
Q 42.96875 41.796875 43.359375 33.59375 
L 34.765625 33.59375 
Q 35.15625 41.796875 35.15625 46.09375 
L 35.15625 63.28125 
L 26.5625 63.28125 
Q 15.234375 63.28125 6.640625 62.890625 
L 6.640625 70.3125 
Q 14.84375 69.921875 26.5625 69.921875 
L 46.484375 69.921875 
Q 45.703125 73.046875 42.1875 80.078125 
Q 46.09375 80.46875 50.390625 82.421875 
z
M 34.375 24.609375 
Q 41.40625 15.234375 50.78125 9.375 
Q 60.15625 15.625 66.796875 24.609375 
L 34.375 24.609375 
z
M 75.78125 58.59375 
Q 83.984375 51.171875 92.96875 41.796875 
Q 89.84375 39.453125 85.9375 35.9375 
Q 79.296875 43.75 69.53125 53.125 
Q 73.046875 55.859375 75.78125 58.59375 
z
M 28.515625 54.6875 
Q 26.5625 52.734375 22.265625 47.265625 
Q 17.96875 41.796875 12.890625 35.9375 
Q 8.984375 38.671875 5.859375 40.625 
Q 15.234375 49.21875 20.3125 59.765625 
Q 23.828125 57.03125 28.515625 54.6875 
z
" id="SimHei-21464"/>
      <path d="M 61.328125 78.515625 
Q 60.9375 76.5625 60.9375 68.75 
L 60.9375 41.015625 
Q 68.359375 47.265625 74.609375 53.90625 
Q 80.859375 60.546875 84.375 67.1875 
Q 87.5 64.0625 92.1875 61.328125 
Q 89.0625 57.8125 81.640625 50.1875 
Q 74.21875 42.578125 70.109375 39.25 
Q 66.015625 35.9375 60.9375 31.640625 
L 60.9375 7.03125 
Q 60.9375 0.78125 66.015625 0.78125 
L 81.25 0.78125 
Q 84.375 1.171875 85.34375 4.09375 
Q 86.328125 7.03125 87.109375 13.28125 
Q 90.625 10.15625 96.09375 9.375 
Q 93.75 -1.5625 91.015625 -3.90625 
Q 88.28125 -6.25 83.59375 -6.25 
L 61.71875 -6.25 
Q 53.515625 -6.25 53.125 3.125 
L 53.125 26.171875 
Q 50.390625 23.828125 46.28125 21.09375 
Q 42.1875 18.359375 37.109375 15.234375 
Q 34.765625 19.140625 31.640625 21.875 
Q 36.71875 24.21875 42.765625 27.921875 
Q 48.828125 31.640625 53.125 35.15625 
L 53.125 70.3125 
Q 53.125 75 52.734375 78.515625 
L 61.328125 78.515625 
z
M 37.5 75.78125 
Q 33.984375 71.09375 32.421875 67.765625 
Q 30.859375 64.453125 28.515625 58.984375 
L 28.515625 10.546875 
Q 28.515625 -1.171875 28.90625 -8.59375 
L 20.703125 -8.59375 
Q 21.09375 -1.953125 21.09375 10.15625 
L 21.09375 47.65625 
Q 17.578125 42.578125 15.03125 39.453125 
Q 12.5 36.328125 10.546875 33.984375 
Q 7.8125 37.109375 4.296875 39.453125 
Q 9.765625 44.53125 13.671875 50.1875 
Q 17.578125 55.859375 20.5 61.125 
Q 23.4375 66.40625 25.390625 71.484375 
Q 27.34375 76.5625 28.515625 79.6875 
Q 30.859375 77.734375 37.5 75.78125 
z
" id="SimHei-21270"/>
      <path d="M 91.015625 7.8125 
Q 91.015625 -3.125 91.40625 -8.59375 
L 82.421875 -8.59375 
L 82.421875 -0.78125 
L 17.96875 -0.78125 
L 17.96875 -8.59375 
L 8.984375 -8.59375 
Q 9.375 1.953125 9.375 8.59375 
L 9.375 43.359375 
Q 9.375 53.515625 8.984375 60.9375 
L 33.59375 60.9375 
L 33.59375 69.53125 
Q 33.203125 75.78125 33.203125 80.46875 
L 42.1875 80.46875 
Q 41.40625 75.390625 41.40625 69.921875 
L 41.40625 60.9375 
L 57.8125 60.9375 
L 57.8125 70.703125 
Q 57.8125 75.78125 57.421875 80.859375 
L 66.40625 80.859375 
Q 66.015625 76.171875 66.015625 71.09375 
L 66.015625 60.9375 
L 91.40625 60.9375 
Q 91.015625 55.078125 91.015625 42.96875 
z
M 57.8125 5.078125 
L 57.8125 29.296875 
L 41.40625 29.296875 
L 41.40625 5.078125 
z
M 82.421875 5.078125 
L 82.421875 29.296875 
L 66.015625 29.296875 
L 66.015625 5.078125 
z
M 33.59375 5.078125 
L 33.59375 29.296875 
L 17.96875 29.296875 
L 17.96875 5.078125 
z
M 57.8125 35.15625 
L 57.8125 55.078125 
L 41.40625 55.078125 
L 41.40625 35.15625 
z
M 82.421875 35.15625 
L 82.421875 55.078125 
L 66.015625 55.078125 
L 66.015625 35.15625 
z
M 33.59375 35.15625 
L 33.59375 55.078125 
L 17.96875 55.078125 
L 17.96875 35.15625 
z
" id="SimHei-26354"/>
      <path d="M 53.90625 67.1875 
Q 53.90625 73.046875 52.734375 80.078125 
Q 57.8125 79.6875 63.28125 78.90625 
Q 62.109375 76.5625 61.71875 71.28125 
Q 61.328125 66.015625 61.71875 56.25 
L 75 58.59375 
Q 81.640625 60.15625 88.28125 62.109375 
L 89.84375 54.6875 
Q 83.203125 53.90625 76.171875 52.734375 
L 62.109375 50 
Q 62.109375 43.75 62.890625 39.0625 
L 78.125 41.796875 
Q 85.9375 43.359375 92.96875 45.703125 
L 94.140625 38.28125 
Q 87.109375 37.109375 79.296875 35.546875 
L 64.0625 32.8125 
Q 64.84375 25 67.96875 18.359375 
Q 71.484375 21.09375 74.796875 24.609375 
Q 78.125 28.125 80.859375 32.421875 
Q 86.71875 27.734375 89.84375 26.171875 
Q 84.765625 23.828125 81.828125 20.890625 
Q 78.90625 17.96875 72.265625 11.71875 
Q 76.953125 3.90625 80.65625 1.75 
Q 84.375 -0.390625 85.9375 1.5625 
Q 87.5 3.515625 88.671875 9.765625 
Q 92.1875 7.03125 96.875 5.46875 
Q 90.234375 -11.71875 82.421875 -8.390625 
Q 74.609375 -5.078125 66.015625 7.03125 
Q 60.546875 2.734375 55.265625 -0.96875 
Q 50 -4.6875 42.1875 -8.59375 
Q 40.234375 -4.6875 36.328125 -1.5625 
Q 44.140625 1.171875 49.609375 4.296875 
Q 55.078125 7.421875 62.109375 13.28125 
Q 58.59375 21.09375 57.03125 31.640625 
Q 45.3125 29.6875 40.625 28.125 
L 39.453125 35.546875 
Q 44.140625 35.546875 55.46875 37.890625 
Q 54.6875 44.140625 54.6875 48.4375 
Q 44.140625 46.09375 40.234375 44.921875 
L 38.671875 52.34375 
Q 42.578125 52.34375 53.90625 54.6875 
z
M 30.46875 76.171875 
Q 26.5625 72.65625 22.84375 66.203125 
Q 19.140625 59.765625 12.890625 50.390625 
Q 22.265625 50.78125 25.78125 50.78125 
Q 29.296875 56.640625 32.03125 63.671875 
Q 35.9375 60.9375 40.625 59.375 
Q 36.71875 55.46875 32.609375 48.828125 
Q 28.515625 42.1875 18.359375 26.171875 
Q 28.90625 26.953125 37.109375 27.734375 
Q 35.9375 23.828125 35.9375 21.09375 
Q 33.203125 21.09375 23.828125 20.109375 
Q 14.453125 19.140625 8.59375 17.578125 
Q 8.203125 21.484375 6.25 25.78125 
Q 10.9375 26.953125 14.84375 32.03125 
Q 18.75 37.109375 23.046875 44.921875 
Q 10.15625 44.140625 6.640625 41.796875 
Q 5.46875 46.09375 3.125 50.390625 
Q 8.203125 53.90625 12.890625 61.90625 
Q 17.578125 69.921875 21.484375 80.46875 
Q 25.390625 77.734375 30.46875 76.171875 
z
M 40.234375 13.671875 
Q 39.84375 9.375 40.234375 7.03125 
Q 30.46875 5.078125 22.65625 3.125 
Q 14.84375 1.171875 8.203125 -1.171875 
Q 7.03125 3.125 3.90625 7.421875 
Q 14.84375 8.59375 20.703125 9.5625 
Q 26.5625 10.546875 40.234375 13.671875 
z
M 75.78125 62.890625 
Q 73.046875 67.1875 68.359375 73.046875 
L 74.609375 76.171875 
Q 76.171875 74.21875 82.421875 66.796875 
Q 78.515625 65.234375 75.78125 62.890625 
z
" id="SimHei-32447"/>
     </defs>
     <use xlink:href="#SimHei-24773"/>
     <use x="100" xlink:href="#SimHei-24418"/>
     <use x="200" xlink:href="#SimHei-50"/>
     <use x="250" xlink:href="#SimHei-65306"/>
     <use x="350" xlink:href="#SimHei-20498"/>
     <use x="450" xlink:href="#SimHei-33899"/>
     <use x="550" xlink:href="#SimHei-33446"/>
     <use x="650" xlink:href="#SimHei-24418"/>
     <use x="750" xlink:href="#SimHei-29366"/>
     <use x="850" xlink:href="#SimHei-23481"/>
     <use x="950" xlink:href="#SimHei-22120"/>
     <use x="1050" xlink:href="#SimHei-27700"/>
     <use x="1150" xlink:href="#SimHei-20301"/>
     <use x="1250" xlink:href="#SimHei-39640"/>
     <use x="1350" xlink:href="#SimHei-24230"/>
     <use x="1450" xlink:href="#SimHei-30340"/>
     <use x="1550" xlink:href="#SimHei-21160"/>
     <use x="1650" xlink:href="#SimHei-24577"/>
     <use x="1750" xlink:href="#SimHei-21464"/>
     <use x="1850" xlink:href="#SimHei-21270"/>
     <use x="1950" xlink:href="#SimHei-26354"/>
     <use x="2050" xlink:href="#SimHei-32447"/>
    </g>
   </g>
  </g>
 </g>
 <defs>
  <clipPath id="pf1c24983d3">
   <rect height="266.112" width="357.12" x="57.6" y="41.472"/>
  </clipPath>
 </defs>
</svg>
