<?xml version="1.0" encoding="utf-8" standalone="no"?>
<!DOCTYPE svg PUBLIC "-//W3C//DTD SVG 1.1//EN"
  "http://www.w3.org/Graphics/SVG/1.1/DTD/svg11.dtd">
<!-- Created with matplotlib (https://matplotlib.org/) -->
<svg height="345.6pt" version="1.1" viewBox="0 0 460.8 345.6" width="460.8pt" xmlns="http://www.w3.org/2000/svg" xmlns:xlink="http://www.w3.org/1999/xlink">
 <metadata>
  <rdf:RDF xmlns:cc="http://creativecommons.org/ns#" xmlns:dc="http://purl.org/dc/elements/1.1/" xmlns:rdf="http://www.w3.org/1999/02/22-rdf-syntax-ns#">
   <cc:Work>
    <dc:type rdf:resource="http://purl.org/dc/dcmitype/StillImage"/>
    <dc:date>2023-01-15T11:57:52.048850</dc:date>
    <dc:format>image/svg+xml</dc:format>
    <dc:creator>
     <cc:Agent>
      <dc:title>Matplotlib v3.3.3, https://matplotlib.org/</dc:title>
     </cc:Agent>
    </dc:creator>
   </cc:Work>
  </rdf:RDF>
 </metadata>
 <defs>
  <style type="text/css">*{stroke-linecap:butt;stroke-linejoin:round;}</style>
 </defs>
 <g id="figure_1">
  <g id="patch_1">
   <path d="M 0 345.6 
L 460.8 345.6 
L 460.8 0 
L 0 0 
z
" style="fill:#ffffff;"/>
  </g>
  <g id="axes_1">
   <g id="patch_2">
    <path d="M 57.6 307.584 
L 219.927273 307.584 
L 219.927273 41.472 
L 57.6 41.472 
z
" style="fill:#ffffff;"/>
   </g>
   <g id="matplotlib.axis_1">
    <g id="xtick_1">
     <g id="line2d_1">
      <defs>
       <path d="M 0 0 
L 0 3.5 
" id="m5d708b7525" style="stroke:#000000;stroke-width:0.8;"/>
      </defs>
      <g>
       <use style="stroke:#000000;stroke-width:0.8;" x="64.978512" xlink:href="#m5d708b7525" y="307.584"/>
      </g>
     </g>
     <g id="text_1">
      <!-- 0 -->
      <g transform="translate(62.478512 321.459)scale(0.1 -0.1)">
       <defs>
        <path d="M 3.125 29.296875 
Q 3.90625 50 6.4375 56.046875 
Q 8.984375 62.109375 13.671875 66.015625 
Q 18.359375 69.921875 25.1875 69.921875 
Q 32.03125 69.921875 37.109375 64.25 
Q 42.1875 58.59375 43.75 50 
Q 45.3125 41.40625 44.71875 30.265625 
Q 44.140625 19.140625 40.8125 12.109375 
Q 37.5 5.078125 30.859375 2.34375 
Q 24.21875 -0.390625 17.578125 2.921875 
Q 10.9375 6.25 8.203125 11.71875 
Q 5.46875 17.1875 4.296875 23.234375 
Q 3.125 29.296875 3.90625 50 
z
M 12.890625 52.734375 
Q 10.546875 31.25 12.5 22.84375 
Q 14.453125 14.453125 18.9375 10.9375 
Q 23.4375 7.421875 28.125 9.5625 
Q 32.8125 11.71875 34.953125 18.15625 
Q 37.109375 24.609375 37.109375 32.21875 
Q 37.109375 39.84375 36.515625 46.09375 
Q 35.9375 52.34375 33 57.421875 
Q 30.078125 62.5 25.1875 62.6875 
Q 20.3125 62.890625 16.59375 57.8125 
Q 12.890625 52.734375 10.546875 31.25 
z
" id="SimHei-48"/>
       </defs>
       <use xlink:href="#SimHei-48"/>
      </g>
     </g>
    </g>
    <g id="xtick_2">
     <g id="line2d_2">
      <g>
       <use style="stroke:#000000;stroke-width:0.8;" x="109.427382" xlink:href="#m5d708b7525" y="307.584"/>
      </g>
     </g>
     <g id="text_2">
      <!-- 2 -->
      <g transform="translate(106.927382 321.459)scale(0.1 -0.1)">
       <defs>
        <path d="M 4.6875 3.90625 
Q 5.078125 9.765625 10.15625 14.453125 
Q 15.234375 19.140625 23.046875 29.09375 
Q 30.859375 39.0625 33.203125 44.53125 
Q 35.546875 50 34.953125 53.90625 
Q 34.375 57.8125 31.25 60.34375 
Q 28.125 62.890625 24.015625 62.5 
Q 19.921875 62.109375 16.203125 59.375 
Q 12.5 56.640625 10.546875 51.171875 
L 3.125 52.34375 
Q 6.25 61.328125 11.125 65.421875 
Q 16.015625 69.53125 22.65625 69.921875 
Q 26.5625 70.3125 29.6875 69.71875 
Q 32.8125 69.140625 36.125 66.984375 
Q 39.453125 64.84375 41.59375 60.546875 
Q 43.75 56.25 43.15625 50.1875 
Q 42.578125 44.140625 37.109375 35.734375 
Q 31.640625 27.34375 16.015625 9.375 
L 44.140625 9.375 
L 44.140625 2.34375 
L 4.6875 2.34375 
z
" id="SimHei-50"/>
       </defs>
       <use xlink:href="#SimHei-50"/>
      </g>
     </g>
    </g>
    <g id="xtick_3">
     <g id="line2d_3">
      <g>
       <use style="stroke:#000000;stroke-width:0.8;" x="153.876252" xlink:href="#m5d708b7525" y="307.584"/>
      </g>
     </g>
     <g id="text_3">
      <!-- 4 -->
      <g transform="translate(151.376252 321.459)scale(0.1 -0.1)">
       <defs>
        <path d="M 31.25 17.1875 
L 1.171875 17.1875 
L 1.171875 23.828125 
L 32.8125 69.53125 
L 38.671875 69.53125 
L 38.671875 23.828125 
L 48.046875 23.828125 
L 48.046875 17.1875 
L 38.671875 17.1875 
L 38.671875 2.34375 
L 31.25 2.34375 
z
M 31.25 23.828125 
L 31.25 54.6875 
L 9.375 23.828125 
z
" id="SimHei-52"/>
       </defs>
       <use xlink:href="#SimHei-52"/>
      </g>
     </g>
    </g>
    <g id="xtick_4">
     <g id="line2d_4">
      <g>
       <use style="stroke:#000000;stroke-width:0.8;" x="198.325122" xlink:href="#m5d708b7525" y="307.584"/>
      </g>
     </g>
     <g id="text_4">
      <!-- 6 -->
      <g transform="translate(195.825122 321.459)scale(0.1 -0.1)">
       <defs>
        <path d="M 3.515625 19.53125 
Q 4.296875 30.859375 6.046875 34.765625 
Q 7.8125 38.671875 11.328125 44.53125 
L 27.34375 69.53125 
L 36.328125 69.53125 
L 19.921875 43.75 
Q 30.46875 46.484375 36.71875 42.96875 
Q 42.96875 39.453125 45.109375 34.953125 
Q 47.265625 30.46875 47.453125 25.1875 
Q 47.65625 19.921875 45.890625 14.84375 
Q 44.140625 9.765625 39.640625 5.65625 
Q 35.15625 1.5625 27.140625 1.171875 
Q 19.140625 0.78125 13.46875 4.09375 
Q 7.8125 7.421875 5.65625 13.46875 
Q 3.515625 19.53125 4.296875 30.859375 
z
M 12.5 16.015625 
Q 19.53125 8.59375 25.390625 8.203125 
Q 31.25 7.8125 35.15625 12.109375 
Q 39.0625 16.40625 39.0625 24.609375 
Q 39.0625 32.8125 34.171875 35.9375 
Q 29.296875 39.0625 23.234375 38.28125 
Q 17.1875 37.5 14.453125 32.421875 
Q 11.71875 27.34375 12.109375 21.671875 
Q 12.5 16.015625 19.53125 8.59375 
z
" id="SimHei-54"/>
       </defs>
       <use xlink:href="#SimHei-54"/>
      </g>
     </g>
    </g>
    <g id="text_5">
     <!-- $t$ -->
     <g transform="translate(136.763636 333.584)scale(0.1 -0.1)">
      <defs>
       <path d="M 42.28125 54.6875 
L 40.921875 47.703125 
L 23 47.703125 
L 17.1875 18.015625 
Q 16.890625 16.359375 16.75 15.234375 
Q 16.609375 14.109375 16.609375 13.484375 
Q 16.609375 10.359375 18.484375 8.9375 
Q 20.359375 7.515625 24.515625 7.515625 
L 33.59375 7.515625 
L 32.078125 0 
L 23.484375 0 
Q 15.484375 0 11.546875 3.125 
Q 7.625 6.25 7.625 12.59375 
Q 7.625 13.71875 7.765625 15.0625 
Q 7.90625 16.40625 8.203125 18.015625 
L 14.015625 47.703125 
L 6.390625 47.703125 
L 7.8125 54.6875 
L 15.28125 54.6875 
L 18.3125 70.21875 
L 27.296875 70.21875 
L 24.3125 54.6875 
z
" id="DejaVuSans-Oblique-116"/>
      </defs>
      <use transform="translate(0 0.78125)" xlink:href="#DejaVuSans-Oblique-116"/>
     </g>
    </g>
   </g>
   <g id="matplotlib.axis_2">
    <g id="ytick_1">
     <g id="line2d_5">
      <defs>
       <path d="M 0 0 
L -3.5 0 
" id="m7e8aadbbda" style="stroke:#000000;stroke-width:0.8;"/>
      </defs>
      <g>
       <use style="stroke:#000000;stroke-width:0.8;" x="57.6" xlink:href="#m7e8aadbbda" y="295.488"/>
      </g>
     </g>
     <g id="text_6">
      <!-- 0 -->
      <g transform="translate(45.6 298.9255)scale(0.1 -0.1)">
       <use xlink:href="#SimHei-48"/>
      </g>
     </g>
    </g>
    <g id="ytick_2">
     <g id="line2d_6">
      <g>
       <use style="stroke:#000000;stroke-width:0.8;" x="57.6" xlink:href="#m7e8aadbbda" y="247.104"/>
      </g>
     </g>
     <g id="text_7">
      <!-- 2 -->
      <g transform="translate(45.6 250.5415)scale(0.1 -0.1)">
       <use xlink:href="#SimHei-50"/>
      </g>
     </g>
    </g>
    <g id="ytick_3">
     <g id="line2d_7">
      <g>
       <use style="stroke:#000000;stroke-width:0.8;" x="57.6" xlink:href="#m7e8aadbbda" y="198.72"/>
      </g>
     </g>
     <g id="text_8">
      <!-- 4 -->
      <g transform="translate(45.6 202.1575)scale(0.1 -0.1)">
       <use xlink:href="#SimHei-52"/>
      </g>
     </g>
    </g>
    <g id="ytick_4">
     <g id="line2d_8">
      <g>
       <use style="stroke:#000000;stroke-width:0.8;" x="57.6" xlink:href="#m7e8aadbbda" y="150.336"/>
      </g>
     </g>
     <g id="text_9">
      <!-- 6 -->
      <g transform="translate(45.6 153.7735)scale(0.1 -0.1)">
       <use xlink:href="#SimHei-54"/>
      </g>
     </g>
    </g>
    <g id="ytick_5">
     <g id="line2d_9">
      <g>
       <use style="stroke:#000000;stroke-width:0.8;" x="57.6" xlink:href="#m7e8aadbbda" y="101.952"/>
      </g>
     </g>
     <g id="text_10">
      <!-- 8 -->
      <g transform="translate(45.6 105.3895)scale(0.1 -0.1)">
       <defs>
        <path d="M 2.734375 16.796875 
Q 2.734375 26.171875 5.078125 30.65625 
Q 7.421875 35.15625 12.890625 37.890625 
Q 8.203125 40.625 6.640625 43.9375 
Q 5.078125 47.265625 4.875 51.5625 
Q 4.6875 55.859375 6.046875 58.984375 
Q 7.421875 62.109375 10.15625 64.84375 
Q 12.890625 67.578125 16.203125 68.546875 
Q 19.53125 69.53125 23.4375 69.53125 
Q 27.34375 69.53125 30.46875 68.75 
Q 33.59375 67.96875 37.109375 65.421875 
Q 40.625 62.890625 42.1875 58.203125 
Q 43.75 53.515625 41.984375 47.265625 
Q 40.234375 41.015625 32.8125 37.5 
Q 39.453125 35.546875 42.1875 31.4375 
Q 44.921875 27.34375 44.921875 21.484375 
Q 44.921875 15.625 43.15625 12.109375 
Q 41.40625 8.59375 39.25 6.25 
Q 37.109375 3.90625 33.390625 2.53125 
Q 29.6875 1.171875 24.015625 1.171875 
Q 18.359375 1.171875 14.25 2.53125 
Q 10.15625 3.90625 7.421875 6.640625 
Q 4.6875 9.375 3.703125 13.078125 
Q 2.734375 16.796875 2.734375 26.171875 
z
M 10.9375 26.5625 
Q 10.546875 17.1875 12.296875 13.671875 
Q 14.0625 10.15625 18.75 9.171875 
Q 23.4375 8.203125 28.515625 9.375 
Q 33.59375 10.546875 35.546875 14.84375 
Q 37.5 19.140625 36.90625 23.4375 
Q 36.328125 27.734375 32.03125 30.65625 
Q 27.734375 33.59375 22.65625 33.203125 
Q 17.578125 32.8125 14.25 29.6875 
Q 10.9375 26.5625 10.546875 17.1875 
z
M 12.109375 56.25 
Q 12.109375 48.4375 14.84375 44.921875 
Q 17.578125 41.40625 23.4375 41.40625 
Q 29.296875 41.40625 32.21875 44.921875 
Q 35.15625 48.4375 34.953125 53.3125 
Q 34.765625 58.203125 31.4375 60.546875 
Q 28.125 62.890625 22.453125 62.5 
Q 16.796875 62.109375 14.453125 59.171875 
Q 12.109375 56.25 12.109375 48.4375 
z
" id="SimHei-56"/>
       </defs>
       <use xlink:href="#SimHei-56"/>
      </g>
     </g>
    </g>
    <g id="ytick_6">
     <g id="line2d_10">
      <g>
       <use style="stroke:#000000;stroke-width:0.8;" x="57.6" xlink:href="#m7e8aadbbda" y="53.568"/>
      </g>
     </g>
     <g id="text_11">
      <!-- 10 -->
      <g transform="translate(40.6 57.0055)scale(0.1 -0.1)">
       <defs>
        <path d="M 21.875 56.25 
Q 16.796875 51.171875 8.984375 46.484375 
L 8.984375 53.90625 
Q 18.75 60.546875 25 69.53125 
L 29.6875 69.53125 
L 29.6875 2.34375 
L 21.875 2.34375 
z
" id="SimHei-49"/>
       </defs>
       <use xlink:href="#SimHei-49"/>
       <use x="50" xlink:href="#SimHei-48"/>
      </g>
     </g>
    </g>
    <g id="text_12">
     <!-- $y$ -->
     <g transform="translate(34.5 177.528)rotate(-90)scale(0.1 -0.1)">
      <defs>
       <path d="M 24.8125 -5.078125 
Q 18.5625 -15.578125 14.625 -18.1875 
Q 10.6875 -20.796875 4.59375 -20.796875 
L -2.484375 -20.796875 
L -0.984375 -13.28125 
L 4.203125 -13.28125 
Q 7.953125 -13.28125 10.59375 -11.234375 
Q 13.234375 -9.1875 16.5 -3.21875 
L 19.28125 2 
L 7.171875 54.6875 
L 16.703125 54.6875 
L 25.78125 12.796875 
L 50.875 54.6875 
L 60.296875 54.6875 
z
" id="DejaVuSans-Oblique-121"/>
      </defs>
      <use transform="translate(0 0.3125)" xlink:href="#DejaVuSans-Oblique-121"/>
     </g>
    </g>
   </g>
   <g id="line2d_11">
    <path clip-path="url(#p2089507216)" d="M 64.978512 295.488 
L 70.756865 289.364508 
L 76.312974 283.80142 
L 81.646839 278.776145 
L 86.758459 274.264702 
L 91.647834 270.241779 
L 96.314966 266.680827 
L 100.759853 263.554169 
L 105.20474 260.696865 
L 109.427382 258.242196 
L 113.650025 256.05078 
L 117.650423 254.226787 
L 121.428577 252.737436 
L 125.206731 251.482372 
L 128.984885 250.46909 
L 132.540795 249.742922 
L 136.096704 249.243542 
L 139.652614 248.976775 
L 142.986279 248.942838 
L 146.319944 249.12237 
L 149.653609 249.519113 
L 152.987275 250.136259 
L 156.32094 250.976313 
L 159.654605 252.040956 
L 162.98827 253.330887 
L 166.54418 254.954597 
L 170.10009 256.831882 
L 173.655999 258.958553 
L 177.434153 261.484189 
L 181.212307 264.273383 
L 185.212705 267.498189 
L 189.435348 271.182103 
L 194.102479 275.55201 
L 199.436344 280.867904 
L 205.88143 287.630305 
L 212.54876 294.843128 
L 212.54876 294.843128 
" style="fill:none;stroke:#1f77b4;stroke-linecap:square;stroke-width:2;"/>
   </g>
   <g id="line2d_12">
    <path clip-path="url(#p2089507216)" d="M 64.978512 53.568 
L 95.648233 120.073953 
L 109.871871 150.378764 
L 120.761844 173.072385 
L 129.651618 191.107341 
L 137.43017 206.399145 
L 144.319745 219.457847 
L 150.320343 230.376726 
L 155.876451 240.038198 
L 160.988071 248.484628 
L 165.655203 255.774929 
L 169.877845 261.982491 
L 173.878244 267.487627 
L 177.656397 272.320898 
L 181.212307 276.519215 
L 184.545972 280.124959 
L 187.657393 283.184866 
L 190.768814 285.934581 
L 193.657991 288.197795 
L 196.547167 290.170902 
L 199.214099 291.726516 
L 201.881032 293.02026 
L 204.325719 293.971326 
L 206.770407 294.694068 
L 209.215095 295.185747 
L 211.659783 295.444444 
L 212.54876 295.480401 
L 212.54876 295.480401 
" style="fill:none;stroke:#ff7f0e;stroke-linecap:square;stroke-width:2;"/>
   </g>
   <g id="patch_3">
    <path d="M 57.6 307.584 
L 57.6 41.472 
" style="fill:none;stroke:#000000;stroke-linecap:square;stroke-linejoin:miter;stroke-width:0.8;"/>
   </g>
   <g id="patch_4">
    <path d="M 219.927273 307.584 
L 219.927273 41.472 
" style="fill:none;stroke:#000000;stroke-linecap:square;stroke-linejoin:miter;stroke-width:0.8;"/>
   </g>
   <g id="patch_5">
    <path d="M 57.6 307.584 
L 219.927273 307.584 
" style="fill:none;stroke:#000000;stroke-linecap:square;stroke-linejoin:miter;stroke-width:0.8;"/>
   </g>
   <g id="patch_6">
    <path d="M 57.6 41.472 
L 219.927273 41.472 
" style="fill:none;stroke:#000000;stroke-linecap:square;stroke-linejoin:miter;stroke-width:0.8;"/>
   </g>
   <g id="text_13">
    <!-- 改进Euler方法数值解结果 -->
    <g transform="translate(69.763636 35.472)scale(0.12 -0.12)">
     <defs>
      <path d="M 71.875 14.0625 
Q 75.78125 8.984375 83.390625 3.90625 
Q 91.015625 -1.171875 96.484375 -3.125 
Q 93.75 -5.078125 90.234375 -10.546875 
Q 85.15625 -7.421875 79.484375 -3.125 
Q 73.828125 1.171875 66.796875 8.203125 
Q 60.15625 1.953125 52.921875 -2.34375 
Q 45.703125 -6.640625 36.71875 -10.546875 
Q 35.15625 -7.03125 31.25 -3.515625 
Q 39.453125 -1.171875 48.234375 3.515625 
Q 57.03125 8.203125 62.890625 14.84375 
Q 59.765625 19.53125 56.25 26.171875 
Q 52.734375 32.8125 49.609375 39.0625 
L 47.65625 36.328125 
Q 43.75 39.0625 41.40625 40.625 
Q 45.3125 45.3125 50.578125 55.65625 
Q 55.859375 66.015625 59.375 80.078125 
Q 64.0625 77.734375 67.96875 77.34375 
Q 65.625 73.4375 63.671875 68.546875 
Q 61.71875 63.671875 59.765625 58.984375 
L 79.296875 58.984375 
Q 87.5 58.984375 92.96875 59.375 
L 92.96875 52.34375 
Q 89.0625 52.734375 82.8125 52.734375 
Q 80.46875 28.90625 71.875 14.0625 
z
M 40.625 70.3125 
Q 40.234375 61.328125 40.234375 52.34375 
Q 40.234375 43.359375 40.625 35.546875 
L 17.578125 35.546875 
L 17.578125 5.078125 
Q 32.03125 12.890625 39.0625 18.359375 
Q 39.84375 13.671875 41.40625 10.9375 
Q 33.984375 6.640625 26.953125 2.34375 
Q 19.921875 -1.953125 12.5 -7.03125 
Q 10.15625 -3.515625 7.03125 -0.390625 
Q 10.546875 2.734375 10.15625 7.8125 
L 10.15625 29.296875 
Q 10.15625 34.765625 9.765625 41.796875 
L 33.203125 41.796875 
L 33.203125 64.0625 
L 20.3125 64.0625 
Q 13.671875 64.0625 6.640625 63.671875 
L 6.640625 70.703125 
Q 13.671875 70.3125 20.3125 70.3125 
z
M 50 40.234375 
Q 53.515625 41.40625 55.859375 42.96875 
Q 58.59375 36.328125 61.71875 30.265625 
Q 64.84375 24.21875 67.578125 20.3125 
Q 73.828125 32.03125 75.390625 52.734375 
L 57.421875 52.734375 
Q 53.90625 46.484375 50 40.234375 
z
" id="SimHei-25913"/>
      <path d="M 68.75 64.0625 
Q 68.75 71.875 68.359375 81.25 
L 76.5625 81.25 
Q 76.171875 76.5625 76.171875 64.0625 
Q 84.375 64.0625 92.1875 64.453125 
L 92.1875 57.03125 
Q 84.375 57.421875 76.171875 57.421875 
L 76.171875 40.234375 
Q 85.546875 40.234375 94.140625 40.625 
L 94.140625 33.203125 
Q 85.546875 33.59375 76.171875 33.59375 
L 76.171875 17.578125 
Q 76.171875 10.9375 76.5625 3.90625 
L 68.359375 3.90625 
Q 68.359375 10.9375 68.75 17.578125 
L 68.75 33.59375 
L 53.90625 33.59375 
Q 52.34375 23.046875 49.40625 16.40625 
Q 46.484375 9.765625 40.625 3.125 
Q 36.71875 6.25 33.203125 8.203125 
Q 40.625 14.84375 42.96875 20.5 
Q 45.3125 26.171875 46.484375 33.59375 
Q 37.5 33.59375 30.859375 33.203125 
L 30.859375 40.625 
Q 37.890625 40.234375 47.265625 40.234375 
Q 48.046875 49.21875 48.046875 57.421875 
Q 40.234375 57.421875 32.8125 56.640625 
L 32.8125 64.453125 
Q 40.234375 64.0625 48.4375 64.0625 
Q 48.4375 73.046875 48.046875 81.25 
Q 51.953125 80.859375 56.25 80.46875 
Q 55.859375 75.390625 55.46875 64.0625 
z
M 25 48.828125 
Q 24.21875 40.234375 24.21875 34.375 
L 24.21875 9.765625 
Q 35.546875 1.953125 48.4375 0.578125 
Q 61.328125 -0.78125 73.625 -0.390625 
Q 85.9375 0 95.703125 1.5625 
Q 93.75 -3.125 93.359375 -8.203125 
Q 74.609375 -8.203125 62.6875 -7.8125 
Q 50.78125 -7.421875 40.8125 -4.875 
Q 30.859375 -2.34375 25.78125 0.578125 
Q 20.703125 3.515625 16.984375 0.578125 
Q 13.28125 -2.34375 8.984375 -7.03125 
Q 6.640625 -3.515625 3.125 -0.78125 
Q 12.5 6.25 16.796875 8.984375 
L 16.796875 42.1875 
Q 12.5 42.1875 5.859375 41.40625 
L 5.859375 49.21875 
Q 13.671875 48.828125 17.578125 48.828125 
z
M 68.75 40.234375 
L 68.75 57.421875 
L 55.46875 57.421875 
Q 55.078125 49.21875 54.296875 40.234375 
z
M 18.75 78.90625 
Q 25 66.40625 26.5625 61.328125 
Q 22.265625 60.546875 18.75 58.203125 
Q 17.578125 65.234375 10.9375 75.78125 
L 18.75 78.90625 
z
" id="SimHei-36827"/>
      <path d="M 45.3125 1.953125 
L 5.46875 1.953125 
L 5.46875 68.75 
L 43.359375 68.75 
L 43.359375 61.328125 
L 14.453125 61.328125 
L 14.453125 40.625 
L 41.015625 40.625 
L 41.015625 33.203125 
L 14.453125 33.203125 
L 14.453125 9.375 
L 45.3125 9.375 
z
" id="SimHei-69"/>
      <path d="M 43.75 1.953125 
L 35.9375 1.953125 
L 35.9375 10.15625 
Q 32.8125 5.859375 29.09375 3.515625 
Q 25.390625 1.171875 19.53125 1.171875 
Q 12.5 1.171875 8.984375 5.078125 
Q 5.46875 8.984375 5.46875 14.84375 
L 5.46875 45.703125 
L 13.28125 45.703125 
L 13.28125 17.578125 
Q 13.28125 12.890625 15.625 10.15625 
Q 17.96875 7.421875 21.875 7.421875 
Q 26.953125 7.421875 31.4375 12.6875 
Q 35.9375 17.96875 35.9375 25.78125 
L 35.9375 45.703125 
L 43.75 45.703125 
z
" id="SimHei-117"/>
      <path d="M 28.515625 1.953125 
L 20.703125 1.953125 
L 20.703125 68.75 
L 28.515625 68.75 
z
" id="SimHei-108"/>
      <path d="M 44.53125 16.796875 
Q 43.75 9.765625 38.28125 5.46875 
Q 32.8125 1.171875 25.390625 1.171875 
Q 16.015625 1.171875 9.953125 7.21875 
Q 3.90625 13.28125 3.90625 23.828125 
Q 3.90625 34.375 9.953125 40.421875 
Q 16.015625 46.484375 25.390625 46.484375 
Q 33.59375 46.484375 38.859375 41.203125 
Q 44.140625 35.9375 44.140625 23.828125 
L 12.5 23.828125 
Q 12.5 15.234375 16.203125 11.71875 
Q 19.921875 8.203125 25.390625 8.203125 
Q 29.6875 8.203125 32.421875 10.34375 
Q 35.15625 12.5 35.9375 16.796875 
z
M 35.15625 30.078125 
Q 34.375 35.546875 31.640625 37.6875 
Q 28.90625 39.84375 24.609375 39.84375 
Q 20.703125 39.84375 17.578125 37.6875 
Q 14.453125 35.546875 12.890625 30.078125 
z
" id="SimHei-101"/>
      <path d="M 39.0625 37.890625 
Q 31.640625 39.0625 26.5625 35.734375 
Q 21.484375 32.421875 17.96875 24.21875 
L 17.96875 1.953125 
L 10.15625 1.953125 
L 10.15625 45.703125 
L 17.96875 45.703125 
L 17.96875 34.375 
Q 21.484375 40.625 26.75 43.546875 
Q 32.03125 46.484375 39.0625 46.484375 
z
" id="SimHei-114"/>
      <path d="M 6.640625 62.109375 
Q 12.890625 61.71875 20.3125 61.71875 
L 78.515625 61.71875 
Q 87.890625 61.71875 93.75 62.109375 
L 93.75 54.296875 
Q 88.671875 54.6875 79.6875 54.6875 
L 39.453125 54.6875 
Q 39.453125 50.390625 39.0625 39.0625 
L 82.8125 39.0625 
Q 82.03125 33.984375 81.25 24.21875 
L 78.90625 2.734375 
Q 78.125 -4.296875 72.265625 -6.4375 
Q 66.40625 -8.59375 55.078125 -9.765625 
Q 54.6875 -4.6875 51.953125 -0.78125 
Q 60.9375 -1.171875 65.625 0 
Q 70.3125 1.171875 71.484375 6.640625 
L 73.828125 32.03125 
L 38.671875 32.03125 
Q 37.109375 21.09375 33.78125 13.671875 
Q 30.46875 6.25 24.609375 0 
Q 18.75 -6.25 12.890625 -10.9375 
Q 11.328125 -8.59375 5.859375 -5.46875 
Q 10.9375 -2.734375 16.59375 3.125 
Q 22.265625 8.984375 25.96875 16.40625 
Q 29.6875 23.828125 30.65625 32.8125 
Q 31.640625 41.796875 31.640625 54.6875 
L 20.703125 54.6875 
Q 12.109375 54.6875 6.640625 54.296875 
z
M 48.046875 63.671875 
Q 44.53125 71.484375 40.234375 78.125 
Q 43.75 80.078125 47.265625 82.421875 
Q 51.5625 75.78125 55.859375 67.96875 
Q 51.953125 66.40625 48.046875 63.671875 
z
" id="SimHei-26041"/>
      <path d="M 94.921875 -4.6875 
Q 91.40625 -6.640625 87.890625 -9.765625 
Q 85.15625 -4.6875 83.203125 -1.953125 
Q 70.703125 -2.734375 56.046875 -4.09375 
Q 41.40625 -5.46875 36.328125 -7.03125 
Q 35.15625 -2.34375 33.203125 1.171875 
Q 38.28125 2.734375 44.140625 11.328125 
Q 50 19.921875 54.6875 32.8125 
L 43.75 32.8125 
Q 36.71875 32.8125 30.46875 32.421875 
L 30.46875 39.453125 
Q 36.71875 39.0625 44.140625 39.0625 
L 58.203125 39.0625 
L 58.203125 56.25 
L 49.21875 56.25 
Q 41.796875 56.25 36.328125 55.859375 
L 36.328125 62.890625 
Q 42.578125 62.5 48.828125 62.5 
L 58.203125 62.5 
Q 58.203125 73.4375 57.8125 80.46875 
L 66.40625 80.46875 
Q 66.015625 74.609375 66.015625 62.5 
L 77.734375 62.5 
Q 83.59375 62.5 89.84375 62.890625 
L 89.84375 55.859375 
Q 83.59375 56.25 78.515625 56.25 
L 66.015625 56.25 
L 66.015625 39.0625 
L 80.078125 39.0625 
Q 87.109375 39.0625 94.140625 39.453125 
L 94.140625 32.421875 
Q 87.109375 32.8125 80.078125 32.8125 
L 60.15625 32.8125 
L 64.0625 30.46875 
Q 61.71875 27.734375 56.640625 18.75 
Q 51.5625 9.765625 45.3125 1.5625 
Q 62.5 2.34375 79.296875 3.515625 
Q 74.609375 10.546875 69.53125 16.015625 
Q 72.65625 18.359375 75.390625 21.09375 
Q 82.421875 12.5 94.921875 -4.6875 
z
M 4.6875 -3.90625 
Q 10.15625 1.5625 15.8125 9.765625 
Q 21.484375 17.96875 26.953125 26.953125 
Q 28.90625 23.4375 32.421875 21.484375 
Q 28.90625 16.796875 23.4375 7.609375 
Q 17.96875 -1.5625 13.28125 -9.765625 
Q 10.15625 -6.640625 4.6875 -3.90625 
z
M 10.546875 53.515625 
Q 18.75 48.4375 28.125 41.40625 
Q 24.609375 39.0625 21.875 35.15625 
Q 14.453125 41.796875 5.46875 47.65625 
Q 8.203125 50 10.546875 53.515625 
z
M 16.40625 76.5625 
Q 24.21875 71.484375 32.8125 64.453125 
Q 29.6875 62.109375 26.953125 58.203125 
Q 19.53125 65.234375 11.328125 70.703125 
Q 14.0625 73.4375 16.40625 76.5625 
z
" id="SimHei-27861"/>
      <path d="M 70.703125 76.953125 
Q 69.921875 75 68.75 71.671875 
Q 67.578125 68.359375 65.234375 59.765625 
L 83.203125 59.765625 
Q 87.109375 59.765625 92.578125 60.15625 
L 92.578125 53.125 
Q 88.28125 53.515625 85.9375 53.515625 
Q 85.9375 47.265625 83.78125 33.78125 
Q 81.640625 20.3125 76.171875 10.546875 
Q 80.078125 5.859375 84.953125 2.140625 
Q 89.84375 -1.5625 94.140625 -3.125 
Q 89.453125 -6.640625 87.890625 -9.765625 
Q 83.203125 -7.03125 79.296875 -3.515625 
Q 75.390625 0 71.484375 5.078125 
Q 67.1875 0.390625 62.296875 -2.921875 
Q 57.421875 -6.25 50 -10.15625 
Q 48.046875 -6.640625 44.53125 -4.6875 
Q 50.390625 -2.34375 57.03125 1.953125 
Q 63.671875 6.25 67.1875 10.546875 
Q 64.453125 16.015625 61.90625 22.265625 
Q 59.375 28.515625 57.421875 38.671875 
Q 56.25 35.546875 53.515625 30.46875 
Q 50.78125 32.03125 46.875 33.59375 
Q 53.125 44.53125 57.03125 57.421875 
Q 60.9375 70.3125 62.109375 79.6875 
Q 66.796875 77.734375 70.703125 76.953125 
z
M 32.8125 35.15625 
Q 31.25 33.59375 29.296875 30.078125 
L 50.78125 30.078125 
Q 48.4375 20.3125 42.578125 10.546875 
Q 48.828125 8.203125 52.34375 6.25 
Q 50.390625 3.515625 48.828125 0.390625 
Q 45.3125 2.734375 38.28125 5.078125 
Q 30.46875 -3.515625 11.328125 -10.15625 
Q 9.375 -5.859375 6.25 -4.296875 
Q 24.609375 0 31.25 7.421875 
Q 20.3125 10.15625 13.28125 12.109375 
Q 15.625 15.625 19.53125 23.828125 
Q 15.625 23.828125 6.640625 23.4375 
L 6.640625 30.46875 
Q 14.0625 30.078125 21.875 30.078125 
Q 23.4375 33.59375 24.21875 37.890625 
Q 28.515625 36.328125 32.8125 35.15625 
z
M 27.734375 61.71875 
Q 27.734375 71.09375 27.34375 79.6875 
L 35.15625 79.6875 
Q 34.765625 71.484375 34.765625 61.71875 
Q 48.046875 61.71875 53.515625 62.109375 
L 53.515625 55.078125 
Q 48.046875 55.46875 34.765625 55.46875 
Q 34.765625 44.140625 35.15625 37.890625 
L 27.34375 37.890625 
Q 27.734375 43.359375 27.734375 51.5625 
Q 25.78125 48.4375 20.3125 43.546875 
Q 14.84375 38.671875 10.15625 35.9375 
Q 8.203125 39.453125 4.296875 41.015625 
Q 7.8125 42.1875 13.671875 46.484375 
Q 19.53125 50.78125 22.65625 55.46875 
Q 14.84375 55.46875 7.8125 55.078125 
L 7.8125 62.109375 
Q 14.453125 61.71875 27.734375 61.71875 
z
M 62.109375 49.609375 
Q 65.625 26.5625 71.875 17.578125 
Q 75.78125 26.5625 77.140625 35.734375 
Q 78.515625 44.921875 78.90625 53.515625 
L 63.671875 53.515625 
L 62.109375 49.609375 
z
M 22.65625 15.625 
Q 27.34375 14.453125 35.546875 12.5 
Q 38.671875 16.40625 41.40625 23.828125 
L 26.953125 23.828125 
Q 25 19.921875 22.65625 15.625 
z
M 51.953125 75.390625 
Q 50 72.265625 48.828125 69.53125 
Q 47.65625 66.796875 45.703125 62.890625 
Q 42.578125 64.453125 39.453125 65.234375 
Q 42.578125 70.3125 45.3125 78.125 
Q 49.21875 76.171875 51.953125 75.390625 
z
M 40.234375 52.734375 
Q 45.3125 47.65625 50 42.578125 
Q 47.65625 40.625 44.921875 37.890625 
Q 39.453125 44.53125 35.9375 48.4375 
Q 38.28125 50.390625 40.234375 52.734375 
z
M 14.453125 78.125 
Q 19.921875 72.65625 23.4375 67.1875 
L 17.578125 63.671875 
Q 14.84375 69.140625 9.375 73.828125 
Q 12.890625 76.171875 14.453125 78.125 
z
" id="SimHei-25968"/>
      <path d="M 57.421875 69.53125 
L 57.421875 79.6875 
Q 62.109375 79.296875 67.96875 78.90625 
Q 66.015625 76.171875 65.625 69.53125 
L 80.078125 69.53125 
Q 86.71875 69.53125 91.796875 69.921875 
L 91.796875 62.890625 
Q 86.328125 63.28125 80.078125 63.28125 
L 65.234375 63.28125 
L 64.453125 54.6875 
L 84.375 54.6875 
Q 83.984375 50 83.984375 42.1875 
L 83.984375 2.34375 
Q 91.796875 2.34375 95.3125 2.734375 
L 95.3125 -4.296875 
Q 90.234375 -3.90625 81.25 -3.90625 
L 44.53125 -3.90625 
Q 35.546875 -3.90625 29.6875 -4.296875 
L 29.6875 2.734375 
Q 33.203125 2.34375 40.625 2.34375 
L 40.625 42.1875 
Q 40.625 49.609375 40.234375 54.6875 
L 56.25 54.6875 
L 57.03125 63.28125 
L 50 63.28125 
Q 40.234375 63.28125 34.765625 62.890625 
L 34.765625 69.921875 
Q 39.84375 69.53125 50 69.53125 
z
M 34.765625 76.5625 
Q 31.640625 73.046875 25.78125 58.59375 
L 25.78125 7.03125 
Q 25.78125 -1.171875 26.171875 -8.59375 
L 17.96875 -8.59375 
Q 18.359375 -1.953125 18.359375 5.859375 
L 18.359375 46.09375 
Q 13.671875 38.28125 9.765625 33.59375 
Q 6.640625 37.890625 3.90625 40.234375 
Q 7.8125 44.140625 14.640625 55.265625 
Q 21.484375 66.40625 25.390625 80.46875 
Q 30.859375 77.734375 34.765625 76.5625 
z
M 76.953125 41.40625 
L 76.953125 49.21875 
L 48.046875 49.21875 
L 48.046875 41.40625 
z
M 76.953125 2.34375 
L 76.953125 9.765625 
L 48.046875 9.765625 
L 48.046875 2.34375 
z
M 76.953125 15.625 
L 76.953125 22.65625 
L 48.046875 22.65625 
L 48.046875 15.625 
z
M 76.953125 28.515625 
L 76.953125 35.546875 
L 48.046875 35.546875 
L 48.046875 28.515625 
z
" id="SimHei-20540"/>
      <path d="M 30.078125 78.515625 
Q 26.953125 76.953125 25.390625 71.484375 
L 45.703125 71.484375 
Q 43.75 68.75 40.625 64.0625 
Q 37.5 59.375 36.328125 57.03125 
L 50.390625 57.03125 
Q 49.609375 49.21875 49.609375 41.40625 
L 49.609375 1.171875 
Q 49.609375 -3.515625 47.0625 -4.875 
Q 44.53125 -6.25 39.0625 -7.03125 
Q 38.28125 -2.734375 36.71875 1.171875 
Q 39.84375 1.171875 41.40625 1.359375 
Q 42.96875 1.5625 42.96875 5.078125 
L 42.96875 17.96875 
L 34.765625 17.96875 
L 34.765625 -0.390625 
L 28.125 -0.390625 
L 28.125 17.96875 
L 19.921875 17.96875 
Q 19.53125 12.109375 17.96875 5.859375 
Q 16.40625 -0.390625 12.890625 -7.8125 
Q 9.375 -5.859375 5.46875 -3.90625 
Q 9.375 1.5625 11.328125 9.5625 
Q 13.28125 17.578125 13.671875 30.078125 
Q 14.0625 42.578125 13.671875 55.078125 
Q 10.546875 51.5625 8.59375 49.609375 
Q 6.25 52.734375 3.125 55.078125 
Q 8.984375 59.765625 13.859375 66.59375 
Q 18.75 73.4375 21.875 82.8125 
Q 25 80.859375 30.078125 78.515625 
z
M 67.578125 37.890625 
Q 65.625 36.328125 64.84375 33.203125 
L 71.484375 33.203125 
Q 71.484375 41.40625 71.09375 44.140625 
L 78.90625 44.140625 
Q 78.125 40.625 78.125 33.203125 
L 83.59375 33.203125 
Q 89.453125 33.203125 92.96875 33.59375 
L 92.96875 26.5625 
Q 87.890625 27.34375 82.8125 27.34375 
L 78.125 27.34375 
L 78.125 16.015625 
L 80.859375 16.015625 
Q 88.28125 16.015625 96.09375 16.40625 
L 96.09375 9.765625 
Q 88.671875 10.15625 80.859375 10.15625 
L 78.125 10.15625 
L 78.125 3.515625 
Q 78.125 -1.953125 78.515625 -10.15625 
L 71.09375 -10.15625 
Q 71.484375 -1.953125 71.484375 3.515625 
L 71.484375 10.15625 
L 62.890625 10.15625 
Q 58.59375 10.15625 51.953125 9.765625 
L 51.953125 16.40625 
Q 57.8125 16.015625 62.890625 16.015625 
L 71.484375 16.015625 
L 71.484375 27.34375 
L 61.71875 27.34375 
Q 60.546875 24.21875 58.203125 19.53125 
Q 55.46875 21.09375 51.953125 23.828125 
Q 54.6875 26.953125 56.640625 32.03125 
Q 58.59375 37.109375 59.765625 41.796875 
L 67.578125 37.890625 
z
M 76.5625 46.484375 
Q 75.78125 50.78125 73.828125 54.6875 
Q 78.125 54.6875 80.65625 55.078125 
Q 83.203125 55.46875 83.59375 57.421875 
Q 83.984375 59.375 84.765625 71.09375 
L 70.703125 71.09375 
Q 68.359375 60.15625 66.015625 55.265625 
Q 63.671875 50.390625 58.59375 44.53125 
Q 56.25 47.65625 52.34375 50.390625 
Q 56.640625 53.515625 59.375 58.390625 
Q 62.109375 63.28125 63.28125 71.09375 
Q 58.59375 71.09375 51.953125 70.703125 
L 51.953125 77.34375 
Q 58.203125 76.953125 63.28125 76.953125 
L 92.578125 76.953125 
Q 91.40625 57.8125 90.421875 53.90625 
Q 89.453125 50 85.546875 48.4375 
Q 81.640625 46.875 76.5625 46.484375 
z
M 28.515625 57.03125 
Q 31.640625 60.9375 33.984375 65.625 
L 21.484375 65.625 
Q 17.96875 60.9375 15.234375 57.03125 
z
M 42.96875 24.21875 
L 42.96875 34.765625 
L 34.765625 34.765625 
L 34.765625 24.21875 
z
M 42.96875 40.625 
L 42.96875 51.171875 
L 34.765625 51.171875 
L 34.765625 40.625 
z
M 28.125 24.21875 
L 28.125 34.765625 
L 20.703125 34.765625 
L 20.3125 24.21875 
z
M 28.125 40.625 
L 28.125 51.171875 
L 20.703125 51.171875 
L 20.703125 40.625 
z
" id="SimHei-35299"/>
      <path d="M 89.453125 30.078125 
Q 89.0625 25 89.0625 18.75 
L 89.0625 5.46875 
Q 89.0625 -1.953125 89.453125 -7.421875 
L 81.640625 -7.421875 
L 81.640625 0 
L 55.078125 0 
L 55.078125 -8.203125 
L 47.265625 -8.203125 
Q 47.65625 1.953125 47.65625 5.078125 
L 47.65625 19.53125 
Q 47.65625 24.21875 47.265625 30.078125 
L 89.453125 30.078125 
z
M 29.6875 75.78125 
Q 26.5625 71.875 23.046875 65.625 
Q 19.53125 59.375 14.453125 50 
Q 23.046875 50.390625 26.953125 50.390625 
Q 30.46875 56.640625 32.8125 62.5 
Q 36.71875 59.765625 41.40625 57.421875 
Q 39.453125 55.859375 34.5625 48.828125 
Q 29.6875 41.796875 19.140625 25.78125 
Q 32.03125 27.734375 39.453125 28.90625 
Q 38.28125 24.609375 38.28125 21.484375 
Q 34.765625 21.09375 25.78125 19.921875 
Q 16.796875 18.75 8.203125 16.40625 
Q 6.640625 20.3125 5.46875 24.21875 
Q 10.15625 25.390625 14.84375 31.4375 
Q 19.53125 37.5 23.046875 44.140625 
Q 20.3125 44.140625 15.03125 43.546875 
Q 9.765625 42.96875 5.859375 41.796875 
Q 4.6875 45.703125 3.515625 49.21875 
Q 7.8125 52.734375 12.6875 61.328125 
Q 17.578125 69.921875 20.3125 80.078125 
Q 25 77.734375 29.6875 75.78125 
z
M 63.671875 65.234375 
Q 63.671875 71.875 63.28125 80.859375 
L 71.484375 80.859375 
Q 71.09375 73.828125 71.09375 65.234375 
L 82.421875 65.234375 
Q 89.84375 65.234375 96.09375 65.625 
L 96.09375 58.59375 
Q 89.84375 58.984375 82.8125 58.984375 
L 71.09375 58.984375 
L 71.09375 46.09375 
L 80.078125 46.09375 
Q 85.546875 46.09375 91.015625 46.484375 
L 91.015625 39.453125 
Q 86.328125 39.84375 79.6875 39.84375 
L 57.03125 39.84375 
Q 50.390625 39.84375 45.3125 39.453125 
L 45.3125 46.484375 
Q 50.390625 46.09375 56.25 46.09375 
L 63.671875 46.09375 
L 63.671875 58.984375 
L 55.078125 58.984375 
Q 48.046875 58.984375 41.796875 58.59375 
L 41.796875 65.625 
Q 46.875 65.234375 54.296875 65.234375 
z
M 81.640625 6.25 
L 81.640625 23.828125 
L 55.078125 23.828125 
L 55.078125 6.25 
z
M 40.234375 10.15625 
Q 39.0625 6.640625 39.453125 2.734375 
Q 32.03125 1.5625 22.65625 0 
Q 13.28125 -1.5625 6.640625 -3.515625 
Q 5.078125 1.5625 3.515625 5.46875 
Q 11.71875 5.859375 18.359375 6.828125 
Q 25 7.8125 40.234375 10.15625 
z
" id="SimHei-32467"/>
      <path d="M 46.484375 -8.203125 
Q 46.875 -1.171875 46.875 8.984375 
L 46.875 25 
L 45.3125 25 
Q 42.578125 19.921875 39.0625 15.625 
Q 35.546875 11.328125 31.046875 8 
Q 26.5625 4.6875 21.28125 1.5625 
Q 16.015625 -1.5625 10.546875 -3.90625 
Q 8.984375 0.390625 6.25 4.296875 
Q 10.9375 5.46875 15.234375 7.609375 
Q 19.53125 9.765625 23.828125 12.296875 
Q 28.125 14.84375 31.25 17.96875 
Q 34.375 21.09375 37.109375 25 
L 21.484375 25 
Q 15.625 25 7.03125 24.21875 
L 7.03125 32.03125 
Q 14.84375 31.25 21.484375 31.25 
L 46.875 31.25 
L 46.875 38.28125 
L 17.96875 38.28125 
Q 18.359375 47.65625 18.359375 58.984375 
Q 18.359375 70.3125 17.96875 78.125 
L 83.203125 78.125 
Q 82.8125 70.3125 82.8125 58.984375 
Q 82.8125 47.65625 83.203125 38.28125 
L 54.296875 38.28125 
L 54.296875 31.25 
L 78.90625 31.25 
Q 86.71875 31.25 92.578125 31.640625 
L 92.578125 24.21875 
Q 85.9375 25 79.6875 25 
L 64.453125 25 
Q 69.53125 16.796875 76.953125 12.5 
Q 84.375 8.203125 94.53125 5.859375 
Q 91.796875 2.34375 90.234375 -2.734375 
Q 76.953125 2.34375 69.140625 8.59375 
Q 61.328125 14.84375 57.421875 25 
L 54.296875 25 
L 54.296875 8.59375 
Q 54.296875 0 54.6875 -8.203125 
z
M 75.390625 60.546875 
L 75.390625 72.265625 
L 54.296875 72.265625 
L 54.296875 60.546875 
z
M 46.875 60.546875 
L 46.875 72.265625 
L 26.171875 72.265625 
L 26.171875 60.546875 
z
M 75.390625 44.140625 
L 75.390625 54.6875 
L 54.296875 54.6875 
L 54.296875 44.140625 
z
M 46.875 44.140625 
L 46.875 54.6875 
L 26.171875 54.6875 
L 26.171875 44.140625 
z
" id="SimHei-26524"/>
     </defs>
     <use xlink:href="#SimHei-25913"/>
     <use x="100" xlink:href="#SimHei-36827"/>
     <use x="200" xlink:href="#SimHei-69"/>
     <use x="250" xlink:href="#SimHei-117"/>
     <use x="300" xlink:href="#SimHei-108"/>
     <use x="350" xlink:href="#SimHei-101"/>
     <use x="400" xlink:href="#SimHei-114"/>
     <use x="450" xlink:href="#SimHei-26041"/>
     <use x="550" xlink:href="#SimHei-27861"/>
     <use x="650" xlink:href="#SimHei-25968"/>
     <use x="750" xlink:href="#SimHei-20540"/>
     <use x="850" xlink:href="#SimHei-35299"/>
     <use x="950" xlink:href="#SimHei-32467"/>
     <use x="1050" xlink:href="#SimHei-26524"/>
    </g>
   </g>
   <g id="legend_1">
    <g id="patch_7">
     <path d="M 163.227273 78.172 
L 212.927273 78.172 
Q 214.927273 78.172 214.927273 76.172 
L 214.927273 48.472 
Q 214.927273 46.472 212.927273 46.472 
L 163.227273 46.472 
Q 161.227273 46.472 161.227273 48.472 
L 161.227273 76.172 
Q 161.227273 78.172 163.227273 78.172 
z
" style="fill:#ffffff;opacity:0.8;stroke:#cccccc;stroke-linejoin:miter;"/>
    </g>
    <g id="line2d_13">
     <path d="M 165.227273 54.572 
L 185.227273 54.572 
" style="fill:none;stroke:#1f77b4;stroke-linecap:square;stroke-width:2;"/>
    </g>
    <g id="line2d_14"/>
    <g id="text_14">
     <!-- $x(t)$ -->
     <g transform="translate(193.227273 58.072)scale(0.1 -0.1)">
      <defs>
       <path d="M 60.015625 54.6875 
L 34.90625 27.875 
L 50.296875 0 
L 39.984375 0 
L 28.421875 21.6875 
L 8.296875 0 
L -2.59375 0 
L 24.3125 28.8125 
L 10.015625 54.6875 
L 20.3125 54.6875 
L 30.8125 34.90625 
L 49.125 54.6875 
z
" id="DejaVuSans-Oblique-120"/>
       <path d="M 31 75.875 
Q 24.46875 64.65625 21.28125 53.65625 
Q 18.109375 42.671875 18.109375 31.390625 
Q 18.109375 20.125 21.3125 9.0625 
Q 24.515625 -2 31 -13.1875 
L 23.1875 -13.1875 
Q 15.875 -1.703125 12.234375 9.375 
Q 8.59375 20.453125 8.59375 31.390625 
Q 8.59375 42.28125 12.203125 53.3125 
Q 15.828125 64.359375 23.1875 75.875 
z
" id="DejaVuSans-40"/>
       <path d="M 8.015625 75.875 
L 15.828125 75.875 
Q 23.140625 64.359375 26.78125 53.3125 
Q 30.421875 42.28125 30.421875 31.390625 
Q 30.421875 20.453125 26.78125 9.375 
Q 23.140625 -1.703125 15.828125 -13.1875 
L 8.015625 -13.1875 
Q 14.5 -2 17.703125 9.0625 
Q 20.90625 20.125 20.90625 31.390625 
Q 20.90625 42.671875 17.703125 53.65625 
Q 14.5 64.65625 8.015625 75.875 
z
" id="DejaVuSans-41"/>
      </defs>
      <use transform="translate(0 0.125)" xlink:href="#DejaVuSans-Oblique-120"/>
      <use transform="translate(59.179688 0.125)" xlink:href="#DejaVuSans-40"/>
      <use transform="translate(98.193359 0.125)" xlink:href="#DejaVuSans-Oblique-116"/>
      <use transform="translate(137.402344 0.125)" xlink:href="#DejaVuSans-41"/>
     </g>
    </g>
    <g id="line2d_15">
     <path d="M 165.227273 68.572 
L 185.227273 68.572 
" style="fill:none;stroke:#ff7f0e;stroke-linecap:square;stroke-width:2;"/>
    </g>
    <g id="line2d_16"/>
    <g id="text_15">
     <!-- $y(t)$ -->
     <g transform="translate(193.227273 72.072)scale(0.1 -0.1)">
      <use transform="translate(0 0.125)" xlink:href="#DejaVuSans-Oblique-121"/>
      <use transform="translate(59.179688 0.125)" xlink:href="#DejaVuSans-40"/>
      <use transform="translate(98.193359 0.125)" xlink:href="#DejaVuSans-Oblique-116"/>
      <use transform="translate(137.402344 0.125)" xlink:href="#DejaVuSans-41"/>
     </g>
    </g>
   </g>
  </g>
  <g id="axes_2">
   <g id="patch_8">
    <path d="M 252.392727 307.584 
L 414.72 307.584 
L 414.72 41.472 
L 252.392727 41.472 
z
" style="fill:#ffffff;"/>
   </g>
   <g id="matplotlib.axis_3">
    <g id="xtick_5">
     <g id="line2d_17">
      <g>
       <use style="stroke:#000000;stroke-width:0.8;" x="259.77124" xlink:href="#m5d708b7525" y="307.584"/>
      </g>
     </g>
     <g id="text_16">
      <!-- 0.0 -->
      <g transform="translate(252.27124 321.459)scale(0.1 -0.1)">
       <defs>
        <path d="M 16.796875 1.953125 
L 7.8125 1.953125 
L 7.8125 10.546875 
L 16.796875 10.546875 
z
" id="SimHei-46"/>
       </defs>
       <use xlink:href="#SimHei-48"/>
       <use x="50" xlink:href="#SimHei-46"/>
       <use x="100" xlink:href="#SimHei-48"/>
      </g>
     </g>
    </g>
    <g id="xtick_6">
     <g id="line2d_18">
      <g>
       <use style="stroke:#000000;stroke-width:0.8;" x="298.111243" xlink:href="#m5d708b7525" y="307.584"/>
      </g>
     </g>
     <g id="text_17">
      <!-- 0.5 -->
      <g transform="translate(290.611243 321.459)scale(0.1 -0.1)">
       <defs>
        <path d="M 8.59375 20.703125 
Q 11.328125 10.15625 17.96875 8.984375 
Q 24.609375 7.8125 28.703125 10.34375 
Q 32.8125 12.890625 34.5625 16.984375 
Q 36.328125 21.09375 36.125 26.171875 
Q 35.9375 31.25 33.390625 34.765625 
Q 30.859375 38.28125 26.953125 39.453125 
Q 23.046875 40.625 18.15625 39.453125 
Q 13.28125 38.28125 10.15625 33.984375 
L 3.515625 34.765625 
Q 4.296875 37.109375 10.9375 68.359375 
L 41.796875 68.359375 
L 41.796875 61.328125 
L 16.796875 61.328125 
Q 14.84375 50.78125 12.890625 44.53125 
Q 18.75 47.265625 23.828125 47.0625 
Q 28.90625 46.875 33.59375 44.71875 
Q 38.28125 42.578125 40.421875 38.859375 
Q 42.578125 35.15625 43.546875 31.4375 
Q 44.53125 27.734375 44.328125 23.4375 
Q 44.140625 19.140625 42.578125 14.640625 
Q 41.015625 10.15625 37.890625 7.21875 
Q 34.765625 4.296875 30.265625 2.53125 
Q 25.78125 0.78125 19.921875 1.171875 
Q 14.0625 1.5625 8.78125 5.46875 
Q 3.515625 9.375 1.5625 18.75 
z
" id="SimHei-53"/>
       </defs>
       <use xlink:href="#SimHei-48"/>
       <use x="50" xlink:href="#SimHei-46"/>
       <use x="100" xlink:href="#SimHei-53"/>
      </g>
     </g>
    </g>
    <g id="xtick_7">
     <g id="line2d_19">
      <g>
       <use style="stroke:#000000;stroke-width:0.8;" x="336.451247" xlink:href="#m5d708b7525" y="307.584"/>
      </g>
     </g>
     <g id="text_18">
      <!-- 1.0 -->
      <g transform="translate(328.951247 321.459)scale(0.1 -0.1)">
       <use xlink:href="#SimHei-49"/>
       <use x="50" xlink:href="#SimHei-46"/>
       <use x="100" xlink:href="#SimHei-48"/>
      </g>
     </g>
    </g>
    <g id="xtick_8">
     <g id="line2d_20">
      <g>
       <use style="stroke:#000000;stroke-width:0.8;" x="374.79125" xlink:href="#m5d708b7525" y="307.584"/>
      </g>
     </g>
     <g id="text_19">
      <!-- 1.5 -->
      <g transform="translate(367.29125 321.459)scale(0.1 -0.1)">
       <use xlink:href="#SimHei-49"/>
       <use x="50" xlink:href="#SimHei-46"/>
       <use x="100" xlink:href="#SimHei-53"/>
      </g>
     </g>
    </g>
    <g id="xtick_9">
     <g id="line2d_21">
      <g>
       <use style="stroke:#000000;stroke-width:0.8;" x="413.131254" xlink:href="#m5d708b7525" y="307.584"/>
      </g>
     </g>
     <g id="text_20">
      <!-- 2.0 -->
      <g transform="translate(405.631254 321.459)scale(0.1 -0.1)">
       <use xlink:href="#SimHei-50"/>
       <use x="50" xlink:href="#SimHei-46"/>
       <use x="100" xlink:href="#SimHei-48"/>
      </g>
     </g>
    </g>
    <g id="text_21">
     <!-- $x$ -->
     <g transform="translate(330.556364 333.584)scale(0.1 -0.1)">
      <use transform="translate(0 0.3125)" xlink:href="#DejaVuSans-Oblique-120"/>
     </g>
    </g>
   </g>
   <g id="matplotlib.axis_4">
    <g id="ytick_7">
     <g id="line2d_22">
      <g>
       <use style="stroke:#000000;stroke-width:0.8;" x="252.392727" xlink:href="#m7e8aadbbda" y="295.488"/>
      </g>
     </g>
     <g id="text_22">
      <!-- 0 -->
      <g transform="translate(240.392727 298.9255)scale(0.1 -0.1)">
       <use xlink:href="#SimHei-48"/>
      </g>
     </g>
    </g>
    <g id="ytick_8">
     <g id="line2d_23">
      <g>
       <use style="stroke:#000000;stroke-width:0.8;" x="252.392727" xlink:href="#m7e8aadbbda" y="247.104"/>
      </g>
     </g>
     <g id="text_23">
      <!-- 2 -->
      <g transform="translate(240.392727 250.5415)scale(0.1 -0.1)">
       <use xlink:href="#SimHei-50"/>
      </g>
     </g>
    </g>
    <g id="ytick_9">
     <g id="line2d_24">
      <g>
       <use style="stroke:#000000;stroke-width:0.8;" x="252.392727" xlink:href="#m7e8aadbbda" y="198.72"/>
      </g>
     </g>
     <g id="text_24">
      <!-- 4 -->
      <g transform="translate(240.392727 202.1575)scale(0.1 -0.1)">
       <use xlink:href="#SimHei-52"/>
      </g>
     </g>
    </g>
    <g id="ytick_10">
     <g id="line2d_25">
      <g>
       <use style="stroke:#000000;stroke-width:0.8;" x="252.392727" xlink:href="#m7e8aadbbda" y="150.336"/>
      </g>
     </g>
     <g id="text_25">
      <!-- 6 -->
      <g transform="translate(240.392727 153.7735)scale(0.1 -0.1)">
       <use xlink:href="#SimHei-54"/>
      </g>
     </g>
    </g>
    <g id="ytick_11">
     <g id="line2d_26">
      <g>
       <use style="stroke:#000000;stroke-width:0.8;" x="252.392727" xlink:href="#m7e8aadbbda" y="101.952"/>
      </g>
     </g>
     <g id="text_26">
      <!-- 8 -->
      <g transform="translate(240.392727 105.3895)scale(0.1 -0.1)">
       <use xlink:href="#SimHei-56"/>
      </g>
     </g>
    </g>
    <g id="ytick_12">
     <g id="line2d_27">
      <g>
       <use style="stroke:#000000;stroke-width:0.8;" x="252.392727" xlink:href="#m7e8aadbbda" y="53.568"/>
      </g>
     </g>
     <g id="text_27">
      <!-- 10 -->
      <g transform="translate(235.392727 57.0055)scale(0.1 -0.1)">
       <use xlink:href="#SimHei-49"/>
       <use x="50" xlink:href="#SimHei-48"/>
      </g>
     </g>
    </g>
    <g id="text_28">
     <!-- $y$ -->
     <g transform="translate(229.292727 177.528)rotate(-90)scale(0.1 -0.1)">
      <use transform="translate(0 0.3125)" xlink:href="#DejaVuSans-Oblique-121"/>
     </g>
    </g>
   </g>
   <g id="line2d_28">
    <path clip-path="url(#p004c6d53c3)" d="M 259.77124 53.568 
L 271.841608 61.309101 
L 283.506515 69.048104 
L 294.752622 76.782719 
L 304.903169 84.027698 
L 314.661584 91.264329 
L 324.01558 98.490121 
L 332.369884 105.222018 
L 340.35013 111.939692 
L 347.415801 118.162509 
L 354.140378 124.368531 
L 360.514552 130.555303 
L 366.528784 136.720175 
L 371.75247 142.388917 
L 376.653313 148.03414 
L 381.22334 153.653248 
L 385.115007 158.778778 
L 388.715581 163.87773 
L 392.018687 168.947661 
L 395.017906 173.985965 
L 397.475342 178.536468 
L 399.671462 183.056335 
L 401.601437 187.543226 
L 403.260471 191.994671 
L 404.518026 195.968509 
L 405.548871 199.909517 
L 406.349668 203.81559 
L 406.917162 207.684522 
L 407.248197 211.514 
L 407.339741 215.301602 
L 407.188907 219.044792 
L 406.792976 222.740923 
L 406.233231 225.984631 
L 405.476206 229.186952 
L 404.520434 232.345787 
L 403.364619 235.458967 
L 402.007662 238.524245 
L 400.448677 241.539299 
L 398.687013 244.501736 
L 396.722276 247.409088 
L 394.554353 250.258818 
L 391.872817 253.392642 
L 388.935141 256.446435 
L 385.742663 259.416296 
L 382.297339 262.29824 
L 378.601779 265.088205 
L 374.659302 267.78207 
L 370.473968 270.375666 
L 366.050627 272.864794 
L 361.394949 275.245246 
L 356.513461 277.512826 
L 350.833789 279.894914 
L 344.89598 282.126891 
L 338.712909 284.203268 
L 332.298851 286.118741 
L 325.669479 287.868239 
L 318.841826 289.446975 
L 311.834235 290.850498 
L 304.666287 292.074739 
L 297.358701 293.116067 
L 289.185055 294.046512 
L 280.898947 294.748349 
L 272.531593 295.218914 
L 264.11498 295.456358 
L 261.815253 295.480401 
L 261.815253 295.480401 
" style="fill:none;stroke:#1f77b4;stroke-linecap:square;stroke-width:2;"/>
   </g>
   <g id="line2d_29">
    <path clip-path="url(#p004c6d53c3)" d="M 259.77124 295.488 
L 286.813172 294.272322 
L 297.821161 293.056643 
L 306.13613 291.840965 
L 313.035652 290.625286 
L 319.017271 289.409608 
L 324.337476 288.19393 
L 333.55332 285.762573 
L 341.398334 283.331216 
L 348.243019 280.899859 
L 354.309647 278.468503 
L 359.744445 276.037146 
L 364.649956 273.605789 
L 369.101545 271.174432 
L 373.156641 268.743075 
L 376.860268 266.311719 
L 380.248563 263.880362 
L 383.351089 261.449005 
L 386.192427 259.017648 
L 388.793306 256.586291 
L 391.171413 254.154935 
L 394.353684 250.507899 
L 397.112065 246.860864 
L 399.482484 243.213829 
L 401.49507 239.566794 
L 403.175427 235.919759 
L 404.545562 232.272724 
L 405.624577 228.625688 
L 406.429201 224.978653 
L 406.974198 221.331618 
L 407.27269 217.684583 
L 407.336411 214.037548 
L 407.175917 210.390513 
L 406.800749 206.743477 
L 406.219576 203.096442 
L 405.440302 199.449407 
L 404.47017 195.802372 
L 403.315836 192.155337 
L 401.500729 187.292623 
L 399.382315 182.42991 
L 396.972649 177.567196 
L 394.282703 172.704482 
L 391.322507 167.841769 
L 388.101269 162.979055 
L 384.627467 158.116342 
L 380.908938 153.253628 
L 376.952947 148.390915 
L 371.684273 142.312523 
L 366.067282 136.234131 
L 360.11319 130.155739 
L 353.832346 124.077347 
L 347.234333 117.998955 
L 340.328047 111.920563 
L 333.121775 105.842171 
L 324.089126 98.548101 
L 314.648051 91.25403 
L 304.810077 83.95996 
L 294.585918 76.665889 
L 283.985564 69.371819 
L 273.018351 62.077749 
L 261.693026 54.783678 
L 259.77124 53.568 
L 259.77124 53.568 
" style="fill:none;stroke:#ff7f0e;stroke-dasharray:7.4,3.2;stroke-dashoffset:0;stroke-width:2;"/>
   </g>
   <g id="patch_9">
    <path d="M 252.392727 307.584 
L 252.392727 41.472 
" style="fill:none;stroke:#000000;stroke-linecap:square;stroke-linejoin:miter;stroke-width:0.8;"/>
   </g>
   <g id="patch_10">
    <path d="M 414.72 307.584 
L 414.72 41.472 
" style="fill:none;stroke:#000000;stroke-linecap:square;stroke-linejoin:miter;stroke-width:0.8;"/>
   </g>
   <g id="patch_11">
    <path d="M 252.392727 307.584 
L 414.72 307.584 
" style="fill:none;stroke:#000000;stroke-linecap:square;stroke-linejoin:miter;stroke-width:0.8;"/>
   </g>
   <g id="patch_12">
    <path d="M 252.392727 41.472 
L 414.72 41.472 
" style="fill:none;stroke:#000000;stroke-linecap:square;stroke-linejoin:miter;stroke-width:0.8;"/>
   </g>
   <g id="text_29">
    <!-- 改进Euler方法数值解与解析解的比较 -->
    <g transform="translate(234.556364 35.472)scale(0.12 -0.12)">
     <defs>
      <path d="M 83.59375 1.5625 
Q 82.421875 -4.6875 76.953125 -6.640625 
Q 71.484375 -8.59375 60.9375 -9.375 
Q 60.546875 -5.859375 57.03125 -0.390625 
Q 68.359375 -0.78125 71.484375 0 
Q 74.609375 0.78125 75.578125 3.515625 
Q 76.5625 6.25 79.6875 36.71875 
L 17.578125 36.71875 
Q 22.65625 67.96875 23.046875 81.25 
Q 28.125 80.46875 32.421875 80.078125 
Q 30.859375 75.390625 29.6875 66.796875 
L 76.5625 66.796875 
Q 84.375 66.796875 90.625 67.1875 
L 90.625 59.765625 
Q 84.375 60.15625 77.34375 60.15625 
L 28.90625 60.15625 
L 26.5625 42.96875 
L 88.671875 42.96875 
Q 87.890625 38.28125 87.109375 32.03125 
z
M 57.421875 21.09375 
Q 64.453125 21.09375 70.3125 21.484375 
L 70.3125 13.671875 
Q 64.453125 14.0625 60.15625 14.0625 
L 22.65625 14.0625 
Q 15.625 14.0625 7.8125 13.671875 
L 7.8125 21.484375 
Q 15.625 21.09375 22.65625 21.09375 
z
" id="SimHei-19982"/>
      <path d="M 92.1875 71.09375 
Q 87.109375 70.703125 79.484375 69.53125 
Q 71.875 68.359375 58.203125 66.796875 
L 58.203125 48.046875 
L 84.375 48.046875 
Q 89.453125 48.046875 96.09375 48.4375 
L 96.09375 41.40625 
Q 89.0625 41.796875 82.03125 41.796875 
L 82.03125 5.46875 
Q 82.03125 -1.5625 82.421875 -7.421875 
L 74.21875 -7.421875 
Q 74.609375 -1.171875 74.609375 5.859375 
L 74.609375 41.796875 
L 58.203125 41.796875 
Q 58.203125 33.984375 57.03125 25.578125 
Q 55.859375 17.1875 53.703125 9.953125 
Q 51.5625 2.734375 44.53125 -7.8125 
Q 41.796875 -4.6875 35.546875 -2.34375 
Q 44.140625 5.078125 47.65625 17.375 
Q 51.171875 29.6875 50.96875 46.875 
Q 50.78125 64.0625 50.390625 72.65625 
Q 62.109375 73.4375 71.28125 75 
Q 80.46875 76.5625 85.9375 78.90625 
Q 88.671875 74.21875 92.1875 71.09375 
z
M 29.6875 8.203125 
Q 29.6875 3.125 30.078125 -8.203125 
L 21.875 -8.203125 
Q 22.265625 0.390625 22.265625 8.203125 
L 22.265625 35.15625 
Q 18.359375 25.390625 9.375 12.5 
Q 6.640625 16.796875 3.125 19.140625 
Q 10.15625 26.953125 15.03125 37.296875 
Q 19.921875 47.65625 21.484375 53.515625 
Q 14.453125 53.515625 7.03125 53.125 
L 7.03125 60.15625 
Q 14.453125 59.765625 22.265625 59.765625 
L 22.265625 69.53125 
Q 22.265625 74.609375 21.875 80.078125 
L 30.46875 80.078125 
Q 29.6875 75.390625 29.6875 69.53125 
L 29.6875 59.765625 
Q 35.9375 59.765625 43.359375 60.15625 
L 43.359375 53.125 
Q 35.9375 53.515625 29.6875 53.515625 
L 29.6875 8.203125 
z
M 37.109375 42.96875 
Q 43.75 32.03125 45.703125 28.125 
Q 42.1875 26.5625 38.28125 24.21875 
Q 35.9375 29.6875 30.46875 39.453125 
Q 33.984375 41.015625 37.109375 42.96875 
z
" id="SimHei-26512"/>
      <path d="M 32.8125 77.734375 
Q 30.859375 74.21875 27.34375 61.71875 
L 44.921875 61.71875 
Q 44.53125 55.078125 44.53125 44.921875 
L 44.53125 10.546875 
Q 44.53125 4.6875 44.921875 -6.25 
L 37.109375 -6.25 
L 37.109375 1.5625 
L 17.1875 1.5625 
L 17.1875 -7.03125 
L 9.375 -7.03125 
Q 9.765625 5.46875 9.765625 8.59375 
L 9.765625 44.53125 
Q 9.765625 55.078125 9.375 61.71875 
L 20.703125 61.71875 
Q 22.65625 70.703125 23.828125 80.46875 
Q 29.296875 78.515625 32.8125 77.734375 
z
M 91.015625 48.046875 
Q 90.625 24.21875 89.0625 2.734375 
Q 88.28125 -4.296875 81.640625 -6.640625 
Q 75 -8.984375 66.796875 -9.765625 
Q 66.40625 -5.46875 63.28125 -0.78125 
Q 71.09375 -1.171875 75.578125 -0.390625 
Q 80.078125 0.390625 81.25 3.125 
Q 82.421875 5.859375 83 19.140625 
Q 83.59375 32.421875 83.984375 56.25 
L 61.328125 56.25 
Q 58.203125 48.828125 52.34375 38.671875 
Q 49.609375 41.40625 45.703125 42.96875 
Q 49.21875 47.65625 52.34375 54.296875 
Q 55.46875 60.9375 57.8125 68.75 
Q 60.15625 76.5625 60.546875 80.859375 
Q 66.015625 78.515625 69.921875 77.34375 
Q 67.96875 74.21875 66.59375 70.5 
Q 65.234375 66.796875 63.671875 63.28125 
L 91.40625 63.28125 
Q 91.015625 55.078125 91.015625 48.046875 
z
M 37.109375 8.203125 
L 37.109375 28.90625 
L 17.1875 28.90625 
L 17.1875 8.203125 
z
M 37.109375 35.546875 
L 37.109375 55.078125 
L 17.1875 55.078125 
L 17.1875 35.546875 
z
M 67.96875 32.03125 
Q 70.3125 27.34375 73.4375 19.921875 
Q 70.703125 18.75 66.015625 16.015625 
Q 63.28125 23.4375 60.9375 28.703125 
Q 58.59375 33.984375 56.25 37.5 
Q 58.984375 39.0625 63.28125 41.40625 
z
" id="SimHei-30340"/>
      <path d="M 58.984375 79.6875 
Q 58.59375 71.484375 58.59375 64.0625 
L 58.59375 47.65625 
Q 76.953125 56.25 85.546875 65.234375 
Q 88.671875 60.9375 92.1875 57.421875 
Q 87.5 54.6875 78.703125 49.796875 
Q 69.921875 44.921875 58.59375 39.84375 
L 58.59375 7.03125 
Q 58.59375 1.5625 63.28125 1.5625 
L 78.125 1.5625 
Q 80.859375 1.5625 82.21875 3.90625 
Q 83.59375 6.25 85.15625 14.0625 
Q 88.28125 12.109375 94.140625 10.546875 
Q 91.40625 0 88.28125 -2.734375 
Q 85.15625 -5.46875 81.640625 -5.46875 
L 60.9375 -5.46875 
Q 50.78125 -5.46875 50.78125 4.296875 
L 50.78125 62.5 
Q 50.78125 71.09375 50.390625 79.6875 
L 58.984375 79.6875 
z
M 19.921875 77.734375 
Q 19.53125 71.484375 19.53125 62.5 
L 19.53125 49.21875 
L 28.90625 49.21875 
Q 36.328125 49.21875 44.921875 49.609375 
L 44.921875 41.40625 
Q 36.328125 41.796875 28.90625 41.796875 
L 19.53125 41.796875 
L 19.53125 7.421875 
Q 25.78125 10.15625 30.65625 12.6875 
Q 35.546875 15.234375 44.53125 19.921875 
Q 45.3125 14.84375 46.09375 11.71875 
Q 37.109375 7.421875 27.53125 2.734375 
Q 17.96875 -1.953125 14.453125 -5.078125 
Q 11.71875 -1.5625 8.984375 3.125 
Q 10.9375 4.6875 11.71875 9.375 
L 11.71875 61.71875 
Q 11.71875 71.09375 11.328125 77.734375 
L 19.921875 77.734375 
z
" id="SimHei-27604"/>
      <path d="M 46.09375 22.265625 
Q 45.703125 19.140625 45.703125 15.625 
Q 42.578125 15.234375 31.640625 13.28125 
Q 31.640625 3.515625 32.03125 -9.765625 
L 23.828125 -9.765625 
Q 24.21875 3.515625 24.21875 11.71875 
Q 13.671875 9.375 6.640625 7.03125 
Q 5.46875 11.71875 3.125 15.625 
Q 9.765625 16.40625 24.21875 18.359375 
L 24.21875 32.8125 
Q 19.53125 32.8125 14.640625 32.609375 
Q 9.765625 32.421875 6.640625 31.25 
L 4.296875 38.28125 
Q 7.8125 41.796875 10.34375 48.046875 
Q 12.890625 54.296875 14.84375 61.71875 
Q 12.109375 61.71875 5.46875 61.328125 
L 5.46875 68.75 
Q 11.328125 67.96875 16.40625 67.96875 
Q 19.140625 75 19.921875 82.03125 
Q 24.21875 80.46875 28.90625 79.296875 
Q 26.953125 74.609375 24.609375 67.96875 
Q 34.375 67.96875 41.40625 68.359375 
L 41.40625 61.328125 
Q 34.375 61.71875 22.65625 61.71875 
Q 20.3125 54.296875 14.0625 39.0625 
L 24.21875 39.0625 
Q 24.21875 48.4375 23.828125 53.125 
L 32.03125 53.125 
Q 31.640625 47.65625 31.640625 39.0625 
L 41.796875 39.0625 
L 41.796875 32.8125 
L 31.640625 32.8125 
L 31.640625 19.53125 
Q 42.1875 21.484375 46.09375 22.265625 
z
M 85.15625 36.328125 
Q 82.8125 30.078125 79.6875 22.453125 
Q 76.5625 14.84375 73.046875 8.984375 
Q 76.5625 5.859375 82.8125 3.515625 
Q 89.0625 1.171875 96.875 -0.390625 
Q 93.75 -4.296875 92.96875 -8.984375 
Q 82.8125 -5.859375 76.953125 -2.53125 
Q 71.09375 0.78125 67.578125 3.90625 
Q 62.890625 -0.390625 57.609375 -3.3125 
Q 52.34375 -6.25 44.140625 -9.765625 
Q 42.578125 -5.859375 38.28125 -1.953125 
Q 47.265625 0 53.515625 3.3125 
Q 59.765625 6.640625 62.890625 9.765625 
Q 59.375 15.625 57.03125 22.265625 
L 52.34375 35.546875 
Q 55.46875 37.109375 60.15625 38.671875 
Q 62.5 29.296875 64.0625 25 
Q 65.625 20.703125 67.96875 16.015625 
Q 70.703125 19.921875 72.65625 25.96875 
Q 74.609375 32.03125 75.78125 39.453125 
Q 80.078125 37.890625 85.15625 36.328125 
z
M 80.859375 68.75 
Q 89.453125 69.140625 94.140625 69.140625 
L 94.140625 62.109375 
Q 89.453125 62.5 81.25 62.5 
L 59.375 62.5 
Q 50.78125 62.5 45.703125 62.109375 
L 45.703125 69.140625 
Q 52.34375 68.75 59.375 68.75 
z
M 64.84375 53.515625 
Q 60.546875 48.4375 49.609375 35.546875 
Q 47.265625 38.671875 43.359375 41.015625 
Q 53.515625 51.5625 57.421875 58.59375 
Q 60.546875 56.25 64.84375 53.515625 
z
M 81.25 58.59375 
Q 85.15625 54.6875 95.703125 42.96875 
Q 91.015625 39.84375 88.28125 37.5 
Q 84.765625 43.359375 74.609375 53.515625 
Q 77.734375 56.25 81.25 58.59375 
z
M 66.796875 82.8125 
Q 72.265625 76.953125 74.609375 73.046875 
Q 70.703125 71.09375 67.1875 69.140625 
Q 66.015625 72.265625 60.15625 78.90625 
Q 63.671875 80.859375 66.796875 82.8125 
z
" id="SimHei-36739"/>
     </defs>
     <use xlink:href="#SimHei-25913"/>
     <use x="100" xlink:href="#SimHei-36827"/>
     <use x="200" xlink:href="#SimHei-69"/>
     <use x="250" xlink:href="#SimHei-117"/>
     <use x="300" xlink:href="#SimHei-108"/>
     <use x="350" xlink:href="#SimHei-101"/>
     <use x="400" xlink:href="#SimHei-114"/>
     <use x="450" xlink:href="#SimHei-26041"/>
     <use x="550" xlink:href="#SimHei-27861"/>
     <use x="650" xlink:href="#SimHei-25968"/>
     <use x="750" xlink:href="#SimHei-20540"/>
     <use x="850" xlink:href="#SimHei-35299"/>
     <use x="950" xlink:href="#SimHei-19982"/>
     <use x="1050" xlink:href="#SimHei-35299"/>
     <use x="1150" xlink:href="#SimHei-26512"/>
     <use x="1250" xlink:href="#SimHei-35299"/>
     <use x="1350" xlink:href="#SimHei-30340"/>
     <use x="1450" xlink:href="#SimHei-27604"/>
     <use x="1550" xlink:href="#SimHei-36739"/>
    </g>
   </g>
   <g id="legend_2">
    <g id="patch_13">
     <path d="M 259.392727 190.344406 
L 371.392727 190.344406 
Q 373.392727 190.344406 373.392727 188.344406 
L 373.392727 160.711594 
Q 373.392727 158.711594 371.392727 158.711594 
L 259.392727 158.711594 
Q 257.392727 158.711594 257.392727 160.711594 
L 257.392727 188.344406 
Q 257.392727 190.344406 259.392727 190.344406 
z
" style="fill:#ffffff;opacity:0.8;stroke:#cccccc;stroke-linejoin:miter;"/>
    </g>
    <g id="line2d_30">
     <path d="M 261.392727 167.297531 
L 281.392727 167.297531 
" style="fill:none;stroke:#1f77b4;stroke-linecap:square;stroke-width:2;"/>
    </g>
    <g id="line2d_31"/>
    <g id="text_30">
     <!-- 改进欧拉法数值解 -->
     <g transform="translate(289.392727 170.797531)scale(0.1 -0.1)">
      <defs>
       <path d="M 16.40625 6.640625 
L 33.59375 6.640625 
Q 39.84375 6.640625 47.265625 7.03125 
L 47.265625 0.390625 
Q 40.234375 0.78125 33.59375 0.78125 
L 9.375 0.78125 
Q 9.765625 7.8125 9.765625 14.453125 
L 9.765625 57.03125 
Q 9.765625 65.234375 9.375 73.046875 
L 33.984375 73.046875 
Q 40.625 73.046875 46.875 73.4375 
L 46.875 66.796875 
Q 40.625 67.1875 33.59375 67.1875 
L 16.40625 67.1875 
L 16.40625 54.6875 
Q 18.75 56.640625 21.09375 59.375 
Q 26.5625 53.125 33.203125 42.96875 
Q 38.28125 54.296875 39.84375 61.328125 
Q 43.359375 58.59375 47.265625 57.421875 
Q 44.921875 53.90625 42.375 47.84375 
Q 39.84375 41.796875 37.5 36.71875 
Q 44.921875 25 48.828125 17.578125 
Q 44.921875 15.625 42.578125 13.28125 
Q 39.84375 19.921875 33.984375 28.90625 
Q 30.078125 21.09375 22.265625 10.15625 
Q 19.921875 12.890625 16.40625 14.0625 
z
M 73.828125 47.265625 
Q 72.265625 42.96875 72.265625 39.0625 
Q 72.265625 35.546875 72.65625 31.25 
Q 73.828125 23.828125 79.296875 14.0625 
Q 84.765625 4.296875 96.484375 -3.90625 
Q 92.1875 -5.078125 90.625 -9.765625 
Q 84.375 -4.6875 78.3125 3.3125 
Q 72.265625 11.328125 69.140625 21.09375 
Q 65.625 9.375 59.953125 1.5625 
Q 54.296875 -6.25 49.21875 -10.546875 
Q 45.3125 -7.421875 41.796875 -6.640625 
Q 48.828125 -1.5625 53.125 3.90625 
Q 57.421875 9.375 60.15625 15.625 
Q 62.5 21.875 63.671875 31.828125 
Q 64.84375 41.796875 64.453125 48.4375 
Q 69.53125 47.65625 73.828125 47.265625 
z
M 80.078125 45.703125 
Q 82.421875 53.125 83.59375 58.984375 
L 60.9375 58.984375 
Q 58.203125 49.21875 53.90625 39.453125 
Q 50.78125 42.1875 46.875 42.578125 
Q 52.34375 51.953125 54.875 62.6875 
Q 57.421875 73.4375 57.8125 82.03125 
Q 62.890625 80.46875 67.1875 80.078125 
Q 65.234375 77.34375 64.453125 73.828125 
Q 63.671875 70.3125 62.5 64.84375 
L 92.96875 64.84375 
Q 89.0625 51.171875 87.5 44.140625 
Q 83.203125 45.703125 80.078125 45.703125 
z
M 16.40625 14.453125 
Q 20.3125 18.75 23.828125 24.40625 
Q 27.34375 30.078125 29.6875 35.15625 
Q 21.875 48.828125 16.40625 54.296875 
L 16.40625 14.453125 
z
" id="SimHei-27431"/>
       <path d="M 5.46875 61.328125 
Q 9.765625 60.9375 20.703125 60.9375 
Q 20.703125 73.4375 20.3125 80.859375 
L 28.515625 80.859375 
Q 28.125 76.953125 28.125 60.9375 
Q 31.25 60.9375 37.890625 61.328125 
L 37.890625 54.296875 
Q 30.859375 54.6875 28.125 54.6875 
L 28.125 38.28125 
Q 33.984375 41.015625 37.890625 43.75 
Q 38.671875 40.234375 39.453125 37.109375 
Q 34.765625 34.765625 28.125 31.25 
L 28.125 0.78125 
Q 28.125 -4.296875 23.828125 -6.4375 
Q 19.53125 -8.59375 11.328125 -9.375 
Q 10.546875 -6.25 8.203125 -0.78125 
Q 18.75 -1.171875 19.71875 0.390625 
Q 20.703125 1.953125 20.703125 5.46875 
L 20.703125 28.125 
Q 17.1875 26.5625 8.203125 21.484375 
Q 6.25 25.78125 3.90625 28.515625 
Q 10.546875 30.859375 20.703125 35.15625 
L 20.703125 54.6875 
Q 9.375 54.6875 5.46875 54.296875 
z
M 96.484375 -3.90625 
Q 89.84375 -3.515625 84.375 -3.515625 
L 50.390625 -3.515625 
Q 41.40625 -3.515625 35.546875 -3.90625 
L 35.546875 3.125 
Q 41.015625 2.734375 50 2.734375 
L 66.796875 2.734375 
Q 69.53125 10.546875 73.234375 23.4375 
Q 76.953125 36.328125 79.6875 50.78125 
Q 83.984375 47.65625 88.671875 46.875 
Q 86.71875 44.140625 83.984375 34.375 
Q 81.25 24.609375 74.21875 2.734375 
L 84.375 2.734375 
Q 90.625 2.734375 96.484375 3.125 
z
M 41.015625 61.71875 
Q 45.703125 61.328125 51.953125 61.328125 
L 83.59375 61.328125 
Q 90.234375 61.71875 92.1875 61.71875 
L 92.1875 54.6875 
Q 90.625 55.078125 83.203125 55.078125 
L 51.953125 55.078125 
Q 49.21875 55.078125 41.015625 54.6875 
z
M 51.953125 46.875 
Q 60.546875 23.046875 64.0625 11.71875 
Q 60.15625 10.546875 55.859375 8.984375 
Q 51.953125 23.828125 44.53125 44.140625 
Q 48.046875 45.3125 51.953125 46.875 
z
M 63.28125 81.640625 
Q 68.75 71.09375 70.703125 65.625 
Q 67.578125 64.84375 62.890625 62.5 
Q 61.328125 67.96875 56.25 78.515625 
Q 58.984375 79.296875 63.28125 81.640625 
z
" id="SimHei-25289"/>
      </defs>
      <use xlink:href="#SimHei-25913"/>
      <use x="100" xlink:href="#SimHei-36827"/>
      <use x="200" xlink:href="#SimHei-27431"/>
      <use x="300" xlink:href="#SimHei-25289"/>
      <use x="400" xlink:href="#SimHei-27861"/>
      <use x="500" xlink:href="#SimHei-25968"/>
      <use x="600" xlink:href="#SimHei-20540"/>
      <use x="700" xlink:href="#SimHei-35299"/>
     </g>
    </g>
    <g id="line2d_32">
     <path d="M 261.392727 181.594406 
L 281.392727 181.594406 
" style="fill:none;stroke:#ff7f0e;stroke-dasharray:7.4,3.2;stroke-dashoffset:0;stroke-width:2;"/>
    </g>
    <g id="line2d_33"/>
    <g id="text_31">
     <!-- 解析解 -->
     <g transform="translate(289.392727 185.094406)scale(0.1 -0.1)">
      <use xlink:href="#SimHei-35299"/>
      <use x="100" xlink:href="#SimHei-26512"/>
      <use x="200" xlink:href="#SimHei-35299"/>
     </g>
    </g>
   </g>
  </g>
 </g>
 <defs>
  <clipPath id="p2089507216">
   <rect height="266.112" width="162.327273" x="57.6" y="41.472"/>
  </clipPath>
  <clipPath id="p004c6d53c3">
   <rect height="266.112" width="162.327273" x="252.392727" y="41.472"/>
  </clipPath>
 </defs>
</svg>
