<?xml version="1.0" encoding="utf-8" standalone="no"?>
<!DOCTYPE svg PUBLIC "-//W3C//DTD SVG 1.1//EN"
  "http://www.w3.org/Graphics/SVG/1.1/DTD/svg11.dtd">
<!-- Created with matplotlib (https://matplotlib.org/) -->
<svg height="345.6pt" version="1.1" viewBox="0 0 460.8 345.6" width="460.8pt" xmlns="http://www.w3.org/2000/svg" xmlns:xlink="http://www.w3.org/1999/xlink">
 <metadata>
  <rdf:RDF xmlns:cc="http://creativecommons.org/ns#" xmlns:dc="http://purl.org/dc/elements/1.1/" xmlns:rdf="http://www.w3.org/1999/02/22-rdf-syntax-ns#">
   <cc:Work>
    <dc:type rdf:resource="http://purl.org/dc/dcmitype/StillImage"/>
    <dc:date>2023-01-16T15:24:53.747070</dc:date>
    <dc:format>image/svg+xml</dc:format>
    <dc:creator>
     <cc:Agent>
      <dc:title>Matplotlib v3.3.3, https://matplotlib.org/</dc:title>
     </cc:Agent>
    </dc:creator>
   </cc:Work>
  </rdf:RDF>
 </metadata>
 <defs>
  <style type="text/css">*{stroke-linecap:butt;stroke-linejoin:round;}</style>
 </defs>
 <g id="figure_1">
  <g id="patch_1">
   <path d="M 0 345.6 
L 460.8 345.6 
L 460.8 0 
L 0 0 
z
" style="fill:#ffffff;"/>
  </g>
  <g id="axes_1">
   <g id="patch_2">
    <path d="M 57.6 307.584 
L 414.72 307.584 
L 414.72 41.472 
L 57.6 41.472 
z
" style="fill:#ffffff;"/>
   </g>
   <g id="matplotlib.axis_1">
    <g id="xtick_1">
     <g id="line2d_1">
      <defs>
       <path d="M 0 0 
L 0 3.5 
" id="m93eceea2cf" style="stroke:#000000;stroke-width:0.8;"/>
      </defs>
      <g>
       <use style="stroke:#000000;stroke-width:0.8;" x="109.905455" xlink:href="#m93eceea2cf" y="307.584"/>
      </g>
     </g>
     <g id="text_1">
      <!-- 2 -->
      <g transform="translate(107.405455 321.459)scale(0.1 -0.1)">
       <defs>
        <path d="M 4.6875 3.90625 
Q 5.078125 9.765625 10.15625 14.453125 
Q 15.234375 19.140625 23.046875 29.09375 
Q 30.859375 39.0625 33.203125 44.53125 
Q 35.546875 50 34.953125 53.90625 
Q 34.375 57.8125 31.25 60.34375 
Q 28.125 62.890625 24.015625 62.5 
Q 19.921875 62.109375 16.203125 59.375 
Q 12.5 56.640625 10.546875 51.171875 
L 3.125 52.34375 
Q 6.25 61.328125 11.125 65.421875 
Q 16.015625 69.53125 22.65625 69.921875 
Q 26.5625 70.3125 29.6875 69.71875 
Q 32.8125 69.140625 36.125 66.984375 
Q 39.453125 64.84375 41.59375 60.546875 
Q 43.75 56.25 43.15625 50.1875 
Q 42.578125 44.140625 37.109375 35.734375 
Q 31.640625 27.34375 16.015625 9.375 
L 44.140625 9.375 
L 44.140625 2.34375 
L 4.6875 2.34375 
z
" id="SimHei-50"/>
       </defs>
       <use xlink:href="#SimHei-50"/>
      </g>
     </g>
    </g>
    <g id="xtick_2">
     <g id="line2d_2">
      <g>
       <use style="stroke:#000000;stroke-width:0.8;" x="182.050909" xlink:href="#m93eceea2cf" y="307.584"/>
      </g>
     </g>
     <g id="text_2">
      <!-- 4 -->
      <g transform="translate(179.550909 321.459)scale(0.1 -0.1)">
       <defs>
        <path d="M 31.25 17.1875 
L 1.171875 17.1875 
L 1.171875 23.828125 
L 32.8125 69.53125 
L 38.671875 69.53125 
L 38.671875 23.828125 
L 48.046875 23.828125 
L 48.046875 17.1875 
L 38.671875 17.1875 
L 38.671875 2.34375 
L 31.25 2.34375 
z
M 31.25 23.828125 
L 31.25 54.6875 
L 9.375 23.828125 
z
" id="SimHei-52"/>
       </defs>
       <use xlink:href="#SimHei-52"/>
      </g>
     </g>
    </g>
    <g id="xtick_3">
     <g id="line2d_3">
      <g>
       <use style="stroke:#000000;stroke-width:0.8;" x="254.196364" xlink:href="#m93eceea2cf" y="307.584"/>
      </g>
     </g>
     <g id="text_3">
      <!-- 6 -->
      <g transform="translate(251.696364 321.459)scale(0.1 -0.1)">
       <defs>
        <path d="M 3.515625 19.53125 
Q 4.296875 30.859375 6.046875 34.765625 
Q 7.8125 38.671875 11.328125 44.53125 
L 27.34375 69.53125 
L 36.328125 69.53125 
L 19.921875 43.75 
Q 30.46875 46.484375 36.71875 42.96875 
Q 42.96875 39.453125 45.109375 34.953125 
Q 47.265625 30.46875 47.453125 25.1875 
Q 47.65625 19.921875 45.890625 14.84375 
Q 44.140625 9.765625 39.640625 5.65625 
Q 35.15625 1.5625 27.140625 1.171875 
Q 19.140625 0.78125 13.46875 4.09375 
Q 7.8125 7.421875 5.65625 13.46875 
Q 3.515625 19.53125 4.296875 30.859375 
z
M 12.5 16.015625 
Q 19.53125 8.59375 25.390625 8.203125 
Q 31.25 7.8125 35.15625 12.109375 
Q 39.0625 16.40625 39.0625 24.609375 
Q 39.0625 32.8125 34.171875 35.9375 
Q 29.296875 39.0625 23.234375 38.28125 
Q 17.1875 37.5 14.453125 32.421875 
Q 11.71875 27.34375 12.109375 21.671875 
Q 12.5 16.015625 19.53125 8.59375 
z
" id="SimHei-54"/>
       </defs>
       <use xlink:href="#SimHei-54"/>
      </g>
     </g>
    </g>
    <g id="xtick_4">
     <g id="line2d_4">
      <g>
       <use style="stroke:#000000;stroke-width:0.8;" x="326.341818" xlink:href="#m93eceea2cf" y="307.584"/>
      </g>
     </g>
     <g id="text_4">
      <!-- 8 -->
      <g transform="translate(323.841818 321.459)scale(0.1 -0.1)">
       <defs>
        <path d="M 2.734375 16.796875 
Q 2.734375 26.171875 5.078125 30.65625 
Q 7.421875 35.15625 12.890625 37.890625 
Q 8.203125 40.625 6.640625 43.9375 
Q 5.078125 47.265625 4.875 51.5625 
Q 4.6875 55.859375 6.046875 58.984375 
Q 7.421875 62.109375 10.15625 64.84375 
Q 12.890625 67.578125 16.203125 68.546875 
Q 19.53125 69.53125 23.4375 69.53125 
Q 27.34375 69.53125 30.46875 68.75 
Q 33.59375 67.96875 37.109375 65.421875 
Q 40.625 62.890625 42.1875 58.203125 
Q 43.75 53.515625 41.984375 47.265625 
Q 40.234375 41.015625 32.8125 37.5 
Q 39.453125 35.546875 42.1875 31.4375 
Q 44.921875 27.34375 44.921875 21.484375 
Q 44.921875 15.625 43.15625 12.109375 
Q 41.40625 8.59375 39.25 6.25 
Q 37.109375 3.90625 33.390625 2.53125 
Q 29.6875 1.171875 24.015625 1.171875 
Q 18.359375 1.171875 14.25 2.53125 
Q 10.15625 3.90625 7.421875 6.640625 
Q 4.6875 9.375 3.703125 13.078125 
Q 2.734375 16.796875 2.734375 26.171875 
z
M 10.9375 26.5625 
Q 10.546875 17.1875 12.296875 13.671875 
Q 14.0625 10.15625 18.75 9.171875 
Q 23.4375 8.203125 28.515625 9.375 
Q 33.59375 10.546875 35.546875 14.84375 
Q 37.5 19.140625 36.90625 23.4375 
Q 36.328125 27.734375 32.03125 30.65625 
Q 27.734375 33.59375 22.65625 33.203125 
Q 17.578125 32.8125 14.25 29.6875 
Q 10.9375 26.5625 10.546875 17.1875 
z
M 12.109375 56.25 
Q 12.109375 48.4375 14.84375 44.921875 
Q 17.578125 41.40625 23.4375 41.40625 
Q 29.296875 41.40625 32.21875 44.921875 
Q 35.15625 48.4375 34.953125 53.3125 
Q 34.765625 58.203125 31.4375 60.546875 
Q 28.125 62.890625 22.453125 62.5 
Q 16.796875 62.109375 14.453125 59.171875 
Q 12.109375 56.25 12.109375 48.4375 
z
" id="SimHei-56"/>
       </defs>
       <use xlink:href="#SimHei-56"/>
      </g>
     </g>
    </g>
    <g id="xtick_5">
     <g id="line2d_5">
      <g>
       <use style="stroke:#000000;stroke-width:0.8;" x="398.487273" xlink:href="#m93eceea2cf" y="307.584"/>
      </g>
     </g>
     <g id="text_5">
      <!-- 10 -->
      <g transform="translate(393.487273 321.459)scale(0.1 -0.1)">
       <defs>
        <path d="M 21.875 56.25 
Q 16.796875 51.171875 8.984375 46.484375 
L 8.984375 53.90625 
Q 18.75 60.546875 25 69.53125 
L 29.6875 69.53125 
L 29.6875 2.34375 
L 21.875 2.34375 
z
" id="SimHei-49"/>
        <path d="M 3.125 29.296875 
Q 3.90625 50 6.4375 56.046875 
Q 8.984375 62.109375 13.671875 66.015625 
Q 18.359375 69.921875 25.1875 69.921875 
Q 32.03125 69.921875 37.109375 64.25 
Q 42.1875 58.59375 43.75 50 
Q 45.3125 41.40625 44.71875 30.265625 
Q 44.140625 19.140625 40.8125 12.109375 
Q 37.5 5.078125 30.859375 2.34375 
Q 24.21875 -0.390625 17.578125 2.921875 
Q 10.9375 6.25 8.203125 11.71875 
Q 5.46875 17.1875 4.296875 23.234375 
Q 3.125 29.296875 3.90625 50 
z
M 12.890625 52.734375 
Q 10.546875 31.25 12.5 22.84375 
Q 14.453125 14.453125 18.9375 10.9375 
Q 23.4375 7.421875 28.125 9.5625 
Q 32.8125 11.71875 34.953125 18.15625 
Q 37.109375 24.609375 37.109375 32.21875 
Q 37.109375 39.84375 36.515625 46.09375 
Q 35.9375 52.34375 33 57.421875 
Q 30.078125 62.5 25.1875 62.6875 
Q 20.3125 62.890625 16.59375 57.8125 
Q 12.890625 52.734375 10.546875 31.25 
z
" id="SimHei-48"/>
       </defs>
       <use xlink:href="#SimHei-49"/>
       <use x="50" xlink:href="#SimHei-48"/>
      </g>
     </g>
    </g>
    <g id="text_6">
     <!-- t(min) -->
     <g transform="translate(221.16 334.013687)scale(0.1 -0.1)">
      <defs>
       <path d="M 42.96875 3.125 
Q 41.015625 2.34375 38.46875 1.75 
Q 35.9375 1.171875 31.640625 1.171875 
Q 24.609375 1.171875 20.3125 5.078125 
Q 16.015625 8.984375 16.015625 16.015625 
L 16.015625 39.453125 
L 2.734375 39.453125 
L 2.734375 45.703125 
L 16.015625 45.703125 
L 16.015625 60.9375 
L 23.828125 60.9375 
L 23.828125 45.703125 
L 39.84375 45.703125 
L 39.84375 39.453125 
L 23.828125 39.453125 
L 23.828125 15.625 
Q 23.828125 12.5 25.390625 10.34375 
Q 26.953125 8.203125 31.25 8.203125 
Q 35.546875 8.203125 38.28125 8.984375 
Q 41.015625 9.765625 42.96875 10.9375 
z
" id="SimHei-116"/>
       <path d="M 46.484375 -3.125 
L 42.1875 -7.421875 
Q 32.421875 1.953125 27.53125 12.109375 
Q 22.65625 22.265625 22.65625 35.15625 
Q 22.65625 48.046875 27.53125 58.203125 
Q 32.421875 68.359375 42.1875 78.125 
L 46.484375 73.828125 
Q 37.5 65.234375 33 56.046875 
Q 28.515625 46.875 28.515625 35.15625 
Q 28.515625 23.4375 33 14.25 
Q 37.5 5.078125 46.484375 -3.125 
z
" id="SimHei-40"/>
       <path d="M 47.65625 1.953125 
L 39.84375 1.953125 
L 39.84375 33.59375 
Q 39.84375 35.9375 39.0625 37.5 
Q 38.28125 39.0625 35.9375 39.0625 
Q 33.203125 39.0625 30.859375 36.125 
Q 28.515625 33.203125 28.515625 28.515625 
L 28.515625 1.953125 
L 20.703125 1.953125 
L 20.703125 33.59375 
Q 20.703125 35.9375 19.921875 37.5 
Q 19.140625 39.0625 16.796875 39.0625 
Q 14.0625 39.0625 11.71875 36.125 
Q 9.375 33.203125 9.375 28.515625 
L 9.375 1.953125 
L 1.5625 1.953125 
L 1.5625 45.703125 
L 9.375 45.703125 
L 9.375 39.84375 
Q 11.328125 42.96875 14.0625 44.71875 
Q 16.796875 46.484375 19.921875 46.484375 
Q 23.046875 46.484375 25.1875 44.71875 
Q 27.34375 42.96875 28.125 39.84375 
Q 30.078125 42.96875 32.609375 44.71875 
Q 35.15625 46.484375 38.28125 46.484375 
Q 42.96875 46.484375 45.3125 43.9375 
Q 47.65625 41.40625 47.65625 36.71875 
z
" id="SimHei-109"/>
       <path d="M 28.125 58.203125 
L 20.3125 58.203125 
L 20.3125 68.359375 
L 28.125 68.359375 
z
M 28.125 1.953125 
L 20.3125 1.953125 
L 20.3125 45.703125 
L 28.125 45.703125 
z
" id="SimHei-105"/>
       <path d="M 43.75 1.953125 
L 35.9375 1.953125 
L 35.9375 30.078125 
Q 35.9375 34.765625 33.59375 37.5 
Q 31.25 40.234375 27.34375 40.234375 
Q 22.265625 40.234375 17.765625 34.953125 
Q 13.28125 29.6875 13.28125 21.875 
L 13.28125 1.953125 
L 5.46875 1.953125 
L 5.46875 45.703125 
L 13.28125 45.703125 
L 13.28125 37.5 
Q 16.40625 41.796875 20.109375 44.140625 
Q 23.828125 46.484375 29.6875 46.484375 
Q 36.71875 46.484375 40.234375 42.578125 
Q 43.75 38.671875 43.75 32.8125 
z
" id="SimHei-110"/>
       <path d="M 26.171875 35.15625 
Q 26.171875 22.265625 21.28125 12.109375 
Q 16.40625 1.953125 6.640625 -7.421875 
L 2.34375 -3.125 
Q 11.328125 5.078125 15.8125 14.25 
Q 20.3125 23.4375 20.3125 35.15625 
Q 20.3125 46.875 15.8125 56.046875 
Q 11.328125 65.234375 2.34375 73.828125 
L 6.640625 78.125 
Q 16.40625 68.359375 21.28125 58.203125 
Q 26.171875 48.046875 26.171875 35.15625 
z
" id="SimHei-41"/>
      </defs>
      <use xlink:href="#SimHei-116"/>
      <use x="50" xlink:href="#SimHei-40"/>
      <use x="100" xlink:href="#SimHei-109"/>
      <use x="150" xlink:href="#SimHei-105"/>
      <use x="200" xlink:href="#SimHei-110"/>
      <use x="250" xlink:href="#SimHei-41"/>
     </g>
    </g>
   </g>
   <g id="matplotlib.axis_2">
    <g id="ytick_1">
     <g id="line2d_6">
      <defs>
       <path d="M 0 0 
L -3.5 0 
" id="m01b54664ac" style="stroke:#000000;stroke-width:0.8;"/>
      </defs>
      <g>
       <use style="stroke:#000000;stroke-width:0.8;" x="57.6" xlink:href="#m01b54664ac" y="285.995112"/>
      </g>
     </g>
     <g id="text_7">
      <!-- 4 -->
      <g transform="translate(45.6 289.432612)scale(0.1 -0.1)">
       <use xlink:href="#SimHei-52"/>
      </g>
     </g>
    </g>
    <g id="ytick_2">
     <g id="line2d_7">
      <g>
       <use style="stroke:#000000;stroke-width:0.8;" x="57.6" xlink:href="#m01b54664ac" y="252.255946"/>
      </g>
     </g>
     <g id="text_8">
      <!-- 5 -->
      <g transform="translate(45.6 255.693446)scale(0.1 -0.1)">
       <defs>
        <path d="M 8.59375 20.703125 
Q 11.328125 10.15625 17.96875 8.984375 
Q 24.609375 7.8125 28.703125 10.34375 
Q 32.8125 12.890625 34.5625 16.984375 
Q 36.328125 21.09375 36.125 26.171875 
Q 35.9375 31.25 33.390625 34.765625 
Q 30.859375 38.28125 26.953125 39.453125 
Q 23.046875 40.625 18.15625 39.453125 
Q 13.28125 38.28125 10.15625 33.984375 
L 3.515625 34.765625 
Q 4.296875 37.109375 10.9375 68.359375 
L 41.796875 68.359375 
L 41.796875 61.328125 
L 16.796875 61.328125 
Q 14.84375 50.78125 12.890625 44.53125 
Q 18.75 47.265625 23.828125 47.0625 
Q 28.90625 46.875 33.59375 44.71875 
Q 38.28125 42.578125 40.421875 38.859375 
Q 42.578125 35.15625 43.546875 31.4375 
Q 44.53125 27.734375 44.328125 23.4375 
Q 44.140625 19.140625 42.578125 14.640625 
Q 41.015625 10.15625 37.890625 7.21875 
Q 34.765625 4.296875 30.265625 2.53125 
Q 25.78125 0.78125 19.921875 1.171875 
Q 14.0625 1.5625 8.78125 5.46875 
Q 3.515625 9.375 1.5625 18.75 
z
" id="SimHei-53"/>
       </defs>
       <use xlink:href="#SimHei-53"/>
      </g>
     </g>
    </g>
    <g id="ytick_3">
     <g id="line2d_8">
      <g>
       <use style="stroke:#000000;stroke-width:0.8;" x="57.6" xlink:href="#m01b54664ac" y="218.51678"/>
      </g>
     </g>
     <g id="text_9">
      <!-- 6 -->
      <g transform="translate(45.6 221.95428)scale(0.1 -0.1)">
       <use xlink:href="#SimHei-54"/>
      </g>
     </g>
    </g>
    <g id="ytick_4">
     <g id="line2d_9">
      <g>
       <use style="stroke:#000000;stroke-width:0.8;" x="57.6" xlink:href="#m01b54664ac" y="184.777614"/>
      </g>
     </g>
     <g id="text_10">
      <!-- 7 -->
      <g transform="translate(45.6 188.215114)scale(0.1 -0.1)">
       <defs>
        <path d="M 13.28125 2.34375 
Q 20.3125 32.03125 37.890625 61.328125 
L 4.296875 61.328125 
L 4.296875 68.359375 
L 46.09375 68.359375 
L 46.09375 61.71875 
Q 27.734375 32.03125 21.875 2.34375 
L 13.28125 2.34375 
z
" id="SimHei-55"/>
       </defs>
       <use xlink:href="#SimHei-55"/>
      </g>
     </g>
    </g>
    <g id="ytick_5">
     <g id="line2d_10">
      <g>
       <use style="stroke:#000000;stroke-width:0.8;" x="57.6" xlink:href="#m01b54664ac" y="151.038448"/>
      </g>
     </g>
     <g id="text_11">
      <!-- 8 -->
      <g transform="translate(45.6 154.475948)scale(0.1 -0.1)">
       <use xlink:href="#SimHei-56"/>
      </g>
     </g>
    </g>
    <g id="ytick_6">
     <g id="line2d_11">
      <g>
       <use style="stroke:#000000;stroke-width:0.8;" x="57.6" xlink:href="#m01b54664ac" y="117.299282"/>
      </g>
     </g>
     <g id="text_12">
      <!-- 9 -->
      <g transform="translate(45.6 120.736782)scale(0.1 -0.1)">
       <defs>
        <path d="M 12.5 1.171875 
Q 21.09375 15.625 26.5625 27.34375 
Q 16.796875 25.78125 10.34375 29.875 
Q 3.90625 33.984375 2.53125 41.015625 
Q 1.171875 48.046875 2.734375 53.703125 
Q 4.296875 59.375 7.609375 63.078125 
Q 10.9375 66.796875 15.625 68.359375 
Q 20.3125 69.921875 24.015625 69.921875 
Q 27.734375 69.921875 31.640625 68.359375 
Q 35.546875 66.796875 38.671875 63.671875 
Q 41.796875 60.546875 42.96875 57.21875 
Q 44.140625 53.90625 44.140625 48.625 
Q 44.140625 43.359375 40.234375 35.15625 
Q 36.328125 26.953125 21.09375 1.171875 
z
M 9.765625 50 
Q 10.9375 39.84375 14.640625 36.515625 
Q 18.359375 33.203125 22.65625 33.59375 
Q 26.953125 33.984375 29.484375 35.9375 
Q 32.03125 37.890625 34.375 42.578125 
Q 35.9375 48.4375 35.15625 52.53125 
Q 34.375 56.640625 31.046875 59.375 
Q 27.734375 62.109375 23.828125 62.109375 
Q 21.484375 62.5 17.765625 60.9375 
Q 14.0625 59.375 11.90625 54.6875 
Q 9.765625 50 10.9375 39.84375 
z
" id="SimHei-57"/>
       </defs>
       <use xlink:href="#SimHei-57"/>
      </g>
     </g>
    </g>
    <g id="ytick_7">
     <g id="line2d_12">
      <g>
       <use style="stroke:#000000;stroke-width:0.8;" x="57.6" xlink:href="#m01b54664ac" y="83.560116"/>
      </g>
     </g>
     <g id="text_13">
      <!-- 10 -->
      <g transform="translate(40.6 86.997616)scale(0.1 -0.1)">
       <use xlink:href="#SimHei-49"/>
       <use x="50" xlink:href="#SimHei-48"/>
      </g>
     </g>
    </g>
    <g id="ytick_8">
     <g id="line2d_13">
      <g>
       <use style="stroke:#000000;stroke-width:0.8;" x="57.6" xlink:href="#m01b54664ac" y="49.82095"/>
      </g>
     </g>
     <g id="text_14">
      <!-- 11 -->
      <g transform="translate(40.6 53.25845)scale(0.1 -0.1)">
       <use xlink:href="#SimHei-49"/>
       <use x="50" xlink:href="#SimHei-49"/>
      </g>
     </g>
    </g>
    <g id="text_15">
     <!-- $10^3$ g/cm$^3$ -->
     <g transform="translate(35.3 198.228)rotate(-90)scale(0.1 -0.1)">
      <defs>
       <path d="M 12.40625 8.296875 
L 28.515625 8.296875 
L 28.515625 63.921875 
L 10.984375 60.40625 
L 10.984375 69.390625 
L 28.421875 72.90625 
L 38.28125 72.90625 
L 38.28125 8.296875 
L 54.390625 8.296875 
L 54.390625 0 
L 12.40625 0 
z
" id="DejaVuSans-49"/>
       <path d="M 31.78125 66.40625 
Q 24.171875 66.40625 20.328125 58.90625 
Q 16.5 51.421875 16.5 36.375 
Q 16.5 21.390625 20.328125 13.890625 
Q 24.171875 6.390625 31.78125 6.390625 
Q 39.453125 6.390625 43.28125 13.890625 
Q 47.125 21.390625 47.125 36.375 
Q 47.125 51.421875 43.28125 58.90625 
Q 39.453125 66.40625 31.78125 66.40625 
z
M 31.78125 74.21875 
Q 44.046875 74.21875 50.515625 64.515625 
Q 56.984375 54.828125 56.984375 36.375 
Q 56.984375 17.96875 50.515625 8.265625 
Q 44.046875 -1.421875 31.78125 -1.421875 
Q 19.53125 -1.421875 13.0625 8.265625 
Q 6.59375 17.96875 6.59375 36.375 
Q 6.59375 54.828125 13.0625 64.515625 
Q 19.53125 74.21875 31.78125 74.21875 
z
" id="DejaVuSans-48"/>
       <path d="M 40.578125 39.3125 
Q 47.65625 37.796875 51.625 33 
Q 55.609375 28.21875 55.609375 21.1875 
Q 55.609375 10.40625 48.1875 4.484375 
Q 40.765625 -1.421875 27.09375 -1.421875 
Q 22.515625 -1.421875 17.65625 -0.515625 
Q 12.796875 0.390625 7.625 2.203125 
L 7.625 11.71875 
Q 11.71875 9.328125 16.59375 8.109375 
Q 21.484375 6.890625 26.8125 6.890625 
Q 36.078125 6.890625 40.9375 10.546875 
Q 45.796875 14.203125 45.796875 21.1875 
Q 45.796875 27.640625 41.28125 31.265625 
Q 36.765625 34.90625 28.71875 34.90625 
L 20.21875 34.90625 
L 20.21875 43.015625 
L 29.109375 43.015625 
Q 36.375 43.015625 40.234375 45.921875 
Q 44.09375 48.828125 44.09375 54.296875 
Q 44.09375 59.90625 40.109375 62.90625 
Q 36.140625 65.921875 28.71875 65.921875 
Q 24.65625 65.921875 20.015625 65.03125 
Q 15.375 64.15625 9.8125 62.3125 
L 9.8125 71.09375 
Q 15.4375 72.65625 20.34375 73.4375 
Q 25.25 74.21875 29.59375 74.21875 
Q 40.828125 74.21875 47.359375 69.109375 
Q 53.90625 64.015625 53.90625 55.328125 
Q 53.90625 49.265625 50.4375 45.09375 
Q 46.96875 40.921875 40.578125 39.3125 
z
" id="DejaVuSans-51"/>
       <path id="SimHei-32"/>
       <path d="M 46.484375 39.0625 
Q 43.75 39.84375 41.203125 40.03125 
Q 38.671875 40.234375 35.9375 39.453125 
Q 37.109375 38.28125 37.890625 36.515625 
Q 38.671875 34.765625 38.671875 31.25 
Q 38.671875 24.609375 34.171875 20.3125 
Q 29.6875 16.015625 23.046875 16.015625 
Q 21.484375 16.015625 18.9375 16.59375 
Q 16.40625 17.1875 14.84375 17.96875 
Q 13.671875 17.1875 13.28125 16.40625 
Q 12.890625 15.625 12.890625 14.453125 
Q 12.890625 12.5 15.625 11.515625 
Q 18.359375 10.546875 25.390625 10.546875 
Q 36.71875 10.546875 40.8125 7.421875 
Q 44.921875 4.296875 44.921875 -0.390625 
Q 44.921875 -6.640625 38.859375 -9.5625 
Q 32.8125 -12.5 24.609375 -12.5 
Q 14.0625 -12.5 8.984375 -9.765625 
Q 3.90625 -7.03125 3.90625 -2.34375 
Q 3.90625 0 5.859375 2.34375 
Q 7.8125 4.6875 10.9375 6.25 
Q 8.59375 7.421875 7.21875 9.171875 
Q 5.859375 10.9375 5.859375 13.671875 
Q 5.859375 16.015625 7.609375 17.765625 
Q 9.375 19.53125 11.71875 20.703125 
Q 9.765625 22.65625 8.59375 25.390625 
Q 7.421875 28.125 7.421875 31.25 
Q 7.421875 37.890625 11.90625 42.1875 
Q 16.40625 46.484375 23.046875 46.484375 
Q 26.5625 46.484375 29.09375 45.5 
Q 31.640625 44.53125 33.59375 42.578125 
Q 36.71875 44.921875 39.84375 45.890625 
Q 42.96875 46.875 46.484375 46.484375 
z
M 30.859375 31.25 
Q 30.859375 35.15625 28.90625 37.5 
Q 26.953125 39.84375 23.046875 39.84375 
Q 19.140625 39.84375 17.1875 37.5 
Q 15.234375 35.15625 15.234375 31.25 
Q 15.234375 27.34375 17.1875 25 
Q 19.140625 22.65625 23.046875 22.65625 
Q 26.953125 22.65625 28.90625 25 
Q 30.859375 27.34375 30.859375 31.25 
z
M 37.5 -1.171875 
Q 37.5 0.390625 35.734375 1.953125 
Q 33.984375 3.515625 26.953125 3.515625 
Q 25.390625 3.515625 22.65625 3.703125 
Q 19.921875 3.90625 16.40625 4.296875 
Q 13.28125 3.125 12.109375 1.5625 
Q 10.9375 0 10.9375 -1.5625 
Q 10.9375 -3.90625 14.0625 -5.46875 
Q 17.1875 -7.03125 25 -7.03125 
Q 31.640625 -7.03125 34.5625 -5.265625 
Q 37.5 -3.515625 37.5 -1.171875 
z
" id="SimHei-103"/>
       <path d="M 46.875 71.09375 
L 5.46875 -2.734375 
L 1.5625 -0.390625 
L 42.96875 73.4375 
z
" id="SimHei-47"/>
       <path d="M 44.53125 19.53125 
Q 44.53125 11.328125 38.859375 6.25 
Q 33.203125 1.171875 24.609375 1.171875 
Q 16.015625 1.171875 9.765625 7.21875 
Q 3.515625 13.28125 3.515625 23.828125 
Q 3.515625 34.375 9.765625 40.421875 
Q 16.015625 46.484375 24.609375 46.484375 
Q 33.203125 46.484375 38.28125 41.984375 
Q 43.359375 37.5 43.359375 31.25 
L 34.765625 31.25 
Q 34.375 35.9375 31.4375 37.6875 
Q 28.515625 39.453125 24.609375 39.453125 
Q 19.921875 39.453125 16.015625 35.734375 
Q 12.109375 32.03125 12.109375 23.828125 
Q 12.109375 15.625 16.015625 11.90625 
Q 19.921875 8.203125 24.609375 8.203125 
Q 29.6875 8.203125 32.8125 10.9375 
Q 35.9375 13.671875 35.9375 19.53125 
z
" id="SimHei-99"/>
      </defs>
      <use transform="translate(0 0.765625)" xlink:href="#DejaVuSans-49"/>
      <use transform="translate(63.623047 0.765625)" xlink:href="#DejaVuSans-48"/>
      <use transform="translate(128.203125 39.046875)scale(0.7)" xlink:href="#DejaVuSans-51"/>
      <use transform="translate(175.473633 0.765625)" xlink:href="#SimHei-32"/>
      <use transform="translate(225.473633 0.765625)" xlink:href="#SimHei-103"/>
      <use transform="translate(275.473633 0.765625)" xlink:href="#SimHei-47"/>
      <use transform="translate(325.473633 0.765625)" xlink:href="#SimHei-99"/>
      <use transform="translate(375.473633 0.765625)" xlink:href="#SimHei-109"/>
      <use transform="translate(426.430664 39.046875)scale(0.7)" xlink:href="#DejaVuSans-51"/>
     </g>
    </g>
   </g>
   <g id="line2d_14">
    <defs>
     <path d="M 0 2.5 
C 0.663008 2.5 1.29895 2.236584 1.767767 1.767767 
C 2.236584 1.29895 2.5 0.663008 2.5 0 
C 2.5 -0.663008 2.236584 -1.29895 1.767767 -1.767767 
C 1.29895 -2.236584 0.663008 -2.5 0 -2.5 
C -0.663008 -2.5 -1.29895 -2.236584 -1.767767 -1.767767 
C -2.236584 -1.29895 -2.5 -0.663008 -2.5 0 
C -2.5 0.663008 -2.236584 1.29895 -1.767767 1.767767 
C -1.29895 2.236584 -0.663008 2.5 0 2.5 
z
" id="m59a003d7c5" style="stroke:#ff0000;"/>
    </defs>
    <g clip-path="url(#p21fc66a27c)">
     <use style="fill:#ff0000;stroke:#ff0000;" x="73.832727" xlink:href="#m59a003d7c5" y="285.995112"/>
     <use style="fill:#ff0000;stroke:#ff0000;" x="109.905455" xlink:href="#m59a003d7c5" y="204.683722"/>
     <use style="fill:#ff0000;stroke:#ff0000;" x="145.978182" xlink:href="#m59a003d7c5" y="150.701056"/>
     <use style="fill:#ff0000;stroke:#ff0000;" x="182.050909" xlink:href="#m59a003d7c5" y="124.384507"/>
     <use style="fill:#ff0000;stroke:#ff0000;" x="218.123636" xlink:href="#m59a003d7c5" y="99.417524"/>
     <use style="fill:#ff0000;stroke:#ff0000;" x="254.196364" xlink:href="#m59a003d7c5" y="88.283599"/>
     <use style="fill:#ff0000;stroke:#ff0000;" x="290.269091" xlink:href="#m59a003d7c5" y="72.426191"/>
     <use style="fill:#ff0000;stroke:#ff0000;" x="326.341818" xlink:href="#m59a003d7c5" y="69.389666"/>
     <use style="fill:#ff0000;stroke:#ff0000;" x="362.414545" xlink:href="#m59a003d7c5" y="65.678358"/>
     <use style="fill:#ff0000;stroke:#ff0000;" x="398.487273" xlink:href="#m59a003d7c5" y="62.979225"/>
    </g>
   </g>
   <g id="line2d_15">
    <path clip-path="url(#p21fc66a27c)" d="M 73.832727 268.098018 
L 81.989877 255.1619 
L 90.147026 242.641542 
L 98.304175 230.536944 
L 106.461325 218.848107 
L 114.618474 207.575029 
L 122.775624 196.717712 
L 130.932773 186.276155 
L 139.089922 176.250359 
L 147.247072 166.640322 
L 155.404221 157.446046 
L 161.929941 150.389973 
L 168.45566 143.599986 
L 174.98138 137.076085 
L 181.507099 130.818271 
L 188.032819 124.826544 
L 194.558538 119.100903 
L 201.084258 113.641349 
L 207.609977 108.447881 
L 214.135697 103.5205 
L 220.661416 98.859206 
L 227.187136 94.463998 
L 233.712855 90.334876 
L 240.238575 86.471842 
L 246.764294 82.874893 
L 253.290014 79.544031 
L 259.815733 76.479256 
L 266.341453 73.680568 
L 272.867172 71.147966 
L 279.392892 68.88145 
L 285.918611 66.881021 
L 292.444331 65.146679 
L 298.97005 63.678423 
L 305.49577 62.476253 
L 312.021489 61.540171 
L 318.547209 60.870174 
L 325.072928 60.466265 
L 331.598648 60.328442 
L 338.124367 60.456705 
L 344.650087 60.851055 
L 351.175806 61.511492 
L 357.701526 62.438015 
L 364.227245 63.630624 
L 370.752965 65.089321 
L 377.278684 66.814103 
L 383.804404 68.804973 
L 390.330123 71.061929 
L 396.855843 73.584971 
L 398.487273 74.257308 
L 398.487273 74.257308 
" style="fill:none;stroke:#1f77b4;stroke-dasharray:7.4,3.2;stroke-dashoffset:0;stroke-width:2;"/>
   </g>
   <g id="line2d_16">
    <path clip-path="url(#p21fc66a27c)" d="M 73.832727 295.488 
L 77.095587 282.704696 
L 80.358447 270.866373 
L 83.621307 259.90813 
L 86.884166 249.759918 
L 90.147026 240.352229 
L 93.409886 231.619022 
L 96.672746 223.499078 
L 99.935605 215.936477 
L 103.198465 208.880588 
L 106.461325 202.285806 
L 109.724185 196.111179 
L 112.987044 190.319981 
L 116.249904 184.879283 
L 119.512764 179.759558 
L 122.775624 174.934298 
L 127.669913 168.197074 
L 132.564203 161.99871 
L 137.458492 156.278666 
L 142.352782 150.984854 
L 147.247072 146.072278 
L 152.141361 141.501908 
L 157.035651 137.239751 
L 161.929941 133.256091 
L 166.82423 129.524847 
L 171.71852 126.023048 
L 178.244239 121.676141 
L 184.769959 117.659384 
L 191.295678 113.936862 
L 197.821398 110.477635 
L 204.347117 107.25492 
L 210.872837 104.245418 
L 219.029986 100.752601 
L 227.187136 97.526925 
L 235.344285 94.539016 
L 243.501434 91.763632 
L 253.290014 88.68321 
L 263.078593 85.845264 
L 272.867172 83.222341 
L 284.287181 80.4029 
L 295.70719 77.812609 
L 308.75863 75.098706 
L 321.810069 72.615605 
L 336.492937 70.063082 
L 351.175806 67.733566 
L 367.490105 65.372919 
L 385.435834 63.016509 
L 398.487273 61.441384 
L 398.487273 61.441384 
" style="fill:none;stroke:#ff7f0e;stroke-dasharray:7.4,3.2;stroke-dashoffset:0;stroke-width:2;"/>
   </g>
   <g id="line2d_17">
    <path clip-path="url(#p21fc66a27c)" d="M 73.832727 275.204518 
L 77.095587 266.623536 
L 80.358447 258.525531 
L 83.621307 250.870843 
L 86.884166 243.624039 
L 90.147026 236.753363 
L 95.041316 227.090934 
L 99.935605 218.126427 
L 104.829895 209.786861 
L 109.724185 202.009088 
L 114.618474 194.73819 
L 119.512764 187.926182 
L 124.407053 181.530948 
L 129.301343 175.515377 
L 134.195633 169.846632 
L 139.089922 164.495562 
L 143.984212 159.436189 
L 148.878502 154.645296 
L 153.772791 150.102064 
L 160.298511 144.397585 
L 166.82423 139.060937 
L 173.34995 134.057654 
L 179.875669 129.357446 
L 186.401389 124.933584 
L 192.927108 120.762393 
L 199.452828 116.822826 
L 207.609977 112.195683 
L 215.767127 107.868873 
L 223.924276 103.814074 
L 232.081425 100.006417 
L 240.238575 96.423976 
L 250.027154 92.395161 
L 259.815733 88.63335 
L 269.604312 85.112852 
L 279.392892 81.811169 
L 290.812901 78.209499 
L 302.23291 74.85134 
L 313.652919 71.712805 
L 326.704358 68.368193 
L 339.755797 65.256181 
L 354.438666 62.004123 
L 369.121535 58.988038 
L 385.435834 55.883562 
L 398.487273 53.568 
L 398.487273 53.568 
" style="fill:none;stroke:#2ca02c;stroke-dasharray:7.4,3.2;stroke-dashoffset:0;stroke-width:2;"/>
   </g>
   <g id="patch_3">
    <path d="M 57.6 307.584 
L 57.6 41.472 
" style="fill:none;stroke:#000000;stroke-linecap:square;stroke-linejoin:miter;stroke-width:0.8;"/>
   </g>
   <g id="patch_4">
    <path d="M 414.72 307.584 
L 414.72 41.472 
" style="fill:none;stroke:#000000;stroke-linecap:square;stroke-linejoin:miter;stroke-width:0.8;"/>
   </g>
   <g id="patch_5">
    <path d="M 57.6 307.584 
L 414.72 307.584 
" style="fill:none;stroke:#000000;stroke-linecap:square;stroke-linejoin:miter;stroke-width:0.8;"/>
   </g>
   <g id="patch_6">
    <path d="M 57.6 41.472 
L 414.72 41.472 
" style="fill:none;stroke:#000000;stroke-linecap:square;stroke-linejoin:miter;stroke-width:0.8;"/>
   </g>
   <g id="text_16">
    <!-- scipy leastsq最小二乘拟合效果 -->
    <g transform="translate(149.16 35.472)scale(0.12 -0.12)">
     <defs>
      <path d="M 42.96875 14.0625 
Q 42.96875 7.8125 38.078125 4.484375 
Q 33.203125 1.171875 25.78125 1.171875 
Q 16.40625 1.171875 11.328125 4.875 
Q 6.25 8.59375 6.25 15.625 
L 14.0625 15.625 
Q 14.0625 10.9375 17.375 9.375 
Q 20.703125 7.8125 25.390625 7.8125 
Q 30.078125 7.8125 32.421875 9.5625 
Q 34.765625 11.328125 34.765625 14.0625 
Q 34.765625 16.015625 32.8125 17.96875 
Q 30.859375 19.921875 23.046875 21.09375 
Q 14.0625 22.265625 10.734375 25.578125 
Q 7.421875 28.90625 7.421875 34.375 
Q 7.421875 39.0625 11.90625 42.765625 
Q 16.40625 46.484375 25 46.484375 
Q 32.8125 46.484375 37.296875 42.96875 
Q 41.796875 39.453125 41.796875 33.59375 
L 33.984375 33.59375 
Q 33.984375 37.109375 31.4375 38.46875 
Q 28.90625 39.84375 25 39.84375 
Q 19.921875 39.84375 17.765625 38.078125 
Q 15.625 36.328125 15.625 33.984375 
Q 15.625 31.25 17.578125 29.6875 
Q 19.53125 28.125 25.78125 27.34375 
Q 35.9375 25.78125 39.453125 22.453125 
Q 42.96875 19.140625 42.96875 14.0625 
z
" id="SimHei-115"/>
      <path d="M 44.140625 23.828125 
Q 44.140625 12.5 38.671875 6.640625 
Q 33.203125 0.78125 25.390625 0.78125 
Q 21.09375 0.78125 17.96875 2.53125 
Q 14.84375 4.296875 12.5 7.8125 
L 12.5 -12.5 
L 4.6875 -12.5 
L 4.6875 45.703125 
L 12.5 45.703125 
L 12.5 39.84375 
Q 14.84375 43.359375 17.96875 44.921875 
Q 21.09375 46.484375 25.390625 46.484375 
Q 33.203125 46.484375 38.671875 40.8125 
Q 44.140625 35.15625 44.140625 23.828125 
z
M 35.546875 23.828125 
Q 35.546875 31.25 32.609375 35.34375 
Q 29.6875 39.453125 23.828125 39.453125 
Q 19.140625 39.453125 15.8125 35.34375 
Q 12.5 31.25 12.5 23.828125 
Q 12.5 16.40625 15.8125 12.109375 
Q 19.140625 7.8125 23.828125 7.8125 
Q 29.6875 7.8125 32.609375 12.109375 
Q 35.546875 16.40625 35.546875 23.828125 
z
" id="SimHei-112"/>
      <path d="M 45.3125 45.703125 
L 27.34375 -1.5625 
Q 25.78125 -7.03125 22.65625 -9.765625 
Q 19.53125 -12.5 14.84375 -12.5 
Q 12.890625 -12.5 11.125 -12.296875 
Q 9.375 -12.109375 7.8125 -11.328125 
L 7.8125 -3.515625 
Q 9.375 -4.296875 10.9375 -4.6875 
Q 12.5 -5.078125 13.671875 -5.078125 
Q 16.796875 -5.078125 17.96875 -4.09375 
Q 19.140625 -3.125 20.3125 0.390625 
L 3.125 45.703125 
L 11.71875 45.703125 
L 24.21875 11.328125 
L 24.609375 11.328125 
L 36.71875 45.703125 
z
" id="SimHei-121"/>
      <path d="M 28.515625 1.953125 
L 20.703125 1.953125 
L 20.703125 68.75 
L 28.515625 68.75 
z
" id="SimHei-108"/>
      <path d="M 44.53125 16.796875 
Q 43.75 9.765625 38.28125 5.46875 
Q 32.8125 1.171875 25.390625 1.171875 
Q 16.015625 1.171875 9.953125 7.21875 
Q 3.90625 13.28125 3.90625 23.828125 
Q 3.90625 34.375 9.953125 40.421875 
Q 16.015625 46.484375 25.390625 46.484375 
Q 33.59375 46.484375 38.859375 41.203125 
Q 44.140625 35.9375 44.140625 23.828125 
L 12.5 23.828125 
Q 12.5 15.234375 16.203125 11.71875 
Q 19.921875 8.203125 25.390625 8.203125 
Q 29.6875 8.203125 32.421875 10.34375 
Q 35.15625 12.5 35.9375 16.796875 
z
M 35.15625 30.078125 
Q 34.375 35.546875 31.640625 37.6875 
Q 28.90625 39.84375 24.609375 39.84375 
Q 20.703125 39.84375 17.578125 37.6875 
Q 14.453125 35.546875 12.890625 30.078125 
z
" id="SimHei-101"/>
      <path d="M 44.921875 1.953125 
L 35.546875 1.953125 
Q 34.765625 2.734375 34.375 4.09375 
Q 33.984375 5.46875 33.984375 7.421875 
Q 31.25 4.296875 27.34375 2.734375 
Q 23.4375 1.171875 19.140625 1.171875 
Q 12.890625 1.171875 8.59375 4.296875 
Q 4.296875 7.421875 4.296875 13.28125 
Q 4.296875 19.140625 8.203125 22.65625 
Q 12.109375 26.171875 20.3125 27.34375 
Q 25.78125 28.125 29.875 29.296875 
Q 33.984375 30.46875 33.984375 32.421875 
Q 33.984375 34.765625 32.21875 37.109375 
Q 30.46875 39.453125 24.609375 39.453125 
Q 19.921875 39.453125 17.765625 37.6875 
Q 15.625 35.9375 14.84375 32.8125 
L 6.25 32.8125 
Q 7.03125 39.0625 11.90625 42.765625 
Q 16.796875 46.484375 24.609375 46.484375 
Q 33.203125 46.484375 37.5 42.578125 
Q 41.796875 38.671875 41.796875 31.640625 
L 41.796875 10.15625 
Q 41.796875 7.8125 42.578125 5.859375 
Q 43.359375 3.90625 44.921875 1.953125 
z
M 33.984375 16.40625 
L 33.984375 24.21875 
Q 31.640625 23.4375 29.484375 22.84375 
Q 27.34375 22.265625 22.265625 21.484375 
Q 16.40625 20.703125 14.640625 18.75 
Q 12.890625 16.796875 12.890625 14.0625 
Q 12.890625 11.71875 14.640625 9.953125 
Q 16.40625 8.203125 19.921875 8.203125 
Q 23.4375 8.203125 27.53125 10.15625 
Q 31.640625 12.109375 33.984375 16.40625 
z
" id="SimHei-97"/>
      <path d="M 42.96875 -12.5 
L 35.15625 -12.5 
L 35.15625 7.8125 
Q 32.8125 4.296875 29.6875 2.53125 
Q 26.5625 0.78125 22.265625 0.78125 
Q 14.453125 0.78125 8.984375 6.640625 
Q 3.515625 12.5 3.515625 23.828125 
Q 3.515625 35.15625 8.984375 40.8125 
Q 14.453125 46.484375 22.265625 46.484375 
Q 26.5625 46.484375 29.6875 44.921875 
Q 32.8125 43.359375 35.15625 39.84375 
L 35.15625 45.703125 
L 42.96875 45.703125 
z
M 35.15625 23.828125 
Q 35.15625 31.25 31.828125 35.34375 
Q 28.515625 39.453125 23.828125 39.453125 
Q 17.96875 39.453125 15.03125 35.34375 
Q 12.109375 31.25 12.109375 23.828125 
Q 12.109375 16.40625 15.03125 12.109375 
Q 17.96875 7.8125 23.828125 7.8125 
Q 28.515625 7.8125 31.828125 12.109375 
Q 35.15625 16.40625 35.15625 23.828125 
z
" id="SimHei-113"/>
      <path d="M 7.421875 4.296875 
Q 10.546875 4.6875 17.1875 5.46875 
L 17.1875 38.28125 
Q 12.109375 38.28125 6.640625 37.890625 
L 6.640625 44.53125 
Q 12.109375 44.140625 17.578125 44.140625 
L 78.515625 44.140625 
Q 85.546875 44.140625 92.1875 44.53125 
L 92.1875 37.890625 
Q 85.546875 38.28125 78.515625 38.28125 
L 47.65625 38.28125 
L 47.65625 10.546875 
L 53.125 12.109375 
Q 53.125 8.59375 53.515625 6.25 
Q 50.390625 5.46875 47.65625 5.078125 
Q 47.65625 -1.953125 48.046875 -8.59375 
L 40.625 -8.59375 
Q 41.015625 -1.953125 41.015625 3.90625 
Q 36.71875 3.125 28.3125 1.359375 
Q 19.921875 -0.390625 10.15625 -2.734375 
Q 8.984375 1.5625 7.421875 4.296875 
z
M 79.6875 76.953125 
Q 79.296875 71.875 79.296875 67.578125 
L 79.296875 60.546875 
Q 79.296875 56.25 79.6875 50.78125 
L 19.921875 50.78125 
Q 20.3125 56.25 20.3125 60.546875 
L 20.3125 67.578125 
Q 20.3125 71.875 19.921875 76.953125 
L 79.6875 76.953125 
z
M 51.5625 32.03125 
Q 58.59375 31.640625 64.453125 31.640625 
L 83.984375 31.640625 
Q 79.6875 15.234375 73.828125 6.25 
Q 83.59375 0 92.578125 -1.5625 
Q 89.0625 -4.296875 88.28125 -7.8125 
Q 78.515625 -4.6875 69.921875 2.34375 
Q 64.84375 -3.125 56.25 -8.984375 
Q 54.6875 -6.640625 50.78125 -4.296875 
Q 58.984375 -1.5625 64.84375 5.46875 
Q 58.203125 12.109375 54.6875 26.171875 
L 51.5625 26.171875 
z
M 71.875 66.40625 
L 71.875 71.875 
L 27.34375 71.875 
L 27.34375 66.40625 
z
M 71.875 55.859375 
L 71.875 60.9375 
L 27.34375 60.9375 
L 27.34375 55.859375 
z
M 60.9375 26.171875 
Q 62.5 16.796875 68.75 9.765625 
Q 73.4375 16.40625 75.78125 26.171875 
L 60.9375 26.171875 
z
M 41.015625 19.53125 
L 41.015625 26.171875 
L 23.828125 26.171875 
L 23.828125 19.53125 
z
M 41.015625 8.984375 
L 41.015625 14.453125 
L 23.828125 14.453125 
L 23.828125 6.640625 
z
M 41.015625 31.640625 
L 41.015625 38.28125 
L 23.828125 38.28125 
L 23.828125 31.640625 
z
" id="SimHei-26368"/>
      <path d="M 54.6875 80.46875 
Q 54.296875 75 54.296875 65.625 
L 54.296875 2.734375 
Q 54.296875 -4.6875 50.390625 -6.640625 
Q 46.484375 -8.59375 37.109375 -9.375 
Q 36.328125 -4.6875 33.59375 -0.390625 
Q 42.1875 -0.390625 44.328125 0 
Q 46.484375 0.390625 46.484375 4.6875 
L 46.484375 65.625 
Q 46.484375 72.65625 46.09375 80.46875 
L 54.6875 80.46875 
z
M 32.421875 53.125 
Q 28.90625 43.359375 24.21875 30.65625 
Q 19.53125 17.96875 16.015625 11.71875 
Q 12.109375 14.84375 7.8125 15.625 
Q 14.453125 27.34375 18.359375 38.859375 
Q 22.265625 50.390625 23.4375 55.859375 
Q 28.125 53.515625 32.421875 53.125 
z
M 73.046875 56.25 
Q 88.671875 28.125 91.796875 17.96875 
Q 87.890625 17.1875 83.984375 14.453125 
Q 78.125 31.25 66.015625 51.953125 
Q 69.140625 53.515625 73.046875 56.25 
z
" id="SimHei-23567"/>
      <path d="M 78.90625 9.765625 
Q 88.28125 9.765625 94.140625 10.546875 
L 94.140625 0.78125 
Q 87.890625 1.171875 78.90625 1.171875 
L 22.265625 1.171875 
Q 12.109375 1.171875 5.46875 0.78125 
L 5.46875 10.15625 
Q 12.5 9.765625 21.875 9.765625 
z
M 67.96875 64.84375 
Q 76.5625 65.234375 83.59375 65.625 
L 83.59375 55.859375 
Q 76.5625 56.25 68.359375 56.25 
L 32.03125 56.25 
Q 22.65625 56.25 15.625 55.859375 
L 15.625 65.234375 
Q 22.65625 64.84375 31.640625 64.84375 
z
" id="SimHei-20108"/>
      <path d="M 79.296875 81.25 
Q 81.640625 76.171875 84.375 73.828125 
Q 73.046875 72.65625 53.125 70.3125 
L 53.125 60.9375 
L 79.296875 60.9375 
Q 83.59375 60.9375 93.359375 61.328125 
L 93.359375 54.296875 
Q 83.984375 54.6875 79.296875 54.6875 
L 53.125 54.6875 
L 53.125 33.984375 
Q 60.15625 22.65625 70.703125 15.03125 
Q 81.25 7.421875 95.3125 3.125 
Q 91.796875 0.390625 89.84375 -4.296875 
Q 66.015625 4.296875 53.125 23.4375 
L 53.125 7.8125 
Q 53.125 -1.171875 53.515625 -10.15625 
L 46.09375 -10.15625 
Q 46.484375 -1.171875 46.484375 7.8125 
L 46.484375 22.265625 
Q 36.328125 7.03125 10.9375 -5.859375 
Q 8.203125 -1.5625 4.6875 0 
Q 32.8125 10.9375 46.484375 34.375 
L 46.484375 54.6875 
L 19.53125 54.6875 
Q 16.015625 54.6875 6.640625 54.296875 
L 6.640625 61.328125 
Q 16.796875 60.9375 21.875 60.9375 
L 46.484375 60.9375 
L 46.484375 69.53125 
Q 23.4375 68.359375 16.40625 67.96875 
Q 15.625 70.703125 14.0625 74.609375 
Q 28.90625 74.21875 47.65625 76.171875 
Q 66.40625 78.125 79.296875 81.25 
z
M 71.09375 51.171875 
Q 70.3125 44.921875 70.3125 40.625 
Q 78.90625 44.53125 83.984375 49.609375 
Q 86.328125 45.703125 89.453125 43.359375 
Q 83.984375 40.234375 70.3125 34.375 
L 70.3125 30.078125 
Q 70.3125 26.5625 74.609375 26.5625 
L 82.8125 26.5625 
Q 85.15625 26.5625 85.9375 34.375 
Q 90.234375 32.03125 93.75 31.640625 
Q 91.015625 19.921875 85.15625 20.3125 
L 71.875 20.3125 
Q 64.0625 20.3125 63.671875 27.734375 
L 63.671875 39.84375 
Q 63.671875 43.359375 63.28125 51.171875 
L 71.09375 51.171875 
z
M 34.765625 51.171875 
Q 34.375 46.484375 34.375 36.328125 
L 34.375 20.3125 
L 27.34375 20.3125 
Q 27.734375 24.21875 27.734375 25.78125 
Q 14.84375 21.09375 10.546875 18.75 
Q 7.8125 24.21875 6.25 26.171875 
Q 12.5 27.34375 27.734375 32.421875 
L 27.734375 37.109375 
Q 21.09375 37.109375 17.1875 36.90625 
Q 13.28125 36.71875 8.59375 36.328125 
L 8.59375 43.75 
Q 13.28125 43.359375 20.3125 43.359375 
L 27.734375 43.359375 
Q 27.734375 45.3125 27.34375 51.171875 
z
" id="SimHei-20056"/>
      <path d="M 26.171875 1.953125 
Q 26.171875 -2.734375 23.4375 -4.296875 
Q 20.703125 -5.859375 12.5 -7.8125 
Q 11.71875 -3.515625 8.984375 0 
Q 19.140625 0.390625 19.140625 4.296875 
L 19.140625 29.296875 
Q 10.9375 25.390625 7.421875 23.4375 
Q 5.859375 28.125 3.90625 30.859375 
Q 8.203125 32.03125 19.140625 36.328125 
L 19.140625 55.46875 
Q 11.328125 55.46875 5.46875 55.078125 
L 5.46875 62.5 
Q 10.9375 61.71875 19.140625 61.71875 
Q 19.140625 72.265625 18.75 81.640625 
L 26.953125 81.640625 
Q 26.171875 71.09375 26.171875 61.71875 
Q 31.640625 61.71875 36.328125 62.109375 
L 36.328125 55.078125 
Q 30.859375 55.46875 26.171875 55.46875 
L 26.171875 38.671875 
Q 33.59375 41.796875 35.9375 43.75 
Q 35.9375 39.84375 36.328125 36.328125 
Q 33.203125 35.15625 26.171875 32.03125 
z
M 77.34375 78.90625 
Q 82.421875 78.515625 85.9375 78.125 
Q 84.765625 72.65625 85.15625 52.140625 
Q 85.546875 31.640625 82.03125 19.921875 
Q 91.40625 8.59375 96.875 -0.78125 
Q 93.359375 -3.515625 90.234375 -6.25 
Q 86.328125 1.5625 78.90625 12.5 
Q 75 7.03125 69.328125 1.75 
Q 63.671875 -3.515625 51.953125 -10.15625 
Q 49.609375 -7.03125 45.703125 -3.90625 
Q 53.515625 -0.390625 60.9375 5.078125 
Q 68.359375 10.546875 72.0625 16.40625 
Q 75.78125 22.265625 76.953125 33.59375 
Q 78.125 44.921875 77.34375 78.90625 
z
M 39.0625 10.9375 
Q 41.796875 13.671875 41.796875 18.75 
L 41.796875 54.296875 
Q 41.796875 61.328125 41.40625 68.75 
L 49.609375 68.75 
Q 48.828125 62.109375 48.828125 54.6875 
L 48.828125 18.359375 
Q 58.984375 28.90625 63.28125 34.375 
Q 64.84375 30.078125 67.1875 26.953125 
Q 62.890625 23.4375 45.3125 4.6875 
L 39.0625 10.9375 
z
M 59.375 79.6875 
Q 68.359375 62.890625 71.484375 55.46875 
Q 66.40625 53.125 64.0625 51.5625 
Q 60.15625 60.546875 52.734375 76.171875 
Q 55.859375 77.34375 59.375 79.6875 
z
" id="SimHei-25311"/>
      <path d="M 78.90625 28.125 
Q 78.515625 24.21875 78.515625 10.15625 
Q 78.515625 -3.90625 78.90625 -8.203125 
L 70.703125 -8.203125 
L 70.703125 -0.78125 
L 27.34375 -0.78125 
L 27.34375 -9.375 
L 19.53125 -9.375 
Q 19.921875 -4.6875 19.921875 8.59375 
Q 19.921875 22.265625 19.53125 28.125 
L 78.90625 28.125 
z
M 52.734375 75 
Q 64.0625 61.328125 71.09375 56.25 
Q 78.125 51.171875 83.984375 48.4375 
Q 89.84375 45.703125 95.3125 44.140625 
Q 91.40625 39.84375 90.234375 35.9375 
Q 82.421875 39.453125 76.171875 43.359375 
Q 69.921875 47.265625 63.46875 53.3125 
Q 57.03125 59.375 48.828125 69.921875 
Q 41.40625 59.375 34.171875 52.53125 
Q 26.953125 45.703125 21.875 41.796875 
Q 16.796875 37.890625 10.546875 33.984375 
Q 9.765625 35.546875 4.296875 40.234375 
Q 12.5 44.140625 19.921875 49.609375 
Q 27.34375 55.078125 34.765625 63.46875 
Q 42.1875 71.875 46.875 81.640625 
Q 51.171875 78.90625 54.6875 77.34375 
z
M 70.703125 5.46875 
L 70.703125 21.875 
L 27.34375 21.875 
L 27.34375 5.46875 
z
M 61.328125 44.140625 
Q 67.578125 44.140625 72.265625 44.53125 
L 72.265625 37.109375 
Q 67.1875 37.5 61.71875 37.5 
L 39.84375 37.5 
Q 31.640625 37.5 26.5625 37.109375 
L 26.5625 44.53125 
Q 33.984375 44.140625 39.84375 44.140625 
z
" id="SimHei-21512"/>
      <path d="M 54.6875 37.5 
Q 53.125 41.796875 50 45.3125 
Q 54.6875 52.34375 58.59375 62.890625 
Q 62.5 73.4375 64.0625 82.8125 
Q 68.75 80.46875 74.21875 79.296875 
Q 72.265625 77.34375 70.3125 73.234375 
Q 68.359375 69.140625 66.015625 62.890625 
Q 90.625 62.890625 96.09375 63.28125 
L 96.09375 56.640625 
Q 91.40625 57.03125 85.546875 57.03125 
Q 85.15625 45.703125 82.8125 33.390625 
Q 80.46875 21.09375 75.390625 12.5 
Q 76.5625 8.984375 83 4.296875 
Q 89.453125 -0.390625 96.484375 -2.734375 
Q 91.796875 -5.46875 90.234375 -10.15625 
Q 83.59375 -6.640625 78.90625 -2.53125 
Q 74.21875 1.5625 70.3125 6.640625 
Q 65.234375 1.953125 59.953125 -1.75 
Q 54.6875 -5.46875 44.53125 -10.9375 
Q 42.578125 -6.640625 37.890625 -3.90625 
Q 42.96875 -3.125 51.953125 2.140625 
Q 60.9375 7.421875 65.625 12.5 
Q 62.5 19.140625 60.734375 26.171875 
Q 58.984375 33.203125 57.421875 42.1875 
z
M 17.1875 34.765625 
Q 23.828125 29.296875 30.078125 24.609375 
Q 33.203125 29.6875 34.375 37.5 
Q 38.28125 35.546875 42.1875 34.375 
Q 38.671875 25.390625 35.9375 19.53125 
L 46.875 8.59375 
Q 43.359375 5.859375 40.234375 2.734375 
Q 37.5 7.03125 31.640625 12.890625 
Q 28.515625 9.375 24.21875 4.875 
Q 19.921875 0.390625 10.9375 -6.640625 
Q 7.8125 -2.734375 3.90625 -0.390625 
Q 8.984375 1.953125 14.84375 6.25 
Q 20.703125 10.546875 26.171875 18.359375 
Q 20.703125 23.046875 13.28125 29.296875 
L 17.1875 34.765625 
z
M 63.671875 46.09375 
Q 64.0625 42.1875 65.8125 34.171875 
Q 67.578125 26.171875 70.703125 19.140625 
Q 74.609375 26.5625 76.359375 38.671875 
Q 78.125 50.78125 77.734375 57.03125 
L 64.0625 57.03125 
Q 60.9375 48.828125 58.203125 44.53125 
Q 60.9375 44.53125 63.671875 46.09375 
z
M 39.0625 65.625 
Q 44.921875 65.625 49.609375 66.015625 
L 49.609375 59.375 
Q 44.921875 59.765625 39.453125 59.765625 
L 15.625 59.765625 
Q 9.375 59.765625 4.296875 59.375 
L 4.296875 66.015625 
Q 9.375 65.625 15.625 65.625 
z
M 17.578125 57.03125 
Q 21.875 54.6875 25.390625 51.953125 
Q 23.828125 50.78125 20.3125 45.3125 
Q 16.40625 39.453125 10.546875 31.25 
Q 7.03125 33.59375 3.515625 35.546875 
Q 8.59375 40.234375 12.296875 46.484375 
Q 16.015625 52.734375 17.578125 57.03125 
z
M 38.671875 56.640625 
Q 41.015625 53.125 44.53125 48.4375 
Q 48.046875 43.75 50.78125 40.234375 
Q 47.265625 38.28125 44.140625 35.546875 
Q 36.328125 46.875 32.421875 51.953125 
Q 35.546875 53.515625 38.671875 56.640625 
z
M 28.515625 82.03125 
Q 31.640625 76.171875 33.984375 69.921875 
Q 30.46875 68.359375 26.5625 66.796875 
Q 24.21875 72.65625 21.09375 79.296875 
Q 24.609375 80.46875 28.515625 82.03125 
z
" id="SimHei-25928"/>
      <path d="M 46.484375 -8.203125 
Q 46.875 -1.171875 46.875 8.984375 
L 46.875 25 
L 45.3125 25 
Q 42.578125 19.921875 39.0625 15.625 
Q 35.546875 11.328125 31.046875 8 
Q 26.5625 4.6875 21.28125 1.5625 
Q 16.015625 -1.5625 10.546875 -3.90625 
Q 8.984375 0.390625 6.25 4.296875 
Q 10.9375 5.46875 15.234375 7.609375 
Q 19.53125 9.765625 23.828125 12.296875 
Q 28.125 14.84375 31.25 17.96875 
Q 34.375 21.09375 37.109375 25 
L 21.484375 25 
Q 15.625 25 7.03125 24.21875 
L 7.03125 32.03125 
Q 14.84375 31.25 21.484375 31.25 
L 46.875 31.25 
L 46.875 38.28125 
L 17.96875 38.28125 
Q 18.359375 47.65625 18.359375 58.984375 
Q 18.359375 70.3125 17.96875 78.125 
L 83.203125 78.125 
Q 82.8125 70.3125 82.8125 58.984375 
Q 82.8125 47.65625 83.203125 38.28125 
L 54.296875 38.28125 
L 54.296875 31.25 
L 78.90625 31.25 
Q 86.71875 31.25 92.578125 31.640625 
L 92.578125 24.21875 
Q 85.9375 25 79.6875 25 
L 64.453125 25 
Q 69.53125 16.796875 76.953125 12.5 
Q 84.375 8.203125 94.53125 5.859375 
Q 91.796875 2.34375 90.234375 -2.734375 
Q 76.953125 2.34375 69.140625 8.59375 
Q 61.328125 14.84375 57.421875 25 
L 54.296875 25 
L 54.296875 8.59375 
Q 54.296875 0 54.6875 -8.203125 
z
M 75.390625 60.546875 
L 75.390625 72.265625 
L 54.296875 72.265625 
L 54.296875 60.546875 
z
M 46.875 60.546875 
L 46.875 72.265625 
L 26.171875 72.265625 
L 26.171875 60.546875 
z
M 75.390625 44.140625 
L 75.390625 54.6875 
L 54.296875 54.6875 
L 54.296875 44.140625 
z
M 46.875 44.140625 
L 46.875 54.6875 
L 26.171875 54.6875 
L 26.171875 44.140625 
z
" id="SimHei-26524"/>
     </defs>
     <use xlink:href="#SimHei-115"/>
     <use x="50" xlink:href="#SimHei-99"/>
     <use x="100" xlink:href="#SimHei-105"/>
     <use x="150" xlink:href="#SimHei-112"/>
     <use x="200" xlink:href="#SimHei-121"/>
     <use x="250" xlink:href="#SimHei-32"/>
     <use x="300" xlink:href="#SimHei-108"/>
     <use x="350" xlink:href="#SimHei-101"/>
     <use x="400" xlink:href="#SimHei-97"/>
     <use x="450" xlink:href="#SimHei-115"/>
     <use x="500" xlink:href="#SimHei-116"/>
     <use x="550" xlink:href="#SimHei-115"/>
     <use x="600" xlink:href="#SimHei-113"/>
     <use x="650" xlink:href="#SimHei-26368"/>
     <use x="750" xlink:href="#SimHei-23567"/>
     <use x="850" xlink:href="#SimHei-20108"/>
     <use x="950" xlink:href="#SimHei-20056"/>
     <use x="1050" xlink:href="#SimHei-25311"/>
     <use x="1150" xlink:href="#SimHei-21512"/>
     <use x="1250" xlink:href="#SimHei-25928"/>
     <use x="1350" xlink:href="#SimHei-26524"/>
    </g>
   </g>
   <g id="legend_1">
    <g id="patch_7">
     <path d="M 64.6 110.89075 
L 170.6 110.89075 
Q 172.6 110.89075 172.6 108.89075 
L 172.6 48.472 
Q 172.6 46.472 170.6 46.472 
L 64.6 46.472 
Q 62.6 46.472 62.6 48.472 
L 62.6 108.89075 
Q 62.6 110.89075 64.6 110.89075 
z
" style="fill:#ffffff;opacity:0.8;stroke:#cccccc;stroke-linejoin:miter;"/>
    </g>
    <g id="line2d_18"/>
    <g id="line2d_19">
     <g>
      <use style="fill:#ff0000;stroke:#ff0000;" x="76.6" xlink:href="#m59a003d7c5" y="54.94075"/>
     </g>
    </g>
    <g id="text_17">
     <!-- 原始数据 -->
     <g transform="translate(94.6 58.44075)scale(0.1 -0.1)">
      <defs>
       <path d="M 60.15625 66.796875 
Q 57.421875 62.890625 56.25 57.8125 
L 85.15625 57.8125 
Q 84.765625 54.296875 84.765625 46.875 
L 84.765625 34.765625 
Q 84.765625 28.515625 85.15625 23.046875 
L 63.28125 23.046875 
L 63.28125 -0.78125 
Q 63.28125 -6.25 59.765625 -7.609375 
Q 56.25 -8.984375 48.4375 -9.765625 
Q 47.65625 -5.078125 45.703125 -0.78125 
Q 53.125 -1.171875 54.296875 -0.578125 
Q 55.46875 0 55.46875 2.734375 
L 55.46875 23.046875 
L 33.203125 23.046875 
Q 33.59375 27.734375 33.59375 34.375 
L 33.59375 47.265625 
Q 33.59375 53.515625 33.203125 57.8125 
L 49.21875 57.8125 
Q 51.5625 66.40625 51.5625 69.140625 
L 60.15625 66.796875 
z
M 4.296875 -5.078125 
Q 11.328125 4.296875 13.671875 16.203125 
Q 16.015625 28.125 16.015625 35.9375 
L 16.015625 64.453125 
Q 16.015625 72.65625 15.625 76.5625 
L 78.515625 76.5625 
Q 87.109375 76.5625 90.625 76.953125 
L 90.625 69.921875 
Q 87.5 70.3125 78.515625 70.3125 
L 23.828125 70.3125 
L 23.828125 37.109375 
Q 23.4375 25.78125 22.0625 17.375 
Q 20.703125 8.984375 17.765625 1.953125 
Q 14.84375 -5.078125 12.5 -8.984375 
Q 8.59375 -6.25 4.296875 -5.078125 
z
M 76.953125 43.359375 
L 76.953125 51.953125 
L 41.015625 51.953125 
L 41.015625 43.359375 
z
M 76.953125 29.296875 
L 76.953125 37.5 
L 41.015625 37.5 
L 41.015625 29.296875 
z
M 23.046875 -0.78125 
Q 28.125 2.34375 32.609375 7.03125 
Q 37.109375 11.71875 40.234375 17.1875 
Q 43.75 13.671875 46.484375 11.71875 
Q 35.9375 -0.78125 28.515625 -6.25 
Q 26.171875 -3.515625 23.046875 -0.78125 
z
M 75.390625 16.796875 
Q 89.0625 4.6875 92.578125 0.390625 
Q 89.84375 -1.953125 87.109375 -5.078125 
Q 82.03125 1.171875 70.3125 11.328125 
Q 73.046875 14.453125 75.390625 16.796875 
z
" id="SimHei-21407"/>
       <path d="M 27.34375 79.296875 
Q 25.78125 76.5625 24.796875 71.671875 
Q 23.828125 66.796875 23.046875 60.546875 
L 39.84375 60.546875 
Q 37.5 33.59375 30.46875 17.1875 
Q 35.546875 13.28125 42.578125 6.640625 
Q 39.84375 4.296875 37.109375 0.78125 
Q 31.25 7.8125 27.34375 10.546875 
Q 23.828125 4.296875 19.53125 -0.96875 
Q 15.234375 -6.25 10.9375 -10.546875 
Q 9.375 -8.203125 3.90625 -5.46875 
Q 8.984375 -1.953125 13.46875 3.125 
Q 17.96875 8.203125 21.484375 15.234375 
Q 12.5 21.875 7.8125 24.21875 
Q 13.671875 45.703125 14.84375 53.515625 
Q 10.15625 53.515625 5.078125 53.125 
L 5.078125 60.9375 
Q 10.546875 60.546875 16.015625 60.546875 
Q 18.359375 75.390625 18.359375 81.640625 
Q 24.21875 80.078125 27.34375 79.296875 
z
M 89.453125 32.03125 
Q 89.0625 25.78125 89.0625 10.15625 
Q 89.0625 -5.078125 89.453125 -10.15625 
L 81.25 -10.15625 
L 81.25 -1.5625 
L 53.90625 -1.5625 
L 53.90625 -10.546875 
L 46.09375 -10.546875 
Q 46.484375 -4.6875 46.484375 10.546875 
Q 46.484375 25.78125 46.09375 32.03125 
L 89.453125 32.03125 
z
M 68.75 77.34375 
Q 58.59375 60.546875 50.78125 49.21875 
Q 60.546875 49.21875 66.40625 49.609375 
Q 72.265625 50 81.25 50.390625 
Q 76.171875 57.421875 72.265625 60.9375 
Q 75.390625 62.5 78.515625 66.015625 
Q 89.84375 51.5625 95.703125 44.53125 
Q 93.75 43.359375 89.453125 39.84375 
Q 87.109375 43.359375 85.15625 44.921875 
Q 71.484375 44.140625 61.515625 43.15625 
Q 51.5625 42.1875 44.140625 40.234375 
Q 43.359375 43.75 40.625 48.4375 
Q 44.921875 50.390625 50.578125 60.15625 
Q 56.25 69.921875 59.765625 81.25 
Q 62.890625 78.90625 68.75 77.34375 
z
M 81.25 5.078125 
L 81.25 25 
L 53.90625 25 
L 53.90625 5.078125 
z
M 16.015625 27.734375 
Q 20.3125 24.21875 24.609375 21.875 
Q 26.953125 26.953125 29.296875 36.515625 
Q 31.640625 46.09375 32.03125 53.515625 
L 21.875 53.515625 
Q 20.3125 46.09375 16.015625 27.734375 
z
" id="SimHei-22987"/>
       <path d="M 70.703125 76.953125 
Q 69.921875 75 68.75 71.671875 
Q 67.578125 68.359375 65.234375 59.765625 
L 83.203125 59.765625 
Q 87.109375 59.765625 92.578125 60.15625 
L 92.578125 53.125 
Q 88.28125 53.515625 85.9375 53.515625 
Q 85.9375 47.265625 83.78125 33.78125 
Q 81.640625 20.3125 76.171875 10.546875 
Q 80.078125 5.859375 84.953125 2.140625 
Q 89.84375 -1.5625 94.140625 -3.125 
Q 89.453125 -6.640625 87.890625 -9.765625 
Q 83.203125 -7.03125 79.296875 -3.515625 
Q 75.390625 0 71.484375 5.078125 
Q 67.1875 0.390625 62.296875 -2.921875 
Q 57.421875 -6.25 50 -10.15625 
Q 48.046875 -6.640625 44.53125 -4.6875 
Q 50.390625 -2.34375 57.03125 1.953125 
Q 63.671875 6.25 67.1875 10.546875 
Q 64.453125 16.015625 61.90625 22.265625 
Q 59.375 28.515625 57.421875 38.671875 
Q 56.25 35.546875 53.515625 30.46875 
Q 50.78125 32.03125 46.875 33.59375 
Q 53.125 44.53125 57.03125 57.421875 
Q 60.9375 70.3125 62.109375 79.6875 
Q 66.796875 77.734375 70.703125 76.953125 
z
M 32.8125 35.15625 
Q 31.25 33.59375 29.296875 30.078125 
L 50.78125 30.078125 
Q 48.4375 20.3125 42.578125 10.546875 
Q 48.828125 8.203125 52.34375 6.25 
Q 50.390625 3.515625 48.828125 0.390625 
Q 45.3125 2.734375 38.28125 5.078125 
Q 30.46875 -3.515625 11.328125 -10.15625 
Q 9.375 -5.859375 6.25 -4.296875 
Q 24.609375 0 31.25 7.421875 
Q 20.3125 10.15625 13.28125 12.109375 
Q 15.625 15.625 19.53125 23.828125 
Q 15.625 23.828125 6.640625 23.4375 
L 6.640625 30.46875 
Q 14.0625 30.078125 21.875 30.078125 
Q 23.4375 33.59375 24.21875 37.890625 
Q 28.515625 36.328125 32.8125 35.15625 
z
M 27.734375 61.71875 
Q 27.734375 71.09375 27.34375 79.6875 
L 35.15625 79.6875 
Q 34.765625 71.484375 34.765625 61.71875 
Q 48.046875 61.71875 53.515625 62.109375 
L 53.515625 55.078125 
Q 48.046875 55.46875 34.765625 55.46875 
Q 34.765625 44.140625 35.15625 37.890625 
L 27.34375 37.890625 
Q 27.734375 43.359375 27.734375 51.5625 
Q 25.78125 48.4375 20.3125 43.546875 
Q 14.84375 38.671875 10.15625 35.9375 
Q 8.203125 39.453125 4.296875 41.015625 
Q 7.8125 42.1875 13.671875 46.484375 
Q 19.53125 50.78125 22.65625 55.46875 
Q 14.84375 55.46875 7.8125 55.078125 
L 7.8125 62.109375 
Q 14.453125 61.71875 27.734375 61.71875 
z
M 62.109375 49.609375 
Q 65.625 26.5625 71.875 17.578125 
Q 75.78125 26.5625 77.140625 35.734375 
Q 78.515625 44.921875 78.90625 53.515625 
L 63.671875 53.515625 
L 62.109375 49.609375 
z
M 22.65625 15.625 
Q 27.34375 14.453125 35.546875 12.5 
Q 38.671875 16.40625 41.40625 23.828125 
L 26.953125 23.828125 
Q 25 19.921875 22.65625 15.625 
z
M 51.953125 75.390625 
Q 50 72.265625 48.828125 69.53125 
Q 47.65625 66.796875 45.703125 62.890625 
Q 42.578125 64.453125 39.453125 65.234375 
Q 42.578125 70.3125 45.3125 78.125 
Q 49.21875 76.171875 51.953125 75.390625 
z
M 40.234375 52.734375 
Q 45.3125 47.65625 50 42.578125 
Q 47.65625 40.625 44.921875 37.890625 
Q 39.453125 44.53125 35.9375 48.4375 
Q 38.28125 50.390625 40.234375 52.734375 
z
M 14.453125 78.125 
Q 19.921875 72.65625 23.4375 67.1875 
L 17.578125 63.671875 
Q 14.84375 69.140625 9.375 73.828125 
Q 12.890625 76.171875 14.453125 78.125 
z
" id="SimHei-25968"/>
       <path d="M 89.84375 74.609375 
Q 89.453125 71.09375 89.453125 66.015625 
L 89.453125 60.9375 
Q 89.453125 53.90625 89.84375 50.78125 
L 48.4375 50.78125 
L 48.4375 39.0625 
L 66.40625 39.0625 
Q 66.40625 42.578125 66.015625 49.609375 
L 73.4375 49.609375 
Q 73.046875 43.359375 73.046875 39.0625 
L 83.59375 39.0625 
Q 90.625 39.0625 95.3125 39.453125 
L 95.3125 32.421875 
Q 90.625 32.8125 83.984375 32.8125 
L 73.046875 32.8125 
L 73.046875 22.265625 
L 90.234375 22.265625 
Q 89.84375 14.84375 89.84375 12.5 
L 89.84375 2.734375 
Q 89.84375 -3.515625 90.234375 -8.984375 
L 83.203125 -8.984375 
L 83.203125 -3.515625 
L 57.421875 -3.515625 
L 57.421875 -9.375 
L 50.390625 -9.375 
Q 50.78125 -5.078125 50.78125 1.5625 
L 50.78125 12.890625 
Q 50.78125 16.796875 50.390625 22.265625 
L 66.40625 22.265625 
L 66.40625 32.8125 
L 48.046875 32.8125 
Q 47.65625 21.484375 45.109375 11.515625 
Q 42.578125 1.5625 37.890625 -7.421875 
Q 34.375 -5.078125 30.46875 -3.90625 
Q 35.15625 2.34375 37.296875 9.375 
Q 39.453125 16.40625 40.625 24.40625 
Q 41.796875 32.421875 41.796875 41.015625 
L 41.796875 55.859375 
Q 41.796875 62.109375 41.40625 74.609375 
L 89.84375 74.609375 
z
M 19.921875 69.140625 
Q 19.921875 74.609375 19.53125 79.296875 
L 27.34375 79.296875 
Q 26.953125 75 26.953125 69.140625 
L 26.953125 58.984375 
Q 30.859375 58.984375 39.0625 59.375 
L 39.0625 52.734375 
Q 30.859375 53.125 26.953125 53.125 
L 26.953125 38.28125 
Q 32.03125 41.015625 37.5 44.53125 
Q 37.890625 41.40625 39.453125 38.671875 
Q 32.03125 34.375 26.953125 31.25 
L 26.953125 2.734375 
Q 26.953125 -4.6875 23.234375 -6.25 
Q 19.53125 -7.8125 12.109375 -8.984375 
Q 11.328125 -5.078125 9.375 -0.78125 
Q 16.015625 -0.78125 17.96875 -0.1875 
Q 19.921875 0.390625 19.921875 5.078125 
L 19.921875 28.125 
Q 14.0625 25 8.203125 20.703125 
Q 7.03125 23.828125 4.296875 28.125 
Q 12.109375 30.859375 19.921875 35.15625 
L 19.921875 53.125 
Q 12.5 53.125 5.46875 52.734375 
L 5.46875 59.375 
Q 12.5 58.984375 19.921875 58.984375 
z
M 82.8125 56.640625 
L 82.8125 68.75 
L 48.4375 68.75 
L 48.4375 56.640625 
z
M 83.203125 2.34375 
L 83.203125 16.796875 
L 57.421875 16.796875 
L 57.421875 2.34375 
z
" id="SimHei-25454"/>
      </defs>
      <use xlink:href="#SimHei-21407"/>
      <use x="100" xlink:href="#SimHei-22987"/>
      <use x="200" xlink:href="#SimHei-25968"/>
      <use x="300" xlink:href="#SimHei-25454"/>
     </g>
    </g>
    <g id="line2d_20">
     <path d="M 66.6 70.29075 
L 86.6 70.29075 
" style="fill:none;stroke:#1f77b4;stroke-dasharray:7.4,3.2;stroke-dashoffset:0;stroke-width:2;"/>
    </g>
    <g id="line2d_21"/>
    <g id="text_18">
     <!-- $y=a+bt+ct^2$ -->
     <g transform="translate(94.6 73.79075)scale(0.1 -0.1)">
      <defs>
       <path d="M 24.8125 -5.078125 
Q 18.5625 -15.578125 14.625 -18.1875 
Q 10.6875 -20.796875 4.59375 -20.796875 
L -2.484375 -20.796875 
L -0.984375 -13.28125 
L 4.203125 -13.28125 
Q 7.953125 -13.28125 10.59375 -11.234375 
Q 13.234375 -9.1875 16.5 -3.21875 
L 19.28125 2 
L 7.171875 54.6875 
L 16.703125 54.6875 
L 25.78125 12.796875 
L 50.875 54.6875 
L 60.296875 54.6875 
z
" id="DejaVuSans-Oblique-121"/>
       <path d="M 10.59375 45.40625 
L 73.1875 45.40625 
L 73.1875 37.203125 
L 10.59375 37.203125 
z
M 10.59375 25.484375 
L 73.1875 25.484375 
L 73.1875 17.1875 
L 10.59375 17.1875 
z
" id="DejaVuSans-61"/>
       <path d="M 53.71875 31.203125 
L 47.609375 0 
L 38.625 0 
L 40.28125 8.296875 
Q 36.328125 3.421875 31.265625 1 
Q 26.21875 -1.421875 20.015625 -1.421875 
Q 13.03125 -1.421875 8.5625 2.84375 
Q 4.109375 7.125 4.109375 13.8125 
Q 4.109375 23.390625 11.75 28.953125 
Q 19.390625 34.515625 32.8125 34.515625 
L 45.3125 34.515625 
L 45.796875 36.921875 
Q 45.90625 37.3125 45.953125 37.765625 
Q 46 38.234375 46 39.203125 
Q 46 43.5625 42.453125 45.96875 
Q 38.921875 48.390625 32.515625 48.390625 
Q 28.125 48.390625 23.5 47.265625 
Q 18.890625 46.140625 14.015625 43.890625 
L 15.578125 52.203125 
Q 20.65625 54.109375 25.515625 55.046875 
Q 30.375 56 34.90625 56 
Q 44.578125 56 49.625 51.796875 
Q 54.6875 47.609375 54.6875 39.59375 
Q 54.6875 37.984375 54.4375 35.8125 
Q 54.203125 33.640625 53.71875 31.203125 
z
M 44 27.484375 
L 35.015625 27.484375 
Q 23.96875 27.484375 18.671875 24.53125 
Q 13.375 21.578125 13.375 15.375 
Q 13.375 11.078125 16.078125 8.640625 
Q 18.796875 6.203125 23.578125 6.203125 
Q 30.90625 6.203125 36.375 11.453125 
Q 41.84375 16.703125 43.609375 25.484375 
z
" id="DejaVuSans-Oblique-97"/>
       <path d="M 46 62.703125 
L 46 35.5 
L 73.1875 35.5 
L 73.1875 27.203125 
L 46 27.203125 
L 46 0 
L 37.796875 0 
L 37.796875 27.203125 
L 10.59375 27.203125 
L 10.59375 35.5 
L 37.796875 35.5 
L 37.796875 62.703125 
z
" id="DejaVuSans-43"/>
       <path d="M 49.515625 33.40625 
Q 49.515625 40.484375 46.265625 44.484375 
Q 43.015625 48.484375 37.3125 48.484375 
Q 33.15625 48.484375 29.515625 46.453125 
Q 25.875 44.4375 23.1875 40.578125 
Q 20.359375 36.53125 18.71875 31.171875 
Q 17.09375 25.828125 17.09375 20.515625 
Q 17.09375 13.765625 20.28125 9.9375 
Q 23.484375 6.109375 29.109375 6.109375 
Q 33.34375 6.109375 36.953125 8.078125 
Q 40.578125 10.0625 43.3125 13.921875 
Q 46.09375 17.921875 47.796875 23.234375 
Q 49.515625 28.5625 49.515625 33.40625 
z
M 21.578125 46.390625 
Q 24.90625 50.875 29.90625 53.4375 
Q 34.90625 56 40.375 56 
Q 48.78125 56 53.734375 50.328125 
Q 58.6875 44.671875 58.6875 35.015625 
Q 58.6875 27.09375 55.78125 19.671875 
Q 52.875 12.25 47.515625 6.5 
Q 44 2.6875 39.40625 0.625 
Q 34.8125 -1.421875 29.78125 -1.421875 
Q 24.46875 -1.421875 20.5625 1.015625 
Q 16.65625 3.46875 14.203125 8.296875 
L 12.59375 0 
L 3.609375 0 
L 18.40625 75.984375 
L 27.390625 75.984375 
z
" id="DejaVuSans-Oblique-98"/>
       <path d="M 42.28125 54.6875 
L 40.921875 47.703125 
L 23 47.703125 
L 17.1875 18.015625 
Q 16.890625 16.359375 16.75 15.234375 
Q 16.609375 14.109375 16.609375 13.484375 
Q 16.609375 10.359375 18.484375 8.9375 
Q 20.359375 7.515625 24.515625 7.515625 
L 33.59375 7.515625 
L 32.078125 0 
L 23.484375 0 
Q 15.484375 0 11.546875 3.125 
Q 7.625 6.25 7.625 12.59375 
Q 7.625 13.71875 7.765625 15.0625 
Q 7.90625 16.40625 8.203125 18.015625 
L 14.015625 47.703125 
L 6.390625 47.703125 
L 7.8125 54.6875 
L 15.28125 54.6875 
L 18.3125 70.21875 
L 27.296875 70.21875 
L 24.3125 54.6875 
z
" id="DejaVuSans-Oblique-116"/>
       <path d="M 53.609375 52.59375 
L 51.8125 43.703125 
Q 48.578125 46.046875 44.9375 47.21875 
Q 41.3125 48.390625 37.40625 48.390625 
Q 33.109375 48.390625 29.21875 46.875 
Q 25.34375 45.359375 22.703125 42.578125 
Q 18.5 38.328125 16.203125 32.609375 
Q 13.921875 26.90625 13.921875 20.796875 
Q 13.921875 13.421875 17.609375 9.8125 
Q 21.296875 6.203125 28.8125 6.203125 
Q 32.515625 6.203125 36.6875 7.328125 
Q 40.875 8.453125 45.40625 10.6875 
L 43.703125 1.8125 
Q 39.796875 0.203125 35.671875 -0.609375 
Q 31.546875 -1.421875 27.203125 -1.421875 
Q 16.3125 -1.421875 10.453125 4.015625 
Q 4.59375 9.46875 4.59375 19.578125 
Q 4.59375 28.078125 7.640625 35.234375 
Q 10.6875 42.390625 16.703125 48.09375 
Q 20.796875 52 26.3125 54 
Q 31.84375 56 38.375 56 
Q 42.1875 56 45.9375 55.140625 
Q 49.703125 54.296875 53.609375 52.59375 
z
" id="DejaVuSans-Oblique-99"/>
       <path d="M 19.1875 8.296875 
L 53.609375 8.296875 
L 53.609375 0 
L 7.328125 0 
L 7.328125 8.296875 
Q 12.9375 14.109375 22.625 23.890625 
Q 32.328125 33.6875 34.8125 36.53125 
Q 39.546875 41.84375 41.421875 45.53125 
Q 43.3125 49.21875 43.3125 52.78125 
Q 43.3125 58.59375 39.234375 62.25 
Q 35.15625 65.921875 28.609375 65.921875 
Q 23.96875 65.921875 18.8125 64.3125 
Q 13.671875 62.703125 7.8125 59.421875 
L 7.8125 69.390625 
Q 13.765625 71.78125 18.9375 73 
Q 24.125 74.21875 28.421875 74.21875 
Q 39.75 74.21875 46.484375 68.546875 
Q 53.21875 62.890625 53.21875 53.421875 
Q 53.21875 48.921875 51.53125 44.890625 
Q 49.859375 40.875 45.40625 35.40625 
Q 44.1875 33.984375 37.640625 27.21875 
Q 31.109375 20.453125 19.1875 8.296875 
z
" id="DejaVuSans-50"/>
      </defs>
      <use transform="translate(0 0.765625)" xlink:href="#DejaVuSans-Oblique-121"/>
      <use transform="translate(78.662109 0.765625)" xlink:href="#DejaVuSans-61"/>
      <use transform="translate(181.933594 0.765625)" xlink:href="#DejaVuSans-Oblique-97"/>
      <use transform="translate(262.695312 0.765625)" xlink:href="#DejaVuSans-43"/>
      <use transform="translate(365.966797 0.765625)" xlink:href="#DejaVuSans-Oblique-98"/>
      <use transform="translate(429.443359 0.765625)" xlink:href="#DejaVuSans-Oblique-116"/>
      <use transform="translate(488.134766 0.765625)" xlink:href="#DejaVuSans-43"/>
      <use transform="translate(591.40625 0.765625)" xlink:href="#DejaVuSans-Oblique-99"/>
      <use transform="translate(646.386719 0.765625)" xlink:href="#DejaVuSans-Oblique-116"/>
      <use transform="translate(692.236224 39.046875)scale(0.7)" xlink:href="#DejaVuSans-50"/>
     </g>
    </g>
    <g id="line2d_22">
     <path d="M 66.6 86.59075 
L 86.6 86.59075 
" style="fill:none;stroke:#ff7f0e;stroke-dasharray:7.4,3.2;stroke-dashoffset:0;stroke-width:2;"/>
    </g>
    <g id="line2d_23"/>
    <g id="text_19">
     <!-- $y=a e^{b/t}$ -->
     <g transform="translate(94.6 90.09075)scale(0.1 -0.1)">
      <defs>
       <path d="M 48.09375 32.234375 
Q 48.25 33.015625 48.3125 33.84375 
Q 48.390625 34.671875 48.390625 35.5 
Q 48.390625 41.453125 44.890625 44.921875 
Q 41.40625 48.390625 35.40625 48.390625 
Q 28.71875 48.390625 23.578125 44.15625 
Q 18.453125 39.9375 15.828125 32.171875 
z
M 55.90625 25.203125 
L 14.109375 25.203125 
Q 13.8125 23.34375 13.71875 22.265625 
Q 13.625 21.1875 13.625 20.40625 
Q 13.625 13.625 17.796875 9.90625 
Q 21.96875 6.203125 29.59375 6.203125 
Q 35.453125 6.203125 40.671875 7.515625 
Q 45.90625 8.84375 50.390625 11.375 
L 48.6875 2.484375 
Q 43.84375 0.53125 38.6875 -0.4375 
Q 33.546875 -1.421875 28.21875 -1.421875 
Q 16.84375 -1.421875 10.71875 4.015625 
Q 4.59375 9.46875 4.59375 19.484375 
Q 4.59375 28.03125 7.640625 35.375 
Q 10.6875 42.71875 16.609375 48.484375 
Q 20.40625 52.09375 25.65625 54.046875 
Q 30.90625 56 36.8125 56 
Q 46.09375 56 51.578125 50.4375 
Q 57.078125 44.875 57.078125 35.5 
Q 57.078125 33.25 56.78125 30.6875 
Q 56.5 28.125 55.90625 25.203125 
z
" id="DejaVuSans-Oblique-101"/>
       <path d="M 25.390625 72.90625 
L 33.6875 72.90625 
L 8.296875 -9.28125 
L 0 -9.28125 
z
" id="DejaVuSans-47"/>
      </defs>
      <use transform="translate(0 0.529687)" xlink:href="#DejaVuSans-Oblique-121"/>
      <use transform="translate(78.662109 0.529687)" xlink:href="#DejaVuSans-61"/>
      <use transform="translate(181.933594 0.529687)" xlink:href="#DejaVuSans-Oblique-97"/>
      <use transform="translate(243.212891 0.529687)" xlink:href="#DejaVuSans-Oblique-101"/>
      <use transform="translate(309.386224 38.810937)scale(0.7)" xlink:href="#DejaVuSans-Oblique-98"/>
      <use transform="translate(353.819818 38.810937)scale(0.7)" xlink:href="#DejaVuSans-47"/>
      <use transform="translate(377.403802 38.810937)scale(0.7)" xlink:href="#DejaVuSans-Oblique-116"/>
     </g>
    </g>
    <g id="line2d_24">
     <path d="M 66.6 101.29075 
L 86.6 101.29075 
" style="fill:none;stroke:#2ca02c;stroke-dasharray:7.4,3.2;stroke-dashoffset:0;stroke-width:2;"/>
    </g>
    <g id="line2d_25"/>
    <g id="text_20">
     <!-- $y=t / (at+b)$ -->
     <g transform="translate(94.6 104.79075)scale(0.1 -0.1)">
      <defs>
       <path d="M 31 75.875 
Q 24.46875 64.65625 21.28125 53.65625 
Q 18.109375 42.671875 18.109375 31.390625 
Q 18.109375 20.125 21.3125 9.0625 
Q 24.515625 -2 31 -13.1875 
L 23.1875 -13.1875 
Q 15.875 -1.703125 12.234375 9.375 
Q 8.59375 20.453125 8.59375 31.390625 
Q 8.59375 42.28125 12.203125 53.3125 
Q 15.828125 64.359375 23.1875 75.875 
z
" id="DejaVuSans-40"/>
       <path d="M 8.015625 75.875 
L 15.828125 75.875 
Q 23.140625 64.359375 26.78125 53.3125 
Q 30.421875 42.28125 30.421875 31.390625 
Q 30.421875 20.453125 26.78125 9.375 
Q 23.140625 -1.703125 15.828125 -13.1875 
L 8.015625 -13.1875 
Q 14.5 -2 17.703125 9.0625 
Q 20.90625 20.125 20.90625 31.390625 
Q 20.90625 42.671875 17.703125 53.65625 
Q 14.5 64.65625 8.015625 75.875 
z
" id="DejaVuSans-41"/>
      </defs>
      <use transform="translate(0 0.015625)" xlink:href="#DejaVuSans-Oblique-121"/>
      <use transform="translate(78.662109 0.015625)" xlink:href="#DejaVuSans-61"/>
      <use transform="translate(181.933594 0.015625)" xlink:href="#DejaVuSans-Oblique-116"/>
      <use transform="translate(221.142578 0.015625)" xlink:href="#DejaVuSans-47"/>
      <use transform="translate(254.833984 0.015625)" xlink:href="#DejaVuSans-40"/>
      <use transform="translate(293.847656 0.015625)" xlink:href="#DejaVuSans-Oblique-97"/>
      <use transform="translate(355.126953 0.015625)" xlink:href="#DejaVuSans-Oblique-116"/>
      <use transform="translate(413.818359 0.015625)" xlink:href="#DejaVuSans-43"/>
      <use transform="translate(517.089844 0.015625)" xlink:href="#DejaVuSans-Oblique-98"/>
      <use transform="translate(580.566406 0.015625)" xlink:href="#DejaVuSans-41"/>
     </g>
    </g>
   </g>
  </g>
 </g>
 <defs>
  <clipPath id="p21fc66a27c">
   <rect height="266.112" width="357.12" x="57.6" y="41.472"/>
  </clipPath>
 </defs>
</svg>
