<?xml version="1.0" encoding="utf-8" standalone="no"?>
<!DOCTYPE svg PUBLIC "-//W3C//DTD SVG 1.1//EN"
  "http://www.w3.org/Graphics/SVG/1.1/DTD/svg11.dtd">
<!-- Created with matplotlib (https://matplotlib.org/) -->
<svg height="345.6pt" version="1.1" viewBox="0 0 460.8 345.6" width="460.8pt" xmlns="http://www.w3.org/2000/svg" xmlns:xlink="http://www.w3.org/1999/xlink">
 <metadata>
  <rdf:RDF xmlns:cc="http://creativecommons.org/ns#" xmlns:dc="http://purl.org/dc/elements/1.1/" xmlns:rdf="http://www.w3.org/1999/02/22-rdf-syntax-ns#">
   <cc:Work>
    <dc:type rdf:resource="http://purl.org/dc/dcmitype/StillImage"/>
    <dc:date>2023-01-16T21:38:38.062528</dc:date>
    <dc:format>image/svg+xml</dc:format>
    <dc:creator>
     <cc:Agent>
      <dc:title>Matplotlib v3.3.3, https://matplotlib.org/</dc:title>
     </cc:Agent>
    </dc:creator>
   </cc:Work>
  </rdf:RDF>
 </metadata>
 <defs>
  <style type="text/css">*{stroke-linecap:butt;stroke-linejoin:round;}</style>
 </defs>
 <g id="figure_1">
  <g id="patch_1">
   <path d="M 0 345.6 
L 460.8 345.6 
L 460.8 0 
L 0 0 
z
" style="fill:#ffffff;"/>
  </g>
  <g id="axes_1">
   <g id="patch_2">
    <path d="M 57.6 307.584 
L 414.72 307.584 
L 414.72 41.472 
L 57.6 41.472 
z
" style="fill:#ffffff;"/>
   </g>
   <g id="matplotlib.axis_1">
    <g id="xtick_1">
     <g id="line2d_1">
      <defs>
       <path d="M 0 0 
L 0 3.5 
" id="md7fada1bd5" style="stroke:#000000;stroke-width:0.8;"/>
      </defs>
      <g>
       <use style="stroke:#000000;stroke-width:0.8;" x="60.039154" xlink:href="#md7fada1bd5" y="307.584"/>
      </g>
     </g>
     <g id="text_1">
      <!-- 0.0 -->
      <g transform="translate(52.539154 321.459)scale(0.1 -0.1)">
       <defs>
        <path d="M 3.125 29.296875 
Q 3.90625 50 6.4375 56.046875 
Q 8.984375 62.109375 13.671875 66.015625 
Q 18.359375 69.921875 25.1875 69.921875 
Q 32.03125 69.921875 37.109375 64.25 
Q 42.1875 58.59375 43.75 50 
Q 45.3125 41.40625 44.71875 30.265625 
Q 44.140625 19.140625 40.8125 12.109375 
Q 37.5 5.078125 30.859375 2.34375 
Q 24.21875 -0.390625 17.578125 2.921875 
Q 10.9375 6.25 8.203125 11.71875 
Q 5.46875 17.1875 4.296875 23.234375 
Q 3.125 29.296875 3.90625 50 
z
M 12.890625 52.734375 
Q 10.546875 31.25 12.5 22.84375 
Q 14.453125 14.453125 18.9375 10.9375 
Q 23.4375 7.421875 28.125 9.5625 
Q 32.8125 11.71875 34.953125 18.15625 
Q 37.109375 24.609375 37.109375 32.21875 
Q 37.109375 39.84375 36.515625 46.09375 
Q 35.9375 52.34375 33 57.421875 
Q 30.078125 62.5 25.1875 62.6875 
Q 20.3125 62.890625 16.59375 57.8125 
Q 12.890625 52.734375 10.546875 31.25 
z
" id="SimHei-48"/>
        <path d="M 16.796875 1.953125 
L 7.8125 1.953125 
L 7.8125 10.546875 
L 16.796875 10.546875 
z
" id="SimHei-46"/>
       </defs>
       <use xlink:href="#SimHei-48"/>
       <use x="50" xlink:href="#SimHei-46"/>
       <use x="100" xlink:href="#SimHei-48"/>
      </g>
     </g>
    </g>
    <g id="xtick_2">
     <g id="line2d_2">
      <g>
       <use style="stroke:#000000;stroke-width:0.8;" x="129.110198" xlink:href="#md7fada1bd5" y="307.584"/>
      </g>
     </g>
     <g id="text_2">
      <!-- 0.2 -->
      <g transform="translate(121.610198 321.459)scale(0.1 -0.1)">
       <defs>
        <path d="M 4.6875 3.90625 
Q 5.078125 9.765625 10.15625 14.453125 
Q 15.234375 19.140625 23.046875 29.09375 
Q 30.859375 39.0625 33.203125 44.53125 
Q 35.546875 50 34.953125 53.90625 
Q 34.375 57.8125 31.25 60.34375 
Q 28.125 62.890625 24.015625 62.5 
Q 19.921875 62.109375 16.203125 59.375 
Q 12.5 56.640625 10.546875 51.171875 
L 3.125 52.34375 
Q 6.25 61.328125 11.125 65.421875 
Q 16.015625 69.53125 22.65625 69.921875 
Q 26.5625 70.3125 29.6875 69.71875 
Q 32.8125 69.140625 36.125 66.984375 
Q 39.453125 64.84375 41.59375 60.546875 
Q 43.75 56.25 43.15625 50.1875 
Q 42.578125 44.140625 37.109375 35.734375 
Q 31.640625 27.34375 16.015625 9.375 
L 44.140625 9.375 
L 44.140625 2.34375 
L 4.6875 2.34375 
z
" id="SimHei-50"/>
       </defs>
       <use xlink:href="#SimHei-48"/>
       <use x="50" xlink:href="#SimHei-46"/>
       <use x="100" xlink:href="#SimHei-50"/>
      </g>
     </g>
    </g>
    <g id="xtick_3">
     <g id="line2d_3">
      <g>
       <use style="stroke:#000000;stroke-width:0.8;" x="198.181243" xlink:href="#md7fada1bd5" y="307.584"/>
      </g>
     </g>
     <g id="text_3">
      <!-- 0.4 -->
      <g transform="translate(190.681243 321.459)scale(0.1 -0.1)">
       <defs>
        <path d="M 31.25 17.1875 
L 1.171875 17.1875 
L 1.171875 23.828125 
L 32.8125 69.53125 
L 38.671875 69.53125 
L 38.671875 23.828125 
L 48.046875 23.828125 
L 48.046875 17.1875 
L 38.671875 17.1875 
L 38.671875 2.34375 
L 31.25 2.34375 
z
M 31.25 23.828125 
L 31.25 54.6875 
L 9.375 23.828125 
z
" id="SimHei-52"/>
       </defs>
       <use xlink:href="#SimHei-48"/>
       <use x="50" xlink:href="#SimHei-46"/>
       <use x="100" xlink:href="#SimHei-52"/>
      </g>
     </g>
    </g>
    <g id="xtick_4">
     <g id="line2d_4">
      <g>
       <use style="stroke:#000000;stroke-width:0.8;" x="267.252288" xlink:href="#md7fada1bd5" y="307.584"/>
      </g>
     </g>
     <g id="text_4">
      <!-- 0.6 -->
      <g transform="translate(259.752288 321.459)scale(0.1 -0.1)">
       <defs>
        <path d="M 3.515625 19.53125 
Q 4.296875 30.859375 6.046875 34.765625 
Q 7.8125 38.671875 11.328125 44.53125 
L 27.34375 69.53125 
L 36.328125 69.53125 
L 19.921875 43.75 
Q 30.46875 46.484375 36.71875 42.96875 
Q 42.96875 39.453125 45.109375 34.953125 
Q 47.265625 30.46875 47.453125 25.1875 
Q 47.65625 19.921875 45.890625 14.84375 
Q 44.140625 9.765625 39.640625 5.65625 
Q 35.15625 1.5625 27.140625 1.171875 
Q 19.140625 0.78125 13.46875 4.09375 
Q 7.8125 7.421875 5.65625 13.46875 
Q 3.515625 19.53125 4.296875 30.859375 
z
M 12.5 16.015625 
Q 19.53125 8.59375 25.390625 8.203125 
Q 31.25 7.8125 35.15625 12.109375 
Q 39.0625 16.40625 39.0625 24.609375 
Q 39.0625 32.8125 34.171875 35.9375 
Q 29.296875 39.0625 23.234375 38.28125 
Q 17.1875 37.5 14.453125 32.421875 
Q 11.71875 27.34375 12.109375 21.671875 
Q 12.5 16.015625 19.53125 8.59375 
z
" id="SimHei-54"/>
       </defs>
       <use xlink:href="#SimHei-48"/>
       <use x="50" xlink:href="#SimHei-46"/>
       <use x="100" xlink:href="#SimHei-54"/>
      </g>
     </g>
    </g>
    <g id="xtick_5">
     <g id="line2d_5">
      <g>
       <use style="stroke:#000000;stroke-width:0.8;" x="336.323332" xlink:href="#md7fada1bd5" y="307.584"/>
      </g>
     </g>
     <g id="text_5">
      <!-- 0.8 -->
      <g transform="translate(328.823332 321.459)scale(0.1 -0.1)">
       <defs>
        <path d="M 2.734375 16.796875 
Q 2.734375 26.171875 5.078125 30.65625 
Q 7.421875 35.15625 12.890625 37.890625 
Q 8.203125 40.625 6.640625 43.9375 
Q 5.078125 47.265625 4.875 51.5625 
Q 4.6875 55.859375 6.046875 58.984375 
Q 7.421875 62.109375 10.15625 64.84375 
Q 12.890625 67.578125 16.203125 68.546875 
Q 19.53125 69.53125 23.4375 69.53125 
Q 27.34375 69.53125 30.46875 68.75 
Q 33.59375 67.96875 37.109375 65.421875 
Q 40.625 62.890625 42.1875 58.203125 
Q 43.75 53.515625 41.984375 47.265625 
Q 40.234375 41.015625 32.8125 37.5 
Q 39.453125 35.546875 42.1875 31.4375 
Q 44.921875 27.34375 44.921875 21.484375 
Q 44.921875 15.625 43.15625 12.109375 
Q 41.40625 8.59375 39.25 6.25 
Q 37.109375 3.90625 33.390625 2.53125 
Q 29.6875 1.171875 24.015625 1.171875 
Q 18.359375 1.171875 14.25 2.53125 
Q 10.15625 3.90625 7.421875 6.640625 
Q 4.6875 9.375 3.703125 13.078125 
Q 2.734375 16.796875 2.734375 26.171875 
z
M 10.9375 26.5625 
Q 10.546875 17.1875 12.296875 13.671875 
Q 14.0625 10.15625 18.75 9.171875 
Q 23.4375 8.203125 28.515625 9.375 
Q 33.59375 10.546875 35.546875 14.84375 
Q 37.5 19.140625 36.90625 23.4375 
Q 36.328125 27.734375 32.03125 30.65625 
Q 27.734375 33.59375 22.65625 33.203125 
Q 17.578125 32.8125 14.25 29.6875 
Q 10.9375 26.5625 10.546875 17.1875 
z
M 12.109375 56.25 
Q 12.109375 48.4375 14.84375 44.921875 
Q 17.578125 41.40625 23.4375 41.40625 
Q 29.296875 41.40625 32.21875 44.921875 
Q 35.15625 48.4375 34.953125 53.3125 
Q 34.765625 58.203125 31.4375 60.546875 
Q 28.125 62.890625 22.453125 62.5 
Q 16.796875 62.109375 14.453125 59.171875 
Q 12.109375 56.25 12.109375 48.4375 
z
" id="SimHei-56"/>
       </defs>
       <use xlink:href="#SimHei-48"/>
       <use x="50" xlink:href="#SimHei-46"/>
       <use x="100" xlink:href="#SimHei-56"/>
      </g>
     </g>
    </g>
    <g id="xtick_6">
     <g id="line2d_6">
      <g>
       <use style="stroke:#000000;stroke-width:0.8;" x="405.394377" xlink:href="#md7fada1bd5" y="307.584"/>
      </g>
     </g>
     <g id="text_6">
      <!-- 1.0 -->
      <g transform="translate(397.894377 321.459)scale(0.1 -0.1)">
       <defs>
        <path d="M 21.875 56.25 
Q 16.796875 51.171875 8.984375 46.484375 
L 8.984375 53.90625 
Q 18.75 60.546875 25 69.53125 
L 29.6875 69.53125 
L 29.6875 2.34375 
L 21.875 2.34375 
z
" id="SimHei-49"/>
       </defs>
       <use xlink:href="#SimHei-49"/>
       <use x="50" xlink:href="#SimHei-46"/>
       <use x="100" xlink:href="#SimHei-48"/>
      </g>
     </g>
    </g>
    <g id="text_7">
     <!-- $s(t)$ -->
     <g transform="translate(227.66 334.309)scale(0.1 -0.1)">
      <defs>
       <path d="M 50 53.078125 
L 48.296875 44.578125 
Q 44.734375 46.53125 40.765625 47.5 
Q 36.8125 48.484375 32.625 48.484375 
Q 25.53125 48.484375 21.453125 46.0625 
Q 17.390625 43.65625 17.390625 39.5 
Q 17.390625 34.671875 26.859375 32.078125 
Q 27.59375 31.890625 27.9375 31.78125 
L 30.8125 30.90625 
Q 39.796875 28.421875 42.796875 25.6875 
Q 45.796875 22.953125 45.796875 18.21875 
Q 45.796875 9.515625 38.890625 4.046875 
Q 31.984375 -1.421875 20.796875 -1.421875 
Q 16.453125 -1.421875 11.671875 -0.578125 
Q 6.890625 0.25 1.125 2 
L 2.875 11.28125 
Q 7.8125 8.734375 12.59375 7.421875 
Q 17.390625 6.109375 21.78125 6.109375 
Q 28.375 6.109375 32.5 8.9375 
Q 36.625 11.765625 36.625 16.109375 
Q 36.625 20.796875 25.78125 23.6875 
L 24.859375 23.921875 
L 21.78125 24.703125 
Q 14.9375 26.515625 11.765625 29.46875 
Q 8.59375 32.421875 8.59375 37.015625 
Q 8.59375 45.75 15.15625 50.875 
Q 21.734375 56 33.015625 56 
Q 37.453125 56 41.671875 55.265625 
Q 45.90625 54.546875 50 53.078125 
z
" id="DejaVuSans-Oblique-115"/>
       <path d="M 31 75.875 
Q 24.46875 64.65625 21.28125 53.65625 
Q 18.109375 42.671875 18.109375 31.390625 
Q 18.109375 20.125 21.3125 9.0625 
Q 24.515625 -2 31 -13.1875 
L 23.1875 -13.1875 
Q 15.875 -1.703125 12.234375 9.375 
Q 8.59375 20.453125 8.59375 31.390625 
Q 8.59375 42.28125 12.203125 53.3125 
Q 15.828125 64.359375 23.1875 75.875 
z
" id="DejaVuSans-40"/>
       <path d="M 42.28125 54.6875 
L 40.921875 47.703125 
L 23 47.703125 
L 17.1875 18.015625 
Q 16.890625 16.359375 16.75 15.234375 
Q 16.609375 14.109375 16.609375 13.484375 
Q 16.609375 10.359375 18.484375 8.9375 
Q 20.359375 7.515625 24.515625 7.515625 
L 33.59375 7.515625 
L 32.078125 0 
L 23.484375 0 
Q 15.484375 0 11.546875 3.125 
Q 7.625 6.25 7.625 12.59375 
Q 7.625 13.71875 7.765625 15.0625 
Q 7.90625 16.40625 8.203125 18.015625 
L 14.015625 47.703125 
L 6.390625 47.703125 
L 7.8125 54.6875 
L 15.28125 54.6875 
L 18.3125 70.21875 
L 27.296875 70.21875 
L 24.3125 54.6875 
z
" id="DejaVuSans-Oblique-116"/>
       <path d="M 8.015625 75.875 
L 15.828125 75.875 
Q 23.140625 64.359375 26.78125 53.3125 
Q 30.421875 42.28125 30.421875 31.390625 
Q 30.421875 20.453125 26.78125 9.375 
Q 23.140625 -1.703125 15.828125 -13.1875 
L 8.015625 -13.1875 
Q 14.5 -2 17.703125 9.0625 
Q 20.90625 20.125 20.90625 31.390625 
Q 20.90625 42.671875 17.703125 53.65625 
Q 14.5 64.65625 8.015625 75.875 
z
" id="DejaVuSans-41"/>
      </defs>
      <use transform="translate(0 0.125)" xlink:href="#DejaVuSans-Oblique-115"/>
      <use transform="translate(52.099609 0.125)" xlink:href="#DejaVuSans-40"/>
      <use transform="translate(91.113281 0.125)" xlink:href="#DejaVuSans-Oblique-116"/>
      <use transform="translate(130.322266 0.125)" xlink:href="#DejaVuSans-41"/>
     </g>
    </g>
   </g>
   <g id="matplotlib.axis_2">
    <g id="ytick_1">
     <g id="line2d_7">
      <defs>
       <path d="M 0 0 
L -3.5 0 
" id="m8ef71b3700" style="stroke:#000000;stroke-width:0.8;"/>
      </defs>
      <g>
       <use style="stroke:#000000;stroke-width:0.8;" x="57.6" xlink:href="#m8ef71b3700" y="295.494484"/>
      </g>
     </g>
     <g id="text_8">
      <!-- 0.00 -->
      <g transform="translate(30.6 298.931984)scale(0.1 -0.1)">
       <use xlink:href="#SimHei-48"/>
       <use x="50" xlink:href="#SimHei-46"/>
       <use x="100" xlink:href="#SimHei-48"/>
       <use x="150" xlink:href="#SimHei-48"/>
      </g>
     </g>
    </g>
    <g id="ytick_2">
     <g id="line2d_8">
      <g>
       <use style="stroke:#000000;stroke-width:0.8;" x="57.6" xlink:href="#m8ef71b3700" y="260.413246"/>
      </g>
     </g>
     <g id="text_9">
      <!-- 0.05 -->
      <g transform="translate(30.6 263.850746)scale(0.1 -0.1)">
       <defs>
        <path d="M 8.59375 20.703125 
Q 11.328125 10.15625 17.96875 8.984375 
Q 24.609375 7.8125 28.703125 10.34375 
Q 32.8125 12.890625 34.5625 16.984375 
Q 36.328125 21.09375 36.125 26.171875 
Q 35.9375 31.25 33.390625 34.765625 
Q 30.859375 38.28125 26.953125 39.453125 
Q 23.046875 40.625 18.15625 39.453125 
Q 13.28125 38.28125 10.15625 33.984375 
L 3.515625 34.765625 
Q 4.296875 37.109375 10.9375 68.359375 
L 41.796875 68.359375 
L 41.796875 61.328125 
L 16.796875 61.328125 
Q 14.84375 50.78125 12.890625 44.53125 
Q 18.75 47.265625 23.828125 47.0625 
Q 28.90625 46.875 33.59375 44.71875 
Q 38.28125 42.578125 40.421875 38.859375 
Q 42.578125 35.15625 43.546875 31.4375 
Q 44.53125 27.734375 44.328125 23.4375 
Q 44.140625 19.140625 42.578125 14.640625 
Q 41.015625 10.15625 37.890625 7.21875 
Q 34.765625 4.296875 30.265625 2.53125 
Q 25.78125 0.78125 19.921875 1.171875 
Q 14.0625 1.5625 8.78125 5.46875 
Q 3.515625 9.375 1.5625 18.75 
z
" id="SimHei-53"/>
       </defs>
       <use xlink:href="#SimHei-48"/>
       <use x="50" xlink:href="#SimHei-46"/>
       <use x="100" xlink:href="#SimHei-48"/>
       <use x="150" xlink:href="#SimHei-53"/>
      </g>
     </g>
    </g>
    <g id="ytick_3">
     <g id="line2d_9">
      <g>
       <use style="stroke:#000000;stroke-width:0.8;" x="57.6" xlink:href="#m8ef71b3700" y="225.332008"/>
      </g>
     </g>
     <g id="text_10">
      <!-- 0.10 -->
      <g transform="translate(30.6 228.769508)scale(0.1 -0.1)">
       <use xlink:href="#SimHei-48"/>
       <use x="50" xlink:href="#SimHei-46"/>
       <use x="100" xlink:href="#SimHei-49"/>
       <use x="150" xlink:href="#SimHei-48"/>
      </g>
     </g>
    </g>
    <g id="ytick_4">
     <g id="line2d_10">
      <g>
       <use style="stroke:#000000;stroke-width:0.8;" x="57.6" xlink:href="#m8ef71b3700" y="190.25077"/>
      </g>
     </g>
     <g id="text_11">
      <!-- 0.15 -->
      <g transform="translate(30.6 193.68827)scale(0.1 -0.1)">
       <use xlink:href="#SimHei-48"/>
       <use x="50" xlink:href="#SimHei-46"/>
       <use x="100" xlink:href="#SimHei-49"/>
       <use x="150" xlink:href="#SimHei-53"/>
      </g>
     </g>
    </g>
    <g id="ytick_5">
     <g id="line2d_11">
      <g>
       <use style="stroke:#000000;stroke-width:0.8;" x="57.6" xlink:href="#m8ef71b3700" y="155.169532"/>
      </g>
     </g>
     <g id="text_12">
      <!-- 0.20 -->
      <g transform="translate(30.6 158.607032)scale(0.1 -0.1)">
       <use xlink:href="#SimHei-48"/>
       <use x="50" xlink:href="#SimHei-46"/>
       <use x="100" xlink:href="#SimHei-50"/>
       <use x="150" xlink:href="#SimHei-48"/>
      </g>
     </g>
    </g>
    <g id="ytick_6">
     <g id="line2d_12">
      <g>
       <use style="stroke:#000000;stroke-width:0.8;" x="57.6" xlink:href="#m8ef71b3700" y="120.088295"/>
      </g>
     </g>
     <g id="text_13">
      <!-- 0.25 -->
      <g transform="translate(30.6 123.525795)scale(0.1 -0.1)">
       <use xlink:href="#SimHei-48"/>
       <use x="50" xlink:href="#SimHei-46"/>
       <use x="100" xlink:href="#SimHei-50"/>
       <use x="150" xlink:href="#SimHei-53"/>
      </g>
     </g>
    </g>
    <g id="ytick_7">
     <g id="line2d_13">
      <g>
       <use style="stroke:#000000;stroke-width:0.8;" x="57.6" xlink:href="#m8ef71b3700" y="85.007057"/>
      </g>
     </g>
     <g id="text_14">
      <!-- 0.30 -->
      <g transform="translate(30.6 88.444557)scale(0.1 -0.1)">
       <defs>
        <path d="M 3.90625 19.140625 
L 10.9375 20.3125 
Q 12.5 15.234375 16.015625 11.90625 
Q 19.53125 8.59375 24.796875 8.78125 
Q 30.078125 8.984375 33.203125 13.078125 
Q 36.328125 17.1875 35.9375 22.453125 
Q 35.546875 27.734375 31.828125 30.65625 
Q 28.125 33.59375 19.921875 34.765625 
L 19.921875 39.84375 
Q 28.125 40.625 31.828125 44.140625 
Q 35.546875 47.65625 35.15625 53.3125 
Q 34.765625 58.984375 30.078125 61.515625 
Q 25.390625 64.0625 20.109375 62.109375 
Q 14.84375 60.15625 11.71875 51.171875 
L 4.6875 52.34375 
Q 7.03125 59.375 11.125 64.0625 
Q 15.234375 68.75 22.265625 69.53125 
Q 29.296875 70.3125 34.5625 67.765625 
Q 39.84375 65.234375 41.984375 59.953125 
Q 44.140625 54.6875 42.578125 48.4375 
Q 41.015625 42.1875 33.59375 37.5 
Q 39.0625 35.15625 41.984375 30.46875 
Q 44.921875 25.78125 43.9375 18.15625 
Q 42.96875 10.546875 37.109375 5.859375 
Q 31.25 1.171875 23.828125 1.359375 
Q 16.40625 1.5625 10.9375 6.046875 
Q 5.46875 10.546875 3.90625 19.140625 
z
" id="SimHei-51"/>
       </defs>
       <use xlink:href="#SimHei-48"/>
       <use x="50" xlink:href="#SimHei-46"/>
       <use x="100" xlink:href="#SimHei-51"/>
       <use x="150" xlink:href="#SimHei-48"/>
      </g>
     </g>
    </g>
    <g id="ytick_8">
     <g id="line2d_14">
      <g>
       <use style="stroke:#000000;stroke-width:0.8;" x="57.6" xlink:href="#m8ef71b3700" y="49.925819"/>
      </g>
     </g>
     <g id="text_15">
      <!-- 0.35 -->
      <g transform="translate(30.6 53.363319)scale(0.1 -0.1)">
       <use xlink:href="#SimHei-48"/>
       <use x="50" xlink:href="#SimHei-46"/>
       <use x="100" xlink:href="#SimHei-51"/>
       <use x="150" xlink:href="#SimHei-53"/>
      </g>
     </g>
    </g>
    <g id="text_16">
     <!-- $i(t)$ -->
     <g transform="translate(25.2 181.828)rotate(-90)scale(0.1 -0.1)">
      <defs>
       <path d="M 18.3125 75.984375 
L 27.296875 75.984375 
L 25.09375 64.59375 
L 16.109375 64.59375 
z
M 14.203125 54.6875 
L 23.1875 54.6875 
L 12.5 0 
L 3.515625 0 
z
" id="DejaVuSans-Oblique-105"/>
      </defs>
      <use transform="translate(0 0.015625)" xlink:href="#DejaVuSans-Oblique-105"/>
      <use transform="translate(27.783203 0.015625)" xlink:href="#DejaVuSans-40"/>
      <use transform="translate(66.796875 0.015625)" xlink:href="#DejaVuSans-Oblique-116"/>
      <use transform="translate(106.005859 0.015625)" xlink:href="#DejaVuSans-41"/>
     </g>
    </g>
   </g>
   <g id="line2d_15">
    <path clip-path="url(#p1b7d34d117)" d="M 398.487273 281.461989 
L 385.416307 263.1972 
L 371.285291 243.834425 
L 358.167912 226.248399 
L 341.623656 204.654368 
L 332.02306 192.45151 
L 321.566133 179.459436 
L 310.315102 165.857642 
L 298.366414 151.879554 
L 285.849088 137.80535 
L 272.919819 123.948948 
L 259.755074 110.640046 
L 246.540955 98.203137 
L 233.462081 86.936101 
L 220.690874 77.091207 
L 208.378587 68.860886 
L 196.648973 62.369715 
L 185.594999 57.67297 
L 175.278505 54.761001 
L 165.732252 53.568 
L 156.963673 53.983421 
L 148.959528 55.864347 
L 141.690794 59.047414 
L 135.117316 63.359389 
L 129.191899 68.625883 
L 123.863666 74.678004 
L 119.080678 81.357069 
L 114.791861 88.517632 
L 110.94834 96.029121 
L 107.504281 103.776404 
L 104.417365 111.659592 
L 101.64898 119.593301 
L 99.16422 127.505598 
L 96.931748 135.336762 
L 94.92359 143.037975 
L 93.114868 150.570027 
L 90.01006 165.010487 
L 87.469803 178.491746 
L 85.379056 190.931756 
L 82.895139 207.60084 
L 81.00094 221.962258 
L 79.129207 237.847308 
L 77.253249 255.80872 
L 75.42044 275.781234 
L 73.832727 295.488 
L 73.832727 295.488 
" style="fill:none;stroke:#1f77b4;stroke-linecap:square;stroke-width:2;"/>
   </g>
   <g id="line2d_16">
    <defs>
     <path d="M 0 3 
C 0.795609 3 1.55874 2.683901 2.12132 2.12132 
C 2.683901 1.55874 3 0.795609 3 0 
C 3 -0.795609 2.683901 -1.55874 2.12132 -2.12132 
C 1.55874 -2.683901 0.795609 -3 0 -3 
C -0.795609 -3 -1.55874 -2.683901 -2.12132 -2.12132 
C -2.683901 -1.55874 -3 -0.795609 -3 0 
C -3 0.795609 -2.683901 1.55874 -2.12132 2.12132 
C -1.55874 2.683901 -0.795609 3 0 3 
z
" id="me429c7c4d0" style="stroke:#ff0000;"/>
    </defs>
    <g clip-path="url(#p1b7d34d117)">
     <use style="fill:#ff0000;stroke:#ff0000;" x="165.732252" xlink:href="#me429c7c4d0" y="53.568"/>
    </g>
   </g>
   <g id="line2d_17">
    <defs>
     <path d="M 0 3 
C 0.795609 3 1.55874 2.683901 2.12132 2.12132 
C 2.683901 1.55874 3 0.795609 3 0 
C 3 -0.795609 2.683901 -1.55874 2.12132 -2.12132 
C 1.55874 -2.683901 0.795609 -3 0 -3 
C -0.795609 -3 -1.55874 -2.683901 -2.12132 -2.12132 
C -2.683901 -1.55874 -3 -0.795609 -3 0 
C -3 0.795609 -2.683901 1.55874 -2.12132 2.12132 
C -1.55874 2.683901 -0.795609 3 0 3 
z
" id="m151ab213dd" style="stroke:#800080;"/>
    </defs>
    <g clip-path="url(#p1b7d34d117)">
     <use style="fill:#800080;stroke:#800080;" x="398.487273" xlink:href="#m151ab213dd" y="281.461989"/>
    </g>
   </g>
   <g id="patch_3">
    <path d="M 57.6 307.584 
L 57.6 41.472 
" style="fill:none;stroke:#000000;stroke-linecap:square;stroke-linejoin:miter;stroke-width:0.8;"/>
   </g>
   <g id="patch_4">
    <path d="M 414.72 307.584 
L 414.72 41.472 
" style="fill:none;stroke:#000000;stroke-linecap:square;stroke-linejoin:miter;stroke-width:0.8;"/>
   </g>
   <g id="patch_5">
    <path d="M 57.6 307.584 
L 414.72 307.584 
" style="fill:none;stroke:#000000;stroke-linecap:square;stroke-linejoin:miter;stroke-width:0.8;"/>
   </g>
   <g id="patch_6">
    <path d="M 57.6 41.472 
L 414.72 41.472 
" style="fill:none;stroke:#000000;stroke-linecap:square;stroke-linejoin:miter;stroke-width:0.8;"/>
   </g>
   <g id="legend_1">
    <g id="patch_7">
     <path d="M 325.72 92.248562 
L 407.72 92.248562 
Q 409.72 92.248562 409.72 90.248562 
L 409.72 48.472 
Q 409.72 46.472 407.72 46.472 
L 325.72 46.472 
Q 323.72 46.472 323.72 48.472 
L 323.72 90.248562 
Q 323.72 92.248562 325.72 92.248562 
z
" style="fill:#ffffff;opacity:0.8;stroke:#cccccc;stroke-linejoin:miter;"/>
    </g>
    <g id="line2d_18">
     <path d="M 327.72 55.022 
L 347.72 55.022 
" style="fill:none;stroke:#1f77b4;stroke-linecap:square;stroke-width:2;"/>
    </g>
    <g id="line2d_19"/>
    <g id="text_17">
     <!-- $i-s$曲线 -->
     <g transform="translate(355.72 58.522)scale(0.1 -0.1)">
      <defs>
       <path d="M 10.59375 35.5 
L 73.1875 35.5 
L 73.1875 27.203125 
L 10.59375 27.203125 
z
" id="DejaVuSans-8722"/>
       <path d="M 91.015625 7.8125 
Q 91.015625 -3.125 91.40625 -8.59375 
L 82.421875 -8.59375 
L 82.421875 -0.78125 
L 17.96875 -0.78125 
L 17.96875 -8.59375 
L 8.984375 -8.59375 
Q 9.375 1.953125 9.375 8.59375 
L 9.375 43.359375 
Q 9.375 53.515625 8.984375 60.9375 
L 33.59375 60.9375 
L 33.59375 69.53125 
Q 33.203125 75.78125 33.203125 80.46875 
L 42.1875 80.46875 
Q 41.40625 75.390625 41.40625 69.921875 
L 41.40625 60.9375 
L 57.8125 60.9375 
L 57.8125 70.703125 
Q 57.8125 75.78125 57.421875 80.859375 
L 66.40625 80.859375 
Q 66.015625 76.171875 66.015625 71.09375 
L 66.015625 60.9375 
L 91.40625 60.9375 
Q 91.015625 55.078125 91.015625 42.96875 
z
M 57.8125 5.078125 
L 57.8125 29.296875 
L 41.40625 29.296875 
L 41.40625 5.078125 
z
M 82.421875 5.078125 
L 82.421875 29.296875 
L 66.015625 29.296875 
L 66.015625 5.078125 
z
M 33.59375 5.078125 
L 33.59375 29.296875 
L 17.96875 29.296875 
L 17.96875 5.078125 
z
M 57.8125 35.15625 
L 57.8125 55.078125 
L 41.40625 55.078125 
L 41.40625 35.15625 
z
M 82.421875 35.15625 
L 82.421875 55.078125 
L 66.015625 55.078125 
L 66.015625 35.15625 
z
M 33.59375 35.15625 
L 33.59375 55.078125 
L 17.96875 55.078125 
L 17.96875 35.15625 
z
" id="SimHei-26354"/>
       <path d="M 53.90625 67.1875 
Q 53.90625 73.046875 52.734375 80.078125 
Q 57.8125 79.6875 63.28125 78.90625 
Q 62.109375 76.5625 61.71875 71.28125 
Q 61.328125 66.015625 61.71875 56.25 
L 75 58.59375 
Q 81.640625 60.15625 88.28125 62.109375 
L 89.84375 54.6875 
Q 83.203125 53.90625 76.171875 52.734375 
L 62.109375 50 
Q 62.109375 43.75 62.890625 39.0625 
L 78.125 41.796875 
Q 85.9375 43.359375 92.96875 45.703125 
L 94.140625 38.28125 
Q 87.109375 37.109375 79.296875 35.546875 
L 64.0625 32.8125 
Q 64.84375 25 67.96875 18.359375 
Q 71.484375 21.09375 74.796875 24.609375 
Q 78.125 28.125 80.859375 32.421875 
Q 86.71875 27.734375 89.84375 26.171875 
Q 84.765625 23.828125 81.828125 20.890625 
Q 78.90625 17.96875 72.265625 11.71875 
Q 76.953125 3.90625 80.65625 1.75 
Q 84.375 -0.390625 85.9375 1.5625 
Q 87.5 3.515625 88.671875 9.765625 
Q 92.1875 7.03125 96.875 5.46875 
Q 90.234375 -11.71875 82.421875 -8.390625 
Q 74.609375 -5.078125 66.015625 7.03125 
Q 60.546875 2.734375 55.265625 -0.96875 
Q 50 -4.6875 42.1875 -8.59375 
Q 40.234375 -4.6875 36.328125 -1.5625 
Q 44.140625 1.171875 49.609375 4.296875 
Q 55.078125 7.421875 62.109375 13.28125 
Q 58.59375 21.09375 57.03125 31.640625 
Q 45.3125 29.6875 40.625 28.125 
L 39.453125 35.546875 
Q 44.140625 35.546875 55.46875 37.890625 
Q 54.6875 44.140625 54.6875 48.4375 
Q 44.140625 46.09375 40.234375 44.921875 
L 38.671875 52.34375 
Q 42.578125 52.34375 53.90625 54.6875 
z
M 30.46875 76.171875 
Q 26.5625 72.65625 22.84375 66.203125 
Q 19.140625 59.765625 12.890625 50.390625 
Q 22.265625 50.78125 25.78125 50.78125 
Q 29.296875 56.640625 32.03125 63.671875 
Q 35.9375 60.9375 40.625 59.375 
Q 36.71875 55.46875 32.609375 48.828125 
Q 28.515625 42.1875 18.359375 26.171875 
Q 28.90625 26.953125 37.109375 27.734375 
Q 35.9375 23.828125 35.9375 21.09375 
Q 33.203125 21.09375 23.828125 20.109375 
Q 14.453125 19.140625 8.59375 17.578125 
Q 8.203125 21.484375 6.25 25.78125 
Q 10.9375 26.953125 14.84375 32.03125 
Q 18.75 37.109375 23.046875 44.921875 
Q 10.15625 44.140625 6.640625 41.796875 
Q 5.46875 46.09375 3.125 50.390625 
Q 8.203125 53.90625 12.890625 61.90625 
Q 17.578125 69.921875 21.484375 80.46875 
Q 25.390625 77.734375 30.46875 76.171875 
z
M 40.234375 13.671875 
Q 39.84375 9.375 40.234375 7.03125 
Q 30.46875 5.078125 22.65625 3.125 
Q 14.84375 1.171875 8.203125 -1.171875 
Q 7.03125 3.125 3.90625 7.421875 
Q 14.84375 8.59375 20.703125 9.5625 
Q 26.5625 10.546875 40.234375 13.671875 
z
M 75.78125 62.890625 
Q 73.046875 67.1875 68.359375 73.046875 
L 74.609375 76.171875 
Q 76.171875 74.21875 82.421875 66.796875 
Q 78.515625 65.234375 75.78125 62.890625 
z
" id="SimHei-32447"/>
      </defs>
      <use transform="translate(0 0.140625)" xlink:href="#DejaVuSans-Oblique-105"/>
      <use transform="translate(47.265625 0.140625)" xlink:href="#DejaVuSans-8722"/>
      <use transform="translate(150.537109 0.140625)" xlink:href="#DejaVuSans-Oblique-115"/>
      <use transform="translate(202.636719 0.140625)" xlink:href="#SimHei-26354"/>
      <use transform="translate(302.636719 0.140625)" xlink:href="#SimHei-32447"/>
     </g>
    </g>
    <g id="line2d_20"/>
    <g id="line2d_21">
     <g>
      <use style="fill:#ff0000;stroke:#ff0000;" x="337.72" xlink:href="#me429c7c4d0" y="69.24075"/>
     </g>
    </g>
    <g id="text_18">
     <!-- 感染者峰值 -->
     <g transform="translate(355.72 72.74075)scale(0.1 -0.1)">
      <defs>
       <path d="M 95.703125 29.6875 
Q 92.1875 18.75 89.453125 17.375 
Q 86.71875 16.015625 81.828125 17.765625 
Q 76.953125 19.53125 69.140625 26.5625 
Q 64.453125 21.484375 58.203125 17.1875 
Q 55.46875 20.3125 52.34375 21.875 
Q 60.546875 26.5625 65.234375 32.03125 
Q 60.9375 39.0625 58.78125 47.453125 
Q 56.640625 55.859375 55.859375 63.28125 
L 20.703125 63.28125 
Q 20.703125 45.703125 20.109375 39.453125 
Q 19.53125 33.203125 17.578125 27.734375 
Q 15.625 22.265625 11.71875 16.015625 
Q 7.03125 19.140625 4.296875 19.921875 
Q 8.984375 25.78125 11.125 31.4375 
Q 13.28125 37.109375 13.671875 44.53125 
Q 14.0625 51.953125 13.671875 69.53125 
L 55.078125 69.53125 
Q 55.078125 72.65625 54.6875 80.859375 
Q 58.203125 80.078125 62.890625 79.6875 
Q 62.109375 75 62.5 69.53125 
L 79.6875 69.53125 
Q 85.15625 69.53125 92.578125 69.921875 
L 92.578125 62.890625 
Q 85.15625 63.28125 80.078125 63.28125 
L 62.890625 63.28125 
Q 64.453125 46.875 69.53125 38.671875 
Q 71.875 42.578125 73.828125 48.234375 
Q 75.78125 53.90625 76.953125 58.984375 
Q 80.859375 57.421875 85.15625 56.25 
Q 83.59375 54.6875 81.046875 47.65625 
Q 78.515625 40.625 73.828125 32.03125 
Q 78.125 28.125 81.4375 26.171875 
Q 84.765625 24.21875 85.734375 25.390625 
Q 86.71875 26.5625 88.28125 33.59375 
Q 91.40625 30.859375 95.703125 29.6875 
z
M 51.953125 25 
L 24.609375 25 
L 24.609375 44.921875 
L 51.953125 44.921875 
z
M 76.171875 2.734375 
Q 73.4375 -5.078125 71.484375 -6.4375 
Q 69.53125 -7.8125 66.40625 -7.8125 
L 36.71875 -7.8125 
Q 31.640625 -7.421875 30.65625 -3.125 
Q 29.6875 1.171875 29.6875 5.078125 
Q 29.6875 8.984375 29.296875 14.453125 
L 37.5 14.453125 
Q 37.109375 7.8125 37.109375 5.078125 
Q 37.109375 2.734375 37.5 0.390625 
Q 37.890625 -1.953125 42.578125 -1.5625 
L 60.546875 -1.5625 
Q 64.453125 -1.5625 65.8125 -0.1875 
Q 67.1875 1.171875 67.96875 7.03125 
Q 71.09375 4.6875 76.171875 2.734375 
z
M 51.5625 51.171875 
L 25 51.171875 
L 25 57.03125 
L 51.5625 57.03125 
z
M 83.59375 14.0625 
Q 92.1875 3.515625 94.921875 -0.78125 
Q 91.015625 -3.125 87.890625 -5.46875 
Q 83.984375 1.953125 77.34375 9.375 
Q 80.078125 11.328125 83.59375 14.0625 
z
M 7.421875 -2.734375 
Q 10.9375 1.5625 15.234375 14.453125 
Q 18.359375 12.890625 22.65625 11.328125 
Q 17.578125 -0.390625 14.84375 -5.859375 
Q 11.71875 -4.296875 7.421875 -2.734375 
z
M 45.703125 30.46875 
L 45.703125 39.453125 
L 30.859375 39.453125 
L 30.859375 30.46875 
z
M 42.578125 16.40625 
Q 44.921875 18.359375 48.4375 20.703125 
Q 55.078125 12.109375 57.03125 8.59375 
Q 53.90625 6.640625 51.171875 3.90625 
Q 48.828125 8.203125 42.578125 16.40625 
z
M 76.5625 70.3125 
Q 74.21875 72.265625 67.96875 76.5625 
Q 70.3125 79.296875 71.875 81.640625 
Q 74.609375 80.078125 81.25 75 
Q 78.90625 73.046875 76.5625 70.3125 
z
" id="SimHei-24863"/>
       <path d="M 91.015625 -7.03125 
Q 74.21875 -2.34375 66.40625 3.90625 
Q 58.59375 10.15625 53.90625 17.96875 
Q 53.90625 -4.6875 54.296875 -9.375 
L 46.09375 -9.375 
Q 46.484375 -4.296875 46.484375 16.796875 
Q 40.625 8.59375 31.4375 2.34375 
Q 22.265625 -3.90625 9.765625 -8.984375 
Q 8.59375 -5.078125 3.125 -1.5625 
Q 16.796875 1.5625 25.96875 7.609375 
Q 35.15625 13.671875 38.671875 19.140625 
L 19.140625 19.140625 
Q 13.671875 19.140625 6.25 18.75 
L 6.25 25.78125 
Q 13.671875 25.390625 19.140625 25.390625 
L 46.484375 25.390625 
Q 46.484375 28.515625 46.09375 33.59375 
L 54.296875 33.59375 
Q 53.90625 28.90625 53.90625 25.390625 
L 82.8125 25.390625 
Q 87.890625 25.390625 93.75 25.78125 
L 93.75 18.75 
Q 87.890625 19.140625 82.8125 19.140625 
L 61.71875 19.140625 
Q 67.96875 10.546875 78.125 6.25 
Q 88.28125 1.953125 96.484375 1.171875 
Q 91.40625 -3.90625 91.015625 -7.03125 
z
M 28.515625 35.9375 
Q 39.84375 40.234375 45.703125 47.0625 
Q 51.5625 53.90625 53.125 62.5 
Q 47.265625 62.5 40.234375 62.109375 
L 40.234375 69.140625 
Q 47.65625 68.75 53.515625 68.75 
Q 53.90625 76.953125 53.515625 82.03125 
Q 58.203125 80.859375 62.5 80.859375 
Q 61.328125 78.515625 60.9375 68.75 
L 80.078125 68.75 
Q 79.6875 64.84375 79.296875 60.15625 
L 78.125 44.53125 
Q 78.515625 40.625 80.859375 40.625 
L 85.15625 40.625 
Q 87.109375 40.625 87.6875 42.1875 
Q 88.28125 43.75 88.671875 50 
Q 91.796875 47.265625 96.875 46.875 
Q 95.3125 36.328125 92.375 35.34375 
Q 89.453125 34.375 84.171875 34.171875 
Q 78.90625 33.984375 74.796875 34.953125 
Q 70.703125 35.9375 71.09375 42.1875 
L 72.265625 62.5 
L 60.546875 62.5 
Q 59.375 53.515625 54.296875 45.890625 
Q 49.21875 38.28125 35.546875 30.078125 
Q 33.984375 32.8125 28.515625 35.9375 
z
M 33.984375 45.703125 
Q 19.140625 33.984375 13.28125 29.296875 
Q 10.9375 33.203125 7.8125 35.9375 
Q 17.1875 40.625 31.25 52.734375 
Q 32.03125 49.609375 33.984375 45.703125 
z
M 10.546875 64.84375 
Q 21.484375 59.765625 27.34375 56.25 
Q 24.609375 52.734375 23.046875 49.609375 
Q 19.140625 53.125 7.03125 58.59375 
Q 9.375 61.328125 10.546875 64.84375 
z
M 28.90625 64.84375 
Q 23.046875 69.921875 14.0625 74.609375 
Q 16.015625 76.953125 18.359375 80.078125 
Q 27.34375 75 33.984375 71.09375 
Q 30.46875 67.578125 28.90625 64.84375 
z
" id="SimHei-26579"/>
       <path d="M 88.28125 67.578125 
Q 85.15625 64.84375 81.046875 60.546875 
Q 76.953125 56.25 69.53125 48.828125 
L 80.46875 48.828125 
Q 87.109375 48.828125 94.140625 49.21875 
L 94.140625 42.1875 
Q 87.109375 42.578125 80.078125 42.578125 
L 61.71875 42.578125 
Q 55.46875 37.890625 47.65625 32.421875 
L 80.859375 32.421875 
Q 80.46875 25.390625 80.46875 19.53125 
L 80.46875 5.859375 
Q 80.46875 -1.171875 80.859375 -9.375 
L 73.046875 -9.375 
L 73.046875 -3.515625 
L 35.546875 -3.515625 
L 35.546875 -9.375 
L 27.34375 -9.375 
Q 27.734375 -3.125 27.734375 2.34375 
L 27.734375 20.3125 
Q 19.921875 16.015625 10.15625 11.71875 
Q 6.25 17.1875 4.6875 18.359375 
Q 7.421875 19.140625 15.03125 22.0625 
Q 22.65625 25 27.734375 28.515625 
L 27.734375 32.421875 
L 35.15625 32.421875 
Q 43.75 37.109375 50.390625 42.578125 
L 22.65625 42.578125 
Q 14.453125 42.578125 7.421875 42.1875 
L 7.421875 49.21875 
Q 15.234375 48.828125 22.65625 48.828125 
L 43.359375 48.828125 
L 43.359375 60.9375 
L 31.640625 60.9375 
Q 25 60.9375 19.53125 60.546875 
L 19.53125 67.578125 
Q 25 67.1875 31.640625 67.1875 
L 43.359375 67.1875 
Q 43.359375 73.046875 42.96875 80.46875 
L 51.5625 80.46875 
Q 51.171875 75 51.171875 67.1875 
L 57.03125 67.1875 
Q 62.109375 67.1875 68.75 67.578125 
L 68.75 60.546875 
Q 62.109375 60.9375 57.03125 60.9375 
L 51.171875 60.9375 
L 51.171875 48.828125 
L 58.984375 48.828125 
Q 64.453125 53.125 69.921875 58.984375 
Q 75.390625 64.84375 81.25 73.828125 
Q 85.546875 69.53125 88.28125 67.578125 
z
M 73.046875 2.734375 
L 73.046875 11.71875 
L 35.546875 11.71875 
L 35.546875 2.734375 
z
M 73.046875 17.96875 
L 73.046875 26.171875 
L 35.546875 26.171875 
L 35.546875 17.96875 
z
" id="SimHei-32773"/>
       <path d="M 6.25 45.703125 
Q 6.25 51.5625 5.859375 58.59375 
L 13.28125 58.59375 
Q 12.890625 49.21875 12.890625 45.703125 
L 12.890625 9.375 
L 19.53125 10.9375 
L 19.53125 64.453125 
Q 19.53125 71.484375 19.140625 77.34375 
L 26.5625 77.34375 
Q 26.171875 67.96875 26.171875 64.453125 
L 26.171875 11.71875 
L 32.03125 12.890625 
L 32.03125 46.875 
Q 32.03125 53.515625 31.640625 58.59375 
L 39.453125 58.59375 
Q 39.0625 50 39.0625 46.875 
L 39.0625 14.453125 
Q 39.0625 10.9375 39.453125 -0.390625 
L 32.03125 -0.390625 
L 32.03125 6.640625 
L 5.859375 1.5625 
Q 6.25 8.59375 6.25 15.234375 
z
M 68.359375 78.125 
Q 66.015625 75.390625 63.671875 71.875 
L 88.671875 71.875 
Q 85.9375 67.1875 82.421875 61.71875 
Q 78.90625 56.25 75 52.734375 
Q 85.546875 47.65625 96.875 47.265625 
Q 93.75 42.578125 92.96875 38.671875 
Q 84.765625 40.625 80.078125 42.96875 
Q 75.390625 45.3125 69.53125 48.4375 
Q 65.234375 45.703125 59.375 42.96875 
Q 53.515625 40.234375 45.3125 37.109375 
Q 43.359375 40.625 40.625 44.140625 
Q 47.265625 45.3125 52.734375 47.265625 
Q 58.203125 49.21875 64.0625 52.734375 
Q 60.15625 56.640625 56.640625 62.109375 
Q 51.953125 55.46875 48.4375 51.953125 
Q 46.09375 54.296875 42.96875 56.640625 
Q 48.4375 61.71875 52.53125 67.96875 
Q 56.640625 74.21875 59.765625 82.03125 
Q 63.671875 80.078125 68.359375 78.125 
z
M 78.90625 34.765625 
Q 82.03125 34.765625 89.0625 35.15625 
L 89.0625 28.515625 
Q 82.03125 28.90625 79.296875 28.90625 
L 72.265625 28.90625 
L 72.265625 21.484375 
L 76.5625 21.484375 
Q 79.6875 21.484375 87.109375 21.875 
L 87.109375 15.234375 
Q 82.421875 15.625 77.34375 15.625 
L 72.265625 15.625 
L 72.265625 8.203125 
L 80.46875 8.203125 
Q 85.9375 8.203125 91.40625 8.59375 
L 91.40625 1.953125 
Q 87.109375 2.34375 80.859375 2.34375 
L 72.265625 2.34375 
Q 72.265625 -3.515625 72.65625 -10.15625 
L 65.234375 -10.15625 
Q 65.625 -3.125 65.625 2.34375 
L 57.03125 2.34375 
Q 54.296875 2.34375 46.484375 1.953125 
L 46.484375 8.59375 
Q 51.953125 8.203125 57.03125 8.203125 
L 65.234375 8.203125 
L 65.234375 15.625 
L 60.15625 15.625 
Q 54.6875 15.625 48.828125 15.234375 
L 48.828125 21.875 
Q 54.6875 21.484375 60.15625 21.484375 
L 65.234375 21.484375 
L 65.234375 28.90625 
L 60.546875 28.90625 
Q 54.296875 28.90625 48.046875 28.515625 
L 48.046875 35.15625 
Q 54.296875 34.765625 60.546875 34.765625 
L 65.234375 34.765625 
Q 65.234375 38.671875 64.84375 42.96875 
L 72.65625 42.96875 
Q 72.265625 38.671875 72.265625 34.765625 
z
M 69.53125 56.640625 
Q 73.4375 59.375 77.34375 66.015625 
L 61.328125 66.015625 
Q 66.015625 58.984375 69.53125 56.640625 
z
" id="SimHei-23792"/>
       <path d="M 57.421875 69.53125 
L 57.421875 79.6875 
Q 62.109375 79.296875 67.96875 78.90625 
Q 66.015625 76.171875 65.625 69.53125 
L 80.078125 69.53125 
Q 86.71875 69.53125 91.796875 69.921875 
L 91.796875 62.890625 
Q 86.328125 63.28125 80.078125 63.28125 
L 65.234375 63.28125 
L 64.453125 54.6875 
L 84.375 54.6875 
Q 83.984375 50 83.984375 42.1875 
L 83.984375 2.34375 
Q 91.796875 2.34375 95.3125 2.734375 
L 95.3125 -4.296875 
Q 90.234375 -3.90625 81.25 -3.90625 
L 44.53125 -3.90625 
Q 35.546875 -3.90625 29.6875 -4.296875 
L 29.6875 2.734375 
Q 33.203125 2.34375 40.625 2.34375 
L 40.625 42.1875 
Q 40.625 49.609375 40.234375 54.6875 
L 56.25 54.6875 
L 57.03125 63.28125 
L 50 63.28125 
Q 40.234375 63.28125 34.765625 62.890625 
L 34.765625 69.921875 
Q 39.84375 69.53125 50 69.53125 
z
M 34.765625 76.5625 
Q 31.640625 73.046875 25.78125 58.59375 
L 25.78125 7.03125 
Q 25.78125 -1.171875 26.171875 -8.59375 
L 17.96875 -8.59375 
Q 18.359375 -1.953125 18.359375 5.859375 
L 18.359375 46.09375 
Q 13.671875 38.28125 9.765625 33.59375 
Q 6.640625 37.890625 3.90625 40.234375 
Q 7.8125 44.140625 14.640625 55.265625 
Q 21.484375 66.40625 25.390625 80.46875 
Q 30.859375 77.734375 34.765625 76.5625 
z
M 76.953125 41.40625 
L 76.953125 49.21875 
L 48.046875 49.21875 
L 48.046875 41.40625 
z
M 76.953125 2.34375 
L 76.953125 9.765625 
L 48.046875 9.765625 
L 48.046875 2.34375 
z
M 76.953125 15.625 
L 76.953125 22.65625 
L 48.046875 22.65625 
L 48.046875 15.625 
z
M 76.953125 28.515625 
L 76.953125 35.546875 
L 48.046875 35.546875 
L 48.046875 28.515625 
z
" id="SimHei-20540"/>
      </defs>
      <use xlink:href="#SimHei-24863"/>
      <use x="100" xlink:href="#SimHei-26579"/>
      <use x="200" xlink:href="#SimHei-32773"/>
      <use x="300" xlink:href="#SimHei-23792"/>
      <use x="400" xlink:href="#SimHei-20540"/>
     </g>
    </g>
    <g id="line2d_22"/>
    <g id="line2d_23">
     <g>
      <use style="fill:#800080;stroke:#800080;" x="337.72" xlink:href="#m151ab213dd" y="83.498562"/>
     </g>
    </g>
    <g id="text_19">
     <!-- 初始状态 -->
     <g transform="translate(355.72 86.998562)scale(0.1 -0.1)">
      <defs>
       <path d="M 88.671875 8.59375 
Q 88.28125 -2.734375 83.78125 -5.265625 
Q 79.296875 -7.8125 69.140625 -8.984375 
Q 68.75 -4.296875 65.234375 0.78125 
Q 75.78125 0.78125 78.3125 1.953125 
Q 80.859375 3.125 81.25 10.546875 
L 83.984375 65.234375 
L 67.1875 65.234375 
Q 66.796875 53.90625 66.015625 43.75 
Q 65.234375 33.59375 62.890625 24.609375 
Q 60.546875 15.625 55.65625 7.03125 
Q 50.78125 -1.5625 42.578125 -9.375 
Q 39.84375 -6.640625 35.15625 -4.296875 
Q 42.96875 1.953125 47.453125 8.78125 
Q 51.953125 15.625 54.484375 23.046875 
Q 57.03125 30.46875 58.203125 41.015625 
Q 59.375 51.5625 59.765625 65.234375 
Q 49.21875 65.234375 43.75 64.84375 
L 43.75 72.65625 
Q 52.734375 72.265625 59.765625 72.265625 
L 91.796875 72.265625 
L 88.671875 8.59375 
z
M 40.234375 60.9375 
Q 38.671875 57.03125 36.125 51.359375 
Q 33.59375 45.703125 29.6875 39.453125 
Q 32.03125 37.109375 34.375 35.15625 
Q 37.109375 37.890625 42.578125 45.703125 
L 48.828125 39.453125 
Q 46.09375 37.5 43.9375 35.546875 
Q 41.796875 33.59375 39.0625 30.859375 
Q 43.75 26.171875 47.265625 22.265625 
Q 43.359375 19.53125 40.625 16.40625 
Q 36.71875 22.265625 34.765625 24.40625 
Q 32.8125 26.5625 29.296875 30.078125 
L 29.296875 2.734375 
Q 29.296875 -3.125 29.6875 -9.375 
L 21.484375 -9.375 
Q 21.875 -0.78125 21.875 2.734375 
L 21.875 30.078125 
Q 17.1875 24.21875 8.203125 16.796875 
Q 5.46875 21.09375 3.125 23.828125 
Q 10.546875 28.125 17.375 35.734375 
Q 24.21875 43.359375 29.296875 53.90625 
L 20.703125 53.90625 
Q 14.0625 53.90625 8.59375 53.515625 
L 8.59375 61.328125 
Q 14.0625 60.9375 20.3125 60.9375 
z
M 27.34375 81.640625 
Q 30.859375 75.390625 33.984375 68.75 
Q 30.859375 67.578125 26.5625 65.234375 
Q 23.828125 72.65625 20.3125 78.90625 
Q 24.609375 80.46875 27.34375 81.640625 
z
" id="SimHei-21021"/>
       <path d="M 27.34375 79.296875 
Q 25.78125 76.5625 24.796875 71.671875 
Q 23.828125 66.796875 23.046875 60.546875 
L 39.84375 60.546875 
Q 37.5 33.59375 30.46875 17.1875 
Q 35.546875 13.28125 42.578125 6.640625 
Q 39.84375 4.296875 37.109375 0.78125 
Q 31.25 7.8125 27.34375 10.546875 
Q 23.828125 4.296875 19.53125 -0.96875 
Q 15.234375 -6.25 10.9375 -10.546875 
Q 9.375 -8.203125 3.90625 -5.46875 
Q 8.984375 -1.953125 13.46875 3.125 
Q 17.96875 8.203125 21.484375 15.234375 
Q 12.5 21.875 7.8125 24.21875 
Q 13.671875 45.703125 14.84375 53.515625 
Q 10.15625 53.515625 5.078125 53.125 
L 5.078125 60.9375 
Q 10.546875 60.546875 16.015625 60.546875 
Q 18.359375 75.390625 18.359375 81.640625 
Q 24.21875 80.078125 27.34375 79.296875 
z
M 89.453125 32.03125 
Q 89.0625 25.78125 89.0625 10.15625 
Q 89.0625 -5.078125 89.453125 -10.15625 
L 81.25 -10.15625 
L 81.25 -1.5625 
L 53.90625 -1.5625 
L 53.90625 -10.546875 
L 46.09375 -10.546875 
Q 46.484375 -4.6875 46.484375 10.546875 
Q 46.484375 25.78125 46.09375 32.03125 
L 89.453125 32.03125 
z
M 68.75 77.34375 
Q 58.59375 60.546875 50.78125 49.21875 
Q 60.546875 49.21875 66.40625 49.609375 
Q 72.265625 50 81.25 50.390625 
Q 76.171875 57.421875 72.265625 60.9375 
Q 75.390625 62.5 78.515625 66.015625 
Q 89.84375 51.5625 95.703125 44.53125 
Q 93.75 43.359375 89.453125 39.84375 
Q 87.109375 43.359375 85.15625 44.921875 
Q 71.484375 44.140625 61.515625 43.15625 
Q 51.5625 42.1875 44.140625 40.234375 
Q 43.359375 43.75 40.625 48.4375 
Q 44.921875 50.390625 50.578125 60.15625 
Q 56.25 69.921875 59.765625 81.25 
Q 62.890625 78.90625 68.75 77.34375 
z
M 81.25 5.078125 
L 81.25 25 
L 53.90625 25 
L 53.90625 5.078125 
z
M 16.015625 27.734375 
Q 20.3125 24.21875 24.609375 21.875 
Q 26.953125 26.953125 29.296875 36.515625 
Q 31.640625 46.09375 32.03125 53.515625 
L 21.875 53.515625 
Q 20.3125 46.09375 16.015625 27.734375 
z
" id="SimHei-22987"/>
       <path d="M 34.765625 -4.296875 
Q 41.796875 0.390625 46.484375 7.421875 
Q 51.171875 14.453125 53.90625 21.09375 
Q 56.640625 27.734375 57.8125 33.984375 
Q 58.984375 40.234375 59.375 44.921875 
L 50.390625 44.921875 
Q 44.53125 44.921875 39.0625 44.53125 
L 39.0625 51.953125 
Q 44.53125 51.5625 50 51.5625 
L 59.765625 51.5625 
Q 59.765625 62.109375 59.5625 68.359375 
Q 59.375 74.609375 58.984375 79.296875 
L 69.140625 79.296875 
Q 67.96875 74.21875 67.765625 68.9375 
Q 67.578125 63.671875 67.578125 51.5625 
L 83.59375 51.5625 
Q 87.890625 51.5625 93.359375 51.953125 
L 93.359375 44.53125 
Q 87.890625 44.921875 83.59375 44.921875 
L 68.359375 44.921875 
Q 73.046875 22.65625 78.3125 15.03125 
Q 83.59375 7.421875 87.890625 4.09375 
Q 92.1875 0.78125 95.703125 -1.171875 
Q 90.234375 -3.515625 87.890625 -8.203125 
Q 81.640625 -3.125 77.921875 1.75 
Q 74.21875 6.640625 71.671875 11.328125 
Q 69.140625 16.015625 67.375 20.890625 
Q 65.625 25.78125 64.453125 31.25 
Q 62.5 21.875 59.5625 15.234375 
Q 56.640625 8.59375 53.515625 3.703125 
Q 50.390625 -1.171875 42.96875 -9.765625 
Q 39.453125 -6.25 34.765625 -4.296875 
z
M 34.765625 81.25 
Q 34.375 75.390625 34.375 66.40625 
L 34.375 12.109375 
Q 34.375 0.78125 34.765625 -9.765625 
L 26.171875 -9.765625 
Q 26.5625 1.171875 26.5625 12.109375 
L 26.5625 30.46875 
Q 23.828125 27.34375 18.75 21.09375 
Q 13.671875 14.84375 10.9375 11.71875 
Q 7.8125 15.625 4.296875 17.96875 
Q 8.984375 21.484375 14.25 26.75 
Q 19.53125 32.03125 26.5625 40.625 
L 26.5625 66.40625 
Q 26.5625 75.390625 26.171875 81.25 
L 34.765625 81.25 
z
M 9.765625 67.578125 
Q 12.5 64.453125 15.625 60.546875 
Q 18.75 56.640625 21.484375 52.734375 
Q 18.359375 50.390625 16.40625 48.046875 
Q 13.28125 52.34375 3.90625 63.28125 
Q 6.25 65.234375 9.765625 67.578125 
z
M 85.546875 57.03125 
Q 82.03125 62.109375 73.4375 69.921875 
Q 76.5625 72.265625 78.515625 74.21875 
Q 82.03125 71.484375 84.765625 68.546875 
Q 87.5 65.625 91.015625 62.109375 
Q 87.890625 59.375 85.546875 57.03125 
z
" id="SimHei-29366"/>
       <path d="M 40.234375 67.578125 
Q 42.1875 75 42.578125 82.03125 
Q 48.046875 80.078125 52.34375 79.6875 
Q 50.390625 76.171875 48.4375 67.578125 
L 78.515625 67.578125 
Q 83.984375 67.578125 91.015625 68.359375 
L 91.015625 60.15625 
Q 83.59375 60.546875 78.125 60.546875 
L 62.109375 60.546875 
Q 66.015625 51.5625 71.484375 46.671875 
Q 76.953125 41.796875 82.03125 39.453125 
Q 87.109375 37.109375 95.3125 35.546875 
Q 90.625 32.421875 88.671875 27.734375 
Q 76.5625 32.8125 70.703125 37.6875 
Q 64.84375 42.578125 60.9375 48.046875 
Q 57.03125 53.515625 54.6875 60.546875 
L 46.484375 60.546875 
Q 41.796875 50 34.171875 41.984375 
Q 26.5625 33.984375 11.328125 25.390625 
Q 10.15625 28.90625 4.6875 32.421875 
Q 14.0625 35.546875 23.625 42.96875 
Q 33.203125 50.390625 37.890625 60.546875 
L 20.3125 60.546875 
Q 14.0625 60.546875 7.03125 60.15625 
L 7.03125 68.359375 
Q 13.671875 67.578125 20.3125 67.578125 
z
M 39.453125 21.09375 
Q 39.0625 13.671875 39.0625 8.984375 
Q 39.0625 4.6875 39.25 2.34375 
Q 39.453125 0 43.75 0 
L 59.765625 0 
Q 62.890625 -0.390625 65.234375 0.96875 
Q 67.578125 2.34375 68.75 9.765625 
Q 72.65625 7.03125 77.734375 5.859375 
Q 74.609375 -2.34375 72.265625 -4.875 
Q 69.921875 -7.421875 62.5 -7.03125 
L 39.0625 -7.03125 
Q 32.03125 -6.25 31.4375 -2.53125 
Q 30.859375 1.171875 30.859375 6.640625 
Q 30.859375 12.5 30.46875 21.09375 
L 39.453125 21.09375 
z
M 22.265625 18.359375 
Q 18.359375 7.03125 12.890625 -5.078125 
Q 9.765625 -2.734375 5.078125 -1.953125 
Q 12.109375 9.765625 13.671875 21.484375 
Q 18.359375 19.53125 22.265625 18.359375 
z
M 80.859375 23.828125 
Q 87.5 14.84375 94.53125 5.46875 
Q 90.625 2.734375 87.5 0 
Q 81.640625 10.9375 74.21875 19.53125 
Q 78.125 21.09375 80.859375 23.828125 
z
M 42.1875 47.65625 
Q 49.609375 41.796875 54.6875 36.328125 
Q 51.171875 33.984375 48.4375 30.859375 
Q 44.140625 36.71875 36.71875 42.1875 
L 42.1875 47.65625 
z
M 52.734375 27.34375 
Q 56.640625 21.09375 59.765625 14.453125 
Q 56.640625 12.5 52.734375 10.546875 
Q 50 18.359375 46.09375 23.828125 
Q 49.609375 25 52.734375 27.34375 
z
" id="SimHei-24577"/>
      </defs>
      <use xlink:href="#SimHei-21021"/>
      <use x="100" xlink:href="#SimHei-22987"/>
      <use x="200" xlink:href="#SimHei-29366"/>
      <use x="300" xlink:href="#SimHei-24577"/>
     </g>
    </g>
   </g>
  </g>
 </g>
 <defs>
  <clipPath id="p1b7d34d117">
   <rect height="266.112" width="357.12" x="57.6" y="41.472"/>
  </clipPath>
 </defs>
</svg>
