<?xml version="1.0" encoding="utf-8" standalone="no"?>
<!DOCTYPE svg PUBLIC "-//W3C//DTD SVG 1.1//EN"
  "http://www.w3.org/Graphics/SVG/1.1/DTD/svg11.dtd">
<!-- Created with matplotlib (https://matplotlib.org/) -->
<svg height="345.6pt" version="1.1" viewBox="0 0 460.8 345.6" width="460.8pt" xmlns="http://www.w3.org/2000/svg" xmlns:xlink="http://www.w3.org/1999/xlink">
 <metadata>
  <rdf:RDF xmlns:cc="http://creativecommons.org/ns#" xmlns:dc="http://purl.org/dc/elements/1.1/" xmlns:rdf="http://www.w3.org/1999/02/22-rdf-syntax-ns#">
   <cc:Work>
    <dc:type rdf:resource="http://purl.org/dc/dcmitype/StillImage"/>
    <dc:date>2023-01-16T21:38:37.601514</dc:date>
    <dc:format>image/svg+xml</dc:format>
    <dc:creator>
     <cc:Agent>
      <dc:title>Matplotlib v3.3.3, https://matplotlib.org/</dc:title>
     </cc:Agent>
    </dc:creator>
   </cc:Work>
  </rdf:RDF>
 </metadata>
 <defs>
  <style type="text/css">*{stroke-linecap:butt;stroke-linejoin:round;}</style>
 </defs>
 <g id="figure_1">
  <g id="patch_1">
   <path d="M 0 345.6 
L 460.8 345.6 
L 460.8 0 
L 0 0 
z
" style="fill:#ffffff;"/>
  </g>
  <g id="axes_1">
   <g id="patch_2">
    <path d="M 57.6 307.584 
L 414.72 307.584 
L 414.72 41.472 
L 57.6 41.472 
z
" style="fill:#ffffff;"/>
   </g>
   <g id="matplotlib.axis_1">
    <g id="xtick_1">
     <g id="line2d_1">
      <defs>
       <path d="M 0 0 
L 0 3.5 
" id="mc2faa48073" style="stroke:#000000;stroke-width:0.8;"/>
      </defs>
      <g>
       <use style="stroke:#000000;stroke-width:0.8;" x="73.832727" xlink:href="#mc2faa48073" y="307.584"/>
      </g>
     </g>
     <g id="text_1">
      <!-- 0 -->
      <g transform="translate(71.332727 321.459)scale(0.1 -0.1)">
       <defs>
        <path d="M 3.125 29.296875 
Q 3.90625 50 6.4375 56.046875 
Q 8.984375 62.109375 13.671875 66.015625 
Q 18.359375 69.921875 25.1875 69.921875 
Q 32.03125 69.921875 37.109375 64.25 
Q 42.1875 58.59375 43.75 50 
Q 45.3125 41.40625 44.71875 30.265625 
Q 44.140625 19.140625 40.8125 12.109375 
Q 37.5 5.078125 30.859375 2.34375 
Q 24.21875 -0.390625 17.578125 2.921875 
Q 10.9375 6.25 8.203125 11.71875 
Q 5.46875 17.1875 4.296875 23.234375 
Q 3.125 29.296875 3.90625 50 
z
M 12.890625 52.734375 
Q 10.546875 31.25 12.5 22.84375 
Q 14.453125 14.453125 18.9375 10.9375 
Q 23.4375 7.421875 28.125 9.5625 
Q 32.8125 11.71875 34.953125 18.15625 
Q 37.109375 24.609375 37.109375 32.21875 
Q 37.109375 39.84375 36.515625 46.09375 
Q 35.9375 52.34375 33 57.421875 
Q 30.078125 62.5 25.1875 62.6875 
Q 20.3125 62.890625 16.59375 57.8125 
Q 12.890625 52.734375 10.546875 31.25 
z
" id="SimHei-48"/>
       </defs>
       <use xlink:href="#SimHei-48"/>
      </g>
     </g>
    </g>
    <g id="xtick_2">
     <g id="line2d_2">
      <g>
       <use style="stroke:#000000;stroke-width:0.8;" x="138.763636" xlink:href="#mc2faa48073" y="307.584"/>
      </g>
     </g>
     <g id="text_2">
      <!-- 10 -->
      <g transform="translate(133.763636 321.459)scale(0.1 -0.1)">
       <defs>
        <path d="M 21.875 56.25 
Q 16.796875 51.171875 8.984375 46.484375 
L 8.984375 53.90625 
Q 18.75 60.546875 25 69.53125 
L 29.6875 69.53125 
L 29.6875 2.34375 
L 21.875 2.34375 
z
" id="SimHei-49"/>
       </defs>
       <use xlink:href="#SimHei-49"/>
       <use x="50" xlink:href="#SimHei-48"/>
      </g>
     </g>
    </g>
    <g id="xtick_3">
     <g id="line2d_3">
      <g>
       <use style="stroke:#000000;stroke-width:0.8;" x="203.694545" xlink:href="#mc2faa48073" y="307.584"/>
      </g>
     </g>
     <g id="text_3">
      <!-- 20 -->
      <g transform="translate(198.694545 321.459)scale(0.1 -0.1)">
       <defs>
        <path d="M 4.6875 3.90625 
Q 5.078125 9.765625 10.15625 14.453125 
Q 15.234375 19.140625 23.046875 29.09375 
Q 30.859375 39.0625 33.203125 44.53125 
Q 35.546875 50 34.953125 53.90625 
Q 34.375 57.8125 31.25 60.34375 
Q 28.125 62.890625 24.015625 62.5 
Q 19.921875 62.109375 16.203125 59.375 
Q 12.5 56.640625 10.546875 51.171875 
L 3.125 52.34375 
Q 6.25 61.328125 11.125 65.421875 
Q 16.015625 69.53125 22.65625 69.921875 
Q 26.5625 70.3125 29.6875 69.71875 
Q 32.8125 69.140625 36.125 66.984375 
Q 39.453125 64.84375 41.59375 60.546875 
Q 43.75 56.25 43.15625 50.1875 
Q 42.578125 44.140625 37.109375 35.734375 
Q 31.640625 27.34375 16.015625 9.375 
L 44.140625 9.375 
L 44.140625 2.34375 
L 4.6875 2.34375 
z
" id="SimHei-50"/>
       </defs>
       <use xlink:href="#SimHei-50"/>
       <use x="50" xlink:href="#SimHei-48"/>
      </g>
     </g>
    </g>
    <g id="xtick_4">
     <g id="line2d_4">
      <g>
       <use style="stroke:#000000;stroke-width:0.8;" x="268.625455" xlink:href="#mc2faa48073" y="307.584"/>
      </g>
     </g>
     <g id="text_4">
      <!-- 30 -->
      <g transform="translate(263.625455 321.459)scale(0.1 -0.1)">
       <defs>
        <path d="M 3.90625 19.140625 
L 10.9375 20.3125 
Q 12.5 15.234375 16.015625 11.90625 
Q 19.53125 8.59375 24.796875 8.78125 
Q 30.078125 8.984375 33.203125 13.078125 
Q 36.328125 17.1875 35.9375 22.453125 
Q 35.546875 27.734375 31.828125 30.65625 
Q 28.125 33.59375 19.921875 34.765625 
L 19.921875 39.84375 
Q 28.125 40.625 31.828125 44.140625 
Q 35.546875 47.65625 35.15625 53.3125 
Q 34.765625 58.984375 30.078125 61.515625 
Q 25.390625 64.0625 20.109375 62.109375 
Q 14.84375 60.15625 11.71875 51.171875 
L 4.6875 52.34375 
Q 7.03125 59.375 11.125 64.0625 
Q 15.234375 68.75 22.265625 69.53125 
Q 29.296875 70.3125 34.5625 67.765625 
Q 39.84375 65.234375 41.984375 59.953125 
Q 44.140625 54.6875 42.578125 48.4375 
Q 41.015625 42.1875 33.59375 37.5 
Q 39.0625 35.15625 41.984375 30.46875 
Q 44.921875 25.78125 43.9375 18.15625 
Q 42.96875 10.546875 37.109375 5.859375 
Q 31.25 1.171875 23.828125 1.359375 
Q 16.40625 1.5625 10.9375 6.046875 
Q 5.46875 10.546875 3.90625 19.140625 
z
" id="SimHei-51"/>
       </defs>
       <use xlink:href="#SimHei-51"/>
       <use x="50" xlink:href="#SimHei-48"/>
      </g>
     </g>
    </g>
    <g id="xtick_5">
     <g id="line2d_5">
      <g>
       <use style="stroke:#000000;stroke-width:0.8;" x="333.556364" xlink:href="#mc2faa48073" y="307.584"/>
      </g>
     </g>
     <g id="text_5">
      <!-- 40 -->
      <g transform="translate(328.556364 321.459)scale(0.1 -0.1)">
       <defs>
        <path d="M 31.25 17.1875 
L 1.171875 17.1875 
L 1.171875 23.828125 
L 32.8125 69.53125 
L 38.671875 69.53125 
L 38.671875 23.828125 
L 48.046875 23.828125 
L 48.046875 17.1875 
L 38.671875 17.1875 
L 38.671875 2.34375 
L 31.25 2.34375 
z
M 31.25 23.828125 
L 31.25 54.6875 
L 9.375 23.828125 
z
" id="SimHei-52"/>
       </defs>
       <use xlink:href="#SimHei-52"/>
       <use x="50" xlink:href="#SimHei-48"/>
      </g>
     </g>
    </g>
    <g id="xtick_6">
     <g id="line2d_6">
      <g>
       <use style="stroke:#000000;stroke-width:0.8;" x="398.487273" xlink:href="#mc2faa48073" y="307.584"/>
      </g>
     </g>
     <g id="text_6">
      <!-- 50 -->
      <g transform="translate(393.487273 321.459)scale(0.1 -0.1)">
       <defs>
        <path d="M 8.59375 20.703125 
Q 11.328125 10.15625 17.96875 8.984375 
Q 24.609375 7.8125 28.703125 10.34375 
Q 32.8125 12.890625 34.5625 16.984375 
Q 36.328125 21.09375 36.125 26.171875 
Q 35.9375 31.25 33.390625 34.765625 
Q 30.859375 38.28125 26.953125 39.453125 
Q 23.046875 40.625 18.15625 39.453125 
Q 13.28125 38.28125 10.15625 33.984375 
L 3.515625 34.765625 
Q 4.296875 37.109375 10.9375 68.359375 
L 41.796875 68.359375 
L 41.796875 61.328125 
L 16.796875 61.328125 
Q 14.84375 50.78125 12.890625 44.53125 
Q 18.75 47.265625 23.828125 47.0625 
Q 28.90625 46.875 33.59375 44.71875 
Q 38.28125 42.578125 40.421875 38.859375 
Q 42.578125 35.15625 43.546875 31.4375 
Q 44.53125 27.734375 44.328125 23.4375 
Q 44.140625 19.140625 42.578125 14.640625 
Q 41.015625 10.15625 37.890625 7.21875 
Q 34.765625 4.296875 30.265625 2.53125 
Q 25.78125 0.78125 19.921875 1.171875 
Q 14.0625 1.5625 8.78125 5.46875 
Q 3.515625 9.375 1.5625 18.75 
z
" id="SimHei-53"/>
       </defs>
       <use xlink:href="#SimHei-53"/>
       <use x="50" xlink:href="#SimHei-48"/>
      </g>
     </g>
    </g>
    <g id="text_7">
     <!-- $t$ -->
     <g transform="translate(234.16 333.584)scale(0.1 -0.1)">
      <defs>
       <path d="M 42.28125 54.6875 
L 40.921875 47.703125 
L 23 47.703125 
L 17.1875 18.015625 
Q 16.890625 16.359375 16.75 15.234375 
Q 16.609375 14.109375 16.609375 13.484375 
Q 16.609375 10.359375 18.484375 8.9375 
Q 20.359375 7.515625 24.515625 7.515625 
L 33.59375 7.515625 
L 32.078125 0 
L 23.484375 0 
Q 15.484375 0 11.546875 3.125 
Q 7.625 6.25 7.625 12.59375 
Q 7.625 13.71875 7.765625 15.0625 
Q 7.90625 16.40625 8.203125 18.015625 
L 14.015625 47.703125 
L 6.390625 47.703125 
L 7.8125 54.6875 
L 15.28125 54.6875 
L 18.3125 70.21875 
L 27.296875 70.21875 
L 24.3125 54.6875 
z
" id="DejaVuSans-Oblique-116"/>
      </defs>
      <use transform="translate(0 0.78125)" xlink:href="#DejaVuSans-Oblique-116"/>
     </g>
    </g>
   </g>
   <g id="matplotlib.axis_2">
    <g id="ytick_1">
     <g id="line2d_7">
      <defs>
       <path d="M 0 0 
L -3.5 0 
" id="m931afcee22" style="stroke:#000000;stroke-width:0.8;"/>
      </defs>
      <g>
       <use style="stroke:#000000;stroke-width:0.8;" x="57.6" xlink:href="#m931afcee22" y="295.488"/>
      </g>
     </g>
     <g id="text_8">
      <!-- 0.0 -->
      <g transform="translate(35.6 298.9255)scale(0.1 -0.1)">
       <defs>
        <path d="M 16.796875 1.953125 
L 7.8125 1.953125 
L 7.8125 10.546875 
L 16.796875 10.546875 
z
" id="SimHei-46"/>
       </defs>
       <use xlink:href="#SimHei-48"/>
       <use x="50" xlink:href="#SimHei-46"/>
       <use x="100" xlink:href="#SimHei-48"/>
      </g>
     </g>
    </g>
    <g id="ytick_2">
     <g id="line2d_8">
      <g>
       <use style="stroke:#000000;stroke-width:0.8;" x="57.6" xlink:href="#m931afcee22" y="246.116571"/>
      </g>
     </g>
     <g id="text_9">
      <!-- 0.2 -->
      <g transform="translate(35.6 249.554071)scale(0.1 -0.1)">
       <use xlink:href="#SimHei-48"/>
       <use x="50" xlink:href="#SimHei-46"/>
       <use x="100" xlink:href="#SimHei-50"/>
      </g>
     </g>
    </g>
    <g id="ytick_3">
     <g id="line2d_9">
      <g>
       <use style="stroke:#000000;stroke-width:0.8;" x="57.6" xlink:href="#m931afcee22" y="196.745143"/>
      </g>
     </g>
     <g id="text_10">
      <!-- 0.4 -->
      <g transform="translate(35.6 200.182643)scale(0.1 -0.1)">
       <use xlink:href="#SimHei-48"/>
       <use x="50" xlink:href="#SimHei-46"/>
       <use x="100" xlink:href="#SimHei-52"/>
      </g>
     </g>
    </g>
    <g id="ytick_4">
     <g id="line2d_10">
      <g>
       <use style="stroke:#000000;stroke-width:0.8;" x="57.6" xlink:href="#m931afcee22" y="147.373714"/>
      </g>
     </g>
     <g id="text_11">
      <!-- 0.6 -->
      <g transform="translate(35.6 150.811214)scale(0.1 -0.1)">
       <defs>
        <path d="M 3.515625 19.53125 
Q 4.296875 30.859375 6.046875 34.765625 
Q 7.8125 38.671875 11.328125 44.53125 
L 27.34375 69.53125 
L 36.328125 69.53125 
L 19.921875 43.75 
Q 30.46875 46.484375 36.71875 42.96875 
Q 42.96875 39.453125 45.109375 34.953125 
Q 47.265625 30.46875 47.453125 25.1875 
Q 47.65625 19.921875 45.890625 14.84375 
Q 44.140625 9.765625 39.640625 5.65625 
Q 35.15625 1.5625 27.140625 1.171875 
Q 19.140625 0.78125 13.46875 4.09375 
Q 7.8125 7.421875 5.65625 13.46875 
Q 3.515625 19.53125 4.296875 30.859375 
z
M 12.5 16.015625 
Q 19.53125 8.59375 25.390625 8.203125 
Q 31.25 7.8125 35.15625 12.109375 
Q 39.0625 16.40625 39.0625 24.609375 
Q 39.0625 32.8125 34.171875 35.9375 
Q 29.296875 39.0625 23.234375 38.28125 
Q 17.1875 37.5 14.453125 32.421875 
Q 11.71875 27.34375 12.109375 21.671875 
Q 12.5 16.015625 19.53125 8.59375 
z
" id="SimHei-54"/>
       </defs>
       <use xlink:href="#SimHei-48"/>
       <use x="50" xlink:href="#SimHei-46"/>
       <use x="100" xlink:href="#SimHei-54"/>
      </g>
     </g>
    </g>
    <g id="ytick_5">
     <g id="line2d_11">
      <g>
       <use style="stroke:#000000;stroke-width:0.8;" x="57.6" xlink:href="#m931afcee22" y="98.002286"/>
      </g>
     </g>
     <g id="text_12">
      <!-- 0.8 -->
      <g transform="translate(35.6 101.439786)scale(0.1 -0.1)">
       <defs>
        <path d="M 2.734375 16.796875 
Q 2.734375 26.171875 5.078125 30.65625 
Q 7.421875 35.15625 12.890625 37.890625 
Q 8.203125 40.625 6.640625 43.9375 
Q 5.078125 47.265625 4.875 51.5625 
Q 4.6875 55.859375 6.046875 58.984375 
Q 7.421875 62.109375 10.15625 64.84375 
Q 12.890625 67.578125 16.203125 68.546875 
Q 19.53125 69.53125 23.4375 69.53125 
Q 27.34375 69.53125 30.46875 68.75 
Q 33.59375 67.96875 37.109375 65.421875 
Q 40.625 62.890625 42.1875 58.203125 
Q 43.75 53.515625 41.984375 47.265625 
Q 40.234375 41.015625 32.8125 37.5 
Q 39.453125 35.546875 42.1875 31.4375 
Q 44.921875 27.34375 44.921875 21.484375 
Q 44.921875 15.625 43.15625 12.109375 
Q 41.40625 8.59375 39.25 6.25 
Q 37.109375 3.90625 33.390625 2.53125 
Q 29.6875 1.171875 24.015625 1.171875 
Q 18.359375 1.171875 14.25 2.53125 
Q 10.15625 3.90625 7.421875 6.640625 
Q 4.6875 9.375 3.703125 13.078125 
Q 2.734375 16.796875 2.734375 26.171875 
z
M 10.9375 26.5625 
Q 10.546875 17.1875 12.296875 13.671875 
Q 14.0625 10.15625 18.75 9.171875 
Q 23.4375 8.203125 28.515625 9.375 
Q 33.59375 10.546875 35.546875 14.84375 
Q 37.5 19.140625 36.90625 23.4375 
Q 36.328125 27.734375 32.03125 30.65625 
Q 27.734375 33.59375 22.65625 33.203125 
Q 17.578125 32.8125 14.25 29.6875 
Q 10.9375 26.5625 10.546875 17.1875 
z
M 12.109375 56.25 
Q 12.109375 48.4375 14.84375 44.921875 
Q 17.578125 41.40625 23.4375 41.40625 
Q 29.296875 41.40625 32.21875 44.921875 
Q 35.15625 48.4375 34.953125 53.3125 
Q 34.765625 58.203125 31.4375 60.546875 
Q 28.125 62.890625 22.453125 62.5 
Q 16.796875 62.109375 14.453125 59.171875 
Q 12.109375 56.25 12.109375 48.4375 
z
" id="SimHei-56"/>
       </defs>
       <use xlink:href="#SimHei-48"/>
       <use x="50" xlink:href="#SimHei-46"/>
       <use x="100" xlink:href="#SimHei-56"/>
      </g>
     </g>
    </g>
    <g id="ytick_6">
     <g id="line2d_12">
      <g>
       <use style="stroke:#000000;stroke-width:0.8;" x="57.6" xlink:href="#m931afcee22" y="48.630857"/>
      </g>
     </g>
     <g id="text_13">
      <!-- 1.0 -->
      <g transform="translate(35.6 52.068357)scale(0.1 -0.1)">
       <use xlink:href="#SimHei-49"/>
       <use x="50" xlink:href="#SimHei-46"/>
       <use x="100" xlink:href="#SimHei-48"/>
      </g>
     </g>
    </g>
    <g id="text_14">
     <!-- 三类人的比例 -->
     <g transform="translate(30.35 204.528)rotate(-90)scale(0.1 -0.1)">
      <defs>
       <path d="M 93.75 -3.125 
Q 86.71875 -2.734375 81.25 -2.734375 
L 20.3125 -2.734375 
Q 14.0625 -2.734375 5.859375 -3.125 
L 5.859375 5.46875 
Q 13.28125 5.078125 20.3125 5.078125 
L 81.25 5.078125 
Q 87.109375 5.078125 93.75 5.859375 
z
M 14.0625 71.875 
Q 21.875 71.484375 28.515625 71.484375 
L 71.875 71.484375 
Q 79.296875 71.484375 85.546875 71.875 
L 85.546875 63.671875 
Q 79.6875 64.0625 71.875 64.0625 
L 28.125 64.0625 
Q 21.484375 64.0625 14.0625 63.671875 
z
M 32.421875 32.8125 
Q 26.5625 32.8125 19.921875 32.421875 
L 19.921875 41.015625 
Q 26.171875 40.625 32.421875 40.625 
L 66.015625 40.625 
Q 71.875 40.625 78.90625 41.015625 
L 78.90625 32.421875 
Q 71.09375 32.8125 66.015625 32.8125 
z
" id="SimHei-19977"/>
       <path d="M 33.203125 60.546875 
Q 27.34375 68.359375 20.703125 73.828125 
Q 23.828125 76.171875 26.171875 78.90625 
L 39.453125 66.015625 
Q 37.5 64.453125 34.375 60.546875 
L 47.265625 60.546875 
L 47.265625 71.09375 
Q 47.265625 76.5625 46.875 80.078125 
L 55.078125 80.078125 
Q 54.6875 75.78125 54.6875 71.09375 
L 54.6875 60.546875 
L 67.578125 60.546875 
Q 64.453125 63.28125 62.5 64.84375 
Q 69.53125 71.484375 75 80.859375 
Q 78.125 78.125 82.421875 75.390625 
Q 79.6875 73.046875 76.75 69.921875 
Q 73.828125 66.796875 68.75 60.546875 
L 78.515625 60.546875 
Q 84.765625 60.546875 92.1875 60.9375 
L 92.1875 53.90625 
Q 84.765625 54.296875 78.515625 54.296875 
L 54.6875 54.296875 
L 54.6875 47.65625 
Q 54.6875 41.40625 55.078125 33.984375 
L 49.609375 33.984375 
Q 54.296875 32.421875 57.421875 31.25 
Q 55.859375 29.296875 55.078125 24.609375 
L 78.515625 24.609375 
Q 86.328125 24.609375 94.140625 25 
L 94.140625 17.96875 
Q 86.71875 18.359375 78.90625 18.359375 
L 57.421875 18.359375 
Q 63.28125 9.375 73.625 4.296875 
Q 83.984375 -0.78125 94.53125 -2.734375 
Q 91.40625 -5.46875 89.453125 -10.546875 
Q 77.734375 -7.03125 67.96875 -0.578125 
Q 58.203125 5.859375 51.5625 14.84375 
Q 47.65625 5.46875 37.890625 -0.78125 
Q 28.125 -7.03125 12.109375 -10.9375 
Q 10.15625 -6.640625 7.421875 -3.515625 
Q 21.484375 -1.5625 31.4375 3.515625 
Q 41.40625 8.59375 45.3125 18.359375 
L 25.390625 18.359375 
Q 16.015625 18.359375 8.203125 17.96875 
L 8.203125 25 
Q 14.84375 24.609375 25 24.609375 
L 47.265625 24.609375 
Q 48.046875 28.515625 48.4375 33.984375 
L 46.875 33.984375 
Q 47.265625 41.796875 47.265625 47.65625 
L 47.265625 51.953125 
Q 42.578125 45.3125 34.953125 39.84375 
Q 27.34375 34.375 14.453125 28.515625 
Q 13.28125 31.640625 9.765625 35.546875 
Q 18.359375 37.5 26.953125 42.765625 
Q 35.546875 48.046875 40.625 54.296875 
L 24.21875 54.296875 
Q 16.40625 54.296875 9.375 53.515625 
L 9.375 60.9375 
Q 16.796875 60.546875 24.21875 60.546875 
z
M 64.0625 53.90625 
Q 75.78125 46.875 90.625 36.71875 
Q 87.109375 33.203125 84.765625 30.078125 
Q 73.4375 39.84375 59.765625 48.046875 
Q 62.109375 50.78125 64.0625 53.90625 
z
" id="SimHei-31867"/>
       <path d="M 5.46875 -2.34375 
Q 20.703125 5.078125 29.296875 16.015625 
Q 37.890625 26.953125 41.203125 38.46875 
Q 44.53125 50 44.921875 59.953125 
Q 45.3125 69.921875 44.53125 80.859375 
Q 48.828125 80.46875 54.296875 80.078125 
Q 53.125 73.828125 53.125 67.1875 
Q 53.125 60.546875 53.90625 51.953125 
Q 54.6875 43.359375 65.03125 25.96875 
Q 75.390625 8.59375 95.3125 0 
Q 90.625 -4.6875 89.0625 -7.8125 
Q 61.71875 5.46875 50 40.234375 
Q 42.1875 9.375 12.109375 -8.984375 
Q 9.765625 -5.859375 5.46875 -2.34375 
z
" id="SimHei-20154"/>
       <path d="M 32.8125 77.734375 
Q 30.859375 74.21875 27.34375 61.71875 
L 44.921875 61.71875 
Q 44.53125 55.078125 44.53125 44.921875 
L 44.53125 10.546875 
Q 44.53125 4.6875 44.921875 -6.25 
L 37.109375 -6.25 
L 37.109375 1.5625 
L 17.1875 1.5625 
L 17.1875 -7.03125 
L 9.375 -7.03125 
Q 9.765625 5.46875 9.765625 8.59375 
L 9.765625 44.53125 
Q 9.765625 55.078125 9.375 61.71875 
L 20.703125 61.71875 
Q 22.65625 70.703125 23.828125 80.46875 
Q 29.296875 78.515625 32.8125 77.734375 
z
M 91.015625 48.046875 
Q 90.625 24.21875 89.0625 2.734375 
Q 88.28125 -4.296875 81.640625 -6.640625 
Q 75 -8.984375 66.796875 -9.765625 
Q 66.40625 -5.46875 63.28125 -0.78125 
Q 71.09375 -1.171875 75.578125 -0.390625 
Q 80.078125 0.390625 81.25 3.125 
Q 82.421875 5.859375 83 19.140625 
Q 83.59375 32.421875 83.984375 56.25 
L 61.328125 56.25 
Q 58.203125 48.828125 52.34375 38.671875 
Q 49.609375 41.40625 45.703125 42.96875 
Q 49.21875 47.65625 52.34375 54.296875 
Q 55.46875 60.9375 57.8125 68.75 
Q 60.15625 76.5625 60.546875 80.859375 
Q 66.015625 78.515625 69.921875 77.34375 
Q 67.96875 74.21875 66.59375 70.5 
Q 65.234375 66.796875 63.671875 63.28125 
L 91.40625 63.28125 
Q 91.015625 55.078125 91.015625 48.046875 
z
M 37.109375 8.203125 
L 37.109375 28.90625 
L 17.1875 28.90625 
L 17.1875 8.203125 
z
M 37.109375 35.546875 
L 37.109375 55.078125 
L 17.1875 55.078125 
L 17.1875 35.546875 
z
M 67.96875 32.03125 
Q 70.3125 27.34375 73.4375 19.921875 
Q 70.703125 18.75 66.015625 16.015625 
Q 63.28125 23.4375 60.9375 28.703125 
Q 58.59375 33.984375 56.25 37.5 
Q 58.984375 39.0625 63.28125 41.40625 
z
" id="SimHei-30340"/>
       <path d="M 58.984375 79.6875 
Q 58.59375 71.484375 58.59375 64.0625 
L 58.59375 47.65625 
Q 76.953125 56.25 85.546875 65.234375 
Q 88.671875 60.9375 92.1875 57.421875 
Q 87.5 54.6875 78.703125 49.796875 
Q 69.921875 44.921875 58.59375 39.84375 
L 58.59375 7.03125 
Q 58.59375 1.5625 63.28125 1.5625 
L 78.125 1.5625 
Q 80.859375 1.5625 82.21875 3.90625 
Q 83.59375 6.25 85.15625 14.0625 
Q 88.28125 12.109375 94.140625 10.546875 
Q 91.40625 0 88.28125 -2.734375 
Q 85.15625 -5.46875 81.640625 -5.46875 
L 60.9375 -5.46875 
Q 50.78125 -5.46875 50.78125 4.296875 
L 50.78125 62.5 
Q 50.78125 71.09375 50.390625 79.6875 
L 58.984375 79.6875 
z
M 19.921875 77.734375 
Q 19.53125 71.484375 19.53125 62.5 
L 19.53125 49.21875 
L 28.90625 49.21875 
Q 36.328125 49.21875 44.921875 49.609375 
L 44.921875 41.40625 
Q 36.328125 41.796875 28.90625 41.796875 
L 19.53125 41.796875 
L 19.53125 7.421875 
Q 25.78125 10.15625 30.65625 12.6875 
Q 35.546875 15.234375 44.53125 19.921875 
Q 45.3125 14.84375 46.09375 11.71875 
Q 37.109375 7.421875 27.53125 2.734375 
Q 17.96875 -1.953125 14.453125 -5.078125 
Q 11.71875 -1.5625 8.984375 3.125 
Q 10.9375 4.6875 11.71875 9.375 
L 11.71875 61.71875 
Q 11.71875 71.09375 11.328125 77.734375 
L 19.921875 77.734375 
z
" id="SimHei-27604"/>
       <path d="M 53.90625 73.828125 
Q 59.765625 73.828125 64.0625 74.21875 
L 64.0625 67.1875 
Q 59.765625 67.578125 54.6875 67.578125 
L 49.21875 67.578125 
Q 48.828125 62.890625 47.265625 52.34375 
L 63.28125 52.34375 
Q 62.5 32.03125 56.4375 16.40625 
Q 50.390625 0.78125 35.9375 -9.375 
Q 34.375 -6.25 29.6875 -2.34375 
Q 42.96875 3.90625 50 20.703125 
Q 46.484375 23.828125 39.84375 28.125 
Q 42.1875 31.25 44.140625 33.984375 
Q 50 29.296875 52.34375 27.734375 
Q 54.6875 35.15625 55.859375 46.09375 
L 45.703125 46.09375 
Q 43.75 37.890625 34.765625 24.609375 
Q 31.640625 27.734375 27.734375 30.078125 
Q 33.203125 35.546875 37.109375 44.328125 
Q 41.015625 53.125 41.796875 67.578125 
Q 35.9375 67.578125 33.59375 67.1875 
L 33.59375 74.21875 
Q 37.5 73.828125 43.75 73.828125 
z
M 32.03125 77.734375 
Q 29.296875 74.609375 24.21875 60.15625 
L 24.21875 7.421875 
Q 24.21875 -0.390625 24.609375 -9.375 
L 16.796875 -9.375 
Q 17.1875 -1.171875 17.1875 6.640625 
L 17.1875 46.875 
Q 14.84375 42.1875 10.15625 35.15625 
Q 8.59375 37.109375 3.125 41.015625 
Q 8.203125 45.703125 14.640625 58.78125 
Q 21.09375 71.875 22.65625 81.25 
Q 25.78125 79.296875 32.03125 77.734375 
z
M 92.96875 79.296875 
Q 92.1875 74.609375 92.1875 67.1875 
L 92.1875 3.90625 
Q 92.1875 -4.296875 89.0625 -6.25 
Q 85.9375 -8.203125 75.78125 -8.984375 
Q 75.390625 -4.6875 72.65625 0.78125 
Q 80.859375 0 82.8125 0.390625 
Q 84.765625 0.78125 85.15625 4.6875 
L 85.15625 66.796875 
Q 85.15625 74.21875 84.375 79.296875 
L 92.96875 79.296875 
z
M 76.953125 66.015625 
Q 76.171875 60.546875 76.171875 50.78125 
L 76.171875 28.125 
Q 76.171875 18.75 76.5625 14.453125 
L 68.359375 14.453125 
Q 69.140625 18.75 69.140625 27.734375 
L 69.140625 51.171875 
Q 68.75 60.15625 68.359375 66.015625 
L 76.953125 66.015625 
z
" id="SimHei-20363"/>
      </defs>
      <use xlink:href="#SimHei-19977"/>
      <use x="100" xlink:href="#SimHei-31867"/>
      <use x="200" xlink:href="#SimHei-20154"/>
      <use x="300" xlink:href="#SimHei-30340"/>
      <use x="400" xlink:href="#SimHei-27604"/>
      <use x="500" xlink:href="#SimHei-20363"/>
     </g>
    </g>
   </g>
   <g id="line2d_13">
    <path clip-path="url(#p7686a540ef)" d="M 73.832727 290.550857 
L 75.464157 289.63481 
L 77.095587 288.558934 
L 78.727017 287.299392 
L 80.358447 285.830383 
L 81.989877 284.124639 
L 83.621307 282.154235 
L 85.252736 279.891786 
L 86.884166 277.31211 
L 88.515596 274.394376 
L 90.147026 271.124706 
L 91.778456 267.499226 
L 93.409886 263.527139 
L 96.672746 254.662644 
L 101.567035 240.00722 
L 104.829895 230.449476 
L 106.461325 226.073719 
L 108.092755 222.109565 
L 109.724185 218.645773 
L 111.355614 215.750046 
L 112.987044 213.466216 
L 114.618474 211.81373 
L 116.249904 210.789193 
L 117.881334 210.369452 
L 119.512764 210.515612 
L 121.144194 211.17739 
L 122.775624 212.297309 
L 124.407053 213.814419 
L 126.038483 215.667364 
L 127.669913 217.79672 
L 130.932773 222.666005 
L 134.195633 228.034597 
L 143.984212 244.498298 
L 147.247072 249.578978 
L 150.509931 254.322175 
L 153.772791 258.699024 
L 157.035651 262.701486 
L 160.298511 266.335634 
L 163.56137 269.616685 
L 166.82423 272.565416 
L 170.08709 275.205624 
L 173.34995 277.562357 
L 176.61281 279.660724 
L 179.875669 281.525103 
L 183.138529 283.178653 
L 186.401389 284.643025 
L 191.295678 286.52817 
L 196.189968 288.092674 
L 201.084258 289.388674 
L 205.978547 290.460672 
L 212.504267 291.605786 
L 219.029986 292.492103 
L 227.187136 293.322653 
L 235.344285 293.923854 
L 245.132864 294.429856 
L 258.184303 294.859979 
L 274.498602 295.161027 
L 298.97005 295.36524 
L 343.018657 295.466964 
L 398.487273 295.485719 
L 398.487273 295.485719 
" style="fill:none;stroke:#1f77b4;stroke-linecap:square;stroke-width:2;"/>
   </g>
   <g id="line2d_14">
    <path clip-path="url(#p7686a540ef)" d="M 73.832727 53.568 
L 75.464157 54.889785 
L 77.095587 56.446329 
L 78.727017 58.274399 
L 80.358447 60.414604 
L 81.989877 62.911021 
L 83.621307 65.810472 
L 85.252736 69.161328 
L 86.884166 73.011758 
L 88.515596 77.407319 
L 90.147026 82.387955 
L 91.778456 87.98428 
L 93.409886 94.213657 
L 95.041316 101.076086 
L 96.672746 108.550614 
L 99.935605 125.133587 
L 103.198465 143.322608 
L 109.724185 180.655439 
L 112.987044 197.840397 
L 116.249904 213.115837 
L 117.881334 219.939421 
L 119.512764 226.207131 
L 121.144194 231.92843 
L 122.775624 237.124063 
L 124.407053 241.822732 
L 126.038483 246.058172 
L 127.669913 249.86675 
L 129.301343 253.285592 
L 130.932773 256.351204 
L 132.564203 259.098522 
L 134.195633 261.560308 
L 135.827063 263.76681 
L 137.458492 265.74563 
L 139.089922 267.521717 
L 140.721352 269.117469 
L 143.984212 271.845745 
L 147.247072 274.065037 
L 150.509931 275.880791 
L 153.772791 277.375241 
L 157.035651 278.612471 
L 160.298511 279.642535 
L 165.1928 280.882726 
L 170.08709 281.842583 
L 174.98138 282.5926 
L 181.507099 283.351822 
L 189.664249 284.026534 
L 199.452828 284.568499 
L 210.872837 284.968324 
L 227.187136 285.289694 
L 250.027154 285.494125 
L 290.812901 285.60264 
L 398.487273 285.628464 
L 398.487273 285.628464 
" style="fill:none;stroke:#ff7f0e;stroke-linecap:square;stroke-width:2;"/>
   </g>
   <g id="line2d_15">
    <path clip-path="url(#p7686a540ef)" d="M 73.832727 295.488 
L 77.095587 294.601595 
L 80.358447 293.36187 
L 81.989877 292.571197 
L 83.621307 291.642151 
L 85.252736 290.553742 
L 86.884166 289.282989 
L 88.515596 287.805162 
L 90.147026 286.094196 
L 91.778456 284.123352 
L 93.409886 281.866061 
L 95.041316 279.297042 
L 96.672746 276.393599 
L 98.304175 273.137059 
L 99.935605 269.514233 
L 101.567035 265.518767 
L 103.198465 261.152216 
L 104.829895 256.424718 
L 108.092755 245.970609 
L 111.355614 234.400648 
L 116.249904 215.701828 
L 124.407053 183.969706 
L 127.669913 171.943387 
L 130.932773 160.589648 
L 134.195633 150.011952 
L 137.458492 140.26167 
L 140.721352 131.350707 
L 143.984212 123.262815 
L 147.247072 115.962843 
L 150.509931 109.40389 
L 153.772791 103.532592 
L 157.035651 98.2929 
L 160.298511 93.628688 
L 163.56137 89.485489 
L 166.82423 85.811586 
L 170.08709 82.55865 
L 173.34995 79.682051 
L 176.61281 77.140951 
L 179.875669 74.898251 
L 183.138529 72.92044 
L 186.401389 71.177387 
L 189.664249 69.6421 
L 192.927108 68.290479 
L 197.821398 66.561116 
L 202.715688 65.134626 
L 207.609977 63.958722 
L 212.504267 62.989893 
L 219.029986 61.958706 
L 225.555706 61.163147 
L 233.712855 60.41964 
L 243.501434 59.794664 
L 254.921444 59.31619 
L 269.604312 58.949055 
L 289.181471 58.699649 
L 320.178639 58.550618 
L 390.330123 58.493691 
L 398.487273 58.492674 
L 398.487273 58.492674 
" style="fill:none;stroke:#2ca02c;stroke-linecap:square;stroke-width:2;"/>
   </g>
   <g id="line2d_16">
    <defs>
     <path d="M 0 3 
C 0.795609 3 1.55874 2.683901 2.12132 2.12132 
C 2.683901 1.55874 3 0.795609 3 0 
C 3 -0.795609 2.683901 -1.55874 2.12132 -2.12132 
C 1.55874 -2.683901 0.795609 -3 0 -3 
C -0.795609 -3 -1.55874 -2.683901 -2.12132 -2.12132 
C -2.683901 -1.55874 -3 -0.795609 -3 0 
C -3 0.795609 -2.683901 1.55874 -2.12132 2.12132 
C -1.55874 2.683901 -0.795609 3 0 3 
z
" id="mb6fb12ff90" style="stroke:#d62728;"/>
    </defs>
    <g clip-path="url(#p7686a540ef)">
     <use style="fill:#d62728;stroke:#d62728;" x="73.832727" xlink:href="#mb6fb12ff90" y="53.568"/>
    </g>
   </g>
   <g id="line2d_17">
    <defs>
     <path d="M 0 3 
C 0.795609 3 1.55874 2.683901 2.12132 2.12132 
C 2.683901 1.55874 3 0.795609 3 0 
C 3 -0.795609 2.683901 -1.55874 2.12132 -2.12132 
C 1.55874 -2.683901 0.795609 -3 0 -3 
C -0.795609 -3 -1.55874 -2.683901 -2.12132 -2.12132 
C -2.683901 -1.55874 -3 -0.795609 -3 0 
C -3 0.795609 -2.683901 1.55874 -2.12132 2.12132 
C -1.55874 2.683901 -0.795609 3 0 3 
z
" id="mcbcb629d5a" style="stroke:#9467bd;"/>
    </defs>
    <g clip-path="url(#p7686a540ef)">
     <use style="fill:#9467bd;stroke:#9467bd;" x="73.832727" xlink:href="#mcbcb629d5a" y="290.550857"/>
    </g>
   </g>
   <g id="line2d_18">
    <defs>
     <path d="M 0 3 
C 0.795609 3 1.55874 2.683901 2.12132 2.12132 
C 2.683901 1.55874 3 0.795609 3 0 
C 3 -0.795609 2.683901 -1.55874 2.12132 -2.12132 
C 1.55874 -2.683901 0.795609 -3 0 -3 
C -0.795609 -3 -1.55874 -2.683901 -2.12132 -2.12132 
C -2.683901 -1.55874 -3 -0.795609 -3 0 
C -3 0.795609 -2.683901 1.55874 -2.12132 2.12132 
C -1.55874 2.683901 -0.795609 3 0 3 
z
" id="m888d640b71" style="stroke:#8c564b;"/>
    </defs>
    <g clip-path="url(#p7686a540ef)">
     <use style="fill:#8c564b;stroke:#8c564b;" x="73.832727" xlink:href="#m888d640b71" y="295.488"/>
    </g>
   </g>
   <g id="line2d_19">
    <defs>
     <path d="M -3 3 
L 3 3 
L 3 -3 
L -3 -3 
z
" id="m2d3d0fca0f" style="stroke:#ff0000;stroke-linejoin:miter;"/>
    </defs>
    <g clip-path="url(#p7686a540ef)">
     <use style="fill:#ff0000;stroke:#ff0000;stroke-linejoin:miter;" x="117.881334" xlink:href="#m2d3d0fca0f" y="210.369452"/>
    </g>
   </g>
   <g id="patch_3">
    <path d="M 57.6 307.584 
L 57.6 41.472 
" style="fill:none;stroke:#000000;stroke-linecap:square;stroke-linejoin:miter;stroke-width:0.8;"/>
   </g>
   <g id="patch_4">
    <path d="M 414.72 307.584 
L 414.72 41.472 
" style="fill:none;stroke:#000000;stroke-linecap:square;stroke-linejoin:miter;stroke-width:0.8;"/>
   </g>
   <g id="patch_5">
    <path d="M 57.6 307.584 
L 414.72 307.584 
" style="fill:none;stroke:#000000;stroke-linecap:square;stroke-linejoin:miter;stroke-width:0.8;"/>
   </g>
   <g id="patch_6">
    <path d="M 57.6 41.472 
L 414.72 41.472 
" style="fill:none;stroke:#000000;stroke-linecap:square;stroke-linejoin:miter;stroke-width:0.8;"/>
   </g>
   <g id="legend_1">
    <g id="patch_7">
     <path d="M 305.72 205.098312 
L 407.72 205.098312 
Q 409.72 205.098312 409.72 203.098312 
L 409.72 145.957687 
Q 409.72 143.957687 407.72 143.957687 
L 305.72 143.957687 
Q 303.72 143.957687 303.72 145.957687 
L 303.72 203.098312 
Q 303.72 205.098312 305.72 205.098312 
z
" style="fill:#ffffff;opacity:0.8;stroke:#cccccc;stroke-linejoin:miter;"/>
    </g>
    <g id="line2d_20">
     <path d="M 307.72 152.757687 
L 327.72 152.757687 
" style="fill:none;stroke:#1f77b4;stroke-linecap:square;stroke-width:2;"/>
    </g>
    <g id="line2d_21"/>
    <g id="text_15">
     <!-- 感染者$i(t)$ -->
     <g transform="translate(335.72 156.257687)scale(0.1 -0.1)">
      <defs>
       <path d="M 95.703125 29.6875 
Q 92.1875 18.75 89.453125 17.375 
Q 86.71875 16.015625 81.828125 17.765625 
Q 76.953125 19.53125 69.140625 26.5625 
Q 64.453125 21.484375 58.203125 17.1875 
Q 55.46875 20.3125 52.34375 21.875 
Q 60.546875 26.5625 65.234375 32.03125 
Q 60.9375 39.0625 58.78125 47.453125 
Q 56.640625 55.859375 55.859375 63.28125 
L 20.703125 63.28125 
Q 20.703125 45.703125 20.109375 39.453125 
Q 19.53125 33.203125 17.578125 27.734375 
Q 15.625 22.265625 11.71875 16.015625 
Q 7.03125 19.140625 4.296875 19.921875 
Q 8.984375 25.78125 11.125 31.4375 
Q 13.28125 37.109375 13.671875 44.53125 
Q 14.0625 51.953125 13.671875 69.53125 
L 55.078125 69.53125 
Q 55.078125 72.65625 54.6875 80.859375 
Q 58.203125 80.078125 62.890625 79.6875 
Q 62.109375 75 62.5 69.53125 
L 79.6875 69.53125 
Q 85.15625 69.53125 92.578125 69.921875 
L 92.578125 62.890625 
Q 85.15625 63.28125 80.078125 63.28125 
L 62.890625 63.28125 
Q 64.453125 46.875 69.53125 38.671875 
Q 71.875 42.578125 73.828125 48.234375 
Q 75.78125 53.90625 76.953125 58.984375 
Q 80.859375 57.421875 85.15625 56.25 
Q 83.59375 54.6875 81.046875 47.65625 
Q 78.515625 40.625 73.828125 32.03125 
Q 78.125 28.125 81.4375 26.171875 
Q 84.765625 24.21875 85.734375 25.390625 
Q 86.71875 26.5625 88.28125 33.59375 
Q 91.40625 30.859375 95.703125 29.6875 
z
M 51.953125 25 
L 24.609375 25 
L 24.609375 44.921875 
L 51.953125 44.921875 
z
M 76.171875 2.734375 
Q 73.4375 -5.078125 71.484375 -6.4375 
Q 69.53125 -7.8125 66.40625 -7.8125 
L 36.71875 -7.8125 
Q 31.640625 -7.421875 30.65625 -3.125 
Q 29.6875 1.171875 29.6875 5.078125 
Q 29.6875 8.984375 29.296875 14.453125 
L 37.5 14.453125 
Q 37.109375 7.8125 37.109375 5.078125 
Q 37.109375 2.734375 37.5 0.390625 
Q 37.890625 -1.953125 42.578125 -1.5625 
L 60.546875 -1.5625 
Q 64.453125 -1.5625 65.8125 -0.1875 
Q 67.1875 1.171875 67.96875 7.03125 
Q 71.09375 4.6875 76.171875 2.734375 
z
M 51.5625 51.171875 
L 25 51.171875 
L 25 57.03125 
L 51.5625 57.03125 
z
M 83.59375 14.0625 
Q 92.1875 3.515625 94.921875 -0.78125 
Q 91.015625 -3.125 87.890625 -5.46875 
Q 83.984375 1.953125 77.34375 9.375 
Q 80.078125 11.328125 83.59375 14.0625 
z
M 7.421875 -2.734375 
Q 10.9375 1.5625 15.234375 14.453125 
Q 18.359375 12.890625 22.65625 11.328125 
Q 17.578125 -0.390625 14.84375 -5.859375 
Q 11.71875 -4.296875 7.421875 -2.734375 
z
M 45.703125 30.46875 
L 45.703125 39.453125 
L 30.859375 39.453125 
L 30.859375 30.46875 
z
M 42.578125 16.40625 
Q 44.921875 18.359375 48.4375 20.703125 
Q 55.078125 12.109375 57.03125 8.59375 
Q 53.90625 6.640625 51.171875 3.90625 
Q 48.828125 8.203125 42.578125 16.40625 
z
M 76.5625 70.3125 
Q 74.21875 72.265625 67.96875 76.5625 
Q 70.3125 79.296875 71.875 81.640625 
Q 74.609375 80.078125 81.25 75 
Q 78.90625 73.046875 76.5625 70.3125 
z
" id="SimHei-24863"/>
       <path d="M 91.015625 -7.03125 
Q 74.21875 -2.34375 66.40625 3.90625 
Q 58.59375 10.15625 53.90625 17.96875 
Q 53.90625 -4.6875 54.296875 -9.375 
L 46.09375 -9.375 
Q 46.484375 -4.296875 46.484375 16.796875 
Q 40.625 8.59375 31.4375 2.34375 
Q 22.265625 -3.90625 9.765625 -8.984375 
Q 8.59375 -5.078125 3.125 -1.5625 
Q 16.796875 1.5625 25.96875 7.609375 
Q 35.15625 13.671875 38.671875 19.140625 
L 19.140625 19.140625 
Q 13.671875 19.140625 6.25 18.75 
L 6.25 25.78125 
Q 13.671875 25.390625 19.140625 25.390625 
L 46.484375 25.390625 
Q 46.484375 28.515625 46.09375 33.59375 
L 54.296875 33.59375 
Q 53.90625 28.90625 53.90625 25.390625 
L 82.8125 25.390625 
Q 87.890625 25.390625 93.75 25.78125 
L 93.75 18.75 
Q 87.890625 19.140625 82.8125 19.140625 
L 61.71875 19.140625 
Q 67.96875 10.546875 78.125 6.25 
Q 88.28125 1.953125 96.484375 1.171875 
Q 91.40625 -3.90625 91.015625 -7.03125 
z
M 28.515625 35.9375 
Q 39.84375 40.234375 45.703125 47.0625 
Q 51.5625 53.90625 53.125 62.5 
Q 47.265625 62.5 40.234375 62.109375 
L 40.234375 69.140625 
Q 47.65625 68.75 53.515625 68.75 
Q 53.90625 76.953125 53.515625 82.03125 
Q 58.203125 80.859375 62.5 80.859375 
Q 61.328125 78.515625 60.9375 68.75 
L 80.078125 68.75 
Q 79.6875 64.84375 79.296875 60.15625 
L 78.125 44.53125 
Q 78.515625 40.625 80.859375 40.625 
L 85.15625 40.625 
Q 87.109375 40.625 87.6875 42.1875 
Q 88.28125 43.75 88.671875 50 
Q 91.796875 47.265625 96.875 46.875 
Q 95.3125 36.328125 92.375 35.34375 
Q 89.453125 34.375 84.171875 34.171875 
Q 78.90625 33.984375 74.796875 34.953125 
Q 70.703125 35.9375 71.09375 42.1875 
L 72.265625 62.5 
L 60.546875 62.5 
Q 59.375 53.515625 54.296875 45.890625 
Q 49.21875 38.28125 35.546875 30.078125 
Q 33.984375 32.8125 28.515625 35.9375 
z
M 33.984375 45.703125 
Q 19.140625 33.984375 13.28125 29.296875 
Q 10.9375 33.203125 7.8125 35.9375 
Q 17.1875 40.625 31.25 52.734375 
Q 32.03125 49.609375 33.984375 45.703125 
z
M 10.546875 64.84375 
Q 21.484375 59.765625 27.34375 56.25 
Q 24.609375 52.734375 23.046875 49.609375 
Q 19.140625 53.125 7.03125 58.59375 
Q 9.375 61.328125 10.546875 64.84375 
z
M 28.90625 64.84375 
Q 23.046875 69.921875 14.0625 74.609375 
Q 16.015625 76.953125 18.359375 80.078125 
Q 27.34375 75 33.984375 71.09375 
Q 30.46875 67.578125 28.90625 64.84375 
z
" id="SimHei-26579"/>
       <path d="M 88.28125 67.578125 
Q 85.15625 64.84375 81.046875 60.546875 
Q 76.953125 56.25 69.53125 48.828125 
L 80.46875 48.828125 
Q 87.109375 48.828125 94.140625 49.21875 
L 94.140625 42.1875 
Q 87.109375 42.578125 80.078125 42.578125 
L 61.71875 42.578125 
Q 55.46875 37.890625 47.65625 32.421875 
L 80.859375 32.421875 
Q 80.46875 25.390625 80.46875 19.53125 
L 80.46875 5.859375 
Q 80.46875 -1.171875 80.859375 -9.375 
L 73.046875 -9.375 
L 73.046875 -3.515625 
L 35.546875 -3.515625 
L 35.546875 -9.375 
L 27.34375 -9.375 
Q 27.734375 -3.125 27.734375 2.34375 
L 27.734375 20.3125 
Q 19.921875 16.015625 10.15625 11.71875 
Q 6.25 17.1875 4.6875 18.359375 
Q 7.421875 19.140625 15.03125 22.0625 
Q 22.65625 25 27.734375 28.515625 
L 27.734375 32.421875 
L 35.15625 32.421875 
Q 43.75 37.109375 50.390625 42.578125 
L 22.65625 42.578125 
Q 14.453125 42.578125 7.421875 42.1875 
L 7.421875 49.21875 
Q 15.234375 48.828125 22.65625 48.828125 
L 43.359375 48.828125 
L 43.359375 60.9375 
L 31.640625 60.9375 
Q 25 60.9375 19.53125 60.546875 
L 19.53125 67.578125 
Q 25 67.1875 31.640625 67.1875 
L 43.359375 67.1875 
Q 43.359375 73.046875 42.96875 80.46875 
L 51.5625 80.46875 
Q 51.171875 75 51.171875 67.1875 
L 57.03125 67.1875 
Q 62.109375 67.1875 68.75 67.578125 
L 68.75 60.546875 
Q 62.109375 60.9375 57.03125 60.9375 
L 51.171875 60.9375 
L 51.171875 48.828125 
L 58.984375 48.828125 
Q 64.453125 53.125 69.921875 58.984375 
Q 75.390625 64.84375 81.25 73.828125 
Q 85.546875 69.53125 88.28125 67.578125 
z
M 73.046875 2.734375 
L 73.046875 11.71875 
L 35.546875 11.71875 
L 35.546875 2.734375 
z
M 73.046875 17.96875 
L 73.046875 26.171875 
L 35.546875 26.171875 
L 35.546875 17.96875 
z
" id="SimHei-32773"/>
       <path d="M 18.3125 75.984375 
L 27.296875 75.984375 
L 25.09375 64.59375 
L 16.109375 64.59375 
z
M 14.203125 54.6875 
L 23.1875 54.6875 
L 12.5 0 
L 3.515625 0 
z
" id="DejaVuSans-Oblique-105"/>
       <path d="M 31 75.875 
Q 24.46875 64.65625 21.28125 53.65625 
Q 18.109375 42.671875 18.109375 31.390625 
Q 18.109375 20.125 21.3125 9.0625 
Q 24.515625 -2 31 -13.1875 
L 23.1875 -13.1875 
Q 15.875 -1.703125 12.234375 9.375 
Q 8.59375 20.453125 8.59375 31.390625 
Q 8.59375 42.28125 12.203125 53.3125 
Q 15.828125 64.359375 23.1875 75.875 
z
" id="DejaVuSans-40"/>
       <path d="M 8.015625 75.875 
L 15.828125 75.875 
Q 23.140625 64.359375 26.78125 53.3125 
Q 30.421875 42.28125 30.421875 31.390625 
Q 30.421875 20.453125 26.78125 9.375 
Q 23.140625 -1.703125 15.828125 -13.1875 
L 8.015625 -13.1875 
Q 14.5 -2 17.703125 9.0625 
Q 20.90625 20.125 20.90625 31.390625 
Q 20.90625 42.671875 17.703125 53.65625 
Q 14.5 64.65625 8.015625 75.875 
z
" id="DejaVuSans-41"/>
      </defs>
      <use transform="translate(0 0.96875)" xlink:href="#SimHei-24863"/>
      <use transform="translate(100 0.96875)" xlink:href="#SimHei-26579"/>
      <use transform="translate(200 0.96875)" xlink:href="#SimHei-32773"/>
      <use transform="translate(300 0.96875)" xlink:href="#DejaVuSans-Oblique-105"/>
      <use transform="translate(327.783203 0.96875)" xlink:href="#DejaVuSans-40"/>
      <use transform="translate(366.796875 0.96875)" xlink:href="#DejaVuSans-Oblique-116"/>
      <use transform="translate(406.005859 0.96875)" xlink:href="#DejaVuSans-41"/>
     </g>
    </g>
    <g id="line2d_22">
     <path d="M 307.72 167.457687 
L 327.72 167.457687 
" style="fill:none;stroke:#ff7f0e;stroke-linecap:square;stroke-width:2;"/>
    </g>
    <g id="line2d_23"/>
    <g id="text_16">
     <!-- 健康者$s(t)$ -->
     <g transform="translate(335.72 170.957687)scale(0.1 -0.1)">
      <defs>
       <path d="M 87.890625 71.875 
Q 87.5 66.796875 87.5 58.203125 
Q 91.015625 58.203125 94.921875 58.984375 
L 94.921875 51.953125 
Q 91.015625 52.34375 87.5 52.34375 
Q 87.5 44.921875 87.890625 39.0625 
L 71.484375 39.0625 
L 71.484375 30.46875 
L 82.03125 30.46875 
Q 86.71875 30.859375 89.84375 30.859375 
L 89.84375 23.828125 
Q 87.109375 24.609375 82.03125 24.609375 
L 71.484375 24.609375 
L 71.484375 17.1875 
L 83.59375 17.1875 
Q 87.890625 17.1875 91.40625 17.578125 
L 91.40625 10.9375 
Q 88.28125 11.328125 83.59375 11.328125 
L 71.484375 11.328125 
L 71.484375 0.390625 
Q 81.640625 -0.390625 95.3125 1.5625 
Q 92.96875 -2.34375 92.1875 -6.640625 
Q 77.34375 -7.03125 64.25 -6.25 
Q 51.171875 -5.46875 38.28125 3.125 
Q 34.765625 -1.953125 28.90625 -8.984375 
Q 25.78125 -6.25 22.65625 -4.6875 
Q 29.296875 1.171875 33.59375 8.203125 
Q 28.515625 15.234375 25.78125 27.34375 
Q 28.90625 28.125 32.03125 29.296875 
Q 33.203125 21.484375 36.71875 15.234375 
Q 40.234375 23.828125 40.625 38.28125 
Q 32.8125 37.890625 30.46875 36.328125 
Q 29.296875 39.453125 27.34375 43.75 
Q 30.859375 44.140625 33.390625 51.75 
Q 35.9375 59.375 37.5 65.625 
Q 32.8125 65.625 28.125 65.234375 
L 28.125 71.875 
Q 33.203125 71.484375 36.71875 71.484375 
L 46.484375 71.484375 
Q 44.53125 67.1875 37.890625 44.53125 
L 47.265625 44.53125 
Q 46.09375 21.875 41.40625 8.984375 
Q 50.390625 1.171875 64.84375 0.390625 
L 64.84375 11.328125 
Q 57.8125 11.328125 50 10.9375 
L 50 17.578125 
Q 57.8125 17.1875 64.84375 17.1875 
L 64.84375 24.609375 
Q 58.984375 24.609375 51.171875 23.828125 
L 51.171875 30.859375 
Q 58.984375 30.46875 64.84375 30.46875 
L 64.84375 39.0625 
Q 58.203125 39.0625 51.5625 38.671875 
L 51.5625 45.3125 
Q 58.59375 44.921875 64.84375 44.921875 
L 64.84375 52.34375 
L 58.203125 52.34375 
Q 52.734375 52.34375 48.828125 51.953125 
L 48.828125 58.984375 
Q 53.125 58.203125 58.59375 58.203125 
L 64.84375 58.203125 
L 64.84375 66.015625 
Q 58.59375 66.015625 51.953125 65.625 
L 51.953125 72.265625 
Q 58.984375 71.875 64.84375 71.875 
Q 64.84375 76.5625 64.453125 81.640625 
L 71.875 81.640625 
Q 71.484375 75.78125 71.484375 71.875 
z
M 26.5625 77.734375 
Q 23.828125 74.21875 21.484375 64.0625 
L 21.484375 -8.203125 
L 14.453125 -8.203125 
Q 15.234375 -1.953125 15.234375 6.25 
L 15.234375 48.828125 
Q 12.890625 43.359375 9.375 37.109375 
Q 7.03125 39.453125 3.515625 42.1875 
Q 8.203125 48.4375 12.890625 61.125 
Q 17.578125 73.828125 17.96875 80.078125 
Q 21.09375 79.296875 26.5625 77.734375 
z
M 81.25 58.203125 
L 81.25 66.015625 
L 71.484375 66.015625 
L 71.484375 58.203125 
z
M 81.25 44.921875 
L 81.25 52.34375 
L 71.484375 52.34375 
L 71.484375 44.921875 
z
" id="SimHei-20581"/>
       <path d="M 55.46875 82.421875 
Q 58.203125 75.78125 58.984375 72.265625 
L 75.78125 72.265625 
Q 83.984375 72.265625 90.625 72.65625 
L 90.625 66.40625 
Q 83.984375 66.796875 75.78125 66.796875 
L 58.59375 66.796875 
L 58.59375 58.59375 
L 83.984375 58.59375 
Q 83.59375 53.125 83.59375 46.09375 
Q 87.5 46.09375 93.359375 46.484375 
L 93.359375 39.84375 
Q 87.890625 40.234375 83.59375 40.234375 
Q 83.59375 33.59375 83.984375 28.125 
L 61.328125 28.125 
Q 65.234375 20.703125 70.703125 15.234375 
Q 73.4375 16.40625 79.6875 25.78125 
Q 80.859375 24.609375 85.9375 20.703125 
Q 83.984375 19.140625 75 10.9375 
Q 77.734375 8.59375 82.609375 5.46875 
Q 87.5 2.34375 95.3125 0.390625 
Q 91.796875 -1.5625 89.0625 -7.03125 
Q 78.125 -2.34375 70.109375 5.65625 
Q 62.109375 13.671875 58.59375 21.875 
L 58.59375 2.34375 
Q 58.984375 -5.46875 53.90625 -7.21875 
Q 48.828125 -8.984375 42.1875 -9.375 
Q 41.796875 -5.859375 39.84375 -0.78125 
Q 47.265625 -1.171875 49.015625 -0.390625 
Q 50.78125 0.390625 51.171875 3.125 
L 51.171875 12.890625 
Q 35.546875 0.78125 28.125 -5.078125 
Q 24.609375 0.78125 23.046875 1.953125 
Q 28.90625 4.6875 35.734375 9.171875 
Q 42.578125 13.671875 51.171875 19.921875 
L 51.171875 28.125 
L 40.625 28.125 
Q 35.546875 28.125 29.296875 27.734375 
L 29.296875 33.984375 
Q 35.546875 33.59375 39.84375 33.59375 
L 51.171875 33.59375 
L 51.171875 40.234375 
L 37.5 40.234375 
Q 29.6875 40.234375 25 39.84375 
L 25 46.484375 
Q 30.078125 46.09375 36.71875 46.09375 
L 51.171875 46.09375 
L 51.171875 52.734375 
L 41.40625 52.734375 
Q 35.9375 52.734375 29.6875 52.34375 
L 29.6875 58.984375 
Q 36.71875 58.59375 40.625 58.59375 
L 51.171875 58.59375 
L 51.171875 66.796875 
L 23.828125 66.796875 
Q 23.828125 35.546875 22.84375 26.5625 
Q 21.875 17.578125 18.9375 8.984375 
Q 16.015625 0.390625 9.765625 -7.421875 
Q 7.8125 -5.078125 3.125 -1.5625 
Q 8.203125 3.90625 11.515625 11.515625 
Q 14.84375 19.140625 15.8125 32.609375 
Q 16.796875 46.09375 15.625 72.265625 
L 50 72.265625 
Q 49.21875 75 46.875 80.46875 
Q 49.21875 80.859375 55.46875 82.421875 
z
M 75.78125 33.59375 
L 75.78125 40.234375 
L 58.59375 40.234375 
L 58.59375 33.59375 
z
M 75.78125 46.09375 
L 75.78125 52.734375 
L 58.59375 52.734375 
L 58.59375 46.09375 
z
M 30.078125 25.78125 
Q 35.9375 21.875 42.1875 16.015625 
Q 40.625 15.234375 37.109375 10.9375 
Q 34.765625 13.671875 25.78125 20.3125 
Q 26.5625 21.09375 30.078125 25.78125 
z
" id="SimHei-24247"/>
       <path d="M 50 53.078125 
L 48.296875 44.578125 
Q 44.734375 46.53125 40.765625 47.5 
Q 36.8125 48.484375 32.625 48.484375 
Q 25.53125 48.484375 21.453125 46.0625 
Q 17.390625 43.65625 17.390625 39.5 
Q 17.390625 34.671875 26.859375 32.078125 
Q 27.59375 31.890625 27.9375 31.78125 
L 30.8125 30.90625 
Q 39.796875 28.421875 42.796875 25.6875 
Q 45.796875 22.953125 45.796875 18.21875 
Q 45.796875 9.515625 38.890625 4.046875 
Q 31.984375 -1.421875 20.796875 -1.421875 
Q 16.453125 -1.421875 11.671875 -0.578125 
Q 6.890625 0.25 1.125 2 
L 2.875 11.28125 
Q 7.8125 8.734375 12.59375 7.421875 
Q 17.390625 6.109375 21.78125 6.109375 
Q 28.375 6.109375 32.5 8.9375 
Q 36.625 11.765625 36.625 16.109375 
Q 36.625 20.796875 25.78125 23.6875 
L 24.859375 23.921875 
L 21.78125 24.703125 
Q 14.9375 26.515625 11.765625 29.46875 
Q 8.59375 32.421875 8.59375 37.015625 
Q 8.59375 45.75 15.15625 50.875 
Q 21.734375 56 33.015625 56 
Q 37.453125 56 41.671875 55.265625 
Q 45.90625 54.546875 50 53.078125 
z
" id="DejaVuSans-Oblique-115"/>
      </defs>
      <use transform="translate(0 0.578125)" xlink:href="#SimHei-20581"/>
      <use transform="translate(100 0.578125)" xlink:href="#SimHei-24247"/>
      <use transform="translate(200 0.578125)" xlink:href="#SimHei-32773"/>
      <use transform="translate(300 0.578125)" xlink:href="#DejaVuSans-Oblique-115"/>
      <use transform="translate(352.099609 0.578125)" xlink:href="#DejaVuSans-40"/>
      <use transform="translate(391.113281 0.578125)" xlink:href="#DejaVuSans-Oblique-116"/>
      <use transform="translate(430.322266 0.578125)" xlink:href="#DejaVuSans-41"/>
     </g>
    </g>
    <g id="line2d_24">
     <path d="M 307.72 182.057687 
L 327.72 182.057687 
" style="fill:none;stroke:#2ca02c;stroke-linecap:square;stroke-width:2;"/>
    </g>
    <g id="line2d_25"/>
    <g id="text_17">
     <!-- 移出者$r(t)$ -->
     <g transform="translate(335.72 185.557687)scale(0.1 -0.1)">
      <defs>
       <path d="M 69.921875 78.90625 
Q 67.1875 76.171875 63.671875 70.3125 
L 91.40625 70.3125 
Q 85.546875 56.640625 81.4375 51.75 
Q 77.34375 46.875 69.53125 41.40625 
Q 73.046875 40.234375 76.953125 39.0625 
Q 74.609375 35.9375 72.65625 32.421875 
L 95.3125 32.421875 
Q 92.1875 20.703125 86.71875 12.890625 
Q 81.25 5.078125 74.796875 0.578125 
Q 68.359375 -3.90625 60.9375 -6.046875 
Q 53.515625 -8.203125 46.09375 -10.15625 
Q 44.53125 -6.640625 40.625 -1.953125 
Q 51.171875 -0.78125 58 0.578125 
Q 64.84375 1.953125 70.703125 6.25 
Q 68.359375 9.765625 62.5 15.625 
Q 64.453125 17.1875 67.578125 19.53125 
Q 70.703125 16.796875 76.5625 10.546875 
Q 79.296875 14.0625 82.03125 18.15625 
Q 84.765625 22.265625 85.9375 26.5625 
L 68.359375 26.5625 
Q 65.234375 23.4375 61.71875 20.109375 
Q 58.203125 16.796875 52.34375 12.5 
Q 49.21875 16.015625 46.09375 17.96875 
Q 56.25 23.828125 60.546875 28.703125 
Q 64.84375 33.59375 67.578125 39.84375 
Q 62.890625 36.71875 58.59375 34.765625 
Q 54.296875 32.8125 47.65625 30.46875 
Q 46.09375 34.375 41.796875 38.671875 
Q 49.21875 39.453125 54.296875 41.203125 
Q 59.375 42.96875 66.015625 46.875 
Q 60.546875 51.5625 57.421875 54.296875 
Q 58.984375 56.25 62.5 58.984375 
Q 67.578125 54.6875 71.484375 50.78125 
Q 74.609375 53.515625 76.953125 56.640625 
Q 79.296875 59.765625 80.859375 64.453125 
L 60.15625 64.453125 
Q 55.078125 56.25 50.78125 51.171875 
Q 47.265625 53.515625 43.75 55.46875 
Q 50.78125 62.5 54.296875 68.546875 
Q 57.8125 74.609375 60.15625 81.640625 
Q 66.015625 79.6875 69.921875 78.90625 
z
M 44.53125 72.65625 
Q 41.40625 72.65625 37.5 71.875 
Q 33.59375 71.09375 31.25 70.703125 
L 31.25 53.515625 
Q 37.109375 53.515625 44.140625 53.90625 
L 44.140625 47.65625 
Q 37.109375 48.046875 31.25 48.046875 
L 31.25 33.984375 
Q 32.8125 35.9375 36.328125 39.453125 
Q 39.84375 34.765625 41.984375 32.21875 
Q 44.140625 29.6875 46.875 26.171875 
Q 43.359375 24.21875 41.015625 21.484375 
Q 38.671875 25 36.515625 27.140625 
Q 34.375 29.296875 31.25 32.8125 
L 31.25 8.203125 
Q 31.25 2.34375 31.640625 -7.421875 
L 23.828125 -7.421875 
Q 24.21875 2.34375 24.21875 8.203125 
L 24.21875 32.421875 
Q 21.875 26.5625 19.328125 22.0625 
Q 16.796875 17.578125 11.71875 10.15625 
Q 8.203125 14.0625 4.296875 16.40625 
Q 7.03125 18.75 9.953125 22.265625 
Q 12.890625 25.78125 15.421875 30.265625 
Q 17.96875 34.765625 19.921875 39.453125 
Q 21.875 44.140625 23.046875 48.046875 
Q 16.796875 48.046875 5.46875 47.65625 
L 5.46875 53.90625 
Q 16.796875 53.515625 24.21875 53.515625 
L 24.21875 69.140625 
Q 14.453125 67.578125 9.765625 66.40625 
Q 8.203125 70.703125 6.640625 73.828125 
Q 12.890625 74.609375 16.015625 74.796875 
Q 19.140625 75 23.046875 75.78125 
L 31.25 77.734375 
Q 35.546875 78.90625 40.234375 80.46875 
Q 41.796875 76.5625 44.53125 72.65625 
z
" id="SimHei-31227"/>
       <path d="M 23.046875 71.09375 
Q 22.65625 66.015625 22.65625 61.71875 
L 22.65625 46.09375 
L 45.703125 46.09375 
L 45.703125 69.140625 
Q 45.703125 74.609375 45.3125 80.078125 
L 53.515625 80.078125 
Q 53.125 75.390625 53.125 69.140625 
L 53.125 46.09375 
L 76.5625 46.09375 
L 76.5625 60.546875 
Q 76.5625 66.796875 76.171875 70.703125 
L 84.375 70.703125 
Q 83.984375 66.796875 83.984375 60.15625 
L 83.984375 49.609375 
Q 83.984375 43.359375 84.375 39.453125 
L 53.125 39.453125 
L 53.125 3.515625 
L 80.078125 3.515625 
L 80.078125 19.921875 
Q 80.078125 25.78125 79.6875 30.078125 
L 87.890625 30.078125 
Q 87.5 25.78125 87.5 20.3125 
L 87.5 2.734375 
Q 87.5 -5.078125 87.890625 -10.15625 
L 80.078125 -10.15625 
L 80.078125 -3.125 
L 10.546875 -3.125 
Q 10.9375 1.5625 10.9375 8.203125 
L 10.9375 19.921875 
Q 10.9375 26.5625 10.546875 30.46875 
L 18.75 30.46875 
Q 18.359375 26.5625 18.359375 19.921875 
L 18.359375 3.515625 
L 45.703125 3.515625 
L 45.703125 39.453125 
L 14.84375 39.453125 
Q 15.234375 43.359375 15.234375 49.21875 
L 15.234375 61.328125 
Q 15.234375 66.40625 14.84375 71.09375 
L 23.046875 71.09375 
z
" id="SimHei-20986"/>
       <path d="M 44.578125 46.390625 
Q 43.21875 47.125 41.453125 47.515625 
Q 39.703125 47.90625 37.703125 47.90625 
Q 30.515625 47.90625 25.140625 42.453125 
Q 19.78125 37.015625 18.015625 27.875 
L 12.5 0 
L 3.515625 0 
L 14.203125 54.6875 
L 23.1875 54.6875 
L 21.484375 46.1875 
Q 25.046875 50.921875 30 53.453125 
Q 34.96875 56 40.578125 56 
Q 42.046875 56 43.453125 55.828125 
Q 44.875 55.671875 46.296875 55.28125 
z
" id="DejaVuSans-Oblique-114"/>
      </defs>
      <use transform="translate(0 0.359375)" xlink:href="#SimHei-31227"/>
      <use transform="translate(100 0.359375)" xlink:href="#SimHei-20986"/>
      <use transform="translate(200 0.359375)" xlink:href="#SimHei-32773"/>
      <use transform="translate(300 0.359375)" xlink:href="#DejaVuSans-Oblique-114"/>
      <use transform="translate(341.113281 0.359375)" xlink:href="#DejaVuSans-40"/>
      <use transform="translate(380.126953 0.359375)" xlink:href="#DejaVuSans-Oblique-116"/>
      <use transform="translate(419.335938 0.359375)" xlink:href="#DejaVuSans-41"/>
     </g>
    </g>
    <g id="line2d_26"/>
    <g id="line2d_27">
     <g>
      <use style="fill:#ff0000;stroke:#ff0000;stroke-linejoin:miter;" x="317.72" xlink:href="#m2d3d0fca0f" y="196.348312"/>
     </g>
    </g>
    <g id="text_18">
     <!-- 感染者最大比例 -->
     <g transform="translate(335.72 199.848312)scale(0.1 -0.1)">
      <defs>
       <path d="M 7.421875 4.296875 
Q 10.546875 4.6875 17.1875 5.46875 
L 17.1875 38.28125 
Q 12.109375 38.28125 6.640625 37.890625 
L 6.640625 44.53125 
Q 12.109375 44.140625 17.578125 44.140625 
L 78.515625 44.140625 
Q 85.546875 44.140625 92.1875 44.53125 
L 92.1875 37.890625 
Q 85.546875 38.28125 78.515625 38.28125 
L 47.65625 38.28125 
L 47.65625 10.546875 
L 53.125 12.109375 
Q 53.125 8.59375 53.515625 6.25 
Q 50.390625 5.46875 47.65625 5.078125 
Q 47.65625 -1.953125 48.046875 -8.59375 
L 40.625 -8.59375 
Q 41.015625 -1.953125 41.015625 3.90625 
Q 36.71875 3.125 28.3125 1.359375 
Q 19.921875 -0.390625 10.15625 -2.734375 
Q 8.984375 1.5625 7.421875 4.296875 
z
M 79.6875 76.953125 
Q 79.296875 71.875 79.296875 67.578125 
L 79.296875 60.546875 
Q 79.296875 56.25 79.6875 50.78125 
L 19.921875 50.78125 
Q 20.3125 56.25 20.3125 60.546875 
L 20.3125 67.578125 
Q 20.3125 71.875 19.921875 76.953125 
L 79.6875 76.953125 
z
M 51.5625 32.03125 
Q 58.59375 31.640625 64.453125 31.640625 
L 83.984375 31.640625 
Q 79.6875 15.234375 73.828125 6.25 
Q 83.59375 0 92.578125 -1.5625 
Q 89.0625 -4.296875 88.28125 -7.8125 
Q 78.515625 -4.6875 69.921875 2.34375 
Q 64.84375 -3.125 56.25 -8.984375 
Q 54.6875 -6.640625 50.78125 -4.296875 
Q 58.984375 -1.5625 64.84375 5.46875 
Q 58.203125 12.109375 54.6875 26.171875 
L 51.5625 26.171875 
z
M 71.875 66.40625 
L 71.875 71.875 
L 27.34375 71.875 
L 27.34375 66.40625 
z
M 71.875 55.859375 
L 71.875 60.9375 
L 27.34375 60.9375 
L 27.34375 55.859375 
z
M 60.9375 26.171875 
Q 62.5 16.796875 68.75 9.765625 
Q 73.4375 16.40625 75.78125 26.171875 
L 60.9375 26.171875 
z
M 41.015625 19.53125 
L 41.015625 26.171875 
L 23.828125 26.171875 
L 23.828125 19.53125 
z
M 41.015625 8.984375 
L 41.015625 14.453125 
L 23.828125 14.453125 
L 23.828125 6.640625 
z
M 41.015625 31.640625 
L 41.015625 38.28125 
L 23.828125 38.28125 
L 23.828125 31.640625 
z
" id="SimHei-26368"/>
       <path d="M 45.3125 53.125 
Q 45.703125 66.796875 45.5 71.484375 
Q 45.3125 76.171875 44.921875 80.46875 
Q 49.609375 79.6875 55.46875 79.296875 
Q 54.296875 75.390625 53.703125 67.96875 
Q 53.125 60.546875 53.125 53.125 
L 73.046875 53.125 
Q 83.59375 53.125 92.578125 53.90625 
L 92.578125 45.3125 
Q 84.765625 45.703125 76.5625 45.703125 
L 53.515625 45.703125 
Q 55.078125 39.0625 58.984375 32.21875 
Q 62.890625 25.390625 66.984375 20.109375 
Q 71.09375 14.84375 78.3125 8.984375 
Q 85.546875 3.125 94.140625 -0.78125 
Q 91.015625 -3.125 87.890625 -8.59375 
Q 80.859375 -4.6875 74.015625 1.171875 
Q 67.1875 7.03125 60.34375 16.59375 
Q 53.515625 26.171875 50 34.375 
Q 46.875 25.78125 43.359375 20.109375 
Q 39.84375 14.453125 35.734375 9.765625 
Q 31.640625 5.078125 25.1875 0.390625 
Q 18.75 -4.296875 10.546875 -8.984375 
Q 7.421875 -4.296875 3.515625 -0.78125 
Q 11.71875 1.953125 19.71875 7.03125 
Q 27.734375 12.109375 32.8125 18.546875 
Q 37.890625 25 41.015625 32.03125 
Q 44.140625 39.0625 44.921875 45.703125 
L 23.4375 45.703125 
Q 14.0625 45.703125 8.59375 45.3125 
L 8.59375 53.90625 
Q 14.0625 53.515625 23.4375 53.125 
z
" id="SimHei-22823"/>
      </defs>
      <use xlink:href="#SimHei-24863"/>
      <use x="100" xlink:href="#SimHei-26579"/>
      <use x="200" xlink:href="#SimHei-32773"/>
      <use x="300" xlink:href="#SimHei-26368"/>
      <use x="400" xlink:href="#SimHei-22823"/>
      <use x="500" xlink:href="#SimHei-27604"/>
      <use x="600" xlink:href="#SimHei-20363"/>
     </g>
    </g>
   </g>
  </g>
 </g>
 <defs>
  <clipPath id="p7686a540ef">
   <rect height="266.112" width="357.12" x="57.6" y="41.472"/>
  </clipPath>
 </defs>
</svg>
